G04 EAGLE Gerber X2 export*
%TF.Part,Single*%
%TF.FileFunction,Other,Best?ckungsseite*%
%TF.FilePolarity,Positive*%
%TF.GenerationSoftware,Autodesk,EAGLE,9.0.1*%
%TF.CreationDate,2019-02-04T08:38:18Z*%
G75*
%MOMM*%
%FSLAX34Y34*%
%LPD*%
%AMOC8*
5,1,8,0,0,1.08239X$1,22.5*%
G01*
%ADD10C,1.625600*%
%ADD11P,1.539592X8X22.500000*%
%ADD12P,1.539592X8X202.500000*%
%ADD13P,1.759533X8X112.500000*%
%ADD14C,1.422400*%
%ADD15C,1.727200*%
%ADD16C,1.422400*%
%ADD17P,1.539592X8X112.500000*%
%ADD18P,1.539592X8X292.500000*%
%ADD19C,0.254000*%
%ADD20C,0.858000*%
%ADD21C,0.508000*%

G36*
X758178Y10179D02*
X758178Y10179D01*
X758323Y10194D01*
X758336Y10199D01*
X758349Y10201D01*
X758484Y10254D01*
X758621Y10305D01*
X758633Y10313D01*
X758645Y10318D01*
X758762Y10403D01*
X758883Y10486D01*
X758892Y10497D01*
X758902Y10504D01*
X758995Y10616D01*
X759091Y10727D01*
X759097Y10739D01*
X759105Y10749D01*
X759167Y10881D01*
X759232Y11012D01*
X759235Y11025D01*
X759241Y11037D01*
X759268Y11180D01*
X759299Y11323D01*
X759298Y11336D01*
X759301Y11349D01*
X759292Y11494D01*
X759286Y11640D01*
X759282Y11654D01*
X759281Y11667D01*
X759236Y11805D01*
X759194Y11945D01*
X759187Y11957D01*
X759183Y11969D01*
X759105Y12093D01*
X759029Y12217D01*
X759020Y12227D01*
X759013Y12238D01*
X758906Y12338D01*
X758803Y12440D01*
X758787Y12450D01*
X758781Y12456D01*
X758766Y12464D01*
X758668Y12529D01*
X756181Y13965D01*
X750565Y19581D01*
X746595Y26458D01*
X744539Y34129D01*
X744539Y42071D01*
X746595Y49742D01*
X750565Y56619D01*
X756181Y62235D01*
X763058Y66205D01*
X770729Y68261D01*
X778671Y68261D01*
X786342Y66205D01*
X793219Y62235D01*
X798835Y56619D01*
X800071Y54478D01*
X800159Y54362D01*
X800244Y54244D01*
X800255Y54235D01*
X800263Y54225D01*
X800378Y54134D01*
X800489Y54041D01*
X800502Y54035D01*
X800512Y54027D01*
X800646Y53967D01*
X800777Y53906D01*
X800790Y53903D01*
X800803Y53898D01*
X800948Y53873D01*
X801090Y53846D01*
X801103Y53847D01*
X801116Y53844D01*
X801262Y53857D01*
X801407Y53866D01*
X801420Y53870D01*
X801433Y53871D01*
X801571Y53919D01*
X801709Y53964D01*
X801721Y53971D01*
X801734Y53975D01*
X801855Y54056D01*
X801978Y54134D01*
X801987Y54144D01*
X801999Y54151D01*
X802096Y54259D01*
X802196Y54365D01*
X802203Y54377D01*
X802212Y54387D01*
X802279Y54517D01*
X802350Y54644D01*
X802353Y54657D01*
X802359Y54669D01*
X802393Y54811D01*
X802429Y54952D01*
X802430Y54970D01*
X802432Y54978D01*
X802432Y54996D01*
X802439Y55113D01*
X802439Y376687D01*
X802421Y376832D01*
X802406Y376977D01*
X802401Y376990D01*
X802399Y377003D01*
X802346Y377138D01*
X802295Y377275D01*
X802287Y377286D01*
X802282Y377299D01*
X802197Y377416D01*
X802114Y377536D01*
X802104Y377545D01*
X802096Y377556D01*
X801983Y377649D01*
X801873Y377744D01*
X801861Y377750D01*
X801851Y377759D01*
X801719Y377821D01*
X801588Y377886D01*
X801575Y377889D01*
X801563Y377894D01*
X801420Y377922D01*
X801277Y377952D01*
X801264Y377952D01*
X801251Y377954D01*
X801106Y377945D01*
X800960Y377939D01*
X800946Y377935D01*
X800933Y377934D01*
X800795Y377890D01*
X800655Y377848D01*
X800643Y377841D01*
X800631Y377836D01*
X800507Y377758D01*
X800383Y377683D01*
X800373Y377673D01*
X800362Y377666D01*
X800262Y377560D01*
X800160Y377456D01*
X800150Y377441D01*
X800144Y377435D01*
X800136Y377420D01*
X800071Y377322D01*
X798835Y375181D01*
X793219Y369565D01*
X786342Y365595D01*
X778671Y363539D01*
X770729Y363539D01*
X763058Y365595D01*
X756181Y369565D01*
X750565Y375181D01*
X746595Y382058D01*
X744539Y389729D01*
X744539Y397671D01*
X746595Y405342D01*
X750565Y412219D01*
X754519Y416173D01*
X754604Y416282D01*
X754693Y416389D01*
X754701Y416408D01*
X754714Y416424D01*
X754769Y416552D01*
X754828Y416677D01*
X754832Y416697D01*
X754840Y416716D01*
X754862Y416854D01*
X754888Y416990D01*
X754887Y417010D01*
X754890Y417030D01*
X754877Y417169D01*
X754868Y417307D01*
X754862Y417326D01*
X754860Y417346D01*
X754813Y417478D01*
X754770Y417609D01*
X754759Y417627D01*
X754753Y417646D01*
X754674Y417761D01*
X754600Y417878D01*
X754585Y417892D01*
X754574Y417909D01*
X754470Y418001D01*
X754368Y418096D01*
X754351Y418106D01*
X754336Y418119D01*
X754211Y418183D01*
X754090Y418250D01*
X754070Y418255D01*
X754052Y418264D01*
X753916Y418294D01*
X753782Y418329D01*
X753754Y418331D01*
X753742Y418334D01*
X753721Y418333D01*
X753621Y418339D01*
X59179Y418339D01*
X59041Y418322D01*
X58902Y418309D01*
X58883Y418302D01*
X58863Y418299D01*
X58734Y418248D01*
X58603Y418201D01*
X58586Y418190D01*
X58567Y418182D01*
X58455Y418101D01*
X58340Y418023D01*
X58327Y418007D01*
X58310Y417996D01*
X58221Y417888D01*
X58129Y417784D01*
X58120Y417766D01*
X58107Y417751D01*
X58048Y417625D01*
X57985Y417501D01*
X57980Y417481D01*
X57972Y417463D01*
X57946Y417327D01*
X57915Y417191D01*
X57916Y417170D01*
X57912Y417151D01*
X57921Y417012D01*
X57925Y416873D01*
X57931Y416853D01*
X57932Y416833D01*
X57975Y416701D01*
X58013Y416567D01*
X58024Y416550D01*
X58030Y416531D01*
X58104Y416413D01*
X58175Y416293D01*
X58193Y416272D01*
X58200Y416262D01*
X58215Y416248D01*
X58281Y416173D01*
X62235Y412219D01*
X66205Y405342D01*
X68261Y397671D01*
X68261Y389729D01*
X66205Y382058D01*
X62235Y375181D01*
X56619Y369565D01*
X49742Y365595D01*
X42071Y363539D01*
X34129Y363539D01*
X26458Y365595D01*
X19581Y369565D01*
X13965Y375181D01*
X12529Y377668D01*
X12445Y377779D01*
X12443Y377782D01*
X12442Y377783D01*
X12441Y377784D01*
X12356Y377902D01*
X12345Y377911D01*
X12337Y377922D01*
X12223Y378012D01*
X12111Y378105D01*
X12098Y378111D01*
X12088Y378119D01*
X11954Y378179D01*
X11823Y378241D01*
X11810Y378243D01*
X11797Y378249D01*
X11652Y378273D01*
X11510Y378301D01*
X11497Y378300D01*
X11484Y378302D01*
X11338Y378290D01*
X11193Y378281D01*
X11180Y378277D01*
X11167Y378276D01*
X11029Y378228D01*
X10891Y378183D01*
X10879Y378176D01*
X10866Y378171D01*
X10745Y378091D01*
X10622Y378013D01*
X10613Y378003D01*
X10601Y377995D01*
X10504Y377887D01*
X10404Y377781D01*
X10397Y377769D01*
X10388Y377759D01*
X10321Y377630D01*
X10250Y377503D01*
X10247Y377489D01*
X10241Y377477D01*
X10207Y377335D01*
X10171Y377195D01*
X10170Y377176D01*
X10168Y377168D01*
X10168Y377151D01*
X10161Y377034D01*
X10161Y54766D01*
X10179Y54622D01*
X10194Y54477D01*
X10199Y54464D01*
X10201Y54451D01*
X10254Y54316D01*
X10305Y54179D01*
X10313Y54167D01*
X10318Y54155D01*
X10403Y54038D01*
X10486Y53917D01*
X10497Y53908D01*
X10504Y53898D01*
X10616Y53805D01*
X10727Y53709D01*
X10739Y53703D01*
X10749Y53695D01*
X10881Y53633D01*
X11012Y53568D01*
X11025Y53565D01*
X11037Y53559D01*
X11180Y53532D01*
X11323Y53501D01*
X11336Y53502D01*
X11349Y53499D01*
X11494Y53508D01*
X11640Y53514D01*
X11654Y53518D01*
X11667Y53519D01*
X11805Y53564D01*
X11945Y53606D01*
X11957Y53613D01*
X11969Y53617D01*
X12093Y53695D01*
X12217Y53771D01*
X12227Y53780D01*
X12238Y53787D01*
X12338Y53894D01*
X12440Y53997D01*
X12450Y54013D01*
X12456Y54019D01*
X12464Y54034D01*
X12529Y54132D01*
X13965Y56619D01*
X19581Y62235D01*
X26458Y66205D01*
X34129Y68261D01*
X42071Y68261D01*
X49742Y66205D01*
X56619Y62235D01*
X62235Y56619D01*
X66205Y49742D01*
X68261Y42071D01*
X68261Y34129D01*
X66205Y26458D01*
X62235Y19581D01*
X56619Y13965D01*
X54132Y12529D01*
X54016Y12441D01*
X53898Y12356D01*
X53889Y12345D01*
X53878Y12337D01*
X53788Y12223D01*
X53695Y12111D01*
X53689Y12098D01*
X53681Y12088D01*
X53621Y11954D01*
X53559Y11823D01*
X53557Y11810D01*
X53551Y11797D01*
X53527Y11652D01*
X53499Y11510D01*
X53500Y11497D01*
X53498Y11484D01*
X53510Y11338D01*
X53519Y11193D01*
X53523Y11180D01*
X53524Y11167D01*
X53572Y11029D01*
X53617Y10891D01*
X53624Y10879D01*
X53629Y10866D01*
X53709Y10745D01*
X53787Y10622D01*
X53797Y10613D01*
X53805Y10601D01*
X53913Y10504D01*
X54019Y10404D01*
X54031Y10397D01*
X54041Y10388D01*
X54170Y10321D01*
X54297Y10250D01*
X54311Y10247D01*
X54323Y10241D01*
X54465Y10207D01*
X54605Y10171D01*
X54624Y10170D01*
X54632Y10168D01*
X54649Y10168D01*
X54766Y10161D01*
X758034Y10161D01*
X758178Y10179D01*
G37*
%LPC*%
G36*
X396049Y77723D02*
X396049Y77723D01*
X391941Y79425D01*
X388797Y82569D01*
X388288Y83798D01*
X388273Y83823D01*
X388264Y83851D01*
X388194Y83961D01*
X388130Y84074D01*
X388110Y84095D01*
X388094Y84120D01*
X387999Y84209D01*
X387909Y84302D01*
X387884Y84318D01*
X387862Y84338D01*
X387749Y84401D01*
X387638Y84469D01*
X387610Y84477D01*
X387584Y84492D01*
X387458Y84524D01*
X387334Y84562D01*
X387304Y84564D01*
X387276Y84571D01*
X387115Y84581D01*
X137911Y84581D01*
X118358Y104135D01*
X118334Y104153D01*
X118315Y104175D01*
X118209Y104250D01*
X118106Y104330D01*
X118079Y104341D01*
X118055Y104358D01*
X117934Y104404D01*
X117815Y104456D01*
X117785Y104461D01*
X117758Y104471D01*
X117629Y104486D01*
X117500Y104506D01*
X117471Y104503D01*
X117442Y104506D01*
X117313Y104488D01*
X117184Y104476D01*
X117156Y104466D01*
X117127Y104462D01*
X116974Y104410D01*
X116321Y104139D01*
X112279Y104139D01*
X108544Y105686D01*
X105686Y108544D01*
X104139Y112279D01*
X104139Y116321D01*
X105686Y120056D01*
X108544Y122914D01*
X112279Y124461D01*
X116321Y124461D01*
X120056Y122914D01*
X122914Y120056D01*
X124461Y116321D01*
X124461Y112279D01*
X124190Y111626D01*
X124182Y111597D01*
X124169Y111571D01*
X124140Y111444D01*
X124106Y111319D01*
X124106Y111289D01*
X124099Y111261D01*
X124103Y111131D01*
X124101Y111001D01*
X124108Y110972D01*
X124109Y110943D01*
X124145Y110818D01*
X124175Y110692D01*
X124189Y110665D01*
X124197Y110637D01*
X124263Y110526D01*
X124324Y110410D01*
X124344Y110389D01*
X124359Y110363D01*
X124465Y110242D01*
X141117Y93590D01*
X141195Y93530D01*
X141268Y93462D01*
X141321Y93433D01*
X141368Y93396D01*
X141459Y93356D01*
X141546Y93308D01*
X141605Y93293D01*
X141660Y93269D01*
X141758Y93254D01*
X141854Y93229D01*
X141954Y93223D01*
X141974Y93219D01*
X141987Y93221D01*
X142015Y93219D01*
X278609Y93219D01*
X278747Y93236D01*
X278886Y93249D01*
X278905Y93256D01*
X278925Y93259D01*
X279054Y93310D01*
X279185Y93357D01*
X279202Y93368D01*
X279221Y93376D01*
X279333Y93457D01*
X279448Y93535D01*
X279462Y93551D01*
X279478Y93562D01*
X279567Y93670D01*
X279659Y93774D01*
X279668Y93792D01*
X279681Y93807D01*
X279740Y93933D01*
X279803Y94057D01*
X279808Y94077D01*
X279816Y94095D01*
X279842Y94231D01*
X279873Y94367D01*
X279872Y94388D01*
X279876Y94407D01*
X279867Y94546D01*
X279863Y94685D01*
X279858Y94705D01*
X279856Y94725D01*
X279814Y94857D01*
X279775Y94991D01*
X279765Y95008D01*
X279758Y95027D01*
X279684Y95145D01*
X279613Y95265D01*
X279595Y95286D01*
X279588Y95296D01*
X279573Y95310D01*
X279507Y95385D01*
X270758Y104135D01*
X270734Y104153D01*
X270715Y104175D01*
X270609Y104250D01*
X270506Y104330D01*
X270479Y104341D01*
X270455Y104358D01*
X270334Y104404D01*
X270215Y104456D01*
X270185Y104461D01*
X270158Y104471D01*
X270029Y104486D01*
X269900Y104506D01*
X269871Y104503D01*
X269842Y104506D01*
X269713Y104488D01*
X269584Y104476D01*
X269556Y104466D01*
X269527Y104462D01*
X269374Y104410D01*
X268721Y104139D01*
X264679Y104139D01*
X260944Y105686D01*
X258086Y108544D01*
X256539Y112279D01*
X256539Y116321D01*
X258086Y120056D01*
X258545Y120514D01*
X258630Y120624D01*
X258719Y120731D01*
X258728Y120750D01*
X258740Y120766D01*
X258795Y120894D01*
X258854Y121019D01*
X258858Y121039D01*
X258866Y121058D01*
X258888Y121196D01*
X258914Y121332D01*
X258913Y121352D01*
X258916Y121372D01*
X258903Y121511D01*
X258895Y121649D01*
X258888Y121668D01*
X258886Y121688D01*
X258839Y121819D01*
X258796Y121951D01*
X258786Y121969D01*
X258779Y121988D01*
X258701Y122102D01*
X258626Y122220D01*
X258612Y122234D01*
X258600Y122251D01*
X258496Y122343D01*
X258395Y122438D01*
X258377Y122448D01*
X258362Y122461D01*
X258238Y122524D01*
X258116Y122592D01*
X258097Y122597D01*
X258079Y122606D01*
X257943Y122636D01*
X257808Y122671D01*
X257780Y122673D01*
X257768Y122676D01*
X257748Y122675D01*
X257648Y122681D01*
X250352Y122681D01*
X250214Y122664D01*
X250076Y122651D01*
X250057Y122644D01*
X250037Y122641D01*
X249907Y122590D01*
X249777Y122543D01*
X249760Y122532D01*
X249741Y122524D01*
X249629Y122443D01*
X249514Y122365D01*
X249500Y122349D01*
X249484Y122338D01*
X249395Y122230D01*
X249303Y122126D01*
X249294Y122108D01*
X249281Y122093D01*
X249222Y121967D01*
X249159Y121843D01*
X249154Y121823D01*
X249146Y121805D01*
X249119Y121668D01*
X249089Y121533D01*
X249090Y121512D01*
X249086Y121493D01*
X249094Y121354D01*
X249099Y121215D01*
X249104Y121195D01*
X249105Y121175D01*
X249148Y121043D01*
X249187Y120909D01*
X249197Y120892D01*
X249204Y120873D01*
X249278Y120755D01*
X249349Y120635D01*
X249367Y120614D01*
X249374Y120604D01*
X249389Y120590D01*
X249455Y120514D01*
X249914Y120056D01*
X251461Y116321D01*
X251461Y112279D01*
X249914Y108544D01*
X247056Y105686D01*
X243321Y104139D01*
X239279Y104139D01*
X235544Y105686D01*
X232686Y108544D01*
X232416Y109198D01*
X232401Y109223D01*
X232392Y109251D01*
X232322Y109361D01*
X232258Y109474D01*
X232237Y109495D01*
X232222Y109520D01*
X232127Y109609D01*
X232037Y109702D01*
X232012Y109718D01*
X231990Y109738D01*
X231876Y109801D01*
X231766Y109869D01*
X231737Y109877D01*
X231712Y109892D01*
X231586Y109924D01*
X231462Y109962D01*
X231432Y109964D01*
X231404Y109971D01*
X231243Y109981D01*
X209786Y109981D01*
X209687Y109969D01*
X209588Y109966D01*
X209530Y109949D01*
X209470Y109941D01*
X209378Y109905D01*
X209283Y109877D01*
X209231Y109847D01*
X209174Y109824D01*
X209094Y109766D01*
X209009Y109716D01*
X208933Y109650D01*
X208917Y109638D01*
X208909Y109628D01*
X208888Y109610D01*
X207357Y108079D01*
X204660Y106961D01*
X201740Y106961D01*
X199043Y108079D01*
X196979Y110143D01*
X195861Y112840D01*
X195861Y115760D01*
X196979Y118457D01*
X199036Y120515D01*
X199121Y120624D01*
X199210Y120731D01*
X199219Y120750D01*
X199231Y120766D01*
X199286Y120894D01*
X199345Y121019D01*
X199349Y121039D01*
X199357Y121058D01*
X199379Y121196D01*
X199405Y121332D01*
X199404Y121352D01*
X199407Y121372D01*
X199394Y121511D01*
X199385Y121649D01*
X199379Y121668D01*
X199377Y121688D01*
X199330Y121820D01*
X199287Y121951D01*
X199277Y121969D01*
X199270Y121988D01*
X199192Y122103D01*
X199117Y122220D01*
X199102Y122234D01*
X199091Y122251D01*
X198987Y122343D01*
X198886Y122438D01*
X198868Y122448D01*
X198853Y122461D01*
X198729Y122525D01*
X198607Y122592D01*
X198588Y122597D01*
X198569Y122606D01*
X198434Y122636D01*
X198299Y122671D01*
X198271Y122673D01*
X198259Y122676D01*
X198239Y122675D01*
X198139Y122681D01*
X180115Y122681D01*
X180016Y122669D01*
X179917Y122666D01*
X179859Y122649D01*
X179799Y122641D01*
X179707Y122605D01*
X179612Y122577D01*
X179560Y122547D01*
X179503Y122524D01*
X179423Y122466D01*
X179338Y122416D01*
X179263Y122350D01*
X179246Y122338D01*
X179238Y122328D01*
X179217Y122310D01*
X175265Y118358D01*
X175247Y118334D01*
X175225Y118315D01*
X175150Y118209D01*
X175070Y118106D01*
X175059Y118079D01*
X175042Y118055D01*
X174996Y117934D01*
X174944Y117815D01*
X174939Y117785D01*
X174929Y117758D01*
X174914Y117629D01*
X174894Y117500D01*
X174897Y117471D01*
X174894Y117442D01*
X174912Y117313D01*
X174924Y117184D01*
X174934Y117156D01*
X174938Y117127D01*
X174990Y116974D01*
X175261Y116321D01*
X175261Y112279D01*
X173714Y108544D01*
X170856Y105686D01*
X167121Y104139D01*
X163079Y104139D01*
X159344Y105686D01*
X156486Y108544D01*
X154939Y112279D01*
X154939Y116321D01*
X156486Y120056D01*
X159344Y122914D01*
X163079Y124461D01*
X167121Y124461D01*
X167774Y124190D01*
X167803Y124182D01*
X167829Y124169D01*
X167956Y124140D01*
X168081Y124106D01*
X168111Y124106D01*
X168139Y124099D01*
X168269Y124103D01*
X168399Y124101D01*
X168428Y124108D01*
X168457Y124109D01*
X168582Y124145D01*
X168708Y124175D01*
X168735Y124189D01*
X168763Y124197D01*
X168874Y124263D01*
X168990Y124324D01*
X169011Y124344D01*
X169037Y124359D01*
X169158Y124465D01*
X176011Y131319D01*
X236239Y131319D01*
X236377Y131336D01*
X236515Y131349D01*
X236534Y131356D01*
X236554Y131359D01*
X236683Y131410D01*
X236814Y131457D01*
X236831Y131468D01*
X236850Y131476D01*
X236962Y131557D01*
X237077Y131635D01*
X237091Y131651D01*
X237107Y131662D01*
X237196Y131770D01*
X237288Y131874D01*
X237297Y131892D01*
X237310Y131907D01*
X237369Y132033D01*
X237432Y132157D01*
X237437Y132177D01*
X237445Y132195D01*
X237472Y132332D01*
X237502Y132467D01*
X237501Y132488D01*
X237505Y132507D01*
X237497Y132646D01*
X237492Y132785D01*
X237487Y132805D01*
X237485Y132825D01*
X237443Y132957D01*
X237404Y133091D01*
X237394Y133108D01*
X237387Y133127D01*
X237313Y133245D01*
X237242Y133365D01*
X237224Y133386D01*
X237217Y133396D01*
X237202Y133410D01*
X237136Y133485D01*
X235612Y135010D01*
X235534Y135070D01*
X235462Y135138D01*
X235409Y135167D01*
X235361Y135204D01*
X235270Y135244D01*
X235183Y135292D01*
X235124Y135307D01*
X235069Y135331D01*
X234971Y135346D01*
X234875Y135371D01*
X234775Y135377D01*
X234755Y135381D01*
X234742Y135379D01*
X234714Y135381D01*
X150611Y135381D01*
X122884Y163108D01*
X122790Y163181D01*
X122701Y163260D01*
X122665Y163278D01*
X122633Y163303D01*
X122524Y163350D01*
X122418Y163404D01*
X122378Y163413D01*
X122341Y163429D01*
X122223Y163448D01*
X122108Y163474D01*
X122067Y163473D01*
X122027Y163479D01*
X121909Y163468D01*
X121790Y163464D01*
X121751Y163453D01*
X121711Y163449D01*
X121599Y163409D01*
X121484Y163376D01*
X121449Y163355D01*
X121411Y163342D01*
X121313Y163275D01*
X121210Y163214D01*
X121165Y163175D01*
X121148Y163163D01*
X121135Y163148D01*
X121089Y163108D01*
X120056Y162074D01*
X116321Y160527D01*
X112279Y160527D01*
X108544Y162074D01*
X105686Y164932D01*
X104139Y168667D01*
X104139Y186933D01*
X105686Y190668D01*
X108544Y193526D01*
X112279Y195073D01*
X116321Y195073D01*
X120056Y193526D01*
X122914Y190668D01*
X124461Y186933D01*
X124461Y174273D01*
X124473Y174174D01*
X124476Y174075D01*
X124493Y174017D01*
X124501Y173957D01*
X124537Y173865D01*
X124565Y173770D01*
X124595Y173718D01*
X124618Y173661D01*
X124676Y173581D01*
X124726Y173496D01*
X124792Y173421D01*
X124804Y173404D01*
X124814Y173396D01*
X124832Y173375D01*
X127373Y170835D01*
X127482Y170750D01*
X127589Y170661D01*
X127608Y170653D01*
X127624Y170640D01*
X127752Y170585D01*
X127877Y170526D01*
X127897Y170522D01*
X127916Y170514D01*
X128054Y170492D01*
X128190Y170466D01*
X128210Y170467D01*
X128230Y170464D01*
X128369Y170477D01*
X128507Y170486D01*
X128526Y170492D01*
X128546Y170494D01*
X128678Y170541D01*
X128809Y170584D01*
X128827Y170594D01*
X128846Y170601D01*
X128961Y170679D01*
X129078Y170754D01*
X129092Y170769D01*
X129109Y170780D01*
X129201Y170884D01*
X129296Y170985D01*
X129306Y171003D01*
X129319Y171018D01*
X129383Y171142D01*
X129450Y171264D01*
X129455Y171284D01*
X129464Y171302D01*
X129494Y171437D01*
X129529Y171572D01*
X129531Y171600D01*
X129534Y171612D01*
X129533Y171632D01*
X129539Y171733D01*
X129539Y186933D01*
X131086Y190668D01*
X133944Y193526D01*
X137679Y195073D01*
X141721Y195073D01*
X145456Y193526D01*
X148314Y190668D01*
X149861Y186933D01*
X149861Y174273D01*
X149873Y174174D01*
X149876Y174075D01*
X149893Y174017D01*
X149901Y173957D01*
X149937Y173865D01*
X149965Y173770D01*
X149995Y173718D01*
X150018Y173661D01*
X150076Y173581D01*
X150126Y173496D01*
X150192Y173421D01*
X150204Y173404D01*
X150214Y173396D01*
X150232Y173375D01*
X152773Y170835D01*
X152882Y170750D01*
X152989Y170661D01*
X153008Y170653D01*
X153024Y170640D01*
X153152Y170585D01*
X153277Y170526D01*
X153297Y170522D01*
X153316Y170514D01*
X153454Y170492D01*
X153590Y170466D01*
X153610Y170467D01*
X153630Y170464D01*
X153769Y170477D01*
X153907Y170486D01*
X153926Y170492D01*
X153946Y170494D01*
X154078Y170541D01*
X154209Y170584D01*
X154227Y170594D01*
X154246Y170601D01*
X154361Y170679D01*
X154478Y170754D01*
X154492Y170769D01*
X154509Y170780D01*
X154601Y170884D01*
X154696Y170985D01*
X154706Y171003D01*
X154719Y171018D01*
X154783Y171142D01*
X154850Y171264D01*
X154855Y171284D01*
X154864Y171302D01*
X154894Y171437D01*
X154929Y171572D01*
X154931Y171600D01*
X154934Y171612D01*
X154933Y171632D01*
X154939Y171733D01*
X154939Y186933D01*
X156486Y190668D01*
X159344Y193526D01*
X163079Y195073D01*
X167121Y195073D01*
X170856Y193526D01*
X171889Y192492D01*
X171983Y192419D01*
X172073Y192340D01*
X172109Y192322D01*
X172141Y192297D01*
X172250Y192250D01*
X172356Y192196D01*
X172395Y192187D01*
X172433Y192171D01*
X172550Y192152D01*
X172666Y192126D01*
X172707Y192127D01*
X172747Y192121D01*
X172865Y192132D01*
X172984Y192136D01*
X173023Y192147D01*
X173063Y192151D01*
X173175Y192191D01*
X173290Y192224D01*
X173324Y192245D01*
X173363Y192258D01*
X173461Y192325D01*
X173564Y192386D01*
X173609Y192425D01*
X173626Y192437D01*
X173639Y192452D01*
X173684Y192492D01*
X188711Y207519D01*
X238985Y207519D01*
X239084Y207531D01*
X239183Y207534D01*
X239241Y207551D01*
X239301Y207559D01*
X239393Y207595D01*
X239488Y207623D01*
X239540Y207653D01*
X239597Y207676D01*
X239677Y207734D01*
X239762Y207784D01*
X239837Y207850D01*
X239854Y207862D01*
X239862Y207872D01*
X239883Y207890D01*
X264911Y232919D01*
X323614Y232919D01*
X323713Y232931D01*
X323812Y232934D01*
X323870Y232951D01*
X323930Y232959D01*
X324022Y232995D01*
X324117Y233023D01*
X324169Y233053D01*
X324226Y233076D01*
X324306Y233134D01*
X324391Y233184D01*
X324467Y233250D01*
X324483Y233262D01*
X324491Y233272D01*
X324512Y233290D01*
X326043Y234821D01*
X328740Y235939D01*
X331660Y235939D01*
X334357Y234821D01*
X336421Y232757D01*
X337539Y230060D01*
X337539Y227140D01*
X336421Y224443D01*
X334357Y222379D01*
X331660Y221261D01*
X328740Y221261D01*
X326043Y222379D01*
X324512Y223910D01*
X324434Y223970D01*
X324362Y224038D01*
X324309Y224067D01*
X324261Y224104D01*
X324170Y224144D01*
X324083Y224192D01*
X324025Y224207D01*
X323969Y224231D01*
X323871Y224246D01*
X323775Y224271D01*
X323675Y224277D01*
X323655Y224281D01*
X323642Y224279D01*
X323614Y224281D01*
X269015Y224281D01*
X268916Y224269D01*
X268817Y224266D01*
X268759Y224249D01*
X268699Y224241D01*
X268607Y224205D01*
X268512Y224177D01*
X268460Y224147D01*
X268403Y224124D01*
X268323Y224066D01*
X268238Y224016D01*
X268163Y223950D01*
X268146Y223938D01*
X268138Y223928D01*
X268117Y223910D01*
X243089Y198881D01*
X192815Y198881D01*
X192716Y198869D01*
X192617Y198866D01*
X192559Y198849D01*
X192499Y198841D01*
X192407Y198805D01*
X192312Y198777D01*
X192260Y198747D01*
X192203Y198724D01*
X192123Y198666D01*
X192038Y198616D01*
X191963Y198550D01*
X191946Y198538D01*
X191938Y198528D01*
X191917Y198510D01*
X188840Y195433D01*
X188780Y195355D01*
X188712Y195282D01*
X188683Y195229D01*
X188646Y195182D01*
X188606Y195091D01*
X188558Y195004D01*
X188543Y194945D01*
X188519Y194890D01*
X188504Y194792D01*
X188479Y194696D01*
X188473Y194596D01*
X188469Y194576D01*
X188470Y194563D01*
X188469Y194535D01*
X188469Y179831D01*
X180847Y179831D01*
X180847Y184375D01*
X180830Y184513D01*
X180817Y184652D01*
X180810Y184671D01*
X180807Y184691D01*
X180756Y184820D01*
X180709Y184951D01*
X180698Y184968D01*
X180690Y184987D01*
X180609Y185099D01*
X180531Y185214D01*
X180515Y185228D01*
X180504Y185244D01*
X180396Y185333D01*
X180292Y185425D01*
X180274Y185434D01*
X180259Y185447D01*
X180133Y185506D01*
X180009Y185569D01*
X179989Y185574D01*
X179971Y185582D01*
X179835Y185608D01*
X179699Y185639D01*
X179678Y185638D01*
X179659Y185642D01*
X179520Y185633D01*
X179381Y185629D01*
X179361Y185624D01*
X179341Y185622D01*
X179209Y185580D01*
X179075Y185541D01*
X179058Y185531D01*
X179039Y185524D01*
X178921Y185450D01*
X178801Y185379D01*
X178780Y185361D01*
X178770Y185354D01*
X178756Y185339D01*
X178681Y185273D01*
X175632Y182225D01*
X175572Y182147D01*
X175504Y182074D01*
X175475Y182021D01*
X175438Y181974D01*
X175398Y181883D01*
X175350Y181796D01*
X175335Y181737D01*
X175311Y181682D01*
X175296Y181584D01*
X175271Y181488D01*
X175265Y181388D01*
X175261Y181368D01*
X175263Y181355D01*
X175261Y181327D01*
X175261Y168667D01*
X173714Y164932D01*
X170856Y162074D01*
X167121Y160527D01*
X166145Y160527D01*
X166007Y160510D01*
X165868Y160497D01*
X165849Y160490D01*
X165829Y160487D01*
X165700Y160436D01*
X165569Y160389D01*
X165552Y160378D01*
X165533Y160370D01*
X165421Y160289D01*
X165306Y160211D01*
X165292Y160195D01*
X165276Y160184D01*
X165187Y160076D01*
X165095Y159972D01*
X165086Y159954D01*
X165073Y159939D01*
X165014Y159813D01*
X164951Y159689D01*
X164946Y159669D01*
X164938Y159651D01*
X164912Y159514D01*
X164881Y159379D01*
X164882Y159358D01*
X164878Y159339D01*
X164887Y159200D01*
X164891Y159061D01*
X164896Y159041D01*
X164898Y159021D01*
X164941Y158889D01*
X164979Y158755D01*
X164989Y158738D01*
X164996Y158719D01*
X165070Y158601D01*
X165141Y158481D01*
X165159Y158460D01*
X165166Y158450D01*
X165181Y158436D01*
X165247Y158361D01*
X166517Y157090D01*
X166595Y157030D01*
X166668Y156962D01*
X166721Y156933D01*
X166768Y156896D01*
X166859Y156856D01*
X166946Y156808D01*
X167005Y156793D01*
X167060Y156769D01*
X167158Y156754D01*
X167254Y156729D01*
X167354Y156723D01*
X167374Y156719D01*
X167387Y156721D01*
X167415Y156719D01*
X183914Y156719D01*
X184013Y156731D01*
X184112Y156734D01*
X184170Y156751D01*
X184230Y156759D01*
X184322Y156795D01*
X184417Y156823D01*
X184469Y156853D01*
X184526Y156876D01*
X184606Y156934D01*
X184691Y156984D01*
X184767Y157050D01*
X184783Y157062D01*
X184791Y157072D01*
X184812Y157090D01*
X186343Y158621D01*
X187585Y159136D01*
X187611Y159151D01*
X187640Y159160D01*
X187749Y159230D01*
X187862Y159294D01*
X187883Y159314D01*
X187908Y159330D01*
X187997Y159425D01*
X188090Y159515D01*
X188106Y159540D01*
X188126Y159562D01*
X188189Y159676D01*
X188256Y159786D01*
X188265Y159815D01*
X188280Y159841D01*
X188312Y159966D01*
X188350Y160090D01*
X188351Y160120D01*
X188359Y160149D01*
X188359Y160278D01*
X188365Y160408D01*
X188359Y160437D01*
X188359Y160467D01*
X188327Y160592D01*
X188301Y160719D01*
X188288Y160746D01*
X188280Y160775D01*
X188218Y160889D01*
X188161Y161005D01*
X188142Y161028D01*
X188127Y161054D01*
X188039Y161148D01*
X187955Y161247D01*
X187930Y161264D01*
X187910Y161286D01*
X187801Y161355D01*
X187695Y161430D01*
X187667Y161441D01*
X187642Y161457D01*
X187492Y161516D01*
X186795Y161742D01*
X185441Y162432D01*
X184212Y163325D01*
X183137Y164400D01*
X182244Y165629D01*
X181554Y166983D01*
X181085Y168428D01*
X180847Y169928D01*
X180847Y175769D01*
X189738Y175769D01*
X189856Y175784D01*
X189975Y175791D01*
X190013Y175803D01*
X190053Y175809D01*
X190164Y175852D01*
X190277Y175889D01*
X190311Y175911D01*
X190349Y175926D01*
X190445Y175995D01*
X190497Y176028D01*
X190515Y176012D01*
X190550Y175992D01*
X190582Y175967D01*
X190689Y175916D01*
X190794Y175858D01*
X190833Y175848D01*
X190869Y175831D01*
X190986Y175809D01*
X191102Y175779D01*
X191162Y175775D01*
X191182Y175771D01*
X191202Y175773D01*
X191262Y175769D01*
X200153Y175769D01*
X200153Y169928D01*
X199915Y168428D01*
X199446Y166983D01*
X198756Y165629D01*
X197863Y164400D01*
X196788Y163325D01*
X195559Y162432D01*
X194205Y161742D01*
X193508Y161516D01*
X193481Y161503D01*
X193452Y161496D01*
X193337Y161436D01*
X193220Y161381D01*
X193197Y161362D01*
X193171Y161348D01*
X193075Y161260D01*
X192975Y161178D01*
X192958Y161154D01*
X192936Y161134D01*
X192864Y161025D01*
X192788Y160921D01*
X192777Y160893D01*
X192761Y160868D01*
X192719Y160745D01*
X192671Y160625D01*
X192667Y160595D01*
X192658Y160567D01*
X192647Y160438D01*
X192631Y160309D01*
X192635Y160280D01*
X192632Y160250D01*
X192654Y160123D01*
X192671Y159994D01*
X192682Y159966D01*
X192687Y159937D01*
X192740Y159819D01*
X192788Y159698D01*
X192805Y159674D01*
X192817Y159647D01*
X192898Y159545D01*
X192974Y159441D01*
X192997Y159422D01*
X193016Y159398D01*
X193119Y159320D01*
X193219Y159238D01*
X193246Y159225D01*
X193270Y159207D01*
X193415Y159136D01*
X194657Y158621D01*
X196721Y156557D01*
X197839Y153860D01*
X197839Y150940D01*
X196721Y148243D01*
X194664Y146185D01*
X194579Y146076D01*
X194490Y145969D01*
X194481Y145950D01*
X194469Y145934D01*
X194414Y145806D01*
X194355Y145681D01*
X194351Y145661D01*
X194343Y145642D01*
X194321Y145504D01*
X194295Y145368D01*
X194296Y145348D01*
X194293Y145328D01*
X194306Y145189D01*
X194315Y145051D01*
X194321Y145032D01*
X194323Y145012D01*
X194370Y144880D01*
X194413Y144749D01*
X194423Y144731D01*
X194430Y144712D01*
X194508Y144597D01*
X194583Y144480D01*
X194598Y144466D01*
X194609Y144449D01*
X194713Y144357D01*
X194814Y144262D01*
X194832Y144252D01*
X194847Y144239D01*
X194971Y144175D01*
X195093Y144108D01*
X195112Y144103D01*
X195131Y144094D01*
X195266Y144064D01*
X195401Y144029D01*
X195429Y144027D01*
X195441Y144024D01*
X195461Y144025D01*
X195561Y144019D01*
X234714Y144019D01*
X234813Y144031D01*
X234912Y144034D01*
X234970Y144051D01*
X235030Y144059D01*
X235122Y144095D01*
X235217Y144123D01*
X235269Y144153D01*
X235326Y144176D01*
X235406Y144234D01*
X235491Y144284D01*
X235567Y144350D01*
X235583Y144362D01*
X235591Y144372D01*
X235612Y144390D01*
X237143Y145921D01*
X239840Y147039D01*
X242760Y147039D01*
X245457Y145921D01*
X247521Y143857D01*
X248639Y141160D01*
X248639Y138240D01*
X247521Y135543D01*
X245464Y133485D01*
X245379Y133376D01*
X245290Y133269D01*
X245281Y133250D01*
X245269Y133234D01*
X245214Y133106D01*
X245155Y132981D01*
X245151Y132961D01*
X245143Y132942D01*
X245121Y132804D01*
X245095Y132668D01*
X245096Y132648D01*
X245093Y132628D01*
X245106Y132489D01*
X245115Y132351D01*
X245121Y132332D01*
X245123Y132312D01*
X245170Y132180D01*
X245213Y132049D01*
X245223Y132031D01*
X245230Y132012D01*
X245308Y131897D01*
X245383Y131780D01*
X245398Y131766D01*
X245409Y131749D01*
X245513Y131657D01*
X245614Y131562D01*
X245632Y131552D01*
X245647Y131539D01*
X245771Y131475D01*
X245893Y131408D01*
X245912Y131403D01*
X245931Y131394D01*
X246066Y131364D01*
X246201Y131329D01*
X246229Y131327D01*
X246241Y131324D01*
X246261Y131325D01*
X246361Y131319D01*
X306589Y131319D01*
X309490Y128417D01*
X313442Y124465D01*
X313466Y124447D01*
X313485Y124425D01*
X313591Y124350D01*
X313694Y124270D01*
X313721Y124259D01*
X313745Y124242D01*
X313866Y124196D01*
X313985Y124144D01*
X314015Y124139D01*
X314042Y124129D01*
X314171Y124114D01*
X314300Y124094D01*
X314329Y124097D01*
X314358Y124094D01*
X314487Y124112D01*
X314616Y124124D01*
X314644Y124134D01*
X314673Y124138D01*
X314826Y124190D01*
X315479Y124461D01*
X319521Y124461D01*
X323256Y122914D01*
X326114Y120056D01*
X326384Y119402D01*
X326399Y119377D01*
X326408Y119349D01*
X326478Y119239D01*
X326542Y119126D01*
X326563Y119105D01*
X326578Y119080D01*
X326673Y118991D01*
X326763Y118898D01*
X326788Y118882D01*
X326810Y118862D01*
X326924Y118799D01*
X327034Y118731D01*
X327063Y118723D01*
X327088Y118708D01*
X327214Y118676D01*
X327338Y118638D01*
X327368Y118636D01*
X327396Y118629D01*
X327557Y118619D01*
X387115Y118619D01*
X387144Y118622D01*
X387174Y118620D01*
X387302Y118642D01*
X387431Y118659D01*
X387458Y118669D01*
X387487Y118674D01*
X387606Y118728D01*
X387726Y118776D01*
X387750Y118793D01*
X387777Y118805D01*
X387878Y118886D01*
X387984Y118962D01*
X388003Y118985D01*
X388026Y119004D01*
X388104Y119107D01*
X388187Y119207D01*
X388199Y119234D01*
X388217Y119258D01*
X388288Y119402D01*
X388797Y120631D01*
X391941Y123775D01*
X396049Y125477D01*
X400812Y125477D01*
X400930Y125492D01*
X401049Y125499D01*
X401087Y125512D01*
X401128Y125517D01*
X401238Y125560D01*
X401351Y125597D01*
X401386Y125619D01*
X401423Y125634D01*
X401519Y125703D01*
X401620Y125767D01*
X401648Y125797D01*
X401681Y125820D01*
X401757Y125912D01*
X401838Y125999D01*
X401858Y126034D01*
X401883Y126065D01*
X401934Y126173D01*
X401992Y126277D01*
X402002Y126317D01*
X402019Y126353D01*
X402041Y126470D01*
X402071Y126585D01*
X402075Y126645D01*
X402079Y126665D01*
X402077Y126686D01*
X402081Y126746D01*
X402081Y150085D01*
X402069Y150184D01*
X402066Y150283D01*
X402049Y150341D01*
X402041Y150401D01*
X402005Y150493D01*
X401977Y150588D01*
X401947Y150640D01*
X401924Y150697D01*
X401866Y150777D01*
X401816Y150862D01*
X401750Y150937D01*
X401738Y150954D01*
X401728Y150962D01*
X401710Y150983D01*
X389381Y163311D01*
X389381Y179924D01*
X389369Y180022D01*
X389366Y180121D01*
X389349Y180179D01*
X389341Y180239D01*
X389305Y180331D01*
X389277Y180426D01*
X389247Y180478D01*
X389224Y180535D01*
X389166Y180615D01*
X389116Y180700D01*
X389050Y180776D01*
X389038Y180792D01*
X389028Y180800D01*
X389010Y180821D01*
X383539Y186291D01*
X383539Y194709D01*
X389491Y200661D01*
X397227Y200661D01*
X397326Y200673D01*
X397425Y200676D01*
X397483Y200693D01*
X397543Y200701D01*
X397635Y200737D01*
X397730Y200765D01*
X397782Y200795D01*
X397839Y200818D01*
X397919Y200876D01*
X398004Y200926D01*
X398079Y200992D01*
X398096Y201004D01*
X398104Y201014D01*
X398125Y201032D01*
X427110Y230017D01*
X427170Y230095D01*
X427238Y230168D01*
X427267Y230221D01*
X427304Y230268D01*
X427344Y230359D01*
X427392Y230446D01*
X427407Y230505D01*
X427431Y230560D01*
X427446Y230658D01*
X427471Y230754D01*
X427477Y230854D01*
X427481Y230874D01*
X427479Y230887D01*
X427481Y230915D01*
X427481Y232248D01*
X427464Y232385D01*
X427451Y232524D01*
X427444Y232543D01*
X427441Y232563D01*
X427390Y232692D01*
X427343Y232823D01*
X427332Y232840D01*
X427324Y232859D01*
X427243Y232971D01*
X427165Y233086D01*
X427149Y233100D01*
X427138Y233116D01*
X427030Y233205D01*
X426926Y233297D01*
X426908Y233306D01*
X426893Y233319D01*
X426767Y233378D01*
X426643Y233441D01*
X426623Y233446D01*
X426605Y233455D01*
X426469Y233481D01*
X426333Y233511D01*
X426312Y233510D01*
X426293Y233514D01*
X426154Y233506D01*
X426015Y233501D01*
X425995Y233496D01*
X425975Y233495D01*
X425843Y233452D01*
X425709Y233413D01*
X425692Y233403D01*
X425673Y233397D01*
X425555Y233322D01*
X425435Y233251D01*
X425414Y233233D01*
X425404Y233226D01*
X425390Y233211D01*
X425315Y233145D01*
X423309Y231139D01*
X414891Y231139D01*
X409421Y236610D01*
X409343Y236670D01*
X409271Y236738D01*
X409218Y236767D01*
X409170Y236804D01*
X409079Y236844D01*
X408992Y236892D01*
X408934Y236907D01*
X408878Y236931D01*
X408780Y236946D01*
X408684Y236971D01*
X408584Y236977D01*
X408564Y236981D01*
X408552Y236979D01*
X408524Y236981D01*
X404276Y236981D01*
X404178Y236969D01*
X404079Y236966D01*
X404021Y236949D01*
X403961Y236941D01*
X403869Y236905D01*
X403774Y236877D01*
X403722Y236847D01*
X403665Y236824D01*
X403585Y236766D01*
X403500Y236716D01*
X403424Y236650D01*
X403408Y236638D01*
X403400Y236628D01*
X403379Y236610D01*
X397909Y231139D01*
X389491Y231139D01*
X383539Y237091D01*
X383539Y245509D01*
X389010Y250979D01*
X389070Y251057D01*
X389138Y251129D01*
X389167Y251182D01*
X389204Y251230D01*
X389244Y251321D01*
X389292Y251408D01*
X389307Y251466D01*
X389331Y251522D01*
X389346Y251620D01*
X389371Y251716D01*
X389377Y251816D01*
X389381Y251836D01*
X389379Y251848D01*
X389381Y251876D01*
X389381Y265909D01*
X389364Y266047D01*
X389351Y266186D01*
X389344Y266205D01*
X389341Y266225D01*
X389290Y266354D01*
X389243Y266485D01*
X389232Y266502D01*
X389224Y266521D01*
X389143Y266633D01*
X389065Y266748D01*
X389049Y266762D01*
X389038Y266778D01*
X388930Y266867D01*
X388826Y266959D01*
X388808Y266968D01*
X388793Y266981D01*
X388667Y267040D01*
X388543Y267103D01*
X388523Y267108D01*
X388505Y267116D01*
X388369Y267142D01*
X388233Y267173D01*
X388212Y267172D01*
X388193Y267176D01*
X388054Y267167D01*
X387915Y267163D01*
X387895Y267158D01*
X387875Y267156D01*
X387743Y267114D01*
X387609Y267075D01*
X387592Y267065D01*
X387573Y267058D01*
X387455Y266984D01*
X387335Y266913D01*
X387314Y266895D01*
X387304Y266888D01*
X387290Y266873D01*
X387215Y266807D01*
X372990Y252583D01*
X372930Y252505D01*
X372862Y252433D01*
X372833Y252380D01*
X372796Y252332D01*
X372756Y252241D01*
X372708Y252154D01*
X372693Y252095D01*
X372669Y252040D01*
X372654Y251942D01*
X372629Y251846D01*
X372623Y251746D01*
X372619Y251726D01*
X372621Y251713D01*
X372619Y251685D01*
X372619Y201411D01*
X369717Y198510D01*
X347590Y176383D01*
X344689Y173481D01*
X303530Y173481D01*
X303412Y173466D01*
X303293Y173459D01*
X303255Y173446D01*
X303214Y173441D01*
X303104Y173398D01*
X302991Y173361D01*
X302956Y173339D01*
X302919Y173324D01*
X302823Y173255D01*
X302722Y173191D01*
X302694Y173161D01*
X302661Y173138D01*
X302585Y173046D01*
X302504Y172959D01*
X302484Y172924D01*
X302459Y172893D01*
X302408Y172785D01*
X302350Y172681D01*
X302340Y172641D01*
X302323Y172605D01*
X302301Y172488D01*
X302271Y172373D01*
X302267Y172313D01*
X302263Y172293D01*
X302265Y172272D01*
X302261Y172212D01*
X302261Y168667D01*
X300714Y164932D01*
X297856Y162074D01*
X294121Y160527D01*
X290079Y160527D01*
X286344Y162074D01*
X283486Y164932D01*
X281939Y168667D01*
X281939Y186933D01*
X283486Y190668D01*
X286344Y193526D01*
X290079Y195073D01*
X294121Y195073D01*
X297856Y193526D01*
X300714Y190668D01*
X302261Y186933D01*
X302261Y183388D01*
X302276Y183270D01*
X302283Y183151D01*
X302296Y183113D01*
X302301Y183072D01*
X302344Y182962D01*
X302381Y182849D01*
X302403Y182814D01*
X302418Y182777D01*
X302487Y182681D01*
X302551Y182580D01*
X302581Y182552D01*
X302604Y182519D01*
X302696Y182443D01*
X302783Y182362D01*
X302818Y182342D01*
X302849Y182317D01*
X302957Y182266D01*
X303061Y182208D01*
X303101Y182198D01*
X303137Y182181D01*
X303254Y182159D01*
X303369Y182129D01*
X303429Y182125D01*
X303449Y182121D01*
X303470Y182123D01*
X303530Y182119D01*
X340585Y182119D01*
X340684Y182131D01*
X340783Y182134D01*
X340841Y182151D01*
X340901Y182159D01*
X340993Y182195D01*
X341088Y182223D01*
X341140Y182253D01*
X341197Y182276D01*
X341277Y182334D01*
X341362Y182384D01*
X341437Y182450D01*
X341454Y182462D01*
X341462Y182472D01*
X341483Y182490D01*
X363610Y204617D01*
X363670Y204695D01*
X363738Y204768D01*
X363767Y204821D01*
X363804Y204868D01*
X363844Y204959D01*
X363892Y205046D01*
X363907Y205105D01*
X363931Y205160D01*
X363946Y205258D01*
X363971Y205354D01*
X363977Y205454D01*
X363981Y205474D01*
X363979Y205487D01*
X363981Y205515D01*
X363981Y255789D01*
X366883Y258690D01*
X383168Y274975D01*
X383228Y275053D01*
X383296Y275125D01*
X383325Y275178D01*
X383362Y275226D01*
X383402Y275317D01*
X383450Y275404D01*
X383465Y275463D01*
X383489Y275518D01*
X383504Y275616D01*
X383529Y275712D01*
X383535Y275812D01*
X383539Y275832D01*
X383537Y275845D01*
X383539Y275873D01*
X383539Y282927D01*
X383527Y283026D01*
X383524Y283125D01*
X383507Y283183D01*
X383499Y283243D01*
X383463Y283335D01*
X383435Y283430D01*
X383405Y283482D01*
X383382Y283539D01*
X383324Y283619D01*
X383274Y283704D01*
X383208Y283779D01*
X383196Y283796D01*
X383186Y283804D01*
X383168Y283825D01*
X379583Y287410D01*
X376681Y290311D01*
X376681Y353285D01*
X376669Y353384D01*
X376666Y353483D01*
X376649Y353541D01*
X376641Y353601D01*
X376605Y353693D01*
X376577Y353788D01*
X376547Y353840D01*
X376524Y353897D01*
X376466Y353977D01*
X376416Y354062D01*
X376350Y354137D01*
X376338Y354154D01*
X376328Y354162D01*
X376310Y354183D01*
X366883Y363610D01*
X366805Y363670D01*
X366732Y363738D01*
X366679Y363767D01*
X366632Y363804D01*
X366541Y363844D01*
X366454Y363892D01*
X366395Y363907D01*
X366340Y363931D01*
X366242Y363946D01*
X366146Y363971D01*
X366046Y363977D01*
X366026Y363981D01*
X366013Y363979D01*
X365985Y363981D01*
X358143Y363981D01*
X358083Y363974D01*
X358023Y363976D01*
X357926Y363954D01*
X357827Y363941D01*
X357772Y363919D01*
X357713Y363906D01*
X357624Y363861D01*
X357532Y363824D01*
X357483Y363789D01*
X357430Y363762D01*
X357355Y363696D01*
X357274Y363638D01*
X357236Y363591D01*
X357191Y363552D01*
X357135Y363469D01*
X357072Y363393D01*
X357046Y363338D01*
X357012Y363289D01*
X356978Y363195D01*
X356936Y363105D01*
X356925Y363046D01*
X356904Y362990D01*
X356895Y362890D01*
X356876Y362793D01*
X356880Y362733D01*
X356874Y362673D01*
X356890Y362574D01*
X356896Y362475D01*
X356914Y362418D01*
X356924Y362359D01*
X356963Y362267D01*
X356994Y362173D01*
X357026Y362122D01*
X357050Y362067D01*
X357111Y361988D01*
X357164Y361904D01*
X357208Y361863D01*
X357245Y361815D01*
X357323Y361754D01*
X357396Y361686D01*
X357448Y361657D01*
X357496Y361620D01*
X357587Y361581D01*
X357674Y361532D01*
X357732Y361517D01*
X357787Y361494D01*
X357945Y361458D01*
X358098Y361434D01*
X359695Y360915D01*
X361192Y360153D01*
X362550Y359166D01*
X363738Y357978D01*
X364725Y356620D01*
X365487Y355123D01*
X366006Y353526D01*
X366269Y351868D01*
X366269Y345439D01*
X356870Y345439D01*
X356752Y345424D01*
X356633Y345417D01*
X356595Y345404D01*
X356555Y345399D01*
X356444Y345356D01*
X356331Y345319D01*
X356297Y345297D01*
X356259Y345282D01*
X356163Y345212D01*
X356062Y345149D01*
X356034Y345119D01*
X356002Y345095D01*
X355926Y345004D01*
X355844Y344917D01*
X355825Y344882D01*
X355799Y344851D01*
X355748Y344743D01*
X355691Y344639D01*
X355680Y344599D01*
X355663Y344563D01*
X355641Y344446D01*
X355611Y344331D01*
X355607Y344270D01*
X355603Y344250D01*
X355605Y344230D01*
X355601Y344170D01*
X355601Y342899D01*
X355599Y342899D01*
X355599Y344170D01*
X355584Y344288D01*
X355577Y344407D01*
X355564Y344445D01*
X355559Y344485D01*
X355515Y344596D01*
X355479Y344709D01*
X355457Y344744D01*
X355442Y344781D01*
X355372Y344877D01*
X355309Y344978D01*
X355279Y345006D01*
X355255Y345039D01*
X355164Y345114D01*
X355077Y345196D01*
X355042Y345216D01*
X355010Y345241D01*
X354903Y345292D01*
X354798Y345350D01*
X354759Y345360D01*
X354723Y345377D01*
X354606Y345399D01*
X354491Y345429D01*
X354430Y345433D01*
X354410Y345437D01*
X354390Y345435D01*
X354330Y345439D01*
X344931Y345439D01*
X344931Y351868D01*
X345194Y353526D01*
X345713Y355123D01*
X346475Y356620D01*
X347462Y357978D01*
X348650Y359166D01*
X350008Y360153D01*
X351505Y360915D01*
X353102Y361434D01*
X353255Y361458D01*
X353313Y361475D01*
X353373Y361483D01*
X353465Y361519D01*
X353561Y361547D01*
X353613Y361578D01*
X353668Y361600D01*
X353749Y361658D01*
X353835Y361709D01*
X353877Y361751D01*
X353926Y361786D01*
X353989Y361863D01*
X354060Y361934D01*
X354090Y361985D01*
X354128Y362031D01*
X354171Y362121D01*
X354222Y362207D01*
X354238Y362265D01*
X354264Y362319D01*
X354283Y362417D01*
X354311Y362513D01*
X354313Y362573D01*
X354324Y362632D01*
X354318Y362731D01*
X354321Y362830D01*
X354308Y362889D01*
X354304Y362949D01*
X354273Y363044D01*
X354252Y363141D01*
X354224Y363194D01*
X354206Y363251D01*
X354153Y363336D01*
X354108Y363424D01*
X354068Y363469D01*
X354036Y363520D01*
X353963Y363588D01*
X353897Y363663D01*
X353848Y363697D01*
X353804Y363738D01*
X353717Y363786D01*
X353635Y363842D01*
X353578Y363863D01*
X353526Y363892D01*
X353429Y363916D01*
X353336Y363950D01*
X353276Y363956D01*
X353218Y363971D01*
X353057Y363981D01*
X334515Y363981D01*
X334446Y363973D01*
X334376Y363974D01*
X334289Y363953D01*
X334200Y363941D01*
X334135Y363916D01*
X334067Y363899D01*
X333987Y363857D01*
X333904Y363824D01*
X333848Y363783D01*
X333786Y363751D01*
X333719Y363690D01*
X333647Y363638D01*
X333602Y363584D01*
X333550Y363537D01*
X333501Y363462D01*
X333444Y363393D01*
X333414Y363329D01*
X333376Y363271D01*
X333347Y363186D01*
X333308Y363105D01*
X333295Y363036D01*
X333272Y362970D01*
X333265Y362881D01*
X333248Y362793D01*
X333253Y362723D01*
X333247Y362653D01*
X333263Y362565D01*
X333268Y362475D01*
X333290Y362409D01*
X333302Y362340D01*
X333339Y362258D01*
X333366Y362173D01*
X333404Y362114D01*
X333432Y362050D01*
X333488Y361980D01*
X333536Y361904D01*
X333587Y361856D01*
X333631Y361802D01*
X333703Y361747D01*
X333768Y361686D01*
X333829Y361652D01*
X333885Y361610D01*
X334029Y361539D01*
X336531Y360503D01*
X339675Y357359D01*
X341377Y353251D01*
X341377Y332549D01*
X339675Y328441D01*
X336527Y325293D01*
X336519Y325290D01*
X336409Y325221D01*
X336296Y325156D01*
X336275Y325136D01*
X336250Y325120D01*
X336161Y325025D01*
X336068Y324935D01*
X336052Y324910D01*
X336032Y324888D01*
X335969Y324775D01*
X335901Y324664D01*
X335893Y324636D01*
X335878Y324610D01*
X335846Y324484D01*
X335808Y324360D01*
X335806Y324330D01*
X335799Y324302D01*
X335789Y324141D01*
X335789Y288706D01*
X335801Y288608D01*
X335804Y288509D01*
X335821Y288451D01*
X335829Y288391D01*
X335865Y288299D01*
X335893Y288204D01*
X335923Y288152D01*
X335946Y288095D01*
X336004Y288015D01*
X336054Y287930D01*
X336120Y287854D01*
X336132Y287838D01*
X336142Y287830D01*
X336160Y287809D01*
X340361Y283609D01*
X340361Y275191D01*
X334409Y269239D01*
X325991Y269239D01*
X321791Y273440D01*
X321713Y273500D01*
X321641Y273568D01*
X321588Y273597D01*
X321540Y273634D01*
X321449Y273674D01*
X321362Y273722D01*
X321304Y273737D01*
X321248Y273761D01*
X321150Y273776D01*
X321054Y273801D01*
X320954Y273807D01*
X320934Y273811D01*
X320922Y273809D01*
X320894Y273811D01*
X290988Y273811D01*
X288934Y274662D01*
X270853Y292744D01*
X270775Y292804D01*
X270702Y292872D01*
X270649Y292901D01*
X270602Y292938D01*
X270511Y292978D01*
X270424Y293026D01*
X270365Y293041D01*
X270310Y293065D01*
X270212Y293080D01*
X270116Y293105D01*
X270016Y293111D01*
X269996Y293115D01*
X269983Y293113D01*
X269955Y293115D01*
X255740Y293115D01*
X251445Y294894D01*
X248158Y298181D01*
X248056Y298428D01*
X248041Y298453D01*
X248032Y298481D01*
X247963Y298591D01*
X247898Y298704D01*
X247878Y298725D01*
X247862Y298750D01*
X247768Y298839D01*
X247677Y298932D01*
X247652Y298948D01*
X247631Y298968D01*
X247517Y299031D01*
X247406Y299099D01*
X247378Y299107D01*
X247352Y299122D01*
X247226Y299154D01*
X247102Y299192D01*
X247073Y299194D01*
X247044Y299201D01*
X246883Y299211D01*
X167941Y299211D01*
X167842Y299199D01*
X167743Y299196D01*
X167685Y299179D01*
X167625Y299171D01*
X167533Y299135D01*
X167438Y299107D01*
X167386Y299077D01*
X167329Y299054D01*
X167249Y298996D01*
X167164Y298946D01*
X167089Y298880D01*
X167072Y298868D01*
X167064Y298858D01*
X167043Y298840D01*
X141477Y273273D01*
X141447Y273234D01*
X141410Y273201D01*
X141350Y273109D01*
X141282Y273022D01*
X141262Y272976D01*
X141235Y272935D01*
X141199Y272831D01*
X141156Y272730D01*
X141148Y272681D01*
X141132Y272634D01*
X141123Y272525D01*
X141106Y272416D01*
X141111Y272367D01*
X141107Y272317D01*
X141125Y272209D01*
X141136Y272100D01*
X141153Y272053D01*
X141161Y272004D01*
X141206Y271904D01*
X141243Y271800D01*
X141271Y271759D01*
X141292Y271714D01*
X141360Y271628D01*
X141422Y271537D01*
X141459Y271504D01*
X141490Y271465D01*
X141578Y271399D01*
X141660Y271327D01*
X141705Y271304D01*
X141744Y271274D01*
X141889Y271203D01*
X145456Y269726D01*
X148314Y266868D01*
X149861Y263133D01*
X149861Y247933D01*
X149878Y247795D01*
X149891Y247656D01*
X149898Y247637D01*
X149901Y247617D01*
X149952Y247488D01*
X149999Y247357D01*
X150010Y247340D01*
X150018Y247321D01*
X150099Y247209D01*
X150177Y247094D01*
X150193Y247080D01*
X150204Y247064D01*
X150312Y246975D01*
X150416Y246883D01*
X150434Y246874D01*
X150449Y246861D01*
X150575Y246802D01*
X150699Y246739D01*
X150719Y246734D01*
X150737Y246726D01*
X150873Y246700D01*
X151009Y246669D01*
X151030Y246670D01*
X151049Y246666D01*
X151188Y246675D01*
X151327Y246679D01*
X151347Y246684D01*
X151367Y246686D01*
X151499Y246728D01*
X151633Y246767D01*
X151650Y246777D01*
X151669Y246784D01*
X151787Y246858D01*
X151907Y246929D01*
X151928Y246947D01*
X151938Y246954D01*
X151952Y246969D01*
X152027Y247035D01*
X154568Y249575D01*
X154628Y249653D01*
X154696Y249725D01*
X154725Y249778D01*
X154762Y249826D01*
X154802Y249917D01*
X154850Y250004D01*
X154865Y250063D01*
X154889Y250118D01*
X154904Y250216D01*
X154929Y250312D01*
X154935Y250412D01*
X154939Y250432D01*
X154937Y250445D01*
X154939Y250473D01*
X154939Y263133D01*
X156486Y266868D01*
X159344Y269726D01*
X163079Y271273D01*
X167121Y271273D01*
X170856Y269726D01*
X173714Y266868D01*
X175261Y263133D01*
X175261Y244867D01*
X173714Y241132D01*
X170856Y238274D01*
X167121Y236727D01*
X163079Y236727D01*
X159344Y238274D01*
X158311Y239308D01*
X158217Y239381D01*
X158127Y239460D01*
X158091Y239478D01*
X158059Y239503D01*
X157950Y239550D01*
X157844Y239604D01*
X157805Y239613D01*
X157767Y239629D01*
X157650Y239648D01*
X157534Y239674D01*
X157493Y239673D01*
X157453Y239679D01*
X157335Y239668D01*
X157216Y239664D01*
X157177Y239653D01*
X157137Y239649D01*
X157025Y239609D01*
X156910Y239576D01*
X156876Y239555D01*
X156837Y239542D01*
X156739Y239475D01*
X156636Y239414D01*
X156591Y239375D01*
X156574Y239363D01*
X156561Y239348D01*
X156516Y239308D01*
X141489Y224281D01*
X70085Y224281D01*
X70055Y224278D01*
X70026Y224280D01*
X69898Y224258D01*
X69769Y224241D01*
X69742Y224231D01*
X69713Y224226D01*
X69594Y224172D01*
X69474Y224124D01*
X69450Y224107D01*
X69423Y224095D01*
X69321Y224014D01*
X69216Y223938D01*
X69197Y223915D01*
X69174Y223896D01*
X69096Y223793D01*
X69013Y223693D01*
X69001Y223666D01*
X68983Y223642D01*
X68912Y223498D01*
X68403Y222269D01*
X65259Y219125D01*
X61151Y217423D01*
X40449Y217423D01*
X36341Y219125D01*
X33197Y222269D01*
X31495Y226377D01*
X31495Y230823D01*
X33197Y234931D01*
X36341Y238075D01*
X40449Y239777D01*
X61151Y239777D01*
X65259Y238075D01*
X68403Y234931D01*
X68912Y233702D01*
X68927Y233677D01*
X68936Y233649D01*
X69005Y233539D01*
X69070Y233426D01*
X69090Y233405D01*
X69106Y233380D01*
X69201Y233291D01*
X69291Y233198D01*
X69316Y233182D01*
X69338Y233162D01*
X69451Y233099D01*
X69562Y233031D01*
X69590Y233023D01*
X69616Y233008D01*
X69742Y232976D01*
X69866Y232938D01*
X69896Y232936D01*
X69924Y232929D01*
X70085Y232919D01*
X137385Y232919D01*
X137484Y232931D01*
X137583Y232934D01*
X137641Y232951D01*
X137701Y232959D01*
X137793Y232995D01*
X137888Y233023D01*
X137940Y233053D01*
X137997Y233076D01*
X138077Y233134D01*
X138162Y233184D01*
X138237Y233250D01*
X138254Y233262D01*
X138262Y233272D01*
X138283Y233290D01*
X139553Y234561D01*
X139638Y234670D01*
X139727Y234777D01*
X139735Y234796D01*
X139748Y234812D01*
X139803Y234939D01*
X139862Y235065D01*
X139866Y235085D01*
X139874Y235104D01*
X139896Y235242D01*
X139922Y235378D01*
X139921Y235398D01*
X139924Y235418D01*
X139911Y235557D01*
X139902Y235695D01*
X139896Y235714D01*
X139894Y235734D01*
X139847Y235866D01*
X139804Y235997D01*
X139794Y236015D01*
X139787Y236034D01*
X139709Y236149D01*
X139634Y236266D01*
X139619Y236280D01*
X139608Y236297D01*
X139504Y236389D01*
X139403Y236484D01*
X139385Y236494D01*
X139370Y236507D01*
X139246Y236571D01*
X139124Y236638D01*
X139104Y236643D01*
X139086Y236652D01*
X138951Y236682D01*
X138816Y236717D01*
X138788Y236719D01*
X138776Y236722D01*
X138756Y236721D01*
X138655Y236727D01*
X137679Y236727D01*
X133944Y238274D01*
X131086Y241132D01*
X129539Y244867D01*
X129539Y258271D01*
X129522Y258408D01*
X129509Y258548D01*
X129502Y258567D01*
X129499Y258587D01*
X129448Y258716D01*
X129401Y258847D01*
X129390Y258864D01*
X129382Y258883D01*
X129301Y258995D01*
X129223Y259110D01*
X129207Y259124D01*
X129196Y259140D01*
X129088Y259229D01*
X128984Y259321D01*
X128966Y259330D01*
X128951Y259343D01*
X128825Y259402D01*
X128701Y259465D01*
X128681Y259470D01*
X128663Y259478D01*
X128527Y259504D01*
X128391Y259535D01*
X128370Y259534D01*
X128351Y259538D01*
X128212Y259529D01*
X128073Y259525D01*
X128053Y259520D01*
X128033Y259518D01*
X127901Y259476D01*
X127767Y259437D01*
X127750Y259427D01*
X127731Y259420D01*
X127613Y259346D01*
X127493Y259275D01*
X127472Y259257D01*
X127462Y259250D01*
X127448Y259235D01*
X127373Y259169D01*
X124832Y256629D01*
X124772Y256551D01*
X124704Y256478D01*
X124675Y256425D01*
X124638Y256378D01*
X124598Y256287D01*
X124550Y256200D01*
X124535Y256141D01*
X124511Y256086D01*
X124496Y255988D01*
X124471Y255892D01*
X124465Y255792D01*
X124461Y255772D01*
X124463Y255759D01*
X124461Y255731D01*
X124461Y244867D01*
X122914Y241132D01*
X120056Y238274D01*
X116321Y236727D01*
X112279Y236727D01*
X108544Y238274D01*
X105686Y241132D01*
X104139Y244867D01*
X104139Y263133D01*
X105686Y266868D01*
X108544Y269726D01*
X112279Y271273D01*
X116321Y271273D01*
X120056Y269726D01*
X120191Y269590D01*
X120286Y269517D01*
X120375Y269438D01*
X120411Y269420D01*
X120443Y269395D01*
X120552Y269348D01*
X120658Y269294D01*
X120697Y269285D01*
X120735Y269269D01*
X120852Y269250D01*
X120968Y269224D01*
X121009Y269225D01*
X121049Y269219D01*
X121167Y269230D01*
X121286Y269234D01*
X121325Y269245D01*
X121365Y269249D01*
X121477Y269289D01*
X121592Y269322D01*
X121626Y269343D01*
X121665Y269356D01*
X121763Y269423D01*
X121866Y269484D01*
X121911Y269524D01*
X121928Y269535D01*
X121941Y269550D01*
X121986Y269590D01*
X160184Y307787D01*
X161934Y309538D01*
X163988Y310389D01*
X246883Y310389D01*
X246913Y310392D01*
X246942Y310390D01*
X247070Y310412D01*
X247199Y310429D01*
X247226Y310439D01*
X247255Y310445D01*
X247374Y310498D01*
X247495Y310546D01*
X247519Y310563D01*
X247545Y310575D01*
X247647Y310656D01*
X247752Y310732D01*
X247771Y310755D01*
X247794Y310774D01*
X247872Y310877D01*
X247955Y310977D01*
X247967Y311004D01*
X247985Y311028D01*
X248056Y311172D01*
X248158Y311419D01*
X251445Y314706D01*
X255740Y316485D01*
X277660Y316485D01*
X281955Y314706D01*
X285242Y311419D01*
X287021Y307124D01*
X287021Y302476D01*
X285242Y298181D01*
X284130Y297069D01*
X284057Y296975D01*
X283978Y296886D01*
X283960Y296850D01*
X283935Y296818D01*
X283887Y296708D01*
X283833Y296602D01*
X283824Y296563D01*
X283808Y296526D01*
X283790Y296408D01*
X283764Y296292D01*
X283765Y296252D01*
X283759Y296212D01*
X283770Y296093D01*
X283773Y295974D01*
X283785Y295935D01*
X283788Y295895D01*
X283829Y295783D01*
X283862Y295669D01*
X283882Y295634D01*
X283896Y295596D01*
X283963Y295497D01*
X284023Y295395D01*
X284063Y295350D01*
X284075Y295333D01*
X284090Y295319D01*
X284130Y295274D01*
X294043Y285360D01*
X294121Y285300D01*
X294194Y285232D01*
X294247Y285203D01*
X294294Y285166D01*
X294385Y285126D01*
X294472Y285078D01*
X294531Y285063D01*
X294586Y285039D01*
X294684Y285024D01*
X294780Y284999D01*
X294880Y284993D01*
X294900Y284989D01*
X294913Y284991D01*
X294941Y284989D01*
X320894Y284989D01*
X320992Y285001D01*
X321091Y285004D01*
X321149Y285021D01*
X321209Y285029D01*
X321301Y285065D01*
X321396Y285093D01*
X321448Y285123D01*
X321505Y285146D01*
X321585Y285204D01*
X321670Y285254D01*
X321746Y285320D01*
X321762Y285332D01*
X321770Y285342D01*
X321791Y285360D01*
X324240Y287809D01*
X324300Y287887D01*
X324368Y287959D01*
X324397Y288012D01*
X324434Y288060D01*
X324474Y288151D01*
X324522Y288238D01*
X324537Y288296D01*
X324561Y288352D01*
X324576Y288450D01*
X324601Y288546D01*
X324607Y288646D01*
X324611Y288666D01*
X324609Y288678D01*
X324611Y288706D01*
X324611Y324141D01*
X324608Y324171D01*
X324610Y324200D01*
X324588Y324328D01*
X324571Y324457D01*
X324561Y324484D01*
X324556Y324513D01*
X324502Y324632D01*
X324454Y324752D01*
X324437Y324776D01*
X324425Y324803D01*
X324344Y324904D01*
X324268Y325010D01*
X324245Y325029D01*
X324226Y325052D01*
X324123Y325130D01*
X324023Y325213D01*
X323996Y325225D01*
X323972Y325243D01*
X323875Y325291D01*
X320725Y328441D01*
X319023Y332549D01*
X319023Y353251D01*
X320725Y357359D01*
X323869Y360503D01*
X326371Y361539D01*
X326431Y361574D01*
X326496Y361600D01*
X326569Y361652D01*
X326647Y361697D01*
X326697Y361745D01*
X326753Y361786D01*
X326811Y361856D01*
X326875Y361918D01*
X326912Y361978D01*
X326956Y362031D01*
X326995Y362113D01*
X327041Y362189D01*
X327062Y362256D01*
X327092Y362319D01*
X327109Y362407D01*
X327135Y362493D01*
X327138Y362563D01*
X327152Y362632D01*
X327146Y362721D01*
X327150Y362811D01*
X327136Y362879D01*
X327132Y362949D01*
X327104Y363034D01*
X327086Y363122D01*
X327055Y363185D01*
X327034Y363251D01*
X326986Y363327D01*
X326946Y363408D01*
X326901Y363461D01*
X326864Y363520D01*
X326798Y363582D01*
X326740Y363650D01*
X326683Y363690D01*
X326632Y363738D01*
X326553Y363781D01*
X326480Y363833D01*
X326415Y363858D01*
X326353Y363892D01*
X326267Y363914D01*
X326182Y363946D01*
X326113Y363954D01*
X326046Y363971D01*
X325885Y363981D01*
X319815Y363981D01*
X319716Y363969D01*
X319617Y363966D01*
X319559Y363949D01*
X319499Y363941D01*
X319407Y363905D01*
X319312Y363877D01*
X319260Y363847D01*
X319203Y363824D01*
X319123Y363766D01*
X319038Y363716D01*
X318963Y363650D01*
X318946Y363638D01*
X318938Y363628D01*
X318917Y363610D01*
X306589Y351281D01*
X287043Y351281D01*
X287013Y351278D01*
X286984Y351280D01*
X286856Y351258D01*
X286727Y351241D01*
X286700Y351231D01*
X286671Y351226D01*
X286552Y351172D01*
X286431Y351124D01*
X286408Y351107D01*
X286381Y351095D01*
X286279Y351014D01*
X286174Y350938D01*
X286155Y350915D01*
X286132Y350896D01*
X286054Y350793D01*
X285971Y350693D01*
X285959Y350666D01*
X285941Y350642D01*
X285870Y350498D01*
X285242Y348981D01*
X281955Y345694D01*
X277660Y343915D01*
X255740Y343915D01*
X251445Y345694D01*
X248158Y348981D01*
X246379Y353276D01*
X246379Y357924D01*
X248158Y362219D01*
X251445Y365506D01*
X255740Y367285D01*
X277660Y367285D01*
X281955Y365506D01*
X285242Y362219D01*
X285870Y360702D01*
X285885Y360677D01*
X285894Y360649D01*
X285963Y360539D01*
X286028Y360426D01*
X286048Y360405D01*
X286064Y360380D01*
X286159Y360291D01*
X286249Y360198D01*
X286274Y360182D01*
X286296Y360162D01*
X286409Y360099D01*
X286520Y360031D01*
X286548Y360023D01*
X286574Y360008D01*
X286700Y359976D01*
X286824Y359938D01*
X286853Y359936D01*
X286882Y359929D01*
X287043Y359919D01*
X302485Y359919D01*
X302584Y359931D01*
X302683Y359934D01*
X302741Y359951D01*
X302801Y359959D01*
X302893Y359995D01*
X302988Y360023D01*
X303040Y360053D01*
X303097Y360076D01*
X303177Y360134D01*
X303262Y360184D01*
X303337Y360250D01*
X303354Y360262D01*
X303362Y360272D01*
X303383Y360290D01*
X315711Y372619D01*
X370089Y372619D01*
X382322Y360386D01*
X382416Y360313D01*
X382505Y360234D01*
X382541Y360216D01*
X382573Y360191D01*
X382682Y360144D01*
X382788Y360090D01*
X382828Y360081D01*
X382865Y360065D01*
X382983Y360046D01*
X383098Y360020D01*
X383139Y360021D01*
X383179Y360015D01*
X383297Y360026D01*
X383416Y360030D01*
X383455Y360041D01*
X383495Y360045D01*
X383608Y360085D01*
X383722Y360118D01*
X383757Y360139D01*
X383795Y360152D01*
X383893Y360219D01*
X383996Y360280D01*
X384041Y360319D01*
X384058Y360331D01*
X384071Y360346D01*
X384117Y360386D01*
X389010Y365279D01*
X389070Y365357D01*
X389138Y365429D01*
X389167Y365482D01*
X389204Y365530D01*
X389244Y365621D01*
X389292Y365708D01*
X389307Y365766D01*
X389331Y365822D01*
X389346Y365920D01*
X389371Y366016D01*
X389377Y366116D01*
X389381Y366136D01*
X389379Y366148D01*
X389381Y366176D01*
X389381Y370089D01*
X417311Y398019D01*
X437915Y398019D01*
X437945Y398022D01*
X437974Y398020D01*
X438102Y398042D01*
X438231Y398059D01*
X438258Y398069D01*
X438287Y398074D01*
X438406Y398128D01*
X438526Y398176D01*
X438550Y398193D01*
X438577Y398205D01*
X438679Y398286D01*
X438784Y398362D01*
X438803Y398385D01*
X438826Y398404D01*
X438904Y398507D01*
X438987Y398607D01*
X438999Y398634D01*
X439017Y398658D01*
X439088Y398802D01*
X439597Y400031D01*
X442741Y403175D01*
X446849Y404877D01*
X467551Y404877D01*
X471659Y403175D01*
X474803Y400031D01*
X476505Y395923D01*
X476505Y391477D01*
X474803Y387369D01*
X471659Y384225D01*
X467551Y382523D01*
X446849Y382523D01*
X442741Y384225D01*
X439597Y387369D01*
X439088Y388598D01*
X439073Y388623D01*
X439064Y388651D01*
X438995Y388761D01*
X438930Y388874D01*
X438910Y388895D01*
X438894Y388920D01*
X438799Y389009D01*
X438709Y389102D01*
X438684Y389118D01*
X438662Y389138D01*
X438549Y389201D01*
X438438Y389269D01*
X438410Y389277D01*
X438384Y389292D01*
X438258Y389324D01*
X438134Y389362D01*
X438104Y389364D01*
X438076Y389371D01*
X437915Y389381D01*
X421415Y389381D01*
X421316Y389369D01*
X421217Y389366D01*
X421159Y389349D01*
X421099Y389341D01*
X421007Y389305D01*
X420912Y389277D01*
X420860Y389247D01*
X420803Y389224D01*
X420723Y389166D01*
X420638Y389116D01*
X420563Y389050D01*
X420546Y389038D01*
X420538Y389028D01*
X420517Y389010D01*
X398486Y366978D01*
X398413Y366884D01*
X398334Y366795D01*
X398316Y366759D01*
X398291Y366727D01*
X398244Y366618D01*
X398190Y366512D01*
X398181Y366472D01*
X398165Y366435D01*
X398146Y366318D01*
X398120Y366202D01*
X398121Y366161D01*
X398115Y366121D01*
X398126Y366003D01*
X398130Y365884D01*
X398141Y365845D01*
X398145Y365805D01*
X398185Y365692D01*
X398218Y365578D01*
X398239Y365543D01*
X398252Y365505D01*
X398319Y365407D01*
X398380Y365304D01*
X398419Y365259D01*
X398431Y365242D01*
X398446Y365229D01*
X398486Y365183D01*
X403861Y359809D01*
X403861Y351391D01*
X397909Y345439D01*
X389491Y345439D01*
X387485Y347445D01*
X387394Y347516D01*
X387371Y347538D01*
X387358Y347545D01*
X387269Y347619D01*
X387250Y347628D01*
X387234Y347640D01*
X387106Y347695D01*
X386981Y347755D01*
X386961Y347758D01*
X386942Y347766D01*
X386804Y347788D01*
X386668Y347814D01*
X386648Y347813D01*
X386628Y347816D01*
X386489Y347803D01*
X386351Y347795D01*
X386332Y347788D01*
X386312Y347786D01*
X386180Y347739D01*
X386049Y347697D01*
X386031Y347686D01*
X386012Y347679D01*
X385897Y347601D01*
X385780Y347526D01*
X385766Y347512D01*
X385749Y347500D01*
X385657Y347396D01*
X385562Y347295D01*
X385552Y347277D01*
X385539Y347262D01*
X385475Y347138D01*
X385408Y347016D01*
X385403Y346997D01*
X385394Y346979D01*
X385364Y346843D01*
X385329Y346708D01*
X385327Y346680D01*
X385324Y346668D01*
X385325Y346648D01*
X385322Y346595D01*
X385321Y346592D01*
X385321Y346590D01*
X385319Y346548D01*
X385319Y294415D01*
X385331Y294316D01*
X385334Y294217D01*
X385351Y294159D01*
X385359Y294099D01*
X385395Y294007D01*
X385423Y293912D01*
X385453Y293860D01*
X385476Y293803D01*
X385534Y293723D01*
X385584Y293638D01*
X385650Y293563D01*
X385662Y293546D01*
X385672Y293538D01*
X385690Y293517D01*
X389275Y289932D01*
X389353Y289872D01*
X389425Y289804D01*
X389478Y289775D01*
X389526Y289738D01*
X389617Y289698D01*
X389704Y289650D01*
X389763Y289635D01*
X389818Y289611D01*
X389916Y289596D01*
X390012Y289571D01*
X390112Y289565D01*
X390132Y289561D01*
X390145Y289563D01*
X390173Y289561D01*
X397909Y289561D01*
X403861Y283609D01*
X403861Y275191D01*
X398390Y269721D01*
X398330Y269643D01*
X398262Y269571D01*
X398233Y269518D01*
X398196Y269470D01*
X398156Y269379D01*
X398108Y269292D01*
X398093Y269234D01*
X398069Y269178D01*
X398054Y269080D01*
X398029Y268984D01*
X398023Y268884D01*
X398019Y268864D01*
X398021Y268852D01*
X398019Y268824D01*
X398019Y251876D01*
X398031Y251778D01*
X398034Y251679D01*
X398051Y251621D01*
X398059Y251561D01*
X398095Y251469D01*
X398123Y251374D01*
X398153Y251322D01*
X398176Y251265D01*
X398234Y251185D01*
X398284Y251100D01*
X398350Y251024D01*
X398362Y251008D01*
X398372Y251000D01*
X398390Y250979D01*
X403379Y245990D01*
X403457Y245930D01*
X403529Y245862D01*
X403582Y245833D01*
X403630Y245796D01*
X403721Y245756D01*
X403808Y245708D01*
X403866Y245693D01*
X403922Y245669D01*
X404020Y245654D01*
X404116Y245629D01*
X404216Y245623D01*
X404236Y245619D01*
X404248Y245621D01*
X404276Y245619D01*
X408524Y245619D01*
X408622Y245631D01*
X408721Y245634D01*
X408779Y245651D01*
X408839Y245659D01*
X408931Y245695D01*
X409026Y245723D01*
X409078Y245753D01*
X409135Y245776D01*
X409215Y245834D01*
X409300Y245884D01*
X409376Y245950D01*
X409392Y245962D01*
X409400Y245972D01*
X409421Y245990D01*
X414891Y251461D01*
X423309Y251461D01*
X425315Y249455D01*
X425424Y249370D01*
X425531Y249281D01*
X425550Y249272D01*
X425566Y249260D01*
X425694Y249205D01*
X425819Y249145D01*
X425839Y249142D01*
X425858Y249134D01*
X425996Y249112D01*
X426132Y249086D01*
X426152Y249087D01*
X426172Y249084D01*
X426311Y249097D01*
X426449Y249105D01*
X426468Y249112D01*
X426488Y249114D01*
X426620Y249161D01*
X426751Y249203D01*
X426769Y249214D01*
X426788Y249221D01*
X426903Y249299D01*
X427020Y249374D01*
X427034Y249388D01*
X427051Y249400D01*
X427143Y249504D01*
X427238Y249605D01*
X427248Y249623D01*
X427261Y249638D01*
X427325Y249762D01*
X427392Y249884D01*
X427397Y249903D01*
X427406Y249921D01*
X427436Y250057D01*
X427471Y250192D01*
X427473Y250220D01*
X427476Y250232D01*
X427475Y250252D01*
X427481Y250352D01*
X427481Y255789D01*
X437524Y265831D01*
X437584Y265909D01*
X437652Y265981D01*
X437681Y266034D01*
X437718Y266082D01*
X437758Y266173D01*
X437806Y266260D01*
X437821Y266319D01*
X437845Y266374D01*
X437860Y266472D01*
X437885Y266568D01*
X437891Y266668D01*
X437895Y266688D01*
X437893Y266701D01*
X437895Y266729D01*
X437895Y268923D01*
X439597Y273031D01*
X442741Y276175D01*
X446849Y277877D01*
X467551Y277877D01*
X471659Y276175D01*
X474803Y273031D01*
X475839Y270529D01*
X475874Y270469D01*
X475900Y270404D01*
X475952Y270331D01*
X475997Y270253D01*
X476045Y270203D01*
X476086Y270147D01*
X476156Y270089D01*
X476218Y270025D01*
X476278Y269988D01*
X476331Y269944D01*
X476413Y269905D01*
X476489Y269859D01*
X476556Y269838D01*
X476619Y269808D01*
X476707Y269791D01*
X476793Y269765D01*
X476863Y269762D01*
X476932Y269748D01*
X477021Y269754D01*
X477111Y269750D01*
X477179Y269764D01*
X477249Y269768D01*
X477334Y269796D01*
X477422Y269814D01*
X477485Y269845D01*
X477551Y269866D01*
X477627Y269914D01*
X477708Y269954D01*
X477761Y269999D01*
X477820Y270036D01*
X477882Y270102D01*
X477950Y270160D01*
X477990Y270217D01*
X478038Y270268D01*
X478081Y270347D01*
X478133Y270420D01*
X478158Y270486D01*
X478192Y270547D01*
X478214Y270633D01*
X478246Y270718D01*
X478254Y270787D01*
X478271Y270854D01*
X478281Y271015D01*
X478281Y277085D01*
X478269Y277184D01*
X478266Y277283D01*
X478249Y277341D01*
X478241Y277401D01*
X478205Y277493D01*
X478177Y277588D01*
X478147Y277640D01*
X478124Y277697D01*
X478066Y277777D01*
X478016Y277862D01*
X477950Y277937D01*
X477938Y277954D01*
X477928Y277962D01*
X477910Y277983D01*
X473361Y282532D01*
X473267Y282605D01*
X473177Y282683D01*
X473141Y282702D01*
X473110Y282727D01*
X473000Y282774D01*
X472894Y282828D01*
X472855Y282837D01*
X472818Y282853D01*
X472700Y282872D01*
X472584Y282898D01*
X472543Y282896D01*
X472504Y282903D01*
X472385Y282892D01*
X472266Y282888D01*
X472227Y282877D01*
X472187Y282873D01*
X472075Y282832D01*
X471960Y282799D01*
X471926Y282779D01*
X471888Y282765D01*
X471789Y282698D01*
X471686Y282638D01*
X471683Y282635D01*
X467551Y280923D01*
X446849Y280923D01*
X442741Y282625D01*
X439597Y285769D01*
X437895Y289877D01*
X437895Y294323D01*
X439597Y298431D01*
X442741Y301575D01*
X446849Y303277D01*
X467551Y303277D01*
X471659Y301575D01*
X474803Y298431D01*
X476505Y294323D01*
X476505Y292129D01*
X476517Y292030D01*
X476520Y291931D01*
X476537Y291873D01*
X476545Y291813D01*
X476581Y291721D01*
X476609Y291626D01*
X476639Y291574D01*
X476662Y291517D01*
X476720Y291437D01*
X476770Y291352D01*
X476836Y291277D01*
X476848Y291260D01*
X476858Y291252D01*
X476876Y291231D01*
X486919Y281189D01*
X486919Y180115D01*
X486931Y180016D01*
X486934Y179917D01*
X486951Y179859D01*
X486959Y179799D01*
X486995Y179707D01*
X487023Y179612D01*
X487053Y179560D01*
X487076Y179503D01*
X487134Y179423D01*
X487184Y179338D01*
X487250Y179263D01*
X487262Y179246D01*
X487272Y179238D01*
X487290Y179217D01*
X558157Y108351D01*
X558266Y108266D01*
X558373Y108177D01*
X558392Y108169D01*
X558408Y108156D01*
X558536Y108101D01*
X558661Y108042D01*
X558681Y108038D01*
X558700Y108030D01*
X558838Y108008D01*
X558974Y107982D01*
X558994Y107983D01*
X559014Y107980D01*
X559153Y107993D01*
X559291Y108002D01*
X559310Y108008D01*
X559330Y108010D01*
X559462Y108057D01*
X559593Y108100D01*
X559611Y108110D01*
X559630Y108117D01*
X559745Y108195D01*
X559862Y108270D01*
X559876Y108285D01*
X559893Y108296D01*
X559985Y108400D01*
X560080Y108501D01*
X560090Y108519D01*
X560103Y108534D01*
X560167Y108658D01*
X560234Y108780D01*
X560239Y108800D01*
X560248Y108818D01*
X560278Y108953D01*
X560313Y109088D01*
X560315Y109116D01*
X560318Y109128D01*
X560317Y109148D01*
X560323Y109249D01*
X560323Y118843D01*
X560311Y118942D01*
X560308Y119041D01*
X560291Y119099D01*
X560283Y119159D01*
X560247Y119251D01*
X560219Y119346D01*
X560189Y119398D01*
X560166Y119455D01*
X560108Y119535D01*
X560058Y119620D01*
X559992Y119695D01*
X559980Y119712D01*
X559970Y119720D01*
X559952Y119741D01*
X490981Y188711D01*
X490981Y289785D01*
X490969Y289884D01*
X490966Y289983D01*
X490949Y290041D01*
X490941Y290101D01*
X490905Y290193D01*
X490877Y290288D01*
X490847Y290340D01*
X490824Y290397D01*
X490766Y290477D01*
X490716Y290562D01*
X490650Y290637D01*
X490638Y290654D01*
X490628Y290662D01*
X490610Y290683D01*
X473361Y307932D01*
X473267Y308005D01*
X473177Y308083D01*
X473141Y308102D01*
X473110Y308127D01*
X473000Y308174D01*
X472894Y308228D01*
X472855Y308237D01*
X472818Y308253D01*
X472700Y308272D01*
X472584Y308298D01*
X472543Y308296D01*
X472504Y308303D01*
X472385Y308292D01*
X472266Y308288D01*
X472227Y308277D01*
X472187Y308273D01*
X472075Y308232D01*
X471960Y308199D01*
X471926Y308179D01*
X471888Y308165D01*
X471789Y308098D01*
X471686Y308038D01*
X471683Y308035D01*
X467551Y306323D01*
X446849Y306323D01*
X442741Y308025D01*
X439597Y311169D01*
X437895Y315277D01*
X437895Y319723D01*
X439597Y323831D01*
X442741Y326975D01*
X446849Y328677D01*
X467551Y328677D01*
X471659Y326975D01*
X474803Y323831D01*
X476505Y319723D01*
X476505Y317529D01*
X476517Y317430D01*
X476520Y317331D01*
X476537Y317273D01*
X476545Y317213D01*
X476581Y317121D01*
X476609Y317026D01*
X476639Y316974D01*
X476662Y316917D01*
X476720Y316837D01*
X476770Y316752D01*
X476836Y316677D01*
X476848Y316660D01*
X476858Y316652D01*
X476876Y316631D01*
X499619Y293889D01*
X499619Y192815D01*
X499631Y192716D01*
X499634Y192617D01*
X499651Y192559D01*
X499659Y192499D01*
X499695Y192407D01*
X499723Y192312D01*
X499753Y192260D01*
X499776Y192203D01*
X499834Y192123D01*
X499884Y192038D01*
X499950Y191963D01*
X499962Y191946D01*
X499972Y191938D01*
X499990Y191917D01*
X558157Y133751D01*
X558266Y133666D01*
X558373Y133577D01*
X558392Y133569D01*
X558408Y133556D01*
X558536Y133501D01*
X558661Y133442D01*
X558681Y133438D01*
X558700Y133430D01*
X558838Y133408D01*
X558974Y133382D01*
X558994Y133383D01*
X559014Y133380D01*
X559153Y133393D01*
X559291Y133402D01*
X559310Y133408D01*
X559330Y133410D01*
X559462Y133457D01*
X559593Y133500D01*
X559611Y133510D01*
X559630Y133517D01*
X559745Y133595D01*
X559862Y133670D01*
X559876Y133685D01*
X559893Y133696D01*
X559985Y133800D01*
X560080Y133901D01*
X560090Y133919D01*
X560103Y133934D01*
X560167Y134058D01*
X560234Y134180D01*
X560239Y134200D01*
X560248Y134218D01*
X560278Y134353D01*
X560313Y134488D01*
X560315Y134516D01*
X560318Y134528D01*
X560317Y134548D01*
X560323Y134649D01*
X560323Y144243D01*
X560311Y144342D01*
X560308Y144441D01*
X560291Y144499D01*
X560283Y144559D01*
X560247Y144651D01*
X560219Y144746D01*
X560189Y144798D01*
X560166Y144855D01*
X560108Y144935D01*
X560058Y145020D01*
X559992Y145095D01*
X559980Y145112D01*
X559970Y145120D01*
X559952Y145141D01*
X503681Y201411D01*
X503681Y302485D01*
X503669Y302584D01*
X503666Y302683D01*
X503649Y302741D01*
X503641Y302801D01*
X503605Y302893D01*
X503577Y302988D01*
X503547Y303040D01*
X503524Y303097D01*
X503466Y303177D01*
X503416Y303262D01*
X503350Y303337D01*
X503338Y303354D01*
X503328Y303362D01*
X503310Y303383D01*
X473361Y333332D01*
X473267Y333405D01*
X473177Y333483D01*
X473141Y333502D01*
X473110Y333527D01*
X473000Y333574D01*
X472894Y333628D01*
X472855Y333637D01*
X472818Y333653D01*
X472700Y333672D01*
X472584Y333698D01*
X472543Y333696D01*
X472504Y333703D01*
X472385Y333692D01*
X472266Y333688D01*
X472227Y333677D01*
X472187Y333673D01*
X472075Y333632D01*
X471960Y333599D01*
X471926Y333579D01*
X471888Y333565D01*
X471789Y333498D01*
X471686Y333438D01*
X471683Y333435D01*
X467551Y331723D01*
X446849Y331723D01*
X442741Y333425D01*
X439597Y336569D01*
X437895Y340677D01*
X437895Y345123D01*
X439597Y349231D01*
X442741Y352375D01*
X446849Y354077D01*
X467551Y354077D01*
X471659Y352375D01*
X474803Y349231D01*
X476505Y345123D01*
X476505Y342929D01*
X476517Y342830D01*
X476520Y342731D01*
X476537Y342673D01*
X476545Y342613D01*
X476581Y342521D01*
X476609Y342426D01*
X476639Y342374D01*
X476662Y342317D01*
X476720Y342237D01*
X476770Y342152D01*
X476836Y342077D01*
X476848Y342060D01*
X476858Y342052D01*
X476876Y342031D01*
X512319Y306589D01*
X512319Y205515D01*
X512331Y205416D01*
X512334Y205317D01*
X512351Y205259D01*
X512359Y205199D01*
X512395Y205107D01*
X512423Y205012D01*
X512453Y204960D01*
X512476Y204903D01*
X512534Y204823D01*
X512584Y204738D01*
X512650Y204663D01*
X512662Y204646D01*
X512672Y204638D01*
X512690Y204617D01*
X558157Y159151D01*
X558266Y159066D01*
X558373Y158977D01*
X558392Y158969D01*
X558408Y158956D01*
X558536Y158901D01*
X558661Y158842D01*
X558681Y158838D01*
X558700Y158830D01*
X558838Y158808D01*
X558974Y158782D01*
X558994Y158783D01*
X559014Y158780D01*
X559153Y158793D01*
X559291Y158802D01*
X559310Y158808D01*
X559330Y158810D01*
X559462Y158857D01*
X559593Y158900D01*
X559611Y158910D01*
X559630Y158917D01*
X559745Y158995D01*
X559862Y159070D01*
X559876Y159085D01*
X559893Y159096D01*
X559985Y159200D01*
X560080Y159301D01*
X560090Y159319D01*
X560103Y159334D01*
X560167Y159458D01*
X560234Y159580D01*
X560239Y159600D01*
X560248Y159618D01*
X560278Y159753D01*
X560313Y159888D01*
X560315Y159916D01*
X560318Y159928D01*
X560317Y159948D01*
X560323Y160049D01*
X560323Y169643D01*
X560311Y169742D01*
X560308Y169841D01*
X560291Y169899D01*
X560283Y169959D01*
X560247Y170051D01*
X560219Y170146D01*
X560189Y170198D01*
X560166Y170255D01*
X560108Y170335D01*
X560058Y170420D01*
X559992Y170495D01*
X559980Y170512D01*
X559970Y170520D01*
X559952Y170541D01*
X516381Y214111D01*
X516381Y315185D01*
X516369Y315284D01*
X516366Y315383D01*
X516349Y315441D01*
X516341Y315501D01*
X516305Y315593D01*
X516277Y315688D01*
X516247Y315740D01*
X516224Y315797D01*
X516166Y315877D01*
X516116Y315962D01*
X516050Y316037D01*
X516038Y316054D01*
X516028Y316062D01*
X516010Y316083D01*
X473361Y358732D01*
X473267Y358805D01*
X473177Y358883D01*
X473141Y358902D01*
X473110Y358927D01*
X473000Y358974D01*
X472894Y359028D01*
X472855Y359037D01*
X472818Y359053D01*
X472700Y359072D01*
X472584Y359098D01*
X472543Y359096D01*
X472504Y359103D01*
X472385Y359092D01*
X472266Y359088D01*
X472227Y359077D01*
X472187Y359073D01*
X472075Y359032D01*
X471960Y358999D01*
X471926Y358979D01*
X471888Y358965D01*
X471789Y358898D01*
X471686Y358838D01*
X471683Y358835D01*
X467551Y357123D01*
X446849Y357123D01*
X442741Y358825D01*
X439597Y361969D01*
X437895Y366077D01*
X437895Y370523D01*
X439597Y374631D01*
X442741Y377775D01*
X446849Y379477D01*
X467551Y379477D01*
X471659Y377775D01*
X474803Y374631D01*
X476505Y370523D01*
X476505Y368329D01*
X476517Y368230D01*
X476520Y368131D01*
X476537Y368073D01*
X476545Y368013D01*
X476581Y367921D01*
X476609Y367826D01*
X476639Y367774D01*
X476662Y367717D01*
X476720Y367637D01*
X476770Y367552D01*
X476836Y367477D01*
X476848Y367460D01*
X476858Y367452D01*
X476876Y367431D01*
X525019Y319289D01*
X525019Y218215D01*
X525031Y218116D01*
X525034Y218017D01*
X525051Y217959D01*
X525059Y217899D01*
X525095Y217807D01*
X525123Y217712D01*
X525153Y217660D01*
X525176Y217603D01*
X525234Y217523D01*
X525284Y217438D01*
X525350Y217363D01*
X525362Y217346D01*
X525372Y217338D01*
X525390Y217317D01*
X558157Y184551D01*
X558266Y184466D01*
X558373Y184377D01*
X558392Y184369D01*
X558408Y184356D01*
X558536Y184301D01*
X558661Y184242D01*
X558681Y184238D01*
X558700Y184230D01*
X558838Y184208D01*
X558974Y184182D01*
X558994Y184183D01*
X559014Y184180D01*
X559153Y184193D01*
X559291Y184202D01*
X559310Y184208D01*
X559330Y184210D01*
X559462Y184257D01*
X559593Y184300D01*
X559611Y184310D01*
X559630Y184317D01*
X559745Y184395D01*
X559862Y184470D01*
X559876Y184485D01*
X559893Y184496D01*
X559985Y184600D01*
X560080Y184701D01*
X560090Y184719D01*
X560103Y184734D01*
X560167Y184858D01*
X560234Y184980D01*
X560239Y185000D01*
X560248Y185018D01*
X560278Y185153D01*
X560313Y185288D01*
X560315Y185316D01*
X560318Y185328D01*
X560317Y185348D01*
X560323Y185449D01*
X560323Y195130D01*
X566870Y201677D01*
X576130Y201677D01*
X582677Y195130D01*
X582677Y185870D01*
X576130Y179323D01*
X566449Y179323D01*
X566311Y179306D01*
X566172Y179293D01*
X566153Y179286D01*
X566133Y179283D01*
X566004Y179232D01*
X565873Y179185D01*
X565856Y179174D01*
X565837Y179166D01*
X565725Y179085D01*
X565610Y179007D01*
X565596Y178991D01*
X565580Y178980D01*
X565491Y178872D01*
X565399Y178768D01*
X565390Y178750D01*
X565377Y178735D01*
X565318Y178609D01*
X565255Y178485D01*
X565250Y178465D01*
X565242Y178447D01*
X565216Y178311D01*
X565185Y178175D01*
X565186Y178154D01*
X565182Y178135D01*
X565191Y177996D01*
X565195Y177857D01*
X565200Y177837D01*
X565202Y177817D01*
X565244Y177685D01*
X565283Y177551D01*
X565293Y177534D01*
X565300Y177515D01*
X565374Y177397D01*
X565445Y177277D01*
X565463Y177256D01*
X565470Y177246D01*
X565485Y177232D01*
X565551Y177156D01*
X566059Y176648D01*
X566137Y176588D01*
X566210Y176520D01*
X566263Y176491D01*
X566310Y176454D01*
X566401Y176414D01*
X566488Y176366D01*
X566547Y176351D01*
X566602Y176327D01*
X566700Y176312D01*
X566796Y176287D01*
X566896Y176281D01*
X566916Y176277D01*
X566929Y176279D01*
X566957Y176277D01*
X576130Y176277D01*
X582677Y169730D01*
X582677Y160470D01*
X576130Y153923D01*
X566449Y153923D01*
X566311Y153906D01*
X566172Y153893D01*
X566153Y153886D01*
X566133Y153883D01*
X566004Y153832D01*
X565873Y153785D01*
X565856Y153774D01*
X565837Y153766D01*
X565725Y153685D01*
X565610Y153607D01*
X565596Y153591D01*
X565580Y153580D01*
X565491Y153472D01*
X565399Y153368D01*
X565390Y153350D01*
X565377Y153335D01*
X565318Y153209D01*
X565255Y153085D01*
X565250Y153065D01*
X565242Y153047D01*
X565216Y152911D01*
X565185Y152775D01*
X565186Y152754D01*
X565182Y152735D01*
X565191Y152596D01*
X565195Y152457D01*
X565200Y152437D01*
X565202Y152417D01*
X565244Y152285D01*
X565283Y152151D01*
X565293Y152134D01*
X565300Y152115D01*
X565374Y151997D01*
X565445Y151877D01*
X565463Y151856D01*
X565470Y151846D01*
X565485Y151832D01*
X565551Y151756D01*
X566059Y151248D01*
X566137Y151188D01*
X566210Y151120D01*
X566263Y151091D01*
X566310Y151054D01*
X566401Y151014D01*
X566488Y150966D01*
X566547Y150951D01*
X566602Y150927D01*
X566700Y150912D01*
X566796Y150887D01*
X566896Y150881D01*
X566916Y150877D01*
X566929Y150879D01*
X566957Y150877D01*
X576130Y150877D01*
X582677Y144330D01*
X582677Y135070D01*
X576130Y128523D01*
X566449Y128523D01*
X566311Y128506D01*
X566172Y128493D01*
X566153Y128486D01*
X566133Y128483D01*
X566004Y128432D01*
X565873Y128385D01*
X565856Y128374D01*
X565837Y128366D01*
X565725Y128285D01*
X565610Y128207D01*
X565596Y128191D01*
X565580Y128180D01*
X565491Y128072D01*
X565399Y127968D01*
X565390Y127950D01*
X565377Y127935D01*
X565318Y127809D01*
X565255Y127685D01*
X565250Y127665D01*
X565242Y127647D01*
X565216Y127511D01*
X565185Y127375D01*
X565186Y127354D01*
X565182Y127335D01*
X565191Y127196D01*
X565195Y127057D01*
X565200Y127037D01*
X565202Y127017D01*
X565244Y126885D01*
X565283Y126751D01*
X565293Y126734D01*
X565300Y126715D01*
X565374Y126597D01*
X565445Y126477D01*
X565463Y126456D01*
X565470Y126446D01*
X565485Y126432D01*
X565551Y126356D01*
X566059Y125848D01*
X566137Y125788D01*
X566210Y125720D01*
X566263Y125691D01*
X566310Y125654D01*
X566401Y125614D01*
X566488Y125566D01*
X566547Y125551D01*
X566602Y125527D01*
X566700Y125512D01*
X566796Y125487D01*
X566896Y125481D01*
X566916Y125477D01*
X566929Y125479D01*
X566957Y125477D01*
X576130Y125477D01*
X582677Y118930D01*
X582677Y109670D01*
X576130Y103123D01*
X566449Y103123D01*
X566311Y103106D01*
X566172Y103093D01*
X566153Y103086D01*
X566133Y103083D01*
X566004Y103032D01*
X565873Y102985D01*
X565856Y102974D01*
X565837Y102966D01*
X565725Y102885D01*
X565610Y102807D01*
X565596Y102791D01*
X565580Y102780D01*
X565491Y102672D01*
X565399Y102568D01*
X565390Y102550D01*
X565377Y102535D01*
X565318Y102409D01*
X565255Y102285D01*
X565250Y102265D01*
X565242Y102247D01*
X565216Y102111D01*
X565185Y101975D01*
X565186Y101954D01*
X565182Y101935D01*
X565191Y101796D01*
X565195Y101657D01*
X565200Y101637D01*
X565202Y101617D01*
X565244Y101485D01*
X565283Y101351D01*
X565293Y101334D01*
X565300Y101315D01*
X565374Y101197D01*
X565445Y101077D01*
X565463Y101056D01*
X565470Y101046D01*
X565485Y101032D01*
X565551Y100957D01*
X566059Y100448D01*
X566137Y100388D01*
X566209Y100320D01*
X566262Y100291D01*
X566310Y100254D01*
X566401Y100214D01*
X566488Y100166D01*
X566547Y100151D01*
X566602Y100127D01*
X566700Y100112D01*
X566796Y100087D01*
X566896Y100081D01*
X566916Y100077D01*
X566929Y100079D01*
X566957Y100077D01*
X576130Y100077D01*
X582677Y93530D01*
X582677Y84270D01*
X576130Y77723D01*
X566870Y77723D01*
X560323Y84270D01*
X560323Y93443D01*
X560311Y93542D01*
X560308Y93641D01*
X560291Y93699D01*
X560283Y93759D01*
X560247Y93851D01*
X560219Y93946D01*
X560189Y93998D01*
X560166Y94055D01*
X560108Y94135D01*
X560058Y94220D01*
X559992Y94295D01*
X559980Y94312D01*
X559970Y94320D01*
X559952Y94341D01*
X481183Y173110D01*
X478281Y176011D01*
X478281Y186185D01*
X478273Y186254D01*
X478274Y186324D01*
X478253Y186411D01*
X478241Y186500D01*
X478216Y186565D01*
X478199Y186633D01*
X478157Y186713D01*
X478124Y186796D01*
X478083Y186852D01*
X478051Y186914D01*
X477990Y186981D01*
X477938Y187053D01*
X477884Y187098D01*
X477837Y187150D01*
X477762Y187199D01*
X477693Y187256D01*
X477629Y187286D01*
X477571Y187324D01*
X477486Y187353D01*
X477405Y187392D01*
X477336Y187405D01*
X477270Y187428D01*
X477181Y187435D01*
X477093Y187452D01*
X477023Y187447D01*
X476953Y187453D01*
X476865Y187437D01*
X476775Y187432D01*
X476709Y187410D01*
X476640Y187398D01*
X476558Y187361D01*
X476473Y187334D01*
X476414Y187296D01*
X476350Y187268D01*
X476280Y187212D01*
X476204Y187164D01*
X476156Y187113D01*
X476102Y187069D01*
X476047Y186997D01*
X475986Y186932D01*
X475952Y186871D01*
X475910Y186815D01*
X475839Y186671D01*
X474803Y184169D01*
X471659Y181025D01*
X467551Y179323D01*
X446849Y179323D01*
X442741Y181025D01*
X439597Y184169D01*
X437895Y188277D01*
X437895Y192723D01*
X439597Y196831D01*
X442741Y199975D01*
X446849Y201677D01*
X467551Y201677D01*
X471659Y199975D01*
X474803Y196831D01*
X475839Y194329D01*
X475874Y194269D01*
X475900Y194204D01*
X475952Y194131D01*
X475997Y194053D01*
X476045Y194003D01*
X476086Y193947D01*
X476156Y193889D01*
X476218Y193825D01*
X476278Y193788D01*
X476331Y193744D01*
X476413Y193705D01*
X476489Y193659D01*
X476556Y193638D01*
X476619Y193608D01*
X476707Y193591D01*
X476793Y193565D01*
X476863Y193562D01*
X476932Y193548D01*
X477021Y193554D01*
X477111Y193550D01*
X477179Y193564D01*
X477249Y193568D01*
X477334Y193596D01*
X477422Y193614D01*
X477485Y193645D01*
X477551Y193666D01*
X477627Y193714D01*
X477708Y193754D01*
X477761Y193799D01*
X477820Y193836D01*
X477882Y193902D01*
X477950Y193960D01*
X477990Y194017D01*
X478038Y194068D01*
X478081Y194147D01*
X478133Y194220D01*
X478158Y194286D01*
X478192Y194347D01*
X478214Y194433D01*
X478246Y194518D01*
X478254Y194587D01*
X478271Y194654D01*
X478281Y194815D01*
X478281Y211585D01*
X478273Y211654D01*
X478274Y211724D01*
X478253Y211811D01*
X478241Y211900D01*
X478216Y211965D01*
X478199Y212033D01*
X478157Y212113D01*
X478124Y212196D01*
X478083Y212252D01*
X478051Y212314D01*
X477990Y212381D01*
X477938Y212453D01*
X477884Y212498D01*
X477837Y212550D01*
X477762Y212599D01*
X477693Y212656D01*
X477629Y212686D01*
X477571Y212724D01*
X477486Y212753D01*
X477405Y212792D01*
X477336Y212805D01*
X477270Y212828D01*
X477181Y212835D01*
X477093Y212852D01*
X477023Y212847D01*
X476953Y212853D01*
X476865Y212837D01*
X476775Y212832D01*
X476709Y212810D01*
X476640Y212798D01*
X476558Y212761D01*
X476473Y212734D01*
X476414Y212696D01*
X476350Y212668D01*
X476280Y212612D01*
X476204Y212564D01*
X476156Y212513D01*
X476102Y212469D01*
X476047Y212397D01*
X475986Y212332D01*
X475952Y212271D01*
X475910Y212215D01*
X475839Y212071D01*
X474803Y209569D01*
X471659Y206425D01*
X467551Y204723D01*
X446849Y204723D01*
X442741Y206425D01*
X439597Y209569D01*
X437975Y213485D01*
X437950Y213528D01*
X437933Y213575D01*
X437872Y213666D01*
X437817Y213761D01*
X437783Y213797D01*
X437755Y213838D01*
X437672Y213911D01*
X437596Y213990D01*
X437553Y214016D01*
X437516Y214049D01*
X437418Y214099D01*
X437325Y214156D01*
X437277Y214171D01*
X437233Y214193D01*
X437126Y214217D01*
X437021Y214250D01*
X436971Y214252D01*
X436923Y214263D01*
X436813Y214260D01*
X436703Y214265D01*
X436655Y214255D01*
X436605Y214253D01*
X436499Y214223D01*
X436392Y214201D01*
X436347Y214179D01*
X436299Y214165D01*
X436205Y214109D01*
X436106Y214061D01*
X436068Y214029D01*
X436025Y214003D01*
X435905Y213897D01*
X423886Y201878D01*
X423813Y201784D01*
X423734Y201695D01*
X423716Y201659D01*
X423691Y201627D01*
X423644Y201518D01*
X423590Y201412D01*
X423581Y201372D01*
X423565Y201335D01*
X423546Y201218D01*
X423520Y201102D01*
X423521Y201061D01*
X423515Y201021D01*
X423526Y200903D01*
X423530Y200784D01*
X423541Y200745D01*
X423545Y200705D01*
X423585Y200592D01*
X423618Y200478D01*
X423639Y200443D01*
X423652Y200405D01*
X423719Y200307D01*
X423780Y200204D01*
X423819Y200159D01*
X423831Y200142D01*
X423846Y200129D01*
X423886Y200083D01*
X429261Y194709D01*
X429261Y186291D01*
X423790Y180821D01*
X423730Y180743D01*
X423662Y180671D01*
X423633Y180618D01*
X423596Y180570D01*
X423556Y180479D01*
X423508Y180392D01*
X423493Y180334D01*
X423469Y180278D01*
X423454Y180180D01*
X423429Y180084D01*
X423423Y179984D01*
X423419Y179964D01*
X423421Y179952D01*
X423419Y179924D01*
X423419Y167415D01*
X423431Y167316D01*
X423434Y167217D01*
X423451Y167159D01*
X423459Y167099D01*
X423495Y167007D01*
X423523Y166912D01*
X423553Y166860D01*
X423576Y166803D01*
X423634Y166723D01*
X423684Y166638D01*
X423750Y166563D01*
X423762Y166546D01*
X423772Y166538D01*
X423790Y166517D01*
X433217Y157090D01*
X436119Y154189D01*
X436119Y144015D01*
X436127Y143946D01*
X436126Y143876D01*
X436147Y143789D01*
X436159Y143700D01*
X436184Y143635D01*
X436201Y143567D01*
X436243Y143487D01*
X436276Y143404D01*
X436317Y143348D01*
X436349Y143286D01*
X436410Y143219D01*
X436462Y143147D01*
X436516Y143102D01*
X436563Y143050D01*
X436638Y143001D01*
X436707Y142944D01*
X436771Y142914D01*
X436829Y142876D01*
X436914Y142847D01*
X436995Y142808D01*
X437064Y142795D01*
X437130Y142772D01*
X437219Y142765D01*
X437307Y142748D01*
X437377Y142753D01*
X437447Y142747D01*
X437535Y142763D01*
X437625Y142768D01*
X437691Y142790D01*
X437760Y142802D01*
X437842Y142839D01*
X437927Y142866D01*
X437986Y142904D01*
X438050Y142932D01*
X438120Y142988D01*
X438196Y143036D01*
X438244Y143087D01*
X438298Y143131D01*
X438353Y143203D01*
X438414Y143268D01*
X438448Y143329D01*
X438490Y143385D01*
X438561Y143529D01*
X439597Y146031D01*
X442741Y149175D01*
X446849Y150877D01*
X467551Y150877D01*
X471659Y149175D01*
X474803Y146031D01*
X476505Y141923D01*
X476505Y137477D01*
X474803Y133369D01*
X471659Y130225D01*
X467551Y128523D01*
X446849Y128523D01*
X442741Y130225D01*
X439597Y133369D01*
X438561Y135871D01*
X438526Y135931D01*
X438500Y135996D01*
X438448Y136069D01*
X438403Y136147D01*
X438355Y136197D01*
X438314Y136253D01*
X438244Y136311D01*
X438182Y136375D01*
X438122Y136412D01*
X438069Y136456D01*
X437987Y136495D01*
X437911Y136541D01*
X437844Y136562D01*
X437781Y136592D01*
X437693Y136609D01*
X437607Y136635D01*
X437537Y136638D01*
X437468Y136652D01*
X437379Y136646D01*
X437289Y136650D01*
X437221Y136636D01*
X437151Y136632D01*
X437066Y136604D01*
X436978Y136586D01*
X436915Y136555D01*
X436849Y136534D01*
X436773Y136486D01*
X436692Y136446D01*
X436639Y136401D01*
X436580Y136364D01*
X436518Y136298D01*
X436450Y136240D01*
X436410Y136183D01*
X436362Y136132D01*
X436319Y136053D01*
X436267Y135980D01*
X436242Y135914D01*
X436208Y135853D01*
X436186Y135767D01*
X436154Y135682D01*
X436146Y135613D01*
X436129Y135546D01*
X436119Y135385D01*
X436119Y118615D01*
X436127Y118546D01*
X436126Y118476D01*
X436147Y118389D01*
X436159Y118300D01*
X436184Y118235D01*
X436201Y118167D01*
X436243Y118087D01*
X436276Y118004D01*
X436317Y117948D01*
X436349Y117886D01*
X436410Y117819D01*
X436462Y117747D01*
X436516Y117702D01*
X436563Y117650D01*
X436638Y117601D01*
X436707Y117544D01*
X436771Y117514D01*
X436829Y117476D01*
X436914Y117447D01*
X436995Y117408D01*
X437064Y117395D01*
X437130Y117372D01*
X437219Y117365D01*
X437307Y117348D01*
X437377Y117353D01*
X437447Y117347D01*
X437535Y117363D01*
X437625Y117368D01*
X437691Y117390D01*
X437760Y117402D01*
X437842Y117439D01*
X437927Y117466D01*
X437986Y117504D01*
X438050Y117532D01*
X438120Y117588D01*
X438196Y117636D01*
X438244Y117687D01*
X438298Y117731D01*
X438353Y117803D01*
X438414Y117868D01*
X438448Y117929D01*
X438490Y117985D01*
X438561Y118129D01*
X439597Y120631D01*
X442741Y123775D01*
X446849Y125477D01*
X467551Y125477D01*
X471659Y123775D01*
X474803Y120631D01*
X476505Y116523D01*
X476505Y112077D01*
X474803Y107969D01*
X471659Y104825D01*
X467551Y103123D01*
X446849Y103123D01*
X442741Y104825D01*
X439597Y107969D01*
X438561Y110471D01*
X438526Y110531D01*
X438500Y110596D01*
X438448Y110669D01*
X438403Y110747D01*
X438355Y110797D01*
X438314Y110853D01*
X438244Y110911D01*
X438182Y110975D01*
X438122Y111012D01*
X438069Y111056D01*
X437987Y111095D01*
X437911Y111141D01*
X437844Y111162D01*
X437781Y111192D01*
X437693Y111209D01*
X437607Y111235D01*
X437537Y111238D01*
X437468Y111252D01*
X437379Y111246D01*
X437289Y111250D01*
X437221Y111236D01*
X437151Y111232D01*
X437066Y111204D01*
X436978Y111186D01*
X436915Y111155D01*
X436849Y111134D01*
X436773Y111086D01*
X436692Y111046D01*
X436639Y111001D01*
X436580Y110964D01*
X436518Y110898D01*
X436450Y110840D01*
X436410Y110783D01*
X436362Y110732D01*
X436319Y110653D01*
X436267Y110580D01*
X436242Y110514D01*
X436208Y110453D01*
X436186Y110367D01*
X436154Y110282D01*
X436146Y110213D01*
X436129Y110146D01*
X436119Y109985D01*
X436119Y99811D01*
X426076Y89769D01*
X426016Y89691D01*
X425948Y89618D01*
X425919Y89565D01*
X425882Y89518D01*
X425842Y89427D01*
X425794Y89340D01*
X425779Y89281D01*
X425755Y89226D01*
X425740Y89128D01*
X425715Y89032D01*
X425709Y88946D01*
X425707Y88935D01*
X425708Y88927D01*
X425705Y88912D01*
X425707Y88899D01*
X425705Y88871D01*
X425705Y86677D01*
X424003Y82569D01*
X420859Y79425D01*
X416751Y77723D01*
X396049Y77723D01*
G37*
%LPD*%
%LPC*%
G36*
X592270Y77723D02*
X592270Y77723D01*
X585723Y84270D01*
X585723Y93530D01*
X592270Y100077D01*
X601443Y100077D01*
X601542Y100089D01*
X601641Y100092D01*
X601699Y100109D01*
X601759Y100117D01*
X601851Y100153D01*
X601946Y100181D01*
X601998Y100211D01*
X602055Y100234D01*
X602135Y100292D01*
X602220Y100342D01*
X602295Y100408D01*
X602312Y100420D01*
X602320Y100430D01*
X602341Y100448D01*
X602849Y100956D01*
X602934Y101066D01*
X603023Y101173D01*
X603031Y101192D01*
X603044Y101208D01*
X603099Y101336D01*
X603158Y101461D01*
X603162Y101481D01*
X603170Y101500D01*
X603192Y101638D01*
X603218Y101774D01*
X603217Y101794D01*
X603220Y101814D01*
X603207Y101953D01*
X603198Y102091D01*
X603192Y102110D01*
X603190Y102130D01*
X603143Y102261D01*
X603100Y102393D01*
X603089Y102411D01*
X603083Y102430D01*
X603005Y102544D01*
X602930Y102662D01*
X602915Y102676D01*
X602904Y102693D01*
X602800Y102785D01*
X602699Y102880D01*
X602681Y102890D01*
X602666Y102903D01*
X602542Y102966D01*
X602420Y103034D01*
X602401Y103039D01*
X602382Y103048D01*
X602246Y103078D01*
X602112Y103113D01*
X602084Y103115D01*
X602072Y103118D01*
X602052Y103117D01*
X601951Y103123D01*
X592270Y103123D01*
X585723Y109670D01*
X585723Y118930D01*
X592270Y125477D01*
X601443Y125477D01*
X601542Y125489D01*
X601641Y125492D01*
X601699Y125509D01*
X601759Y125517D01*
X601851Y125553D01*
X601946Y125581D01*
X601998Y125611D01*
X602055Y125634D01*
X602135Y125692D01*
X602220Y125742D01*
X602295Y125808D01*
X602312Y125820D01*
X602320Y125830D01*
X602341Y125848D01*
X602849Y126356D01*
X602934Y126466D01*
X603023Y126573D01*
X603031Y126592D01*
X603044Y126608D01*
X603099Y126736D01*
X603158Y126861D01*
X603162Y126881D01*
X603170Y126900D01*
X603192Y127038D01*
X603218Y127174D01*
X603217Y127194D01*
X603220Y127214D01*
X603207Y127353D01*
X603198Y127491D01*
X603192Y127510D01*
X603190Y127530D01*
X603143Y127661D01*
X603100Y127793D01*
X603089Y127811D01*
X603083Y127830D01*
X603005Y127944D01*
X602930Y128062D01*
X602915Y128076D01*
X602904Y128093D01*
X602800Y128185D01*
X602699Y128280D01*
X602681Y128290D01*
X602666Y128303D01*
X602542Y128366D01*
X602420Y128434D01*
X602401Y128439D01*
X602382Y128448D01*
X602246Y128478D01*
X602112Y128513D01*
X602084Y128515D01*
X602072Y128518D01*
X602052Y128517D01*
X601951Y128523D01*
X592270Y128523D01*
X585723Y135070D01*
X585723Y144330D01*
X592270Y150877D01*
X601443Y150877D01*
X601542Y150889D01*
X601641Y150892D01*
X601699Y150909D01*
X601759Y150917D01*
X601851Y150953D01*
X601946Y150981D01*
X601998Y151011D01*
X602055Y151034D01*
X602135Y151092D01*
X602220Y151142D01*
X602295Y151208D01*
X602312Y151220D01*
X602320Y151230D01*
X602341Y151248D01*
X602849Y151756D01*
X602934Y151866D01*
X603023Y151973D01*
X603031Y151992D01*
X603044Y152008D01*
X603099Y152136D01*
X603158Y152261D01*
X603162Y152281D01*
X603170Y152300D01*
X603192Y152438D01*
X603218Y152574D01*
X603217Y152594D01*
X603220Y152614D01*
X603207Y152753D01*
X603198Y152891D01*
X603192Y152910D01*
X603190Y152930D01*
X603143Y153061D01*
X603100Y153193D01*
X603089Y153211D01*
X603083Y153230D01*
X603005Y153344D01*
X602930Y153462D01*
X602915Y153476D01*
X602904Y153493D01*
X602800Y153585D01*
X602699Y153680D01*
X602681Y153690D01*
X602666Y153703D01*
X602542Y153766D01*
X602420Y153834D01*
X602401Y153839D01*
X602382Y153848D01*
X602246Y153878D01*
X602112Y153913D01*
X602084Y153915D01*
X602072Y153918D01*
X602052Y153917D01*
X601951Y153923D01*
X592270Y153923D01*
X585723Y160470D01*
X585723Y169730D01*
X592270Y176277D01*
X601443Y176277D01*
X601542Y176289D01*
X601641Y176292D01*
X601699Y176309D01*
X601759Y176317D01*
X601851Y176353D01*
X601946Y176381D01*
X601998Y176411D01*
X602055Y176434D01*
X602135Y176492D01*
X602220Y176542D01*
X602295Y176608D01*
X602312Y176620D01*
X602320Y176630D01*
X602341Y176648D01*
X602849Y177157D01*
X602934Y177266D01*
X603023Y177373D01*
X603031Y177392D01*
X603044Y177408D01*
X603099Y177536D01*
X603158Y177661D01*
X603162Y177681D01*
X603170Y177700D01*
X603192Y177838D01*
X603218Y177974D01*
X603217Y177994D01*
X603220Y178014D01*
X603207Y178153D01*
X603198Y178291D01*
X603192Y178310D01*
X603190Y178330D01*
X603143Y178462D01*
X603100Y178593D01*
X603090Y178611D01*
X603083Y178630D01*
X603005Y178745D01*
X602930Y178862D01*
X602915Y178876D01*
X602904Y178893D01*
X602800Y178985D01*
X602699Y179080D01*
X602681Y179090D01*
X602666Y179103D01*
X602542Y179166D01*
X602420Y179234D01*
X602400Y179239D01*
X602382Y179248D01*
X602247Y179278D01*
X602112Y179313D01*
X602084Y179315D01*
X602072Y179318D01*
X602052Y179317D01*
X601951Y179323D01*
X592270Y179323D01*
X585723Y185870D01*
X585723Y195130D01*
X592270Y201677D01*
X601443Y201677D01*
X601542Y201689D01*
X601641Y201692D01*
X601699Y201709D01*
X601759Y201717D01*
X601851Y201753D01*
X601946Y201781D01*
X601998Y201811D01*
X602055Y201834D01*
X602135Y201892D01*
X602220Y201942D01*
X602295Y202008D01*
X602312Y202020D01*
X602320Y202030D01*
X602341Y202048D01*
X602849Y202556D01*
X602934Y202666D01*
X603023Y202773D01*
X603031Y202792D01*
X603044Y202808D01*
X603099Y202936D01*
X603158Y203061D01*
X603162Y203081D01*
X603170Y203100D01*
X603192Y203238D01*
X603218Y203374D01*
X603217Y203394D01*
X603220Y203414D01*
X603207Y203553D01*
X603198Y203691D01*
X603192Y203710D01*
X603190Y203730D01*
X603143Y203861D01*
X603100Y203993D01*
X603089Y204011D01*
X603083Y204030D01*
X603005Y204144D01*
X602930Y204262D01*
X602915Y204276D01*
X602904Y204293D01*
X602800Y204385D01*
X602699Y204480D01*
X602681Y204490D01*
X602666Y204503D01*
X602542Y204566D01*
X602420Y204634D01*
X602401Y204639D01*
X602382Y204648D01*
X602246Y204678D01*
X602112Y204713D01*
X602084Y204715D01*
X602072Y204718D01*
X602052Y204717D01*
X601951Y204723D01*
X592270Y204723D01*
X585723Y211270D01*
X585723Y220530D01*
X592270Y227077D01*
X601443Y227077D01*
X601542Y227089D01*
X601641Y227092D01*
X601699Y227109D01*
X601759Y227117D01*
X601851Y227153D01*
X601946Y227181D01*
X601998Y227211D01*
X602055Y227234D01*
X602135Y227292D01*
X602220Y227342D01*
X602295Y227408D01*
X602312Y227420D01*
X602320Y227430D01*
X602341Y227448D01*
X602849Y227956D01*
X602934Y228066D01*
X603023Y228173D01*
X603031Y228192D01*
X603044Y228208D01*
X603099Y228336D01*
X603158Y228461D01*
X603162Y228481D01*
X603170Y228500D01*
X603192Y228638D01*
X603218Y228774D01*
X603217Y228794D01*
X603220Y228814D01*
X603207Y228953D01*
X603198Y229091D01*
X603192Y229110D01*
X603190Y229130D01*
X603143Y229261D01*
X603100Y229393D01*
X603089Y229411D01*
X603083Y229430D01*
X603005Y229544D01*
X602930Y229662D01*
X602915Y229676D01*
X602904Y229693D01*
X602800Y229785D01*
X602699Y229880D01*
X602681Y229890D01*
X602666Y229903D01*
X602542Y229966D01*
X602420Y230034D01*
X602401Y230039D01*
X602382Y230048D01*
X602246Y230078D01*
X602112Y230113D01*
X602084Y230115D01*
X602072Y230118D01*
X602052Y230117D01*
X601951Y230123D01*
X592270Y230123D01*
X585723Y236670D01*
X585723Y245930D01*
X592270Y252477D01*
X601443Y252477D01*
X601542Y252489D01*
X601641Y252492D01*
X601699Y252509D01*
X601759Y252517D01*
X601851Y252553D01*
X601946Y252581D01*
X601998Y252611D01*
X602055Y252634D01*
X602135Y252692D01*
X602220Y252742D01*
X602295Y252808D01*
X602312Y252820D01*
X602320Y252830D01*
X602341Y252848D01*
X602849Y253356D01*
X602934Y253466D01*
X603023Y253573D01*
X603031Y253592D01*
X603044Y253608D01*
X603099Y253736D01*
X603158Y253861D01*
X603162Y253881D01*
X603170Y253900D01*
X603192Y254038D01*
X603218Y254174D01*
X603217Y254194D01*
X603220Y254214D01*
X603207Y254353D01*
X603198Y254491D01*
X603192Y254510D01*
X603190Y254530D01*
X603143Y254661D01*
X603100Y254793D01*
X603089Y254811D01*
X603083Y254830D01*
X603005Y254944D01*
X602930Y255062D01*
X602915Y255076D01*
X602904Y255093D01*
X602800Y255185D01*
X602699Y255280D01*
X602681Y255290D01*
X602666Y255303D01*
X602542Y255366D01*
X602420Y255434D01*
X602401Y255439D01*
X602382Y255448D01*
X602246Y255478D01*
X602112Y255513D01*
X602084Y255515D01*
X602072Y255518D01*
X602052Y255517D01*
X601951Y255523D01*
X592270Y255523D01*
X585723Y262070D01*
X585723Y271330D01*
X592270Y277877D01*
X601530Y277877D01*
X608077Y271330D01*
X608077Y261649D01*
X608094Y261511D01*
X608107Y261372D01*
X608114Y261353D01*
X608117Y261333D01*
X608168Y261204D01*
X608215Y261073D01*
X608226Y261056D01*
X608234Y261037D01*
X608315Y260925D01*
X608393Y260810D01*
X608409Y260796D01*
X608420Y260780D01*
X608528Y260691D01*
X608632Y260599D01*
X608650Y260590D01*
X608665Y260577D01*
X608791Y260518D01*
X608915Y260455D01*
X608935Y260450D01*
X608953Y260442D01*
X609089Y260416D01*
X609225Y260385D01*
X609246Y260386D01*
X609265Y260382D01*
X609404Y260391D01*
X609543Y260395D01*
X609563Y260400D01*
X609583Y260402D01*
X609715Y260444D01*
X609849Y260483D01*
X609866Y260493D01*
X609885Y260500D01*
X610003Y260574D01*
X610123Y260645D01*
X610144Y260663D01*
X610154Y260670D01*
X610168Y260685D01*
X610243Y260751D01*
X668410Y318917D01*
X668470Y318995D01*
X668538Y319068D01*
X668567Y319121D01*
X668604Y319168D01*
X668644Y319259D01*
X668692Y319346D01*
X668707Y319405D01*
X668731Y319460D01*
X668746Y319558D01*
X668771Y319654D01*
X668777Y319754D01*
X668781Y319774D01*
X668779Y319787D01*
X668781Y319815D01*
X668781Y370089D01*
X691524Y392831D01*
X691584Y392909D01*
X691652Y392982D01*
X691681Y393035D01*
X691718Y393082D01*
X691758Y393173D01*
X691806Y393260D01*
X691821Y393319D01*
X691845Y393374D01*
X691860Y393472D01*
X691885Y393568D01*
X691891Y393668D01*
X691895Y393688D01*
X691893Y393701D01*
X691895Y393729D01*
X691895Y395923D01*
X693597Y400031D01*
X696741Y403175D01*
X700849Y404877D01*
X721551Y404877D01*
X725659Y403175D01*
X728803Y400031D01*
X730505Y395923D01*
X730505Y391477D01*
X728803Y387369D01*
X725659Y384225D01*
X721551Y382523D01*
X700849Y382523D01*
X696696Y384243D01*
X696651Y384283D01*
X696615Y384302D01*
X696583Y384326D01*
X696474Y384374D01*
X696368Y384428D01*
X696328Y384437D01*
X696291Y384453D01*
X696174Y384471D01*
X696057Y384498D01*
X696017Y384496D01*
X695977Y384503D01*
X695859Y384492D01*
X695739Y384488D01*
X695701Y384477D01*
X695661Y384473D01*
X695548Y384433D01*
X695434Y384400D01*
X695399Y384379D01*
X695361Y384365D01*
X695263Y384298D01*
X695160Y384238D01*
X695115Y384198D01*
X695098Y384187D01*
X695085Y384172D01*
X695039Y384132D01*
X677790Y366883D01*
X677730Y366805D01*
X677662Y366732D01*
X677633Y366679D01*
X677596Y366632D01*
X677556Y366541D01*
X677508Y366454D01*
X677493Y366395D01*
X677469Y366340D01*
X677454Y366242D01*
X677429Y366146D01*
X677423Y366046D01*
X677419Y366026D01*
X677421Y366013D01*
X677419Y365985D01*
X677419Y315711D01*
X608448Y246741D01*
X608388Y246663D01*
X608320Y246590D01*
X608291Y246537D01*
X608254Y246490D01*
X608214Y246399D01*
X608166Y246312D01*
X608151Y246253D01*
X608127Y246198D01*
X608112Y246100D01*
X608087Y246004D01*
X608081Y245904D01*
X608077Y245884D01*
X608079Y245871D01*
X608077Y245843D01*
X608077Y236249D01*
X608094Y236111D01*
X608107Y235972D01*
X608114Y235953D01*
X608117Y235933D01*
X608168Y235804D01*
X608215Y235673D01*
X608226Y235656D01*
X608234Y235637D01*
X608315Y235525D01*
X608393Y235410D01*
X608409Y235396D01*
X608420Y235380D01*
X608528Y235291D01*
X608632Y235199D01*
X608650Y235190D01*
X608665Y235177D01*
X608791Y235118D01*
X608915Y235055D01*
X608935Y235050D01*
X608953Y235042D01*
X609089Y235016D01*
X609225Y234985D01*
X609246Y234986D01*
X609265Y234982D01*
X609404Y234991D01*
X609543Y234995D01*
X609563Y235000D01*
X609583Y235002D01*
X609715Y235044D01*
X609849Y235083D01*
X609866Y235093D01*
X609885Y235100D01*
X610003Y235174D01*
X610123Y235245D01*
X610144Y235263D01*
X610154Y235270D01*
X610168Y235285D01*
X610243Y235351D01*
X681110Y306217D01*
X681170Y306295D01*
X681238Y306368D01*
X681267Y306421D01*
X681304Y306468D01*
X681344Y306559D01*
X681392Y306646D01*
X681407Y306705D01*
X681431Y306760D01*
X681446Y306858D01*
X681471Y306954D01*
X681477Y307054D01*
X681481Y307074D01*
X681479Y307087D01*
X681481Y307115D01*
X681481Y357389D01*
X691524Y367431D01*
X691584Y367509D01*
X691652Y367582D01*
X691681Y367635D01*
X691718Y367682D01*
X691758Y367773D01*
X691806Y367860D01*
X691821Y367919D01*
X691845Y367974D01*
X691860Y368072D01*
X691885Y368168D01*
X691891Y368268D01*
X691895Y368288D01*
X691893Y368301D01*
X691895Y368329D01*
X691895Y370523D01*
X693597Y374631D01*
X696741Y377775D01*
X700849Y379477D01*
X721551Y379477D01*
X725659Y377775D01*
X728803Y374631D01*
X730505Y370523D01*
X730505Y366077D01*
X728803Y361969D01*
X725659Y358825D01*
X721551Y357123D01*
X700849Y357123D01*
X696696Y358843D01*
X696651Y358883D01*
X696615Y358902D01*
X696583Y358926D01*
X696474Y358974D01*
X696368Y359028D01*
X696328Y359037D01*
X696291Y359053D01*
X696174Y359071D01*
X696057Y359098D01*
X696017Y359096D01*
X695977Y359103D01*
X695859Y359092D01*
X695739Y359088D01*
X695701Y359077D01*
X695661Y359073D01*
X695548Y359033D01*
X695434Y359000D01*
X695399Y358979D01*
X695361Y358965D01*
X695263Y358898D01*
X695160Y358838D01*
X695115Y358798D01*
X695098Y358787D01*
X695085Y358772D01*
X695039Y358732D01*
X690490Y354183D01*
X690430Y354105D01*
X690362Y354032D01*
X690333Y353979D01*
X690296Y353932D01*
X690256Y353841D01*
X690208Y353754D01*
X690193Y353695D01*
X690169Y353640D01*
X690154Y353542D01*
X690129Y353446D01*
X690123Y353346D01*
X690119Y353326D01*
X690121Y353313D01*
X690119Y353285D01*
X690119Y347215D01*
X690127Y347146D01*
X690126Y347076D01*
X690147Y346989D01*
X690159Y346900D01*
X690184Y346835D01*
X690201Y346767D01*
X690243Y346687D01*
X690276Y346604D01*
X690317Y346548D01*
X690349Y346486D01*
X690410Y346419D01*
X690462Y346347D01*
X690516Y346302D01*
X690563Y346250D01*
X690638Y346201D01*
X690707Y346144D01*
X690771Y346114D01*
X690829Y346076D01*
X690914Y346047D01*
X690995Y346008D01*
X691064Y345995D01*
X691130Y345972D01*
X691219Y345965D01*
X691307Y345948D01*
X691377Y345953D01*
X691447Y345947D01*
X691535Y345963D01*
X691625Y345968D01*
X691691Y345990D01*
X691760Y346002D01*
X691842Y346039D01*
X691927Y346066D01*
X691986Y346104D01*
X692050Y346132D01*
X692120Y346188D01*
X692196Y346236D01*
X692244Y346287D01*
X692298Y346331D01*
X692353Y346403D01*
X692414Y346468D01*
X692448Y346529D01*
X692490Y346585D01*
X692561Y346729D01*
X693597Y349231D01*
X696741Y352375D01*
X700849Y354077D01*
X721551Y354077D01*
X725659Y352375D01*
X728803Y349231D01*
X730505Y345123D01*
X730505Y340677D01*
X728803Y336569D01*
X725659Y333425D01*
X721551Y331723D01*
X700849Y331723D01*
X696741Y333425D01*
X693597Y336569D01*
X692561Y339071D01*
X692526Y339131D01*
X692500Y339196D01*
X692448Y339269D01*
X692403Y339347D01*
X692355Y339397D01*
X692314Y339453D01*
X692244Y339511D01*
X692182Y339575D01*
X692122Y339612D01*
X692069Y339656D01*
X691987Y339695D01*
X691911Y339741D01*
X691844Y339762D01*
X691781Y339792D01*
X691693Y339809D01*
X691607Y339835D01*
X691537Y339838D01*
X691468Y339852D01*
X691379Y339846D01*
X691289Y339850D01*
X691221Y339836D01*
X691151Y339832D01*
X691066Y339804D01*
X690978Y339786D01*
X690915Y339755D01*
X690849Y339734D01*
X690773Y339686D01*
X690692Y339646D01*
X690639Y339601D01*
X690580Y339564D01*
X690518Y339498D01*
X690450Y339440D01*
X690410Y339383D01*
X690362Y339332D01*
X690319Y339253D01*
X690267Y339180D01*
X690242Y339114D01*
X690208Y339053D01*
X690186Y338967D01*
X690154Y338882D01*
X690146Y338813D01*
X690129Y338746D01*
X690119Y338585D01*
X690119Y321815D01*
X690127Y321746D01*
X690126Y321676D01*
X690147Y321589D01*
X690159Y321500D01*
X690184Y321435D01*
X690201Y321367D01*
X690243Y321287D01*
X690276Y321204D01*
X690317Y321148D01*
X690349Y321086D01*
X690410Y321019D01*
X690462Y320947D01*
X690516Y320902D01*
X690563Y320850D01*
X690638Y320801D01*
X690707Y320744D01*
X690771Y320714D01*
X690829Y320676D01*
X690914Y320647D01*
X690995Y320608D01*
X691064Y320595D01*
X691130Y320572D01*
X691219Y320565D01*
X691307Y320548D01*
X691377Y320553D01*
X691447Y320547D01*
X691535Y320563D01*
X691625Y320568D01*
X691691Y320590D01*
X691760Y320602D01*
X691842Y320639D01*
X691927Y320666D01*
X691986Y320704D01*
X692050Y320732D01*
X692120Y320788D01*
X692196Y320836D01*
X692244Y320887D01*
X692298Y320931D01*
X692353Y321003D01*
X692414Y321068D01*
X692448Y321129D01*
X692490Y321185D01*
X692561Y321329D01*
X693597Y323831D01*
X696741Y326975D01*
X700849Y328677D01*
X721551Y328677D01*
X725659Y326975D01*
X728803Y323831D01*
X730505Y319723D01*
X730505Y315277D01*
X728803Y311169D01*
X725659Y308025D01*
X721551Y306323D01*
X700849Y306323D01*
X696741Y308025D01*
X693597Y311169D01*
X692561Y313671D01*
X692526Y313731D01*
X692500Y313796D01*
X692448Y313869D01*
X692403Y313947D01*
X692355Y313997D01*
X692314Y314053D01*
X692244Y314111D01*
X692182Y314175D01*
X692122Y314212D01*
X692069Y314256D01*
X691987Y314295D01*
X691911Y314341D01*
X691844Y314362D01*
X691781Y314392D01*
X691693Y314409D01*
X691607Y314435D01*
X691537Y314438D01*
X691468Y314452D01*
X691379Y314446D01*
X691289Y314450D01*
X691221Y314436D01*
X691151Y314432D01*
X691066Y314404D01*
X690978Y314386D01*
X690915Y314355D01*
X690849Y314334D01*
X690773Y314286D01*
X690692Y314246D01*
X690639Y314201D01*
X690580Y314164D01*
X690518Y314098D01*
X690450Y314040D01*
X690410Y313983D01*
X690362Y313932D01*
X690319Y313853D01*
X690267Y313780D01*
X690242Y313714D01*
X690208Y313653D01*
X690186Y313567D01*
X690154Y313482D01*
X690146Y313413D01*
X690129Y313346D01*
X690119Y313185D01*
X690119Y303011D01*
X608448Y221341D01*
X608388Y221263D01*
X608320Y221190D01*
X608291Y221137D01*
X608254Y221090D01*
X608214Y220999D01*
X608166Y220912D01*
X608151Y220853D01*
X608127Y220798D01*
X608112Y220700D01*
X608087Y220604D01*
X608081Y220504D01*
X608077Y220484D01*
X608079Y220471D01*
X608077Y220443D01*
X608077Y210849D01*
X608094Y210711D01*
X608107Y210572D01*
X608114Y210553D01*
X608117Y210533D01*
X608168Y210404D01*
X608215Y210273D01*
X608226Y210256D01*
X608234Y210237D01*
X608315Y210125D01*
X608393Y210010D01*
X608409Y209996D01*
X608420Y209980D01*
X608528Y209891D01*
X608632Y209799D01*
X608650Y209790D01*
X608665Y209777D01*
X608791Y209718D01*
X608915Y209655D01*
X608935Y209650D01*
X608953Y209642D01*
X609089Y209616D01*
X609225Y209585D01*
X609246Y209586D01*
X609265Y209582D01*
X609404Y209591D01*
X609543Y209595D01*
X609563Y209600D01*
X609583Y209602D01*
X609715Y209644D01*
X609849Y209683D01*
X609866Y209693D01*
X609885Y209700D01*
X610003Y209774D01*
X610123Y209845D01*
X610144Y209863D01*
X610154Y209870D01*
X610168Y209885D01*
X610243Y209951D01*
X691524Y291231D01*
X691584Y291309D01*
X691652Y291382D01*
X691681Y291435D01*
X691718Y291482D01*
X691758Y291573D01*
X691806Y291660D01*
X691821Y291719D01*
X691845Y291774D01*
X691860Y291872D01*
X691885Y291968D01*
X691891Y292068D01*
X691895Y292088D01*
X691893Y292101D01*
X691895Y292129D01*
X691895Y294323D01*
X693597Y298431D01*
X696741Y301575D01*
X700849Y303277D01*
X721551Y303277D01*
X725659Y301575D01*
X728803Y298431D01*
X730505Y294323D01*
X730505Y289877D01*
X728803Y285769D01*
X725659Y282625D01*
X721551Y280923D01*
X700849Y280923D01*
X696696Y282643D01*
X696651Y282683D01*
X696615Y282702D01*
X696583Y282726D01*
X696474Y282774D01*
X696368Y282828D01*
X696328Y282837D01*
X696291Y282853D01*
X696174Y282871D01*
X696057Y282898D01*
X696017Y282896D01*
X695977Y282903D01*
X695859Y282892D01*
X695739Y282888D01*
X695701Y282877D01*
X695661Y282873D01*
X695548Y282833D01*
X695434Y282800D01*
X695399Y282779D01*
X695361Y282765D01*
X695263Y282699D01*
X695160Y282638D01*
X695115Y282598D01*
X695098Y282587D01*
X695085Y282572D01*
X695039Y282532D01*
X608448Y195941D01*
X608388Y195863D01*
X608320Y195790D01*
X608291Y195737D01*
X608254Y195690D01*
X608214Y195599D01*
X608166Y195512D01*
X608151Y195453D01*
X608127Y195398D01*
X608112Y195300D01*
X608087Y195204D01*
X608081Y195104D01*
X608077Y195084D01*
X608079Y195071D01*
X608077Y195043D01*
X608077Y185449D01*
X608094Y185311D01*
X608107Y185172D01*
X608114Y185153D01*
X608117Y185133D01*
X608168Y185004D01*
X608215Y184873D01*
X608226Y184856D01*
X608234Y184837D01*
X608315Y184725D01*
X608393Y184610D01*
X608409Y184596D01*
X608420Y184580D01*
X608528Y184491D01*
X608632Y184399D01*
X608650Y184390D01*
X608665Y184377D01*
X608791Y184318D01*
X608915Y184255D01*
X608935Y184250D01*
X608953Y184242D01*
X609089Y184216D01*
X609225Y184185D01*
X609246Y184186D01*
X609265Y184182D01*
X609404Y184191D01*
X609543Y184195D01*
X609563Y184200D01*
X609583Y184202D01*
X609715Y184244D01*
X609849Y184283D01*
X609866Y184293D01*
X609885Y184300D01*
X610003Y184374D01*
X610123Y184445D01*
X610144Y184463D01*
X610154Y184470D01*
X610168Y184485D01*
X610243Y184551D01*
X691524Y265831D01*
X691584Y265909D01*
X691652Y265981D01*
X691681Y266034D01*
X691718Y266082D01*
X691758Y266173D01*
X691806Y266260D01*
X691821Y266319D01*
X691845Y266374D01*
X691860Y266472D01*
X691885Y266568D01*
X691891Y266668D01*
X691895Y266688D01*
X691893Y266701D01*
X691895Y266729D01*
X691895Y268923D01*
X693597Y273031D01*
X696741Y276175D01*
X700849Y277877D01*
X721551Y277877D01*
X725659Y276175D01*
X728803Y273031D01*
X730505Y268923D01*
X730505Y264477D01*
X728803Y260369D01*
X725659Y257225D01*
X721551Y255523D01*
X700849Y255523D01*
X696696Y257243D01*
X696651Y257283D01*
X696615Y257302D01*
X696583Y257326D01*
X696474Y257374D01*
X696368Y257428D01*
X696328Y257437D01*
X696291Y257453D01*
X696174Y257471D01*
X696057Y257498D01*
X696017Y257496D01*
X695977Y257503D01*
X695859Y257492D01*
X695739Y257488D01*
X695701Y257477D01*
X695661Y257473D01*
X695548Y257433D01*
X695434Y257400D01*
X695399Y257379D01*
X695361Y257365D01*
X695263Y257299D01*
X695160Y257238D01*
X695115Y257198D01*
X695098Y257187D01*
X695085Y257172D01*
X695039Y257132D01*
X608448Y170541D01*
X608388Y170463D01*
X608320Y170391D01*
X608291Y170338D01*
X608254Y170290D01*
X608214Y170199D01*
X608166Y170112D01*
X608151Y170053D01*
X608127Y169998D01*
X608112Y169900D01*
X608087Y169804D01*
X608081Y169704D01*
X608077Y169684D01*
X608079Y169671D01*
X608077Y169643D01*
X608077Y160049D01*
X608094Y159911D01*
X608107Y159772D01*
X608114Y159753D01*
X608117Y159733D01*
X608168Y159604D01*
X608215Y159473D01*
X608226Y159456D01*
X608234Y159437D01*
X608315Y159325D01*
X608393Y159210D01*
X608409Y159196D01*
X608420Y159180D01*
X608528Y159091D01*
X608632Y158999D01*
X608650Y158990D01*
X608665Y158977D01*
X608791Y158918D01*
X608915Y158855D01*
X608935Y158850D01*
X608953Y158842D01*
X609089Y158816D01*
X609225Y158785D01*
X609246Y158786D01*
X609265Y158782D01*
X609404Y158791D01*
X609543Y158795D01*
X609563Y158800D01*
X609583Y158802D01*
X609715Y158844D01*
X609849Y158883D01*
X609866Y158893D01*
X609885Y158900D01*
X610003Y158974D01*
X610123Y159045D01*
X610144Y159063D01*
X610154Y159070D01*
X610168Y159085D01*
X610243Y159151D01*
X691524Y240431D01*
X691584Y240509D01*
X691652Y240581D01*
X691681Y240634D01*
X691718Y240682D01*
X691758Y240773D01*
X691806Y240860D01*
X691821Y240919D01*
X691845Y240974D01*
X691860Y241072D01*
X691885Y241168D01*
X691891Y241268D01*
X691895Y241288D01*
X691893Y241301D01*
X691895Y241329D01*
X691895Y243523D01*
X693597Y247631D01*
X696741Y250775D01*
X700849Y252477D01*
X721551Y252477D01*
X725659Y250775D01*
X728803Y247631D01*
X730505Y243523D01*
X730505Y239077D01*
X728803Y234969D01*
X725659Y231825D01*
X721551Y230123D01*
X700849Y230123D01*
X696696Y231843D01*
X696651Y231883D01*
X696615Y231902D01*
X696583Y231926D01*
X696474Y231974D01*
X696368Y232028D01*
X696328Y232037D01*
X696291Y232053D01*
X696174Y232071D01*
X696057Y232098D01*
X696017Y232096D01*
X695977Y232103D01*
X695859Y232092D01*
X695739Y232088D01*
X695701Y232077D01*
X695661Y232073D01*
X695548Y232033D01*
X695434Y232000D01*
X695399Y231979D01*
X695361Y231965D01*
X695263Y231899D01*
X695160Y231838D01*
X695115Y231798D01*
X695098Y231787D01*
X695085Y231772D01*
X695039Y231732D01*
X608448Y145141D01*
X608388Y145063D01*
X608320Y144990D01*
X608291Y144937D01*
X608254Y144890D01*
X608214Y144799D01*
X608166Y144712D01*
X608151Y144653D01*
X608127Y144598D01*
X608112Y144500D01*
X608087Y144404D01*
X608081Y144304D01*
X608077Y144284D01*
X608079Y144271D01*
X608077Y144243D01*
X608077Y134649D01*
X608094Y134511D01*
X608107Y134372D01*
X608114Y134353D01*
X608117Y134333D01*
X608168Y134204D01*
X608215Y134073D01*
X608226Y134056D01*
X608234Y134037D01*
X608315Y133925D01*
X608393Y133810D01*
X608409Y133796D01*
X608420Y133780D01*
X608528Y133691D01*
X608632Y133599D01*
X608650Y133590D01*
X608665Y133577D01*
X608791Y133518D01*
X608915Y133455D01*
X608935Y133450D01*
X608953Y133442D01*
X609089Y133416D01*
X609225Y133385D01*
X609246Y133386D01*
X609265Y133382D01*
X609404Y133391D01*
X609543Y133395D01*
X609563Y133400D01*
X609583Y133402D01*
X609715Y133444D01*
X609849Y133483D01*
X609866Y133493D01*
X609885Y133500D01*
X610003Y133574D01*
X610123Y133645D01*
X610144Y133663D01*
X610154Y133670D01*
X610168Y133685D01*
X610243Y133751D01*
X691524Y215031D01*
X691584Y215109D01*
X691652Y215181D01*
X691681Y215234D01*
X691718Y215282D01*
X691758Y215373D01*
X691806Y215460D01*
X691821Y215519D01*
X691845Y215574D01*
X691860Y215672D01*
X691885Y215768D01*
X691891Y215868D01*
X691895Y215888D01*
X691893Y215901D01*
X691895Y215929D01*
X691895Y218123D01*
X693597Y222231D01*
X696741Y225375D01*
X700849Y227077D01*
X721551Y227077D01*
X725659Y225375D01*
X728803Y222231D01*
X730505Y218123D01*
X730505Y213677D01*
X728803Y209569D01*
X725659Y206425D01*
X721551Y204723D01*
X700849Y204723D01*
X696696Y206443D01*
X696651Y206483D01*
X696615Y206502D01*
X696583Y206526D01*
X696474Y206574D01*
X696368Y206628D01*
X696328Y206637D01*
X696291Y206653D01*
X696174Y206671D01*
X696057Y206698D01*
X696017Y206696D01*
X695977Y206703D01*
X695859Y206692D01*
X695739Y206688D01*
X695701Y206677D01*
X695661Y206673D01*
X695548Y206633D01*
X695434Y206600D01*
X695399Y206579D01*
X695361Y206565D01*
X695263Y206499D01*
X695160Y206438D01*
X695115Y206398D01*
X695098Y206387D01*
X695085Y206372D01*
X695039Y206332D01*
X608448Y119741D01*
X608388Y119663D01*
X608320Y119590D01*
X608291Y119537D01*
X608254Y119490D01*
X608214Y119399D01*
X608166Y119312D01*
X608151Y119253D01*
X608127Y119198D01*
X608112Y119100D01*
X608087Y119004D01*
X608081Y118904D01*
X608077Y118884D01*
X608079Y118871D01*
X608077Y118843D01*
X608077Y109249D01*
X608094Y109111D01*
X608107Y108972D01*
X608114Y108953D01*
X608117Y108933D01*
X608168Y108804D01*
X608215Y108673D01*
X608226Y108656D01*
X608234Y108637D01*
X608315Y108525D01*
X608393Y108410D01*
X608409Y108396D01*
X608420Y108380D01*
X608528Y108291D01*
X608632Y108199D01*
X608650Y108190D01*
X608665Y108177D01*
X608791Y108118D01*
X608915Y108055D01*
X608935Y108050D01*
X608953Y108042D01*
X609089Y108016D01*
X609225Y107985D01*
X609246Y107986D01*
X609265Y107982D01*
X609404Y107991D01*
X609543Y107995D01*
X609563Y108000D01*
X609583Y108002D01*
X609715Y108044D01*
X609849Y108083D01*
X609866Y108093D01*
X609885Y108100D01*
X610003Y108174D01*
X610123Y108245D01*
X610144Y108263D01*
X610154Y108270D01*
X610168Y108285D01*
X610243Y108351D01*
X691524Y189631D01*
X691584Y189709D01*
X691652Y189782D01*
X691681Y189835D01*
X691718Y189882D01*
X691758Y189973D01*
X691806Y190060D01*
X691821Y190119D01*
X691845Y190174D01*
X691860Y190272D01*
X691885Y190368D01*
X691891Y190468D01*
X691895Y190488D01*
X691893Y190501D01*
X691895Y190529D01*
X691895Y192723D01*
X693597Y196831D01*
X696741Y199975D01*
X700849Y201677D01*
X721551Y201677D01*
X725659Y199975D01*
X728803Y196831D01*
X730505Y192723D01*
X730505Y188277D01*
X728803Y184169D01*
X725659Y181025D01*
X721551Y179323D01*
X700849Y179323D01*
X696696Y181043D01*
X696651Y181083D01*
X696615Y181102D01*
X696583Y181126D01*
X696474Y181174D01*
X696368Y181228D01*
X696328Y181237D01*
X696291Y181253D01*
X696174Y181271D01*
X696057Y181298D01*
X696017Y181296D01*
X695977Y181303D01*
X695859Y181292D01*
X695739Y181288D01*
X695701Y181277D01*
X695661Y181273D01*
X695548Y181233D01*
X695434Y181200D01*
X695399Y181179D01*
X695361Y181165D01*
X695263Y181099D01*
X695160Y181038D01*
X695115Y180998D01*
X695098Y180987D01*
X695085Y180972D01*
X695039Y180932D01*
X608448Y94341D01*
X608388Y94263D01*
X608320Y94190D01*
X608291Y94137D01*
X608254Y94090D01*
X608214Y93999D01*
X608166Y93912D01*
X608151Y93853D01*
X608127Y93798D01*
X608112Y93700D01*
X608087Y93604D01*
X608081Y93504D01*
X608077Y93484D01*
X608079Y93471D01*
X608077Y93443D01*
X608077Y84270D01*
X601530Y77723D01*
X592270Y77723D01*
G37*
%LPD*%
%LPC*%
G36*
X396049Y26923D02*
X396049Y26923D01*
X391941Y28625D01*
X388797Y31769D01*
X387095Y35877D01*
X387095Y38071D01*
X387083Y38170D01*
X387080Y38269D01*
X387063Y38327D01*
X387055Y38387D01*
X387019Y38479D01*
X386991Y38574D01*
X386961Y38626D01*
X386938Y38683D01*
X386880Y38763D01*
X386830Y38848D01*
X386794Y38888D01*
X386792Y38892D01*
X386786Y38898D01*
X386764Y38923D01*
X386752Y38940D01*
X386742Y38948D01*
X386724Y38969D01*
X379583Y46110D01*
X379505Y46170D01*
X379432Y46238D01*
X379379Y46267D01*
X379332Y46304D01*
X379241Y46344D01*
X379154Y46392D01*
X379095Y46407D01*
X379040Y46431D01*
X378942Y46446D01*
X378846Y46471D01*
X378746Y46477D01*
X378726Y46481D01*
X378713Y46479D01*
X378685Y46481D01*
X325833Y46481D01*
X325794Y46476D01*
X325754Y46479D01*
X325636Y46456D01*
X325518Y46441D01*
X325481Y46427D01*
X325442Y46419D01*
X325333Y46368D01*
X325222Y46324D01*
X325190Y46301D01*
X325154Y46284D01*
X325061Y46208D01*
X324965Y46138D01*
X324939Y46107D01*
X324908Y46082D01*
X324838Y45985D01*
X324762Y45893D01*
X324745Y45857D01*
X324721Y45824D01*
X324677Y45713D01*
X324626Y45605D01*
X324619Y45566D01*
X324604Y45529D01*
X324589Y45410D01*
X324566Y45293D01*
X324569Y45253D01*
X324564Y45213D01*
X324579Y45094D01*
X324586Y44975D01*
X324598Y44937D01*
X324603Y44898D01*
X324647Y44786D01*
X324684Y44673D01*
X324705Y44639D01*
X324720Y44602D01*
X324806Y44466D01*
X325756Y43159D01*
X326446Y41805D01*
X326915Y40360D01*
X326951Y40131D01*
X318262Y40131D01*
X318144Y40116D01*
X318025Y40109D01*
X317987Y40096D01*
X317947Y40091D01*
X317836Y40048D01*
X317723Y40011D01*
X317689Y39989D01*
X317651Y39974D01*
X317555Y39905D01*
X317503Y39871D01*
X317485Y39888D01*
X317450Y39908D01*
X317418Y39933D01*
X317311Y39984D01*
X317206Y40042D01*
X317167Y40052D01*
X317131Y40069D01*
X317014Y40091D01*
X316898Y40121D01*
X316838Y40125D01*
X316818Y40129D01*
X316798Y40127D01*
X316738Y40131D01*
X308049Y40131D01*
X308085Y40360D01*
X308554Y41805D01*
X309244Y43159D01*
X310194Y44466D01*
X310213Y44501D01*
X310238Y44531D01*
X310289Y44640D01*
X310347Y44745D01*
X310357Y44783D01*
X310374Y44819D01*
X310396Y44936D01*
X310426Y45053D01*
X310426Y45093D01*
X310434Y45132D01*
X310426Y45251D01*
X310426Y45371D01*
X310416Y45409D01*
X310414Y45449D01*
X310377Y45563D01*
X310347Y45679D01*
X310328Y45714D01*
X310316Y45751D01*
X310252Y45853D01*
X310194Y45958D01*
X310167Y45987D01*
X310146Y46020D01*
X310058Y46102D01*
X309977Y46189D01*
X309943Y46211D01*
X309914Y46238D01*
X309809Y46296D01*
X309708Y46360D01*
X309670Y46372D01*
X309636Y46392D01*
X309520Y46421D01*
X309406Y46459D01*
X309366Y46461D01*
X309328Y46471D01*
X309167Y46481D01*
X301152Y46481D01*
X301014Y46464D01*
X300876Y46451D01*
X300857Y46444D01*
X300837Y46441D01*
X300707Y46390D01*
X300577Y46343D01*
X300560Y46332D01*
X300541Y46324D01*
X300429Y46243D01*
X300314Y46165D01*
X300300Y46149D01*
X300284Y46138D01*
X300195Y46030D01*
X300103Y45926D01*
X300094Y45908D01*
X300081Y45893D01*
X300022Y45767D01*
X299959Y45643D01*
X299954Y45623D01*
X299946Y45605D01*
X299919Y45468D01*
X299889Y45333D01*
X299890Y45312D01*
X299886Y45293D01*
X299894Y45154D01*
X299899Y45015D01*
X299904Y44995D01*
X299905Y44975D01*
X299948Y44843D01*
X299987Y44709D01*
X299997Y44692D01*
X300004Y44673D01*
X300078Y44555D01*
X300149Y44435D01*
X300167Y44414D01*
X300174Y44404D01*
X300189Y44390D01*
X300255Y44314D01*
X300714Y43856D01*
X302261Y40121D01*
X302261Y36079D01*
X300714Y32344D01*
X297856Y29486D01*
X294121Y27939D01*
X290079Y27939D01*
X286344Y29486D01*
X283486Y32344D01*
X281939Y36079D01*
X281939Y40121D01*
X283486Y43856D01*
X283945Y44314D01*
X284030Y44424D01*
X284119Y44531D01*
X284128Y44550D01*
X284140Y44566D01*
X284195Y44694D01*
X284254Y44819D01*
X284258Y44839D01*
X284266Y44858D01*
X284288Y44996D01*
X284314Y45132D01*
X284313Y45152D01*
X284316Y45172D01*
X284303Y45311D01*
X284295Y45449D01*
X284288Y45468D01*
X284286Y45488D01*
X284239Y45619D01*
X284196Y45751D01*
X284186Y45769D01*
X284179Y45788D01*
X284101Y45902D01*
X284026Y46020D01*
X284012Y46034D01*
X284000Y46051D01*
X283896Y46143D01*
X283795Y46238D01*
X283777Y46248D01*
X283762Y46261D01*
X283638Y46324D01*
X283516Y46392D01*
X283497Y46397D01*
X283479Y46406D01*
X283343Y46436D01*
X283208Y46471D01*
X283180Y46473D01*
X283168Y46476D01*
X283148Y46475D01*
X283048Y46481D01*
X275752Y46481D01*
X275614Y46464D01*
X275476Y46451D01*
X275457Y46444D01*
X275437Y46441D01*
X275307Y46390D01*
X275177Y46343D01*
X275160Y46332D01*
X275141Y46324D01*
X275029Y46243D01*
X274914Y46165D01*
X274900Y46149D01*
X274884Y46138D01*
X274795Y46030D01*
X274703Y45926D01*
X274694Y45908D01*
X274681Y45893D01*
X274622Y45767D01*
X274559Y45643D01*
X274554Y45623D01*
X274546Y45605D01*
X274519Y45468D01*
X274489Y45333D01*
X274490Y45312D01*
X274486Y45293D01*
X274494Y45154D01*
X274499Y45015D01*
X274504Y44995D01*
X274505Y44975D01*
X274548Y44843D01*
X274587Y44709D01*
X274597Y44692D01*
X274604Y44673D01*
X274678Y44555D01*
X274749Y44435D01*
X274767Y44414D01*
X274774Y44404D01*
X274789Y44390D01*
X274855Y44314D01*
X275314Y43856D01*
X276861Y40121D01*
X276861Y36079D01*
X275314Y32344D01*
X272456Y29486D01*
X268721Y27939D01*
X264679Y27939D01*
X260944Y29486D01*
X258086Y32344D01*
X256539Y36079D01*
X256539Y40121D01*
X258086Y43856D01*
X258545Y44314D01*
X258630Y44424D01*
X258719Y44531D01*
X258728Y44550D01*
X258740Y44566D01*
X258795Y44694D01*
X258854Y44819D01*
X258858Y44839D01*
X258866Y44858D01*
X258888Y44996D01*
X258914Y45132D01*
X258913Y45152D01*
X258916Y45172D01*
X258903Y45311D01*
X258895Y45449D01*
X258888Y45468D01*
X258886Y45488D01*
X258839Y45619D01*
X258796Y45751D01*
X258786Y45769D01*
X258779Y45788D01*
X258701Y45902D01*
X258626Y46020D01*
X258612Y46034D01*
X258600Y46051D01*
X258496Y46143D01*
X258395Y46238D01*
X258377Y46248D01*
X258362Y46261D01*
X258238Y46324D01*
X258116Y46392D01*
X258097Y46397D01*
X258079Y46406D01*
X257943Y46436D01*
X257808Y46471D01*
X257780Y46473D01*
X257768Y46476D01*
X257748Y46475D01*
X257648Y46481D01*
X250352Y46481D01*
X250214Y46464D01*
X250076Y46451D01*
X250057Y46444D01*
X250037Y46441D01*
X249907Y46390D01*
X249777Y46343D01*
X249760Y46332D01*
X249741Y46324D01*
X249629Y46243D01*
X249514Y46165D01*
X249500Y46149D01*
X249484Y46138D01*
X249395Y46030D01*
X249303Y45926D01*
X249294Y45908D01*
X249281Y45893D01*
X249222Y45767D01*
X249159Y45643D01*
X249154Y45623D01*
X249146Y45605D01*
X249119Y45468D01*
X249089Y45333D01*
X249090Y45312D01*
X249086Y45293D01*
X249094Y45154D01*
X249099Y45015D01*
X249104Y44995D01*
X249105Y44975D01*
X249148Y44843D01*
X249187Y44709D01*
X249197Y44692D01*
X249204Y44673D01*
X249278Y44555D01*
X249349Y44435D01*
X249367Y44414D01*
X249374Y44404D01*
X249389Y44390D01*
X249455Y44314D01*
X249914Y43856D01*
X251461Y40121D01*
X251461Y36079D01*
X249914Y32344D01*
X247056Y29486D01*
X243321Y27939D01*
X239279Y27939D01*
X235544Y29486D01*
X232686Y32344D01*
X231139Y36079D01*
X231139Y40121D01*
X232686Y43856D01*
X233145Y44314D01*
X233230Y44424D01*
X233319Y44531D01*
X233328Y44550D01*
X233340Y44566D01*
X233395Y44694D01*
X233454Y44819D01*
X233458Y44839D01*
X233466Y44858D01*
X233488Y44996D01*
X233514Y45132D01*
X233513Y45152D01*
X233516Y45172D01*
X233503Y45311D01*
X233495Y45449D01*
X233488Y45468D01*
X233486Y45488D01*
X233439Y45619D01*
X233396Y45751D01*
X233386Y45769D01*
X233379Y45788D01*
X233301Y45902D01*
X233226Y46020D01*
X233212Y46034D01*
X233200Y46051D01*
X233096Y46143D01*
X232995Y46238D01*
X232977Y46248D01*
X232962Y46261D01*
X232838Y46324D01*
X232716Y46392D01*
X232697Y46397D01*
X232679Y46406D01*
X232543Y46436D01*
X232408Y46471D01*
X232380Y46473D01*
X232368Y46476D01*
X232348Y46475D01*
X232248Y46481D01*
X222486Y46481D01*
X222387Y46469D01*
X222288Y46466D01*
X222230Y46449D01*
X222170Y46441D01*
X222078Y46405D01*
X221983Y46377D01*
X221931Y46347D01*
X221874Y46324D01*
X221794Y46266D01*
X221709Y46216D01*
X221633Y46150D01*
X221617Y46138D01*
X221609Y46128D01*
X221588Y46110D01*
X220057Y44579D01*
X217360Y43461D01*
X214440Y43461D01*
X211743Y44579D01*
X210212Y46110D01*
X210134Y46170D01*
X210062Y46238D01*
X210009Y46267D01*
X209961Y46304D01*
X209870Y46344D01*
X209783Y46392D01*
X209725Y46407D01*
X209669Y46431D01*
X209571Y46446D01*
X209475Y46471D01*
X209375Y46477D01*
X209355Y46481D01*
X209342Y46479D01*
X209314Y46481D01*
X173433Y46481D01*
X173394Y46476D01*
X173354Y46479D01*
X173236Y46456D01*
X173118Y46441D01*
X173081Y46427D01*
X173042Y46419D01*
X172933Y46368D01*
X172822Y46324D01*
X172790Y46301D01*
X172754Y46284D01*
X172661Y46208D01*
X172565Y46138D01*
X172539Y46107D01*
X172508Y46082D01*
X172438Y45985D01*
X172362Y45893D01*
X172345Y45857D01*
X172321Y45824D01*
X172277Y45713D01*
X172226Y45605D01*
X172219Y45566D01*
X172204Y45529D01*
X172189Y45410D01*
X172166Y45293D01*
X172169Y45253D01*
X172164Y45213D01*
X172179Y45094D01*
X172186Y44975D01*
X172198Y44937D01*
X172203Y44898D01*
X172247Y44786D01*
X172284Y44673D01*
X172305Y44639D01*
X172320Y44602D01*
X172406Y44466D01*
X173356Y43159D01*
X174046Y41805D01*
X174515Y40360D01*
X174551Y40131D01*
X165862Y40131D01*
X165744Y40116D01*
X165625Y40109D01*
X165587Y40096D01*
X165547Y40091D01*
X165436Y40048D01*
X165323Y40011D01*
X165289Y39989D01*
X165251Y39974D01*
X165155Y39905D01*
X165103Y39871D01*
X165085Y39888D01*
X165050Y39908D01*
X165018Y39933D01*
X164911Y39984D01*
X164806Y40042D01*
X164767Y40052D01*
X164731Y40069D01*
X164614Y40091D01*
X164498Y40121D01*
X164438Y40125D01*
X164418Y40129D01*
X164398Y40127D01*
X164338Y40131D01*
X155649Y40131D01*
X155685Y40360D01*
X156154Y41805D01*
X156844Y43159D01*
X157794Y44466D01*
X157813Y44501D01*
X157838Y44531D01*
X157889Y44640D01*
X157947Y44745D01*
X157957Y44783D01*
X157974Y44819D01*
X157996Y44936D01*
X158026Y45053D01*
X158026Y45093D01*
X158034Y45132D01*
X158026Y45251D01*
X158026Y45371D01*
X158016Y45409D01*
X158014Y45449D01*
X157977Y45563D01*
X157947Y45679D01*
X157928Y45714D01*
X157916Y45751D01*
X157852Y45853D01*
X157794Y45958D01*
X157767Y45987D01*
X157746Y46020D01*
X157658Y46102D01*
X157577Y46189D01*
X157543Y46211D01*
X157514Y46238D01*
X157409Y46296D01*
X157308Y46360D01*
X157270Y46372D01*
X157236Y46392D01*
X157120Y46421D01*
X157006Y46459D01*
X156966Y46461D01*
X156928Y46471D01*
X156767Y46481D01*
X150611Y46481D01*
X147710Y49383D01*
X92958Y104135D01*
X92934Y104153D01*
X92915Y104175D01*
X92809Y104250D01*
X92706Y104330D01*
X92679Y104341D01*
X92655Y104358D01*
X92534Y104404D01*
X92415Y104456D01*
X92385Y104461D01*
X92358Y104471D01*
X92229Y104486D01*
X92100Y104506D01*
X92071Y104503D01*
X92042Y104506D01*
X91913Y104488D01*
X91784Y104476D01*
X91756Y104466D01*
X91727Y104462D01*
X91574Y104410D01*
X90921Y104139D01*
X86879Y104139D01*
X83144Y105686D01*
X80286Y108544D01*
X78739Y112279D01*
X78739Y116321D01*
X80286Y120056D01*
X83144Y122914D01*
X86879Y124461D01*
X90921Y124461D01*
X94656Y122914D01*
X97514Y120056D01*
X99061Y116321D01*
X99061Y112279D01*
X98790Y111626D01*
X98782Y111597D01*
X98769Y111571D01*
X98740Y111444D01*
X98706Y111319D01*
X98706Y111289D01*
X98699Y111261D01*
X98703Y111131D01*
X98701Y111001D01*
X98708Y110972D01*
X98709Y110943D01*
X98745Y110818D01*
X98775Y110692D01*
X98789Y110665D01*
X98797Y110637D01*
X98863Y110525D01*
X98924Y110410D01*
X98944Y110389D01*
X98959Y110363D01*
X99065Y110242D01*
X153817Y55490D01*
X153895Y55430D01*
X153968Y55362D01*
X154021Y55333D01*
X154068Y55296D01*
X154159Y55256D01*
X154246Y55208D01*
X154305Y55193D01*
X154360Y55169D01*
X154458Y55154D01*
X154554Y55129D01*
X154654Y55123D01*
X154674Y55119D01*
X154687Y55121D01*
X154715Y55119D01*
X209314Y55119D01*
X209413Y55131D01*
X209512Y55134D01*
X209570Y55151D01*
X209630Y55159D01*
X209722Y55195D01*
X209817Y55223D01*
X209869Y55253D01*
X209926Y55276D01*
X210006Y55334D01*
X210091Y55384D01*
X210167Y55450D01*
X210183Y55462D01*
X210191Y55472D01*
X210212Y55490D01*
X211743Y57021D01*
X214440Y58139D01*
X217360Y58139D01*
X220057Y57021D01*
X221588Y55490D01*
X221666Y55430D01*
X221738Y55362D01*
X221791Y55333D01*
X221839Y55296D01*
X221930Y55256D01*
X222017Y55208D01*
X222075Y55193D01*
X222131Y55169D01*
X222229Y55154D01*
X222325Y55129D01*
X222425Y55123D01*
X222445Y55119D01*
X222458Y55121D01*
X222486Y55119D01*
X382789Y55119D01*
X390239Y47668D01*
X390333Y47595D01*
X390423Y47517D01*
X390459Y47498D01*
X390490Y47473D01*
X390600Y47426D01*
X390706Y47372D01*
X390745Y47363D01*
X390782Y47347D01*
X390900Y47328D01*
X391016Y47302D01*
X391057Y47304D01*
X391096Y47297D01*
X391215Y47308D01*
X391334Y47312D01*
X391373Y47323D01*
X391413Y47327D01*
X391525Y47368D01*
X391640Y47401D01*
X391674Y47421D01*
X391712Y47435D01*
X391811Y47502D01*
X391914Y47562D01*
X391917Y47565D01*
X396049Y49277D01*
X416751Y49277D01*
X420859Y47575D01*
X424003Y44431D01*
X424512Y43202D01*
X424527Y43177D01*
X424536Y43149D01*
X424605Y43039D01*
X424670Y42926D01*
X424690Y42905D01*
X424706Y42880D01*
X424801Y42791D01*
X424891Y42698D01*
X424916Y42682D01*
X424938Y42662D01*
X425051Y42599D01*
X425162Y42531D01*
X425190Y42523D01*
X425216Y42508D01*
X425342Y42476D01*
X425466Y42438D01*
X425496Y42436D01*
X425524Y42429D01*
X425685Y42419D01*
X437915Y42419D01*
X437945Y42422D01*
X437974Y42420D01*
X438102Y42442D01*
X438231Y42459D01*
X438258Y42469D01*
X438287Y42474D01*
X438406Y42528D01*
X438526Y42576D01*
X438550Y42593D01*
X438577Y42605D01*
X438679Y42686D01*
X438784Y42762D01*
X438803Y42785D01*
X438826Y42804D01*
X438904Y42907D01*
X438987Y43007D01*
X438999Y43034D01*
X439017Y43058D01*
X439088Y43202D01*
X439597Y44431D01*
X442741Y47575D01*
X446849Y49277D01*
X467551Y49277D01*
X471659Y47575D01*
X474803Y44431D01*
X476505Y40323D01*
X476505Y35877D01*
X474803Y31769D01*
X471659Y28625D01*
X467551Y26923D01*
X446849Y26923D01*
X442741Y28625D01*
X439597Y31769D01*
X439088Y32998D01*
X439073Y33023D01*
X439064Y33051D01*
X438995Y33161D01*
X438930Y33274D01*
X438910Y33295D01*
X438894Y33320D01*
X438799Y33409D01*
X438709Y33502D01*
X438684Y33518D01*
X438662Y33538D01*
X438549Y33601D01*
X438438Y33669D01*
X438410Y33677D01*
X438384Y33692D01*
X438258Y33724D01*
X438134Y33762D01*
X438104Y33764D01*
X438076Y33771D01*
X437915Y33781D01*
X425685Y33781D01*
X425655Y33778D01*
X425626Y33780D01*
X425498Y33758D01*
X425369Y33741D01*
X425342Y33731D01*
X425313Y33726D01*
X425194Y33672D01*
X425074Y33624D01*
X425050Y33607D01*
X425023Y33595D01*
X424921Y33514D01*
X424816Y33438D01*
X424797Y33415D01*
X424774Y33396D01*
X424696Y33293D01*
X424613Y33193D01*
X424601Y33166D01*
X424583Y33142D01*
X424512Y32998D01*
X424003Y31769D01*
X420859Y28625D01*
X416751Y26923D01*
X396049Y26923D01*
G37*
%LPD*%
%LPC*%
G36*
X40449Y192023D02*
X40449Y192023D01*
X36341Y193725D01*
X33197Y196869D01*
X31495Y200977D01*
X31495Y205423D01*
X33197Y209531D01*
X36341Y212675D01*
X40449Y214377D01*
X61151Y214377D01*
X65259Y212675D01*
X68403Y209531D01*
X68912Y208302D01*
X68927Y208277D01*
X68936Y208249D01*
X69005Y208139D01*
X69070Y208026D01*
X69090Y208005D01*
X69106Y207980D01*
X69201Y207891D01*
X69291Y207798D01*
X69316Y207782D01*
X69338Y207762D01*
X69451Y207699D01*
X69562Y207631D01*
X69590Y207623D01*
X69616Y207608D01*
X69742Y207576D01*
X69866Y207538D01*
X69896Y207536D01*
X69924Y207529D01*
X70085Y207519D01*
X137385Y207519D01*
X137484Y207531D01*
X137583Y207534D01*
X137641Y207551D01*
X137701Y207559D01*
X137793Y207595D01*
X137888Y207623D01*
X137940Y207653D01*
X137997Y207676D01*
X138077Y207734D01*
X138162Y207784D01*
X138237Y207850D01*
X138254Y207862D01*
X138262Y207872D01*
X138283Y207890D01*
X163311Y232919D01*
X213585Y232919D01*
X213684Y232931D01*
X213783Y232934D01*
X213841Y232951D01*
X213901Y232959D01*
X213993Y232995D01*
X214088Y233023D01*
X214140Y233053D01*
X214197Y233076D01*
X214277Y233134D01*
X214362Y233184D01*
X214437Y233250D01*
X214454Y233262D01*
X214462Y233272D01*
X214483Y233290D01*
X217560Y236367D01*
X217620Y236445D01*
X217688Y236518D01*
X217717Y236571D01*
X217754Y236618D01*
X217794Y236709D01*
X217842Y236796D01*
X217857Y236855D01*
X217881Y236910D01*
X217896Y237008D01*
X217921Y237104D01*
X217927Y237204D01*
X217931Y237224D01*
X217929Y237237D01*
X217931Y237265D01*
X217931Y251969D01*
X225553Y251969D01*
X225553Y247425D01*
X225570Y247287D01*
X225583Y247148D01*
X225590Y247129D01*
X225593Y247109D01*
X225644Y246980D01*
X225691Y246849D01*
X225702Y246832D01*
X225710Y246813D01*
X225791Y246701D01*
X225869Y246586D01*
X225885Y246572D01*
X225896Y246556D01*
X226003Y246468D01*
X226108Y246375D01*
X226126Y246366D01*
X226141Y246353D01*
X226267Y246294D01*
X226391Y246231D01*
X226411Y246226D01*
X226429Y246218D01*
X226566Y246191D01*
X226701Y246161D01*
X226722Y246162D01*
X226741Y246158D01*
X226880Y246167D01*
X227019Y246171D01*
X227039Y246176D01*
X227059Y246178D01*
X227191Y246220D01*
X227325Y246259D01*
X227342Y246269D01*
X227361Y246276D01*
X227479Y246350D01*
X227599Y246421D01*
X227620Y246439D01*
X227630Y246446D01*
X227644Y246461D01*
X227719Y246527D01*
X230768Y249575D01*
X230828Y249653D01*
X230896Y249726D01*
X230925Y249779D01*
X230962Y249826D01*
X231002Y249917D01*
X231050Y250004D01*
X231065Y250063D01*
X231089Y250118D01*
X231104Y250216D01*
X231129Y250312D01*
X231135Y250412D01*
X231139Y250432D01*
X231137Y250445D01*
X231139Y250473D01*
X231139Y263133D01*
X232686Y266868D01*
X235544Y269726D01*
X239279Y271273D01*
X243321Y271273D01*
X247056Y269726D01*
X249914Y266868D01*
X251461Y263133D01*
X251461Y244867D01*
X249914Y241132D01*
X247056Y238274D01*
X243321Y236727D01*
X239279Y236727D01*
X235544Y238274D01*
X234511Y239308D01*
X234417Y239381D01*
X234327Y239460D01*
X234291Y239478D01*
X234259Y239503D01*
X234150Y239550D01*
X234044Y239604D01*
X234005Y239613D01*
X233967Y239629D01*
X233850Y239648D01*
X233734Y239674D01*
X233693Y239673D01*
X233653Y239679D01*
X233535Y239668D01*
X233416Y239664D01*
X233377Y239653D01*
X233337Y239649D01*
X233225Y239609D01*
X233110Y239576D01*
X233076Y239555D01*
X233037Y239542D01*
X232939Y239475D01*
X232836Y239414D01*
X232791Y239375D01*
X232774Y239363D01*
X232761Y239348D01*
X232716Y239308D01*
X217689Y224281D01*
X167415Y224281D01*
X167316Y224269D01*
X167217Y224266D01*
X167159Y224249D01*
X167099Y224241D01*
X167007Y224205D01*
X166912Y224177D01*
X166860Y224147D01*
X166803Y224124D01*
X166723Y224066D01*
X166638Y224016D01*
X166563Y223950D01*
X166546Y223938D01*
X166538Y223928D01*
X166517Y223910D01*
X141489Y198881D01*
X70085Y198881D01*
X70055Y198878D01*
X70026Y198880D01*
X69898Y198858D01*
X69769Y198841D01*
X69742Y198831D01*
X69713Y198826D01*
X69594Y198772D01*
X69474Y198724D01*
X69450Y198707D01*
X69423Y198695D01*
X69321Y198614D01*
X69216Y198538D01*
X69197Y198515D01*
X69174Y198496D01*
X69096Y198393D01*
X69013Y198293D01*
X69001Y198266D01*
X68983Y198242D01*
X68912Y198098D01*
X68403Y196869D01*
X65259Y193725D01*
X61151Y192023D01*
X40449Y192023D01*
G37*
%LPD*%
%LPC*%
G36*
X113329Y303529D02*
X113329Y303529D01*
X106545Y305347D01*
X100464Y308858D01*
X95498Y313824D01*
X91987Y319905D01*
X90169Y326689D01*
X90169Y333711D01*
X91987Y340495D01*
X95498Y346576D01*
X100464Y351542D01*
X106545Y355053D01*
X113329Y356871D01*
X120351Y356871D01*
X127135Y355053D01*
X133216Y351542D01*
X138182Y346576D01*
X141693Y340495D01*
X143511Y333711D01*
X143511Y326689D01*
X141693Y319905D01*
X138182Y313824D01*
X133216Y308858D01*
X127135Y305347D01*
X120351Y303529D01*
X113329Y303529D01*
G37*
%LPD*%
%LPC*%
G36*
X239279Y160527D02*
X239279Y160527D01*
X235544Y162074D01*
X232686Y164932D01*
X231139Y168667D01*
X231139Y186933D01*
X232686Y190668D01*
X235544Y193526D01*
X239279Y195073D01*
X243321Y195073D01*
X247056Y193526D01*
X248089Y192492D01*
X248183Y192419D01*
X248273Y192340D01*
X248309Y192322D01*
X248341Y192297D01*
X248450Y192250D01*
X248556Y192196D01*
X248595Y192187D01*
X248633Y192171D01*
X248750Y192152D01*
X248866Y192126D01*
X248907Y192127D01*
X248947Y192121D01*
X249065Y192132D01*
X249184Y192136D01*
X249223Y192147D01*
X249263Y192151D01*
X249375Y192191D01*
X249490Y192224D01*
X249524Y192245D01*
X249563Y192258D01*
X249661Y192325D01*
X249764Y192386D01*
X249809Y192425D01*
X249826Y192437D01*
X249839Y192452D01*
X249884Y192492D01*
X262010Y204617D01*
X264911Y207519D01*
X323614Y207519D01*
X323713Y207531D01*
X323812Y207534D01*
X323870Y207551D01*
X323930Y207559D01*
X324022Y207595D01*
X324117Y207623D01*
X324169Y207653D01*
X324226Y207676D01*
X324306Y207734D01*
X324391Y207784D01*
X324467Y207850D01*
X324483Y207862D01*
X324491Y207872D01*
X324512Y207890D01*
X326043Y209421D01*
X328740Y210539D01*
X331660Y210539D01*
X334357Y209421D01*
X336421Y207357D01*
X337539Y204660D01*
X337539Y201740D01*
X336421Y199043D01*
X334357Y196979D01*
X331660Y195861D01*
X328740Y195861D01*
X326043Y196979D01*
X324512Y198510D01*
X324434Y198570D01*
X324362Y198638D01*
X324309Y198667D01*
X324261Y198704D01*
X324170Y198744D01*
X324083Y198792D01*
X324025Y198807D01*
X323969Y198831D01*
X323871Y198846D01*
X323775Y198871D01*
X323675Y198877D01*
X323655Y198881D01*
X323642Y198879D01*
X323614Y198881D01*
X269015Y198881D01*
X268916Y198869D01*
X268817Y198866D01*
X268759Y198849D01*
X268699Y198841D01*
X268607Y198805D01*
X268512Y198777D01*
X268460Y198747D01*
X268403Y198724D01*
X268323Y198666D01*
X268238Y198616D01*
X268163Y198550D01*
X268146Y198538D01*
X268138Y198528D01*
X268117Y198510D01*
X266847Y197239D01*
X266762Y197130D01*
X266673Y197023D01*
X266665Y197004D01*
X266652Y196988D01*
X266597Y196860D01*
X266538Y196735D01*
X266534Y196715D01*
X266526Y196696D01*
X266504Y196558D01*
X266478Y196422D01*
X266479Y196402D01*
X266476Y196382D01*
X266489Y196243D01*
X266498Y196105D01*
X266504Y196086D01*
X266506Y196066D01*
X266553Y195934D01*
X266596Y195803D01*
X266606Y195785D01*
X266613Y195766D01*
X266691Y195651D01*
X266766Y195534D01*
X266781Y195520D01*
X266792Y195503D01*
X266896Y195411D01*
X266997Y195316D01*
X267015Y195306D01*
X267030Y195293D01*
X267154Y195229D01*
X267276Y195162D01*
X267296Y195157D01*
X267314Y195148D01*
X267449Y195118D01*
X267584Y195083D01*
X267612Y195081D01*
X267624Y195078D01*
X267644Y195079D01*
X267745Y195073D01*
X268721Y195073D01*
X272456Y193526D01*
X275314Y190668D01*
X276861Y186933D01*
X276861Y168667D01*
X275314Y164932D01*
X272456Y162074D01*
X268721Y160527D01*
X264679Y160527D01*
X260944Y162074D01*
X258086Y164932D01*
X256539Y168667D01*
X256539Y183867D01*
X256522Y184005D01*
X256509Y184144D01*
X256502Y184163D01*
X256499Y184183D01*
X256448Y184312D01*
X256401Y184443D01*
X256390Y184460D01*
X256382Y184479D01*
X256301Y184591D01*
X256223Y184706D01*
X256207Y184720D01*
X256196Y184736D01*
X256088Y184825D01*
X255984Y184917D01*
X255966Y184926D01*
X255951Y184939D01*
X255825Y184998D01*
X255701Y185061D01*
X255681Y185066D01*
X255663Y185074D01*
X255527Y185100D01*
X255391Y185131D01*
X255370Y185130D01*
X255351Y185134D01*
X255212Y185125D01*
X255073Y185121D01*
X255053Y185116D01*
X255033Y185114D01*
X254901Y185072D01*
X254767Y185033D01*
X254750Y185023D01*
X254731Y185016D01*
X254613Y184942D01*
X254493Y184871D01*
X254472Y184853D01*
X254462Y184846D01*
X254448Y184831D01*
X254373Y184765D01*
X251832Y182225D01*
X251772Y182147D01*
X251704Y182074D01*
X251675Y182021D01*
X251638Y181974D01*
X251598Y181883D01*
X251550Y181796D01*
X251535Y181737D01*
X251511Y181682D01*
X251496Y181584D01*
X251471Y181488D01*
X251465Y181388D01*
X251461Y181368D01*
X251463Y181355D01*
X251461Y181327D01*
X251461Y168667D01*
X249914Y164932D01*
X247056Y162074D01*
X243321Y160527D01*
X239279Y160527D01*
G37*
%LPD*%
%LPC*%
G36*
X592270Y52323D02*
X592270Y52323D01*
X585723Y58870D01*
X585723Y68130D01*
X592270Y74677D01*
X601530Y74677D01*
X607202Y69004D01*
X607296Y68931D01*
X607385Y68853D01*
X607421Y68834D01*
X607453Y68809D01*
X607563Y68762D01*
X607668Y68708D01*
X607708Y68699D01*
X607745Y68683D01*
X607863Y68664D01*
X607979Y68638D01*
X608019Y68640D01*
X608059Y68633D01*
X608178Y68644D01*
X608297Y68648D01*
X608335Y68659D01*
X608376Y68663D01*
X608488Y68703D01*
X608602Y68736D01*
X608637Y68757D01*
X608675Y68771D01*
X608773Y68838D01*
X608876Y68898D01*
X608921Y68938D01*
X608938Y68949D01*
X608952Y68965D01*
X608997Y69004D01*
X630310Y90317D01*
X633211Y93219D01*
X691915Y93219D01*
X691945Y93222D01*
X691974Y93220D01*
X692102Y93242D01*
X692231Y93259D01*
X692258Y93269D01*
X692287Y93274D01*
X692406Y93328D01*
X692526Y93376D01*
X692550Y93393D01*
X692577Y93405D01*
X692679Y93486D01*
X692784Y93562D01*
X692803Y93585D01*
X692826Y93604D01*
X692904Y93707D01*
X692987Y93807D01*
X692999Y93834D01*
X693017Y93858D01*
X693088Y94002D01*
X693597Y95231D01*
X696741Y98375D01*
X700849Y100077D01*
X721551Y100077D01*
X725659Y98375D01*
X728803Y95231D01*
X730505Y91123D01*
X730505Y86677D01*
X728803Y82569D01*
X725659Y79425D01*
X721551Y77723D01*
X700849Y77723D01*
X696741Y79425D01*
X693597Y82569D01*
X693088Y83798D01*
X693073Y83823D01*
X693064Y83851D01*
X692995Y83961D01*
X692930Y84074D01*
X692910Y84095D01*
X692894Y84120D01*
X692799Y84209D01*
X692709Y84302D01*
X692684Y84318D01*
X692662Y84338D01*
X692549Y84401D01*
X692438Y84469D01*
X692410Y84477D01*
X692384Y84492D01*
X692258Y84524D01*
X692134Y84562D01*
X692104Y84564D01*
X692076Y84571D01*
X691915Y84581D01*
X637315Y84581D01*
X637216Y84569D01*
X637117Y84566D01*
X637059Y84549D01*
X636999Y84541D01*
X636907Y84505D01*
X636812Y84477D01*
X636760Y84447D01*
X636703Y84424D01*
X636623Y84366D01*
X636538Y84316D01*
X636463Y84250D01*
X636446Y84238D01*
X636438Y84228D01*
X636417Y84210D01*
X611389Y59181D01*
X608913Y59181D01*
X608815Y59169D01*
X608716Y59166D01*
X608658Y59149D01*
X608598Y59141D01*
X608506Y59105D01*
X608411Y59077D01*
X608358Y59047D01*
X608302Y59024D01*
X608222Y58966D01*
X608137Y58916D01*
X608061Y58850D01*
X608045Y58838D01*
X608037Y58828D01*
X608016Y58810D01*
X601530Y52323D01*
X592270Y52323D01*
G37*
%LPD*%
%LPC*%
G36*
X700849Y128523D02*
X700849Y128523D01*
X696741Y130225D01*
X693597Y133369D01*
X691895Y137477D01*
X691895Y141923D01*
X693597Y146031D01*
X696741Y149175D01*
X700849Y150877D01*
X721551Y150877D01*
X725659Y149175D01*
X728803Y146031D01*
X730505Y141923D01*
X730505Y137477D01*
X728803Y133369D01*
X725659Y130225D01*
X721551Y128523D01*
X700849Y128523D01*
G37*
%LPD*%
%LPC*%
G36*
X700849Y153923D02*
X700849Y153923D01*
X696741Y155625D01*
X693597Y158769D01*
X691895Y162877D01*
X691895Y167323D01*
X693597Y171431D01*
X696741Y174575D01*
X700849Y176277D01*
X721551Y176277D01*
X725659Y174575D01*
X728803Y171431D01*
X730505Y167323D01*
X730505Y162877D01*
X728803Y158769D01*
X725659Y155625D01*
X721551Y153923D01*
X700849Y153923D01*
G37*
%LPD*%
%LPC*%
G36*
X446849Y153923D02*
X446849Y153923D01*
X442741Y155625D01*
X439597Y158769D01*
X437895Y162877D01*
X437895Y167323D01*
X439597Y171431D01*
X442741Y174575D01*
X446849Y176277D01*
X467551Y176277D01*
X471659Y174575D01*
X474803Y171431D01*
X476505Y167323D01*
X476505Y162877D01*
X474803Y158769D01*
X471659Y155625D01*
X467551Y153923D01*
X446849Y153923D01*
G37*
%LPD*%
%LPC*%
G36*
X700849Y26923D02*
X700849Y26923D01*
X696741Y28625D01*
X693597Y31769D01*
X691895Y35877D01*
X691895Y40323D01*
X693597Y44431D01*
X696741Y47575D01*
X700849Y49277D01*
X721551Y49277D01*
X725659Y47575D01*
X728803Y44431D01*
X730505Y40323D01*
X730505Y35877D01*
X728803Y31769D01*
X725659Y28625D01*
X721551Y26923D01*
X700849Y26923D01*
G37*
%LPD*%
%LPC*%
G36*
X700849Y52323D02*
X700849Y52323D01*
X696741Y54025D01*
X693597Y57169D01*
X691895Y61277D01*
X691895Y65723D01*
X693597Y69831D01*
X696741Y72975D01*
X700849Y74677D01*
X721551Y74677D01*
X725659Y72975D01*
X728803Y69831D01*
X730505Y65723D01*
X730505Y61277D01*
X728803Y57169D01*
X725659Y54025D01*
X721551Y52323D01*
X700849Y52323D01*
G37*
%LPD*%
%LPC*%
G36*
X700849Y103123D02*
X700849Y103123D01*
X696741Y104825D01*
X693597Y107969D01*
X691895Y112077D01*
X691895Y116523D01*
X693597Y120631D01*
X696741Y123775D01*
X700849Y125477D01*
X721551Y125477D01*
X725659Y123775D01*
X728803Y120631D01*
X730505Y116523D01*
X730505Y112077D01*
X728803Y107969D01*
X725659Y104825D01*
X721551Y103123D01*
X700849Y103123D01*
G37*
%LPD*%
%LPC*%
G36*
X751649Y217423D02*
X751649Y217423D01*
X747541Y219125D01*
X744397Y222269D01*
X742695Y226377D01*
X742695Y230823D01*
X744397Y234931D01*
X747541Y238075D01*
X751649Y239777D01*
X772351Y239777D01*
X776459Y238075D01*
X779603Y234931D01*
X781305Y230823D01*
X781305Y226377D01*
X779603Y222269D01*
X776459Y219125D01*
X772351Y217423D01*
X751649Y217423D01*
G37*
%LPD*%
%LPC*%
G36*
X446849Y77723D02*
X446849Y77723D01*
X442741Y79425D01*
X439597Y82569D01*
X437895Y86677D01*
X437895Y91123D01*
X439597Y95231D01*
X442741Y98375D01*
X446849Y100077D01*
X467551Y100077D01*
X471659Y98375D01*
X474803Y95231D01*
X476505Y91123D01*
X476505Y86677D01*
X474803Y82569D01*
X471659Y79425D01*
X467551Y77723D01*
X446849Y77723D01*
G37*
%LPD*%
%LPC*%
G36*
X751649Y192023D02*
X751649Y192023D01*
X747541Y193725D01*
X744397Y196869D01*
X742695Y200977D01*
X742695Y205423D01*
X744397Y209531D01*
X747541Y212675D01*
X751649Y214377D01*
X772351Y214377D01*
X776459Y212675D01*
X779603Y209531D01*
X781305Y205423D01*
X781305Y200977D01*
X779603Y196869D01*
X776459Y193725D01*
X772351Y192023D01*
X751649Y192023D01*
G37*
%LPD*%
%LPC*%
G36*
X290079Y236727D02*
X290079Y236727D01*
X286344Y238274D01*
X283486Y241132D01*
X281939Y244867D01*
X281939Y263133D01*
X283486Y266868D01*
X286344Y269726D01*
X290079Y271273D01*
X294121Y271273D01*
X297856Y269726D01*
X300714Y266868D01*
X302261Y263133D01*
X302261Y244867D01*
X300714Y241132D01*
X297856Y238274D01*
X294121Y236727D01*
X290079Y236727D01*
G37*
%LPD*%
%LPC*%
G36*
X264679Y236727D02*
X264679Y236727D01*
X260944Y238274D01*
X258086Y241132D01*
X256539Y244867D01*
X256539Y263133D01*
X258086Y266868D01*
X260944Y269726D01*
X264679Y271273D01*
X268721Y271273D01*
X272456Y269726D01*
X275314Y266868D01*
X276861Y263133D01*
X276861Y244867D01*
X275314Y241132D01*
X272456Y238274D01*
X268721Y236727D01*
X264679Y236727D01*
G37*
%LPD*%
%LPC*%
G36*
X566870Y230123D02*
X566870Y230123D01*
X560323Y236670D01*
X560323Y245930D01*
X566870Y252477D01*
X576130Y252477D01*
X582677Y245930D01*
X582677Y236670D01*
X576130Y230123D01*
X566870Y230123D01*
G37*
%LPD*%
%LPC*%
G36*
X566870Y204723D02*
X566870Y204723D01*
X560323Y211270D01*
X560323Y220530D01*
X566870Y227077D01*
X576130Y227077D01*
X582677Y220530D01*
X582677Y211270D01*
X576130Y204723D01*
X566870Y204723D01*
G37*
%LPD*%
%LPC*%
G36*
X592270Y26923D02*
X592270Y26923D01*
X585723Y33470D01*
X585723Y42730D01*
X592270Y49277D01*
X601530Y49277D01*
X608077Y42730D01*
X608077Y33470D01*
X601530Y26923D01*
X592270Y26923D01*
G37*
%LPD*%
%LPC*%
G36*
X566870Y52323D02*
X566870Y52323D01*
X560323Y58870D01*
X560323Y68130D01*
X566870Y74677D01*
X576130Y74677D01*
X582677Y68130D01*
X582677Y58870D01*
X576130Y52323D01*
X566870Y52323D01*
G37*
%LPD*%
%LPC*%
G36*
X566870Y26923D02*
X566870Y26923D01*
X560323Y33470D01*
X560323Y42730D01*
X566870Y49277D01*
X576130Y49277D01*
X582677Y42730D01*
X582677Y33470D01*
X576130Y26923D01*
X566870Y26923D01*
G37*
%LPD*%
%LPC*%
G36*
X503791Y53339D02*
X503791Y53339D01*
X497839Y59291D01*
X497839Y67709D01*
X503791Y73661D01*
X512209Y73661D01*
X518161Y67709D01*
X518161Y59291D01*
X512209Y53339D01*
X503791Y53339D01*
G37*
%LPD*%
%LPC*%
G36*
X112279Y27939D02*
X112279Y27939D01*
X108544Y29486D01*
X105686Y32344D01*
X104139Y36079D01*
X104139Y40121D01*
X105686Y43856D01*
X108544Y46714D01*
X112279Y48261D01*
X116321Y48261D01*
X120056Y46714D01*
X122914Y43856D01*
X124461Y40121D01*
X124461Y36079D01*
X122914Y32344D01*
X120056Y29486D01*
X116321Y27939D01*
X112279Y27939D01*
G37*
%LPD*%
%LPC*%
G36*
X86879Y27939D02*
X86879Y27939D01*
X83144Y29486D01*
X80286Y32344D01*
X78739Y36079D01*
X78739Y40121D01*
X80286Y43856D01*
X83144Y46714D01*
X86879Y48261D01*
X90921Y48261D01*
X94656Y46714D01*
X97514Y43856D01*
X99061Y40121D01*
X99061Y36079D01*
X97514Y32344D01*
X94656Y29486D01*
X90921Y27939D01*
X86879Y27939D01*
G37*
%LPD*%
%LPC*%
G36*
X137679Y104139D02*
X137679Y104139D01*
X133944Y105686D01*
X131086Y108544D01*
X129539Y112279D01*
X129539Y116321D01*
X131086Y120056D01*
X133944Y122914D01*
X137679Y124461D01*
X141721Y124461D01*
X145456Y122914D01*
X148314Y120056D01*
X149861Y116321D01*
X149861Y112279D01*
X148314Y108544D01*
X145456Y105686D01*
X141721Y104139D01*
X137679Y104139D01*
G37*
%LPD*%
%LPC*%
G36*
X137679Y27939D02*
X137679Y27939D01*
X133944Y29486D01*
X131086Y32344D01*
X129539Y36079D01*
X129539Y40121D01*
X131086Y43856D01*
X133944Y46714D01*
X137679Y48261D01*
X141721Y48261D01*
X145456Y46714D01*
X148314Y43856D01*
X149861Y40121D01*
X149861Y36079D01*
X148314Y32344D01*
X145456Y29486D01*
X141721Y27939D01*
X137679Y27939D01*
G37*
%LPD*%
%LPC*%
G36*
X269239Y332739D02*
X269239Y332739D01*
X269239Y341377D01*
X276216Y341377D01*
X277953Y341102D01*
X279626Y340558D01*
X281194Y339759D01*
X282617Y338725D01*
X283861Y337481D01*
X284895Y336058D01*
X285694Y334490D01*
X286238Y332817D01*
X286250Y332739D01*
X269239Y332739D01*
G37*
%LPD*%
%LPC*%
G36*
X247150Y332739D02*
X247150Y332739D01*
X247162Y332817D01*
X247706Y334490D01*
X248505Y336058D01*
X249539Y337481D01*
X250783Y338725D01*
X252206Y339759D01*
X253774Y340558D01*
X255447Y341102D01*
X257184Y341377D01*
X264161Y341377D01*
X264161Y332739D01*
X247150Y332739D01*
G37*
%LPD*%
%LPC*%
G36*
X269239Y319023D02*
X269239Y319023D01*
X269239Y327661D01*
X286250Y327661D01*
X286238Y327583D01*
X285694Y325910D01*
X284895Y324342D01*
X283861Y322919D01*
X282617Y321675D01*
X281194Y320641D01*
X279626Y319842D01*
X277953Y319298D01*
X276216Y319023D01*
X269239Y319023D01*
G37*
%LPD*%
%LPC*%
G36*
X257184Y319023D02*
X257184Y319023D01*
X255447Y319298D01*
X253774Y319842D01*
X252206Y320641D01*
X250783Y321675D01*
X249539Y322919D01*
X248505Y324342D01*
X247706Y325910D01*
X247162Y327583D01*
X247150Y327661D01*
X264161Y327661D01*
X264161Y319023D01*
X257184Y319023D01*
G37*
%LPD*%
%LPC*%
G36*
X459739Y66039D02*
X459739Y66039D01*
X459739Y74169D01*
X466168Y74169D01*
X467826Y73906D01*
X469423Y73387D01*
X470920Y72625D01*
X472278Y71638D01*
X473466Y70450D01*
X474453Y69092D01*
X475215Y67595D01*
X475721Y66039D01*
X459739Y66039D01*
G37*
%LPD*%
%LPC*%
G36*
X408939Y66039D02*
X408939Y66039D01*
X408939Y74169D01*
X415368Y74169D01*
X417026Y73906D01*
X418623Y73387D01*
X420120Y72625D01*
X421478Y71638D01*
X422666Y70450D01*
X423653Y69092D01*
X424415Y67595D01*
X424921Y66039D01*
X408939Y66039D01*
G37*
%LPD*%
%LPC*%
G36*
X358139Y340361D02*
X358139Y340361D01*
X366269Y340361D01*
X366269Y333932D01*
X366006Y332274D01*
X365487Y330677D01*
X364725Y329180D01*
X363738Y327822D01*
X362550Y326634D01*
X361192Y325647D01*
X359695Y324885D01*
X358139Y324379D01*
X358139Y340361D01*
G37*
%LPD*%
%LPC*%
G36*
X387879Y66039D02*
X387879Y66039D01*
X388385Y67595D01*
X389147Y69092D01*
X390134Y70450D01*
X391322Y71638D01*
X392680Y72625D01*
X394177Y73387D01*
X395774Y73906D01*
X397432Y74169D01*
X403861Y74169D01*
X403861Y66039D01*
X387879Y66039D01*
G37*
%LPD*%
%LPC*%
G36*
X438679Y66039D02*
X438679Y66039D01*
X439185Y67595D01*
X439947Y69092D01*
X440934Y70450D01*
X442122Y71638D01*
X443480Y72625D01*
X444977Y73387D01*
X446574Y73906D01*
X448232Y74169D01*
X454661Y74169D01*
X454661Y66039D01*
X438679Y66039D01*
G37*
%LPD*%
%LPC*%
G36*
X459739Y52831D02*
X459739Y52831D01*
X459739Y60961D01*
X475721Y60961D01*
X475215Y59405D01*
X474453Y57908D01*
X473466Y56550D01*
X472278Y55362D01*
X470920Y54375D01*
X469423Y53613D01*
X467826Y53094D01*
X466168Y52831D01*
X459739Y52831D01*
G37*
%LPD*%
%LPC*%
G36*
X408939Y52831D02*
X408939Y52831D01*
X408939Y60961D01*
X424921Y60961D01*
X424415Y59405D01*
X423653Y57908D01*
X422666Y56550D01*
X421478Y55362D01*
X420120Y54375D01*
X418623Y53613D01*
X417026Y53094D01*
X415368Y52831D01*
X408939Y52831D01*
G37*
%LPD*%
%LPC*%
G36*
X351505Y324885D02*
X351505Y324885D01*
X350008Y325647D01*
X349577Y325961D01*
X348650Y326634D01*
X347462Y327822D01*
X346475Y329180D01*
X345713Y330677D01*
X345194Y332274D01*
X344931Y333932D01*
X344931Y340361D01*
X353061Y340361D01*
X353061Y324379D01*
X351505Y324885D01*
G37*
%LPD*%
%LPC*%
G36*
X448232Y52831D02*
X448232Y52831D01*
X446574Y53094D01*
X444977Y53613D01*
X443480Y54375D01*
X442122Y55362D01*
X440934Y56550D01*
X439947Y57908D01*
X439185Y59405D01*
X438679Y60961D01*
X454661Y60961D01*
X454661Y52831D01*
X448232Y52831D01*
G37*
%LPD*%
%LPC*%
G36*
X397432Y52831D02*
X397432Y52831D01*
X395774Y53094D01*
X394177Y53613D01*
X392680Y54375D01*
X391322Y55362D01*
X390134Y56550D01*
X389147Y57908D01*
X388385Y59405D01*
X387879Y60961D01*
X403861Y60961D01*
X403861Y52831D01*
X397432Y52831D01*
G37*
%LPD*%
%LPC*%
G36*
X217931Y179831D02*
X217931Y179831D01*
X217931Y194363D01*
X218160Y194327D01*
X219605Y193858D01*
X220959Y193168D01*
X222188Y192275D01*
X223263Y191200D01*
X224156Y189971D01*
X224846Y188617D01*
X225315Y187172D01*
X225553Y185672D01*
X225553Y179831D01*
X217931Y179831D01*
G37*
%LPD*%
%LPC*%
G36*
X192531Y179831D02*
X192531Y179831D01*
X192531Y194363D01*
X192760Y194327D01*
X194205Y193858D01*
X195559Y193168D01*
X196788Y192275D01*
X197863Y191200D01*
X198756Y189971D01*
X199446Y188617D01*
X199915Y187172D01*
X200153Y185672D01*
X200153Y179831D01*
X192531Y179831D01*
G37*
%LPD*%
%LPC*%
G36*
X217931Y256031D02*
X217931Y256031D01*
X217931Y270563D01*
X218160Y270527D01*
X219605Y270058D01*
X220959Y269368D01*
X222188Y268475D01*
X223263Y267400D01*
X224156Y266171D01*
X224846Y264817D01*
X225315Y263372D01*
X225553Y261872D01*
X225553Y256031D01*
X217931Y256031D01*
G37*
%LPD*%
%LPC*%
G36*
X192531Y256031D02*
X192531Y256031D01*
X192531Y270563D01*
X192760Y270527D01*
X194205Y270058D01*
X195559Y269368D01*
X196788Y268475D01*
X197863Y267400D01*
X198756Y266171D01*
X199446Y264817D01*
X199915Y263372D01*
X200153Y261872D01*
X200153Y256031D01*
X192531Y256031D01*
G37*
%LPD*%
%LPC*%
G36*
X192531Y251969D02*
X192531Y251969D01*
X200153Y251969D01*
X200153Y246128D01*
X199915Y244628D01*
X199446Y243183D01*
X198756Y241829D01*
X197863Y240600D01*
X196788Y239525D01*
X195559Y238632D01*
X194205Y237942D01*
X192760Y237473D01*
X192531Y237437D01*
X192531Y251969D01*
G37*
%LPD*%
%LPC*%
G36*
X217931Y175769D02*
X217931Y175769D01*
X225553Y175769D01*
X225553Y169928D01*
X225315Y168428D01*
X224846Y166983D01*
X224156Y165629D01*
X223263Y164400D01*
X222188Y163325D01*
X220959Y162432D01*
X219605Y161742D01*
X218160Y161273D01*
X217931Y161237D01*
X217931Y175769D01*
G37*
%LPD*%
%LPC*%
G36*
X206247Y179831D02*
X206247Y179831D01*
X206247Y185672D01*
X206485Y187172D01*
X206954Y188617D01*
X207644Y189971D01*
X208537Y191200D01*
X209612Y192275D01*
X210841Y193168D01*
X212195Y193858D01*
X213640Y194327D01*
X213869Y194363D01*
X213869Y179831D01*
X206247Y179831D01*
G37*
%LPD*%
%LPC*%
G36*
X180847Y256031D02*
X180847Y256031D01*
X180847Y261872D01*
X181085Y263372D01*
X181554Y264817D01*
X182244Y266171D01*
X183137Y267400D01*
X184212Y268475D01*
X185441Y269368D01*
X186795Y270058D01*
X188240Y270527D01*
X188469Y270563D01*
X188469Y256031D01*
X180847Y256031D01*
G37*
%LPD*%
%LPC*%
G36*
X206247Y256031D02*
X206247Y256031D01*
X206247Y261872D01*
X206485Y263372D01*
X206954Y264817D01*
X207644Y266171D01*
X208537Y267400D01*
X209612Y268475D01*
X210841Y269368D01*
X212195Y270058D01*
X213640Y270527D01*
X213869Y270563D01*
X213869Y256031D01*
X206247Y256031D01*
G37*
%LPD*%
%LPC*%
G36*
X213640Y161273D02*
X213640Y161273D01*
X212195Y161742D01*
X210841Y162432D01*
X209612Y163325D01*
X208537Y164400D01*
X207644Y165629D01*
X206954Y166983D01*
X206485Y168428D01*
X206247Y169928D01*
X206247Y175769D01*
X213869Y175769D01*
X213869Y161237D01*
X213640Y161273D01*
G37*
%LPD*%
%LPC*%
G36*
X213640Y237473D02*
X213640Y237473D01*
X212195Y237942D01*
X210841Y238632D01*
X209612Y239525D01*
X208537Y240600D01*
X207644Y241829D01*
X206954Y243183D01*
X206485Y244628D01*
X206247Y246128D01*
X206247Y251969D01*
X213869Y251969D01*
X213869Y237437D01*
X213640Y237473D01*
G37*
%LPD*%
%LPC*%
G36*
X188240Y237473D02*
X188240Y237473D01*
X186795Y237942D01*
X185441Y238632D01*
X184212Y239525D01*
X183137Y240600D01*
X182244Y241829D01*
X181554Y243183D01*
X181085Y244628D01*
X180847Y246128D01*
X180847Y251969D01*
X188469Y251969D01*
X188469Y237437D01*
X188240Y237473D01*
G37*
%LPD*%
%LPC*%
G36*
X574039Y269239D02*
X574039Y269239D01*
X574039Y277369D01*
X575919Y277369D01*
X582169Y271119D01*
X582169Y269239D01*
X574039Y269239D01*
G37*
%LPD*%
%LPC*%
G36*
X574039Y256031D02*
X574039Y256031D01*
X574039Y264161D01*
X582169Y264161D01*
X582169Y262281D01*
X575919Y256031D01*
X574039Y256031D01*
G37*
%LPD*%
%LPC*%
G36*
X560831Y269239D02*
X560831Y269239D01*
X560831Y271119D01*
X567081Y277369D01*
X568961Y277369D01*
X568961Y269239D01*
X560831Y269239D01*
G37*
%LPD*%
%LPC*%
G36*
X567081Y256031D02*
X567081Y256031D01*
X560831Y262281D01*
X560831Y264161D01*
X568961Y264161D01*
X568961Y256031D01*
X567081Y256031D01*
G37*
%LPD*%
%LPC*%
G36*
X510031Y116331D02*
X510031Y116331D01*
X510031Y123953D01*
X511998Y123953D01*
X517653Y118298D01*
X517653Y116331D01*
X510031Y116331D01*
G37*
%LPD*%
%LPC*%
G36*
X421131Y357631D02*
X421131Y357631D01*
X421131Y365253D01*
X423098Y365253D01*
X428753Y359598D01*
X428753Y357631D01*
X421131Y357631D01*
G37*
%LPD*%
%LPC*%
G36*
X357631Y281431D02*
X357631Y281431D01*
X357631Y289053D01*
X359598Y289053D01*
X365253Y283398D01*
X365253Y281431D01*
X357631Y281431D01*
G37*
%LPD*%
%LPC*%
G36*
X421131Y281431D02*
X421131Y281431D01*
X421131Y289053D01*
X423098Y289053D01*
X428753Y283398D01*
X428753Y281431D01*
X421131Y281431D01*
G37*
%LPD*%
%LPC*%
G36*
X345947Y281431D02*
X345947Y281431D01*
X345947Y283398D01*
X351602Y289053D01*
X353569Y289053D01*
X353569Y281431D01*
X345947Y281431D01*
G37*
%LPD*%
%LPC*%
G36*
X409447Y281431D02*
X409447Y281431D01*
X409447Y283398D01*
X415102Y289053D01*
X417069Y289053D01*
X417069Y281431D01*
X409447Y281431D01*
G37*
%LPD*%
%LPC*%
G36*
X409447Y357631D02*
X409447Y357631D01*
X409447Y359598D01*
X415102Y365253D01*
X417069Y365253D01*
X417069Y357631D01*
X409447Y357631D01*
G37*
%LPD*%
%LPC*%
G36*
X510031Y112269D02*
X510031Y112269D01*
X517653Y112269D01*
X517653Y110302D01*
X511998Y104647D01*
X510031Y104647D01*
X510031Y112269D01*
G37*
%LPD*%
%LPC*%
G36*
X357631Y269747D02*
X357631Y269747D01*
X357631Y277369D01*
X365253Y277369D01*
X365253Y275402D01*
X359598Y269747D01*
X357631Y269747D01*
G37*
%LPD*%
%LPC*%
G36*
X498347Y116331D02*
X498347Y116331D01*
X498347Y118298D01*
X504002Y123953D01*
X505969Y123953D01*
X505969Y116331D01*
X498347Y116331D01*
G37*
%LPD*%
%LPC*%
G36*
X421131Y345947D02*
X421131Y345947D01*
X421131Y353569D01*
X428753Y353569D01*
X428753Y351602D01*
X423098Y345947D01*
X421131Y345947D01*
G37*
%LPD*%
%LPC*%
G36*
X421131Y269747D02*
X421131Y269747D01*
X421131Y277369D01*
X428753Y277369D01*
X428753Y275402D01*
X423098Y269747D01*
X421131Y269747D01*
G37*
%LPD*%
%LPC*%
G36*
X415102Y345947D02*
X415102Y345947D01*
X409447Y351602D01*
X409447Y353569D01*
X417069Y353569D01*
X417069Y345947D01*
X415102Y345947D01*
G37*
%LPD*%
%LPC*%
G36*
X415102Y269747D02*
X415102Y269747D01*
X409447Y275402D01*
X409447Y277369D01*
X417069Y277369D01*
X417069Y269747D01*
X415102Y269747D01*
G37*
%LPD*%
%LPC*%
G36*
X351602Y269747D02*
X351602Y269747D01*
X345947Y275402D01*
X345947Y277369D01*
X353569Y277369D01*
X353569Y269747D01*
X351602Y269747D01*
G37*
%LPD*%
%LPC*%
G36*
X504002Y104647D02*
X504002Y104647D01*
X498347Y110302D01*
X498347Y112269D01*
X505969Y112269D01*
X505969Y104647D01*
X504002Y104647D01*
G37*
%LPD*%
%LPC*%
G36*
X319531Y36069D02*
X319531Y36069D01*
X326951Y36069D01*
X326915Y35840D01*
X326446Y34395D01*
X325756Y33041D01*
X324863Y31812D01*
X323788Y30737D01*
X322559Y29844D01*
X321205Y29154D01*
X319760Y28685D01*
X319531Y28649D01*
X319531Y36069D01*
G37*
%LPD*%
%LPC*%
G36*
X167131Y36069D02*
X167131Y36069D01*
X174551Y36069D01*
X174515Y35840D01*
X174046Y34395D01*
X173356Y33041D01*
X172463Y31812D01*
X171388Y30737D01*
X170159Y29844D01*
X168805Y29154D01*
X167360Y28685D01*
X167131Y28649D01*
X167131Y36069D01*
G37*
%LPD*%
%LPC*%
G36*
X315240Y28685D02*
X315240Y28685D01*
X313795Y29154D01*
X312441Y29844D01*
X311212Y30737D01*
X310137Y31812D01*
X309244Y33041D01*
X308554Y34395D01*
X308085Y35840D01*
X308049Y36069D01*
X315469Y36069D01*
X315469Y28649D01*
X315240Y28685D01*
G37*
%LPD*%
%LPC*%
G36*
X162840Y28685D02*
X162840Y28685D01*
X161395Y29154D01*
X160041Y29844D01*
X158812Y30737D01*
X157737Y31812D01*
X156844Y33041D01*
X156154Y34395D01*
X155685Y35840D01*
X155649Y36069D01*
X163069Y36069D01*
X163069Y28649D01*
X162840Y28685D01*
G37*
%LPD*%
%LPC*%
G36*
X406399Y63499D02*
X406399Y63499D01*
X406399Y63501D01*
X406401Y63501D01*
X406401Y63499D01*
X406399Y63499D01*
G37*
%LPD*%
%LPC*%
G36*
X457199Y63499D02*
X457199Y63499D01*
X457199Y63501D01*
X457201Y63501D01*
X457201Y63499D01*
X457199Y63499D01*
G37*
%LPD*%
%LPC*%
G36*
X571499Y266699D02*
X571499Y266699D01*
X571499Y266701D01*
X571501Y266701D01*
X571501Y266699D01*
X571499Y266699D01*
G37*
%LPD*%
%LPC*%
G36*
X266699Y330199D02*
X266699Y330199D01*
X266699Y330201D01*
X266701Y330201D01*
X266701Y330199D01*
X266699Y330199D01*
G37*
%LPD*%
D10*
X330200Y334772D02*
X330200Y351028D01*
X355600Y351028D02*
X355600Y334772D01*
D11*
X330200Y279400D03*
X355600Y279400D03*
X393700Y279400D03*
X419100Y279400D03*
D12*
X419100Y355600D03*
X393700Y355600D03*
D13*
X571500Y38100D03*
X596900Y38100D03*
X571500Y63500D03*
X596900Y63500D03*
X571500Y88900D03*
X596900Y88900D03*
X571500Y114300D03*
X596900Y114300D03*
X571500Y139700D03*
X596900Y139700D03*
X571500Y165100D03*
X596900Y165100D03*
X571500Y190500D03*
X596900Y190500D03*
X571500Y215900D03*
X596900Y215900D03*
X571500Y241300D03*
X596900Y241300D03*
X571500Y266700D03*
X596900Y266700D03*
D10*
X465328Y393700D02*
X449072Y393700D01*
X449072Y368300D02*
X465328Y368300D01*
X465328Y342900D02*
X449072Y342900D01*
X449072Y317500D02*
X465328Y317500D01*
X465328Y292100D02*
X449072Y292100D01*
X449072Y266700D02*
X465328Y266700D01*
X465328Y241300D02*
X449072Y241300D01*
X449072Y215900D02*
X465328Y215900D01*
X465328Y190500D02*
X449072Y190500D01*
X449072Y165100D02*
X465328Y165100D01*
X465328Y139700D02*
X449072Y139700D01*
X449072Y114300D02*
X465328Y114300D01*
X465328Y88900D02*
X449072Y88900D01*
X449072Y63500D02*
X465328Y63500D01*
X465328Y38100D02*
X449072Y38100D01*
X703072Y38100D02*
X719328Y38100D01*
X719328Y63500D02*
X703072Y63500D01*
X703072Y88900D02*
X719328Y88900D01*
X719328Y114300D02*
X703072Y114300D01*
X703072Y139700D02*
X719328Y139700D01*
X719328Y165100D02*
X703072Y165100D01*
X703072Y190500D02*
X719328Y190500D01*
X719328Y215900D02*
X703072Y215900D01*
X703072Y241300D02*
X719328Y241300D01*
X719328Y266700D02*
X703072Y266700D01*
X703072Y292100D02*
X719328Y292100D01*
X719328Y317500D02*
X703072Y317500D01*
X703072Y342900D02*
X719328Y342900D01*
X719328Y368300D02*
X703072Y368300D01*
X703072Y393700D02*
X719328Y393700D01*
X414528Y38100D02*
X398272Y38100D01*
X398272Y63500D02*
X414528Y63500D01*
X414528Y88900D02*
X398272Y88900D01*
X398272Y114300D02*
X414528Y114300D01*
D14*
X292100Y246888D02*
X292100Y261112D01*
X266700Y261112D02*
X266700Y246888D01*
X139700Y246888D02*
X139700Y261112D01*
X114300Y261112D02*
X114300Y246888D01*
X241300Y246888D02*
X241300Y261112D01*
X215900Y261112D02*
X215900Y246888D01*
X165100Y246888D02*
X165100Y261112D01*
X190500Y261112D02*
X190500Y246888D01*
X114300Y184912D02*
X114300Y170688D01*
X139700Y170688D02*
X139700Y184912D01*
X165100Y184912D02*
X165100Y170688D01*
X190500Y170688D02*
X190500Y184912D01*
X215900Y184912D02*
X215900Y170688D01*
X241300Y170688D02*
X241300Y184912D01*
X266700Y184912D02*
X266700Y170688D01*
X292100Y170688D02*
X292100Y184912D01*
D15*
X275336Y304800D02*
X258064Y304800D01*
X258064Y330200D02*
X275336Y330200D01*
X275336Y355600D02*
X258064Y355600D01*
D16*
X88900Y38100D03*
X114300Y38100D03*
X114300Y114300D03*
X88900Y114300D03*
X139700Y38100D03*
X165100Y38100D03*
X139700Y114300D03*
X165100Y114300D03*
X241300Y38100D03*
X266700Y38100D03*
X266700Y114300D03*
X241300Y114300D03*
X292100Y38100D03*
X317500Y38100D03*
X292100Y114300D03*
X317500Y114300D03*
D10*
X58928Y228600D02*
X42672Y228600D01*
X42672Y203200D02*
X58928Y203200D01*
X753872Y228600D02*
X770128Y228600D01*
X770128Y203200D02*
X753872Y203200D01*
D17*
X508000Y63500D03*
X508000Y114300D03*
D18*
X393700Y241300D03*
X393700Y190500D03*
X419100Y241300D03*
X419100Y190500D03*
D19*
X406400Y38100D02*
X457200Y38100D01*
X342900Y177800D02*
X292100Y177800D01*
X304800Y355600D02*
X317500Y368300D01*
X368300Y368300D02*
X381000Y355600D01*
X381000Y292100D01*
X393700Y279400D01*
X304800Y355600D02*
X266700Y355600D01*
X317500Y368300D02*
X368300Y368300D01*
X393700Y279400D02*
X368300Y254000D01*
X368300Y203200D02*
X342900Y177800D01*
X368300Y203200D02*
X368300Y254000D01*
X152400Y50800D02*
X88900Y114300D01*
X152400Y50800D02*
X215900Y50800D01*
X381000Y50800D01*
X393700Y38100D01*
X406400Y38100D01*
X241300Y114300D02*
X203200Y114300D01*
D20*
X203200Y114300D03*
X215900Y50800D03*
D19*
X393700Y241300D02*
X419100Y241300D01*
X393700Y241300D02*
X393700Y279400D01*
D21*
X165100Y304800D02*
X114300Y254000D01*
X165100Y304800D02*
X266700Y304800D01*
X292100Y279400D01*
X330200Y279400D01*
X330200Y342900D01*
D19*
X139700Y203200D02*
X50800Y203200D01*
X139700Y203200D02*
X165100Y228600D01*
X215900Y228600D01*
X241300Y254000D01*
X139700Y228600D02*
X50800Y228600D01*
X139700Y228600D02*
X165100Y254000D01*
X241300Y177800D02*
X266700Y203200D01*
X330200Y203200D01*
D20*
X330200Y203200D03*
D19*
X266700Y228600D02*
X241300Y203200D01*
X190500Y203200D01*
X165100Y177800D01*
X266700Y228600D02*
X330200Y228600D01*
D20*
X330200Y228600D03*
D19*
X165100Y152400D02*
X139700Y177800D01*
X165100Y152400D02*
X190500Y152400D01*
D20*
X190500Y152400D03*
X241300Y139700D03*
D19*
X152400Y139700D01*
X114300Y177800D01*
X406400Y152400D02*
X406400Y114300D01*
X317500Y114300D01*
X304800Y127000D01*
X177800Y127000D01*
X165100Y114300D01*
X393700Y165100D02*
X406400Y152400D01*
X393700Y165100D02*
X393700Y190500D01*
X431800Y228600D01*
X431800Y254000D01*
X444500Y266700D01*
X457200Y266700D01*
X419100Y165100D02*
X431800Y152400D01*
X431800Y101600D01*
X419100Y88900D01*
X406400Y88900D01*
X292100Y88900D01*
X266700Y114300D01*
X292100Y88900D02*
X139700Y88900D01*
X114300Y114300D01*
X419100Y165100D02*
X419100Y190500D01*
X419100Y203200D01*
X457200Y241300D01*
X596900Y241300D02*
X673100Y317500D01*
X673100Y368300D01*
X698500Y393700D01*
X711200Y393700D01*
X685800Y304800D02*
X596900Y215900D01*
X685800Y304800D02*
X685800Y355600D01*
X698500Y368300D01*
X711200Y368300D01*
X698500Y292100D02*
X596900Y190500D01*
X698500Y292100D02*
X711200Y292100D01*
X698500Y266700D02*
X596900Y165100D01*
X698500Y266700D02*
X711200Y266700D01*
X698500Y241300D02*
X596900Y139700D01*
X698500Y241300D02*
X711200Y241300D01*
X698500Y215900D02*
X596900Y114300D01*
X698500Y215900D02*
X711200Y215900D01*
X698500Y190500D02*
X596900Y88900D01*
X698500Y190500D02*
X711200Y190500D01*
X609600Y63500D02*
X596900Y63500D01*
X609600Y63500D02*
X635000Y88900D01*
X711200Y88900D01*
X571500Y165100D02*
X520700Y215900D01*
X520700Y317500D01*
X469900Y368300D01*
X457200Y368300D01*
X508000Y203200D02*
X571500Y139700D01*
X508000Y203200D02*
X508000Y304800D01*
X469900Y342900D01*
X457200Y342900D01*
X495300Y190500D02*
X571500Y114300D01*
X495300Y190500D02*
X495300Y292100D01*
X469900Y317500D01*
X457200Y317500D01*
X482600Y177800D02*
X571500Y88900D01*
X482600Y177800D02*
X482600Y279400D01*
X469900Y292100D01*
X457200Y292100D01*
X393700Y355600D02*
X393700Y368300D01*
X419100Y393700D01*
X457200Y393700D01*
M02*
