M48
;GenerationSoftware,Autodesk,EAGLE,9.0.1*%
;CreationDate,2019-02-04T08:42:29Z*%
FMAT,2
ICI,OFF
METRIC,TZ,000.000
T6C0.350
T5C0.813
T4C1.016
T3C1.118
T2C3.302
T1C4.000
%
G90
M71
T1
X3810Y3810
X77470Y3810
X3810Y39370
X77470Y39370
T2
X11684Y33020
T3
X26670Y30480
X26670Y33020
X26670Y35560
T4
X71120Y24130
X71120Y21590
X59690Y13970
X33020Y34290
X35560Y34290
X71120Y3810
X71120Y16510
X71120Y6350
X71120Y8890
X71120Y11430
X71120Y13970
X57150Y3810
X59690Y3810
X57150Y6350
X59690Y6350
X57150Y8890
X59690Y8890
X57150Y11430
X59690Y11430
X57150Y13970
X71120Y19050
X57150Y16510
X59690Y16510
X57150Y19050
X59690Y19050
X57150Y21590
X59690Y21590
X57150Y24130
X59690Y24130
X57150Y26670
X59690Y26670
X45720Y39370
X45720Y36830
X45720Y34290
X45720Y31750
X45720Y29210
X45720Y26670
X45720Y24130
X45720Y21590
X45720Y19050
X45720Y16510
X45720Y13970
X45720Y11430
X45720Y8890
X45720Y6350
X45720Y3810
X71120Y34290
X71120Y36830
X71120Y39370
X40640Y3810
X40640Y6350
X40640Y8890
X40640Y11430
X71120Y31750
X71120Y29210
X71120Y26670
X5080Y22860
X5080Y20320
X76200Y22860
X76200Y20320
T5
X26670Y25400
X13970Y25400
X11430Y25400
X24130Y25400
X21590Y25400
X16510Y25400
X19050Y25400
X11430Y17780
X13970Y17780
X16510Y17780
X19050Y17780
X21590Y17780
X24130Y17780
X26670Y17780
X29210Y17780
X39370Y27940
X41910Y27940
X41910Y35560
X8890Y3810
X11430Y3810
X11430Y11430
X8890Y11430
X13970Y3810
X16510Y3810
X13970Y11430
X16510Y11430
X24130Y3810
X26670Y3810
X26670Y11430
X24130Y11430
X29210Y3810
X31750Y3810
X29210Y11430
X31750Y11430
X39370Y35560
X35560Y27940
X33020Y27940
X29210Y25400
X50800Y6350
X50800Y11430
X39370Y24130
X39370Y19050
X41910Y24130
X41910Y19050
T6
X33020Y20320
X21590Y5080
X20320Y11430
X24130Y13970
X19050Y15240
X33020Y22860
M30