G04 EAGLE Gerber X2 export*
%TF.Part,Single*%
%TF.FileFunction,Other,L?tseite*%
%TF.FilePolarity,Positive*%
%TF.GenerationSoftware,Autodesk,EAGLE,9.0.1*%
%TF.CreationDate,2019-02-04T08:38:18Z*%
G75*
%MOMM*%
%FSLAX34Y34*%
%LPD*%
%AMOC8*
5,1,8,0,0,1.08239X$1,22.5*%
G01*
%ADD10C,1.625600*%
%ADD11P,1.539592X8X22.500000*%
%ADD12P,1.539592X8X202.500000*%
%ADD13P,1.759533X8X112.500000*%
%ADD14C,1.422400*%
%ADD15C,1.727200*%
%ADD16C,1.422400*%
%ADD17P,1.539592X8X112.500000*%
%ADD18P,1.539592X8X292.500000*%
%ADD19C,0.858000*%
%ADD20C,0.254000*%

G36*
X758178Y10179D02*
X758178Y10179D01*
X758323Y10194D01*
X758336Y10199D01*
X758349Y10201D01*
X758484Y10254D01*
X758621Y10305D01*
X758633Y10313D01*
X758645Y10318D01*
X758762Y10403D01*
X758883Y10486D01*
X758892Y10497D01*
X758902Y10504D01*
X758995Y10616D01*
X759091Y10727D01*
X759097Y10739D01*
X759105Y10749D01*
X759167Y10881D01*
X759232Y11012D01*
X759235Y11025D01*
X759241Y11037D01*
X759268Y11180D01*
X759299Y11323D01*
X759298Y11336D01*
X759301Y11349D01*
X759292Y11494D01*
X759286Y11640D01*
X759282Y11654D01*
X759281Y11667D01*
X759236Y11805D01*
X759194Y11945D01*
X759187Y11957D01*
X759183Y11969D01*
X759105Y12093D01*
X759029Y12217D01*
X759020Y12227D01*
X759013Y12238D01*
X758906Y12338D01*
X758803Y12440D01*
X758787Y12450D01*
X758781Y12456D01*
X758766Y12464D01*
X758668Y12529D01*
X756181Y13965D01*
X750565Y19581D01*
X746595Y26458D01*
X744539Y34129D01*
X744539Y42071D01*
X746595Y49742D01*
X750565Y56619D01*
X756181Y62235D01*
X763058Y66205D01*
X770729Y68261D01*
X778671Y68261D01*
X786342Y66205D01*
X793219Y62235D01*
X798835Y56619D01*
X800071Y54478D01*
X800159Y54362D01*
X800244Y54244D01*
X800255Y54235D01*
X800263Y54225D01*
X800378Y54134D01*
X800489Y54041D01*
X800502Y54035D01*
X800512Y54027D01*
X800646Y53967D01*
X800777Y53906D01*
X800790Y53903D01*
X800803Y53898D01*
X800948Y53873D01*
X801090Y53846D01*
X801103Y53847D01*
X801116Y53844D01*
X801262Y53857D01*
X801407Y53866D01*
X801420Y53870D01*
X801433Y53871D01*
X801571Y53919D01*
X801709Y53964D01*
X801721Y53971D01*
X801734Y53975D01*
X801855Y54056D01*
X801978Y54134D01*
X801987Y54144D01*
X801999Y54151D01*
X802096Y54259D01*
X802196Y54365D01*
X802203Y54377D01*
X802212Y54387D01*
X802279Y54517D01*
X802350Y54644D01*
X802353Y54657D01*
X802359Y54669D01*
X802393Y54811D01*
X802429Y54952D01*
X802430Y54970D01*
X802432Y54978D01*
X802432Y54996D01*
X802439Y55113D01*
X802439Y376687D01*
X802421Y376832D01*
X802406Y376977D01*
X802401Y376990D01*
X802399Y377003D01*
X802346Y377138D01*
X802295Y377275D01*
X802287Y377286D01*
X802282Y377299D01*
X802197Y377416D01*
X802114Y377536D01*
X802104Y377545D01*
X802096Y377556D01*
X801983Y377649D01*
X801873Y377744D01*
X801861Y377750D01*
X801851Y377759D01*
X801719Y377821D01*
X801588Y377886D01*
X801575Y377889D01*
X801563Y377894D01*
X801420Y377922D01*
X801277Y377952D01*
X801264Y377952D01*
X801251Y377954D01*
X801106Y377945D01*
X800960Y377939D01*
X800946Y377935D01*
X800933Y377934D01*
X800795Y377890D01*
X800655Y377848D01*
X800643Y377841D01*
X800631Y377836D01*
X800507Y377758D01*
X800383Y377683D01*
X800373Y377673D01*
X800362Y377666D01*
X800262Y377560D01*
X800160Y377456D01*
X800150Y377441D01*
X800144Y377435D01*
X800136Y377420D01*
X800071Y377322D01*
X798835Y375181D01*
X793219Y369565D01*
X786342Y365595D01*
X778671Y363539D01*
X770729Y363539D01*
X763058Y365595D01*
X756181Y369565D01*
X750565Y375181D01*
X746595Y382058D01*
X744539Y389729D01*
X744539Y397671D01*
X746595Y405342D01*
X750565Y412219D01*
X754519Y416173D01*
X754604Y416282D01*
X754693Y416389D01*
X754701Y416408D01*
X754714Y416424D01*
X754769Y416552D01*
X754828Y416677D01*
X754832Y416697D01*
X754840Y416716D01*
X754862Y416854D01*
X754888Y416990D01*
X754887Y417010D01*
X754890Y417030D01*
X754877Y417169D01*
X754868Y417307D01*
X754862Y417326D01*
X754860Y417346D01*
X754813Y417478D01*
X754770Y417609D01*
X754759Y417627D01*
X754753Y417646D01*
X754674Y417761D01*
X754600Y417878D01*
X754585Y417892D01*
X754574Y417909D01*
X754470Y418001D01*
X754368Y418096D01*
X754351Y418106D01*
X754336Y418119D01*
X754211Y418183D01*
X754090Y418250D01*
X754070Y418255D01*
X754052Y418264D01*
X753916Y418294D01*
X753782Y418329D01*
X753754Y418331D01*
X753742Y418334D01*
X753721Y418333D01*
X753621Y418339D01*
X59179Y418339D01*
X59041Y418322D01*
X58902Y418309D01*
X58883Y418302D01*
X58863Y418299D01*
X58734Y418248D01*
X58603Y418201D01*
X58586Y418190D01*
X58567Y418182D01*
X58455Y418101D01*
X58340Y418023D01*
X58327Y418007D01*
X58310Y417996D01*
X58221Y417888D01*
X58129Y417784D01*
X58120Y417766D01*
X58107Y417751D01*
X58048Y417625D01*
X57985Y417501D01*
X57980Y417481D01*
X57972Y417463D01*
X57946Y417327D01*
X57915Y417191D01*
X57916Y417170D01*
X57912Y417151D01*
X57921Y417012D01*
X57925Y416873D01*
X57931Y416853D01*
X57932Y416833D01*
X57975Y416701D01*
X58013Y416567D01*
X58024Y416550D01*
X58030Y416531D01*
X58104Y416413D01*
X58175Y416293D01*
X58193Y416272D01*
X58200Y416262D01*
X58215Y416248D01*
X58281Y416173D01*
X62235Y412219D01*
X66205Y405342D01*
X68261Y397671D01*
X68261Y389729D01*
X66205Y382058D01*
X62235Y375181D01*
X56619Y369565D01*
X49742Y365595D01*
X42071Y363539D01*
X34129Y363539D01*
X26458Y365595D01*
X19581Y369565D01*
X13965Y375181D01*
X12529Y377668D01*
X12445Y377779D01*
X12443Y377782D01*
X12442Y377783D01*
X12441Y377784D01*
X12356Y377902D01*
X12345Y377911D01*
X12337Y377922D01*
X12223Y378012D01*
X12111Y378105D01*
X12098Y378111D01*
X12088Y378119D01*
X11954Y378179D01*
X11823Y378241D01*
X11810Y378243D01*
X11797Y378249D01*
X11652Y378273D01*
X11510Y378301D01*
X11497Y378300D01*
X11484Y378302D01*
X11338Y378290D01*
X11193Y378281D01*
X11180Y378277D01*
X11167Y378276D01*
X11029Y378228D01*
X10891Y378183D01*
X10879Y378176D01*
X10866Y378171D01*
X10745Y378091D01*
X10622Y378013D01*
X10613Y378003D01*
X10601Y377995D01*
X10504Y377887D01*
X10404Y377781D01*
X10397Y377769D01*
X10388Y377759D01*
X10321Y377630D01*
X10250Y377503D01*
X10247Y377489D01*
X10241Y377477D01*
X10207Y377335D01*
X10171Y377195D01*
X10170Y377176D01*
X10168Y377168D01*
X10168Y377151D01*
X10161Y377034D01*
X10161Y54766D01*
X10179Y54622D01*
X10194Y54477D01*
X10199Y54464D01*
X10201Y54451D01*
X10254Y54316D01*
X10305Y54179D01*
X10313Y54167D01*
X10318Y54155D01*
X10403Y54038D01*
X10486Y53917D01*
X10497Y53908D01*
X10504Y53898D01*
X10616Y53805D01*
X10727Y53709D01*
X10739Y53703D01*
X10749Y53695D01*
X10881Y53633D01*
X11012Y53568D01*
X11025Y53565D01*
X11037Y53559D01*
X11180Y53532D01*
X11323Y53501D01*
X11336Y53502D01*
X11349Y53499D01*
X11494Y53508D01*
X11640Y53514D01*
X11654Y53518D01*
X11667Y53519D01*
X11805Y53564D01*
X11945Y53606D01*
X11957Y53613D01*
X11969Y53617D01*
X12093Y53695D01*
X12217Y53771D01*
X12227Y53780D01*
X12238Y53787D01*
X12338Y53894D01*
X12440Y53997D01*
X12450Y54013D01*
X12456Y54019D01*
X12464Y54034D01*
X12529Y54132D01*
X13965Y56619D01*
X19581Y62235D01*
X26458Y66205D01*
X34129Y68261D01*
X42071Y68261D01*
X49742Y66205D01*
X56619Y62235D01*
X62235Y56619D01*
X66205Y49742D01*
X68261Y42071D01*
X68261Y34129D01*
X66205Y26458D01*
X62235Y19581D01*
X56619Y13965D01*
X54132Y12529D01*
X54016Y12441D01*
X53898Y12356D01*
X53889Y12345D01*
X53878Y12337D01*
X53788Y12223D01*
X53695Y12111D01*
X53689Y12098D01*
X53681Y12088D01*
X53621Y11954D01*
X53559Y11823D01*
X53557Y11810D01*
X53551Y11797D01*
X53527Y11652D01*
X53499Y11510D01*
X53500Y11497D01*
X53498Y11484D01*
X53510Y11338D01*
X53519Y11193D01*
X53523Y11180D01*
X53524Y11167D01*
X53572Y11029D01*
X53617Y10891D01*
X53624Y10879D01*
X53629Y10866D01*
X53709Y10745D01*
X53787Y10622D01*
X53797Y10613D01*
X53805Y10601D01*
X53913Y10504D01*
X54019Y10404D01*
X54031Y10397D01*
X54041Y10388D01*
X54170Y10321D01*
X54297Y10250D01*
X54311Y10247D01*
X54323Y10241D01*
X54465Y10207D01*
X54605Y10171D01*
X54624Y10170D01*
X54632Y10168D01*
X54649Y10168D01*
X54766Y10161D01*
X758034Y10161D01*
X758178Y10179D01*
G37*
%LPC*%
G36*
X700849Y26923D02*
X700849Y26923D01*
X696741Y28625D01*
X693597Y31769D01*
X691895Y35877D01*
X691895Y38071D01*
X691883Y38170D01*
X691880Y38269D01*
X691863Y38327D01*
X691855Y38387D01*
X691819Y38479D01*
X691791Y38574D01*
X691761Y38626D01*
X691738Y38683D01*
X691680Y38763D01*
X691630Y38848D01*
X691594Y38888D01*
X691592Y38892D01*
X691586Y38898D01*
X691564Y38923D01*
X691552Y38940D01*
X691542Y38948D01*
X691524Y38969D01*
X681481Y49011D01*
X681481Y188185D01*
X681469Y188284D01*
X681466Y188383D01*
X681449Y188441D01*
X681441Y188501D01*
X681405Y188593D01*
X681377Y188688D01*
X681347Y188740D01*
X681324Y188797D01*
X681266Y188877D01*
X681216Y188962D01*
X681150Y189037D01*
X681138Y189054D01*
X681128Y189062D01*
X681110Y189083D01*
X608997Y261196D01*
X608903Y261269D01*
X608814Y261347D01*
X608778Y261366D01*
X608746Y261391D01*
X608636Y261438D01*
X608530Y261492D01*
X608491Y261501D01*
X608454Y261517D01*
X608336Y261536D01*
X608220Y261562D01*
X608180Y261560D01*
X608140Y261567D01*
X608021Y261556D01*
X607902Y261552D01*
X607863Y261541D01*
X607823Y261537D01*
X607711Y261497D01*
X607597Y261464D01*
X607562Y261443D01*
X607524Y261429D01*
X607425Y261362D01*
X607323Y261302D01*
X607277Y261262D01*
X607261Y261251D01*
X607247Y261235D01*
X607202Y261196D01*
X601530Y255523D01*
X592270Y255523D01*
X585723Y262070D01*
X585723Y271330D01*
X592270Y277877D01*
X601530Y277877D01*
X608016Y271390D01*
X608094Y271330D01*
X608166Y271262D01*
X608219Y271233D01*
X608267Y271196D01*
X608358Y271156D01*
X608445Y271108D01*
X608503Y271093D01*
X608559Y271069D01*
X608657Y271054D01*
X608753Y271029D01*
X608853Y271023D01*
X608873Y271019D01*
X608885Y271021D01*
X608913Y271019D01*
X611389Y271019D01*
X689905Y192503D01*
X689944Y192473D01*
X689977Y192436D01*
X690069Y192376D01*
X690156Y192308D01*
X690201Y192288D01*
X690243Y192261D01*
X690347Y192225D01*
X690448Y192182D01*
X690497Y192174D01*
X690544Y192158D01*
X690653Y192149D01*
X690762Y192132D01*
X690811Y192137D01*
X690861Y192133D01*
X690969Y192151D01*
X691078Y192162D01*
X691125Y192179D01*
X691174Y192187D01*
X691274Y192232D01*
X691378Y192269D01*
X691419Y192297D01*
X691464Y192318D01*
X691550Y192386D01*
X691641Y192448D01*
X691674Y192485D01*
X691713Y192516D01*
X691779Y192604D01*
X691851Y192686D01*
X691874Y192731D01*
X691904Y192770D01*
X691975Y192915D01*
X693597Y196831D01*
X695282Y198516D01*
X695355Y198610D01*
X695433Y198699D01*
X695452Y198735D01*
X695477Y198767D01*
X695524Y198877D01*
X695578Y198982D01*
X695587Y199022D01*
X695603Y199059D01*
X695622Y199177D01*
X695648Y199293D01*
X695646Y199333D01*
X695653Y199373D01*
X695642Y199492D01*
X695638Y199611D01*
X695627Y199649D01*
X695623Y199690D01*
X695583Y199802D01*
X695550Y199916D01*
X695529Y199951D01*
X695515Y199989D01*
X695448Y200088D01*
X695388Y200190D01*
X695348Y200235D01*
X695337Y200252D01*
X695321Y200266D01*
X695282Y200311D01*
X693810Y201783D01*
X608183Y287410D01*
X608105Y287470D01*
X608032Y287538D01*
X607979Y287567D01*
X607932Y287604D01*
X607841Y287644D01*
X607754Y287692D01*
X607695Y287707D01*
X607640Y287731D01*
X607542Y287746D01*
X607446Y287771D01*
X607346Y287777D01*
X607326Y287781D01*
X607313Y287779D01*
X607285Y287781D01*
X561115Y287781D01*
X561016Y287769D01*
X560917Y287766D01*
X560859Y287749D01*
X560799Y287741D01*
X560707Y287705D01*
X560612Y287677D01*
X560560Y287647D01*
X560503Y287624D01*
X560423Y287566D01*
X560338Y287516D01*
X560263Y287450D01*
X560246Y287438D01*
X560238Y287428D01*
X560217Y287410D01*
X497089Y224281D01*
X475817Y224281D01*
X475679Y224264D01*
X475541Y224251D01*
X475522Y224244D01*
X475502Y224241D01*
X475372Y224190D01*
X475241Y224143D01*
X475225Y224132D01*
X475206Y224124D01*
X475093Y224043D01*
X474978Y223964D01*
X474965Y223949D01*
X474949Y223938D01*
X474860Y223830D01*
X474768Y223726D01*
X474759Y223708D01*
X474746Y223693D01*
X474687Y223567D01*
X474623Y223443D01*
X474619Y223423D01*
X474610Y223405D01*
X474584Y223269D01*
X474554Y223132D01*
X474554Y223112D01*
X474551Y223093D01*
X474559Y222954D01*
X474563Y222814D01*
X474569Y222795D01*
X474570Y222775D01*
X474613Y222643D01*
X474652Y222509D01*
X474662Y222492D01*
X474668Y222473D01*
X474743Y222355D01*
X474773Y222303D01*
X475312Y221002D01*
X475327Y220977D01*
X475336Y220949D01*
X475406Y220839D01*
X475470Y220726D01*
X475490Y220705D01*
X475506Y220680D01*
X475601Y220591D01*
X475691Y220498D01*
X475716Y220482D01*
X475738Y220462D01*
X475851Y220399D01*
X475962Y220331D01*
X475990Y220323D01*
X476016Y220308D01*
X476142Y220276D01*
X476266Y220238D01*
X476296Y220236D01*
X476324Y220229D01*
X476485Y220219D01*
X543785Y220219D01*
X543884Y220231D01*
X543983Y220234D01*
X544041Y220251D01*
X544101Y220259D01*
X544193Y220295D01*
X544288Y220323D01*
X544340Y220353D01*
X544397Y220376D01*
X544477Y220434D01*
X544562Y220484D01*
X544637Y220550D01*
X544654Y220562D01*
X544662Y220572D01*
X544683Y220590D01*
X559952Y235859D01*
X560012Y235937D01*
X560080Y236010D01*
X560109Y236063D01*
X560146Y236110D01*
X560186Y236201D01*
X560234Y236288D01*
X560249Y236347D01*
X560273Y236402D01*
X560288Y236500D01*
X560313Y236596D01*
X560319Y236696D01*
X560323Y236716D01*
X560321Y236729D01*
X560323Y236757D01*
X560323Y245930D01*
X566870Y252477D01*
X576130Y252477D01*
X582677Y245930D01*
X582677Y236670D01*
X576130Y230123D01*
X566957Y230123D01*
X566858Y230111D01*
X566759Y230108D01*
X566701Y230091D01*
X566641Y230083D01*
X566549Y230047D01*
X566454Y230019D01*
X566402Y229989D01*
X566345Y229966D01*
X566265Y229908D01*
X566180Y229858D01*
X566105Y229792D01*
X566088Y229780D01*
X566080Y229770D01*
X566059Y229752D01*
X565551Y229244D01*
X565466Y229134D01*
X565377Y229027D01*
X565369Y229008D01*
X565356Y228992D01*
X565301Y228864D01*
X565242Y228739D01*
X565238Y228719D01*
X565230Y228700D01*
X565208Y228562D01*
X565182Y228426D01*
X565183Y228406D01*
X565180Y228386D01*
X565193Y228247D01*
X565202Y228109D01*
X565208Y228090D01*
X565210Y228070D01*
X565257Y227939D01*
X565300Y227807D01*
X565311Y227789D01*
X565317Y227770D01*
X565395Y227656D01*
X565470Y227538D01*
X565485Y227524D01*
X565496Y227507D01*
X565600Y227415D01*
X565701Y227320D01*
X565719Y227310D01*
X565734Y227297D01*
X565858Y227234D01*
X565980Y227166D01*
X565999Y227161D01*
X566018Y227152D01*
X566154Y227122D01*
X566288Y227087D01*
X566316Y227085D01*
X566328Y227082D01*
X566348Y227083D01*
X566449Y227077D01*
X576130Y227077D01*
X582677Y220530D01*
X582677Y211270D01*
X576130Y204723D01*
X566957Y204723D01*
X566858Y204711D01*
X566759Y204708D01*
X566701Y204691D01*
X566641Y204683D01*
X566549Y204647D01*
X566454Y204619D01*
X566402Y204589D01*
X566345Y204566D01*
X566265Y204508D01*
X566180Y204458D01*
X566105Y204392D01*
X566088Y204380D01*
X566080Y204370D01*
X566059Y204352D01*
X565551Y203844D01*
X565466Y203734D01*
X565377Y203627D01*
X565369Y203608D01*
X565356Y203592D01*
X565301Y203464D01*
X565242Y203339D01*
X565238Y203319D01*
X565230Y203300D01*
X565208Y203162D01*
X565182Y203026D01*
X565183Y203006D01*
X565180Y202986D01*
X565193Y202847D01*
X565202Y202709D01*
X565208Y202690D01*
X565210Y202670D01*
X565257Y202539D01*
X565300Y202407D01*
X565311Y202389D01*
X565317Y202370D01*
X565395Y202256D01*
X565470Y202138D01*
X565485Y202124D01*
X565496Y202107D01*
X565600Y202015D01*
X565701Y201920D01*
X565719Y201910D01*
X565734Y201897D01*
X565858Y201834D01*
X565980Y201766D01*
X565999Y201761D01*
X566018Y201752D01*
X566154Y201722D01*
X566288Y201687D01*
X566316Y201685D01*
X566328Y201682D01*
X566348Y201683D01*
X566449Y201677D01*
X576130Y201677D01*
X582677Y195130D01*
X582677Y185870D01*
X576130Y179323D01*
X566957Y179323D01*
X566858Y179311D01*
X566759Y179308D01*
X566701Y179291D01*
X566641Y179283D01*
X566549Y179247D01*
X566454Y179219D01*
X566402Y179189D01*
X566345Y179166D01*
X566265Y179108D01*
X566180Y179058D01*
X566105Y178992D01*
X566088Y178980D01*
X566080Y178970D01*
X566059Y178952D01*
X565551Y178444D01*
X565466Y178334D01*
X565377Y178227D01*
X565369Y178208D01*
X565356Y178192D01*
X565301Y178064D01*
X565242Y177939D01*
X565238Y177919D01*
X565230Y177900D01*
X565208Y177762D01*
X565182Y177626D01*
X565183Y177606D01*
X565180Y177586D01*
X565193Y177447D01*
X565202Y177309D01*
X565208Y177290D01*
X565210Y177270D01*
X565257Y177139D01*
X565300Y177007D01*
X565311Y176989D01*
X565317Y176970D01*
X565395Y176856D01*
X565470Y176738D01*
X565485Y176724D01*
X565496Y176707D01*
X565600Y176615D01*
X565701Y176520D01*
X565719Y176510D01*
X565734Y176497D01*
X565858Y176434D01*
X565980Y176366D01*
X565999Y176361D01*
X566018Y176352D01*
X566154Y176322D01*
X566288Y176287D01*
X566316Y176285D01*
X566328Y176282D01*
X566348Y176283D01*
X566449Y176277D01*
X576130Y176277D01*
X582677Y169730D01*
X582677Y160470D01*
X576130Y153923D01*
X566870Y153923D01*
X560323Y160470D01*
X560323Y170151D01*
X560306Y170289D01*
X560293Y170428D01*
X560286Y170447D01*
X560283Y170467D01*
X560232Y170596D01*
X560185Y170727D01*
X560174Y170744D01*
X560166Y170763D01*
X560085Y170875D01*
X560007Y170990D01*
X559991Y171004D01*
X559980Y171020D01*
X559872Y171109D01*
X559768Y171201D01*
X559750Y171210D01*
X559735Y171223D01*
X559609Y171282D01*
X559485Y171345D01*
X559465Y171350D01*
X559447Y171358D01*
X559311Y171384D01*
X559175Y171415D01*
X559154Y171414D01*
X559135Y171418D01*
X558996Y171409D01*
X558857Y171405D01*
X558837Y171400D01*
X558817Y171398D01*
X558685Y171356D01*
X558551Y171317D01*
X558534Y171307D01*
X558515Y171300D01*
X558397Y171226D01*
X558277Y171155D01*
X558256Y171137D01*
X558246Y171130D01*
X558232Y171115D01*
X558157Y171049D01*
X550790Y163683D01*
X547889Y160781D01*
X476485Y160781D01*
X476456Y160778D01*
X476426Y160780D01*
X476298Y160758D01*
X476169Y160741D01*
X476142Y160731D01*
X476113Y160726D01*
X475994Y160672D01*
X475874Y160624D01*
X475850Y160607D01*
X475823Y160595D01*
X475722Y160514D01*
X475616Y160438D01*
X475597Y160415D01*
X475574Y160396D01*
X475496Y160293D01*
X475413Y160193D01*
X475401Y160166D01*
X475383Y160142D01*
X475312Y159998D01*
X474803Y158769D01*
X471659Y155625D01*
X467551Y153923D01*
X446849Y153923D01*
X442741Y155625D01*
X439597Y158769D01*
X437895Y162877D01*
X437895Y167323D01*
X439597Y171431D01*
X442741Y174575D01*
X446849Y176277D01*
X467551Y176277D01*
X471659Y174575D01*
X474803Y171431D01*
X475312Y170202D01*
X475327Y170177D01*
X475336Y170149D01*
X475406Y170039D01*
X475470Y169926D01*
X475490Y169905D01*
X475506Y169880D01*
X475601Y169791D01*
X475691Y169698D01*
X475716Y169682D01*
X475738Y169662D01*
X475851Y169599D01*
X475962Y169531D01*
X475990Y169523D01*
X476016Y169508D01*
X476142Y169476D01*
X476266Y169438D01*
X476296Y169436D01*
X476324Y169429D01*
X476485Y169419D01*
X543785Y169419D01*
X543884Y169431D01*
X543983Y169434D01*
X544041Y169451D01*
X544101Y169459D01*
X544193Y169495D01*
X544288Y169523D01*
X544340Y169553D01*
X544397Y169576D01*
X544477Y169634D01*
X544562Y169684D01*
X544637Y169750D01*
X544654Y169762D01*
X544662Y169772D01*
X544683Y169790D01*
X559952Y185059D01*
X560012Y185137D01*
X560080Y185210D01*
X560109Y185263D01*
X560146Y185310D01*
X560186Y185401D01*
X560234Y185488D01*
X560249Y185547D01*
X560273Y185602D01*
X560288Y185700D01*
X560313Y185796D01*
X560319Y185896D01*
X560323Y185916D01*
X560321Y185929D01*
X560323Y185957D01*
X560323Y195551D01*
X560306Y195689D01*
X560293Y195828D01*
X560286Y195847D01*
X560283Y195867D01*
X560232Y195996D01*
X560185Y196127D01*
X560174Y196144D01*
X560166Y196163D01*
X560085Y196275D01*
X560007Y196390D01*
X559991Y196404D01*
X559980Y196420D01*
X559872Y196509D01*
X559768Y196601D01*
X559750Y196610D01*
X559735Y196623D01*
X559609Y196682D01*
X559485Y196745D01*
X559465Y196750D01*
X559447Y196758D01*
X559311Y196784D01*
X559175Y196815D01*
X559154Y196814D01*
X559135Y196818D01*
X558996Y196809D01*
X558857Y196805D01*
X558837Y196800D01*
X558817Y196798D01*
X558685Y196756D01*
X558551Y196717D01*
X558534Y196707D01*
X558515Y196700D01*
X558397Y196626D01*
X558277Y196555D01*
X558256Y196537D01*
X558246Y196530D01*
X558232Y196515D01*
X558157Y196449D01*
X550790Y189083D01*
X547889Y186181D01*
X476485Y186181D01*
X476456Y186178D01*
X476426Y186180D01*
X476298Y186158D01*
X476169Y186141D01*
X476142Y186131D01*
X476113Y186126D01*
X475994Y186072D01*
X475874Y186024D01*
X475850Y186007D01*
X475823Y185995D01*
X475722Y185914D01*
X475616Y185838D01*
X475597Y185815D01*
X475574Y185796D01*
X475496Y185693D01*
X475413Y185593D01*
X475401Y185566D01*
X475383Y185542D01*
X475312Y185398D01*
X474803Y184169D01*
X471659Y181025D01*
X467551Y179323D01*
X446849Y179323D01*
X442741Y181025D01*
X439597Y184169D01*
X437895Y188277D01*
X437895Y192723D01*
X439597Y196831D01*
X442741Y199975D01*
X446849Y201677D01*
X467551Y201677D01*
X471659Y199975D01*
X474803Y196831D01*
X475312Y195602D01*
X475327Y195577D01*
X475336Y195549D01*
X475406Y195439D01*
X475470Y195326D01*
X475490Y195305D01*
X475506Y195280D01*
X475601Y195191D01*
X475691Y195098D01*
X475716Y195082D01*
X475738Y195062D01*
X475851Y194999D01*
X475962Y194931D01*
X475990Y194923D01*
X476016Y194908D01*
X476142Y194876D01*
X476266Y194838D01*
X476296Y194836D01*
X476324Y194829D01*
X476485Y194819D01*
X543785Y194819D01*
X543884Y194831D01*
X543983Y194834D01*
X544041Y194851D01*
X544101Y194859D01*
X544193Y194895D01*
X544288Y194923D01*
X544340Y194953D01*
X544397Y194976D01*
X544477Y195034D01*
X544562Y195084D01*
X544637Y195150D01*
X544654Y195162D01*
X544662Y195172D01*
X544683Y195190D01*
X559952Y210459D01*
X560012Y210537D01*
X560080Y210610D01*
X560109Y210663D01*
X560146Y210710D01*
X560186Y210801D01*
X560234Y210888D01*
X560249Y210947D01*
X560273Y211002D01*
X560288Y211100D01*
X560313Y211196D01*
X560319Y211296D01*
X560323Y211316D01*
X560321Y211329D01*
X560323Y211357D01*
X560323Y220951D01*
X560306Y221089D01*
X560293Y221228D01*
X560286Y221247D01*
X560283Y221267D01*
X560232Y221396D01*
X560185Y221527D01*
X560174Y221544D01*
X560166Y221563D01*
X560085Y221675D01*
X560007Y221790D01*
X559991Y221804D01*
X559980Y221820D01*
X559872Y221909D01*
X559768Y222001D01*
X559750Y222010D01*
X559735Y222023D01*
X559609Y222082D01*
X559485Y222145D01*
X559465Y222150D01*
X559447Y222158D01*
X559311Y222184D01*
X559175Y222215D01*
X559154Y222214D01*
X559135Y222218D01*
X558996Y222209D01*
X558857Y222205D01*
X558837Y222200D01*
X558817Y222198D01*
X558685Y222156D01*
X558551Y222117D01*
X558534Y222107D01*
X558515Y222100D01*
X558397Y222026D01*
X558277Y221955D01*
X558256Y221937D01*
X558246Y221930D01*
X558232Y221915D01*
X558157Y221849D01*
X550790Y214483D01*
X547889Y211581D01*
X476485Y211581D01*
X476456Y211578D01*
X476426Y211580D01*
X476298Y211558D01*
X476169Y211541D01*
X476142Y211531D01*
X476113Y211526D01*
X475994Y211472D01*
X475874Y211424D01*
X475850Y211407D01*
X475823Y211395D01*
X475722Y211314D01*
X475616Y211238D01*
X475597Y211215D01*
X475574Y211196D01*
X475496Y211093D01*
X475413Y210993D01*
X475401Y210966D01*
X475383Y210942D01*
X475312Y210798D01*
X474803Y209569D01*
X471659Y206425D01*
X467551Y204723D01*
X446849Y204723D01*
X442741Y206425D01*
X439597Y209569D01*
X437895Y213677D01*
X437895Y218123D01*
X439623Y222293D01*
X439654Y222331D01*
X439663Y222350D01*
X439675Y222366D01*
X439730Y222493D01*
X439790Y222619D01*
X439793Y222639D01*
X439801Y222657D01*
X439823Y222795D01*
X439849Y222932D01*
X439848Y222952D01*
X439851Y222971D01*
X439838Y223110D01*
X439830Y223249D01*
X439824Y223268D01*
X439822Y223288D01*
X439774Y223419D01*
X439732Y223551D01*
X439721Y223568D01*
X439714Y223587D01*
X439636Y223703D01*
X439562Y223820D01*
X439547Y223834D01*
X439536Y223851D01*
X439431Y223943D01*
X439330Y224038D01*
X439312Y224048D01*
X439297Y224061D01*
X439173Y224124D01*
X439051Y224192D01*
X439032Y224197D01*
X439014Y224206D01*
X438878Y224236D01*
X438743Y224271D01*
X438716Y224273D01*
X438704Y224275D01*
X438683Y224275D01*
X438583Y224281D01*
X396015Y224281D01*
X395916Y224269D01*
X395817Y224266D01*
X395759Y224249D01*
X395699Y224241D01*
X395607Y224205D01*
X395512Y224177D01*
X395460Y224147D01*
X395403Y224124D01*
X395323Y224066D01*
X395238Y224016D01*
X395163Y223950D01*
X395146Y223938D01*
X395138Y223928D01*
X395117Y223910D01*
X370089Y198881D01*
X336786Y198881D01*
X336687Y198869D01*
X336588Y198866D01*
X336530Y198849D01*
X336470Y198841D01*
X336378Y198805D01*
X336283Y198777D01*
X336231Y198747D01*
X336174Y198724D01*
X336094Y198666D01*
X336009Y198616D01*
X335933Y198550D01*
X335917Y198538D01*
X335909Y198528D01*
X335888Y198510D01*
X334357Y196979D01*
X331660Y195861D01*
X328740Y195861D01*
X326043Y196979D01*
X323979Y199043D01*
X322861Y201740D01*
X322861Y204660D01*
X323979Y207357D01*
X326043Y209421D01*
X328740Y210539D01*
X331660Y210539D01*
X334357Y209421D01*
X335888Y207890D01*
X335966Y207830D01*
X336038Y207762D01*
X336091Y207733D01*
X336139Y207696D01*
X336230Y207656D01*
X336317Y207608D01*
X336375Y207593D01*
X336431Y207569D01*
X336529Y207554D01*
X336625Y207529D01*
X336725Y207523D01*
X336745Y207519D01*
X336758Y207521D01*
X336786Y207519D01*
X365985Y207519D01*
X366084Y207531D01*
X366183Y207534D01*
X366241Y207551D01*
X366301Y207559D01*
X366393Y207595D01*
X366488Y207623D01*
X366540Y207653D01*
X366597Y207676D01*
X366677Y207734D01*
X366762Y207784D01*
X366837Y207850D01*
X366854Y207862D01*
X366862Y207872D01*
X366883Y207890D01*
X388914Y229922D01*
X388987Y230016D01*
X389066Y230105D01*
X389084Y230141D01*
X389109Y230173D01*
X389156Y230282D01*
X389210Y230388D01*
X389219Y230428D01*
X389235Y230465D01*
X389254Y230582D01*
X389280Y230698D01*
X389279Y230739D01*
X389285Y230779D01*
X389274Y230897D01*
X389270Y231016D01*
X389259Y231055D01*
X389255Y231095D01*
X389215Y231208D01*
X389182Y231322D01*
X389161Y231357D01*
X389148Y231395D01*
X389081Y231493D01*
X389020Y231596D01*
X388981Y231641D01*
X388969Y231658D01*
X388954Y231671D01*
X388914Y231717D01*
X383539Y237091D01*
X383539Y245509D01*
X385545Y247515D01*
X385630Y247624D01*
X385719Y247731D01*
X385728Y247750D01*
X385740Y247766D01*
X385795Y247894D01*
X385855Y248019D01*
X385858Y248039D01*
X385866Y248058D01*
X385888Y248196D01*
X385914Y248332D01*
X385913Y248352D01*
X385916Y248372D01*
X385903Y248511D01*
X385895Y248649D01*
X385888Y248668D01*
X385886Y248688D01*
X385839Y248820D01*
X385797Y248951D01*
X385786Y248969D01*
X385779Y248988D01*
X385701Y249103D01*
X385626Y249220D01*
X385612Y249234D01*
X385600Y249251D01*
X385496Y249343D01*
X385395Y249438D01*
X385377Y249448D01*
X385362Y249461D01*
X385238Y249525D01*
X385116Y249592D01*
X385097Y249597D01*
X385079Y249606D01*
X384943Y249636D01*
X384808Y249671D01*
X384780Y249673D01*
X384768Y249676D01*
X384748Y249675D01*
X384648Y249681D01*
X383315Y249681D01*
X383216Y249669D01*
X383117Y249666D01*
X383059Y249649D01*
X382999Y249641D01*
X382907Y249605D01*
X382812Y249577D01*
X382760Y249547D01*
X382703Y249524D01*
X382623Y249466D01*
X382538Y249416D01*
X382463Y249350D01*
X382446Y249338D01*
X382438Y249328D01*
X382417Y249310D01*
X357389Y224281D01*
X336786Y224281D01*
X336687Y224269D01*
X336588Y224266D01*
X336530Y224249D01*
X336470Y224241D01*
X336378Y224205D01*
X336283Y224177D01*
X336231Y224147D01*
X336174Y224124D01*
X336094Y224066D01*
X336009Y224016D01*
X335933Y223950D01*
X335917Y223938D01*
X335909Y223928D01*
X335888Y223910D01*
X334357Y222379D01*
X331660Y221261D01*
X328740Y221261D01*
X326043Y222379D01*
X323979Y224443D01*
X322861Y227140D01*
X322861Y230060D01*
X323979Y232757D01*
X326043Y234821D01*
X328740Y235939D01*
X331660Y235939D01*
X334357Y234821D01*
X335888Y233290D01*
X335966Y233230D01*
X336038Y233162D01*
X336091Y233133D01*
X336139Y233096D01*
X336230Y233056D01*
X336317Y233008D01*
X336375Y232993D01*
X336431Y232969D01*
X336529Y232954D01*
X336625Y232929D01*
X336725Y232923D01*
X336745Y232919D01*
X336758Y232921D01*
X336786Y232919D01*
X353285Y232919D01*
X353384Y232931D01*
X353483Y232934D01*
X353541Y232951D01*
X353601Y232959D01*
X353693Y232995D01*
X353788Y233023D01*
X353840Y233053D01*
X353897Y233076D01*
X353977Y233134D01*
X354062Y233184D01*
X354137Y233250D01*
X354154Y233262D01*
X354162Y233272D01*
X354183Y233290D01*
X379211Y258319D01*
X438583Y258319D01*
X438721Y258336D01*
X438859Y258349D01*
X438878Y258356D01*
X438898Y258359D01*
X439028Y258410D01*
X439159Y258457D01*
X439175Y258468D01*
X439194Y258476D01*
X439307Y258557D01*
X439422Y258636D01*
X439435Y258651D01*
X439451Y258662D01*
X439540Y258770D01*
X439632Y258874D01*
X439641Y258892D01*
X439654Y258907D01*
X439713Y259033D01*
X439777Y259157D01*
X439781Y259177D01*
X439790Y259195D01*
X439816Y259331D01*
X439846Y259468D01*
X439846Y259488D01*
X439849Y259507D01*
X439841Y259646D01*
X439837Y259786D01*
X439831Y259805D01*
X439830Y259825D01*
X439787Y259957D01*
X439748Y260091D01*
X439738Y260108D01*
X439732Y260127D01*
X439657Y260245D01*
X439627Y260297D01*
X437895Y264477D01*
X437895Y268923D01*
X439597Y273031D01*
X442741Y276175D01*
X446849Y277877D01*
X467551Y277877D01*
X471659Y276175D01*
X474803Y273031D01*
X476505Y268923D01*
X476505Y264477D01*
X474777Y260307D01*
X474746Y260269D01*
X474737Y260250D01*
X474725Y260234D01*
X474670Y260107D01*
X474610Y259981D01*
X474607Y259961D01*
X474599Y259943D01*
X474577Y259805D01*
X474551Y259668D01*
X474552Y259648D01*
X474549Y259629D01*
X474562Y259490D01*
X474570Y259351D01*
X474576Y259332D01*
X474578Y259312D01*
X474626Y259181D01*
X474668Y259049D01*
X474679Y259032D01*
X474686Y259013D01*
X474764Y258897D01*
X474838Y258780D01*
X474853Y258766D01*
X474864Y258749D01*
X474969Y258657D01*
X475070Y258562D01*
X475088Y258552D01*
X475103Y258539D01*
X475227Y258476D01*
X475349Y258408D01*
X475368Y258403D01*
X475386Y258394D01*
X475522Y258364D01*
X475657Y258329D01*
X475684Y258327D01*
X475696Y258325D01*
X475717Y258325D01*
X475817Y258319D01*
X492985Y258319D01*
X493084Y258331D01*
X493183Y258334D01*
X493241Y258351D01*
X493301Y258359D01*
X493393Y258395D01*
X493488Y258423D01*
X493540Y258453D01*
X493597Y258476D01*
X493677Y258534D01*
X493762Y258584D01*
X493837Y258650D01*
X493854Y258662D01*
X493862Y258672D01*
X493883Y258690D01*
X544311Y309119D01*
X624089Y309119D01*
X689905Y243303D01*
X689944Y243273D01*
X689977Y243236D01*
X690069Y243176D01*
X690156Y243108D01*
X690201Y243088D01*
X690243Y243061D01*
X690347Y243025D01*
X690448Y242982D01*
X690497Y242974D01*
X690544Y242958D01*
X690653Y242949D01*
X690762Y242932D01*
X690811Y242937D01*
X690861Y242933D01*
X690969Y242951D01*
X691078Y242962D01*
X691125Y242979D01*
X691174Y242987D01*
X691274Y243032D01*
X691378Y243069D01*
X691419Y243097D01*
X691464Y243118D01*
X691550Y243186D01*
X691641Y243248D01*
X691674Y243285D01*
X691713Y243316D01*
X691779Y243404D01*
X691851Y243486D01*
X691874Y243531D01*
X691904Y243570D01*
X691975Y243715D01*
X693597Y247631D01*
X696741Y250775D01*
X700849Y252477D01*
X721551Y252477D01*
X725659Y250775D01*
X728803Y247631D01*
X730505Y243523D01*
X730505Y239077D01*
X728777Y234907D01*
X728746Y234869D01*
X728737Y234850D01*
X728725Y234834D01*
X728670Y234707D01*
X728610Y234581D01*
X728607Y234561D01*
X728599Y234543D01*
X728577Y234405D01*
X728551Y234268D01*
X728552Y234248D01*
X728549Y234229D01*
X728562Y234090D01*
X728570Y233951D01*
X728576Y233932D01*
X728578Y233912D01*
X728626Y233781D01*
X728668Y233649D01*
X728679Y233632D01*
X728686Y233613D01*
X728764Y233497D01*
X728838Y233380D01*
X728853Y233366D01*
X728864Y233349D01*
X728969Y233257D01*
X729070Y233162D01*
X729088Y233152D01*
X729103Y233139D01*
X729227Y233076D01*
X729349Y233008D01*
X729368Y233003D01*
X729386Y232994D01*
X729522Y232964D01*
X729657Y232929D01*
X729684Y232927D01*
X729696Y232925D01*
X729717Y232925D01*
X729817Y232919D01*
X742715Y232919D01*
X742745Y232922D01*
X742774Y232920D01*
X742902Y232942D01*
X743031Y232959D01*
X743058Y232969D01*
X743087Y232974D01*
X743206Y233028D01*
X743326Y233076D01*
X743350Y233093D01*
X743377Y233105D01*
X743479Y233186D01*
X743584Y233262D01*
X743603Y233285D01*
X743626Y233304D01*
X743704Y233407D01*
X743787Y233507D01*
X743799Y233534D01*
X743817Y233558D01*
X743888Y233702D01*
X744397Y234931D01*
X747541Y238075D01*
X751649Y239777D01*
X772351Y239777D01*
X776459Y238075D01*
X779603Y234931D01*
X781305Y230823D01*
X781305Y226377D01*
X779603Y222269D01*
X776459Y219125D01*
X772351Y217423D01*
X751649Y217423D01*
X747541Y219125D01*
X744397Y222269D01*
X743888Y223498D01*
X743873Y223523D01*
X743864Y223551D01*
X743795Y223661D01*
X743730Y223774D01*
X743710Y223795D01*
X743694Y223820D01*
X743599Y223909D01*
X743509Y224002D01*
X743484Y224018D01*
X743462Y224038D01*
X743349Y224101D01*
X743238Y224169D01*
X743210Y224177D01*
X743184Y224192D01*
X743058Y224224D01*
X742934Y224262D01*
X742904Y224264D01*
X742876Y224271D01*
X742715Y224281D01*
X729817Y224281D01*
X729679Y224264D01*
X729541Y224251D01*
X729522Y224244D01*
X729502Y224241D01*
X729372Y224190D01*
X729241Y224143D01*
X729225Y224132D01*
X729206Y224124D01*
X729093Y224043D01*
X728978Y223964D01*
X728965Y223949D01*
X728949Y223938D01*
X728860Y223830D01*
X728768Y223726D01*
X728759Y223708D01*
X728746Y223693D01*
X728687Y223567D01*
X728623Y223443D01*
X728619Y223423D01*
X728610Y223405D01*
X728584Y223269D01*
X728554Y223132D01*
X728554Y223112D01*
X728551Y223093D01*
X728559Y222954D01*
X728563Y222814D01*
X728569Y222795D01*
X728570Y222775D01*
X728613Y222643D01*
X728652Y222509D01*
X728662Y222492D01*
X728668Y222473D01*
X728743Y222355D01*
X728773Y222303D01*
X730505Y218123D01*
X730505Y213677D01*
X728777Y209507D01*
X728746Y209469D01*
X728737Y209450D01*
X728725Y209434D01*
X728670Y209307D01*
X728610Y209181D01*
X728607Y209161D01*
X728599Y209143D01*
X728577Y209005D01*
X728551Y208868D01*
X728552Y208848D01*
X728549Y208829D01*
X728562Y208690D01*
X728570Y208551D01*
X728576Y208532D01*
X728578Y208512D01*
X728626Y208381D01*
X728668Y208249D01*
X728679Y208232D01*
X728686Y208213D01*
X728764Y208097D01*
X728838Y207980D01*
X728853Y207966D01*
X728864Y207949D01*
X728969Y207857D01*
X729070Y207762D01*
X729088Y207752D01*
X729103Y207739D01*
X729227Y207676D01*
X729349Y207608D01*
X729368Y207603D01*
X729386Y207594D01*
X729522Y207564D01*
X729657Y207529D01*
X729684Y207527D01*
X729696Y207525D01*
X729717Y207525D01*
X729817Y207519D01*
X742715Y207519D01*
X742744Y207522D01*
X742774Y207520D01*
X742902Y207542D01*
X743031Y207559D01*
X743058Y207569D01*
X743087Y207574D01*
X743206Y207628D01*
X743326Y207676D01*
X743350Y207693D01*
X743377Y207705D01*
X743478Y207786D01*
X743584Y207862D01*
X743603Y207885D01*
X743626Y207904D01*
X743703Y208007D01*
X743787Y208107D01*
X743799Y208134D01*
X743817Y208158D01*
X743888Y208302D01*
X744397Y209531D01*
X747541Y212675D01*
X751649Y214377D01*
X772351Y214377D01*
X776459Y212675D01*
X779603Y209531D01*
X781305Y205423D01*
X781305Y200977D01*
X779603Y196869D01*
X776459Y193725D01*
X772351Y192023D01*
X751649Y192023D01*
X747541Y193725D01*
X744397Y196869D01*
X743888Y198098D01*
X743873Y198123D01*
X743864Y198151D01*
X743794Y198261D01*
X743730Y198374D01*
X743710Y198395D01*
X743694Y198420D01*
X743599Y198509D01*
X743509Y198602D01*
X743484Y198618D01*
X743462Y198638D01*
X743349Y198701D01*
X743238Y198769D01*
X743210Y198777D01*
X743184Y198792D01*
X743058Y198824D01*
X742934Y198862D01*
X742904Y198864D01*
X742876Y198871D01*
X742715Y198881D01*
X729817Y198881D01*
X729679Y198864D01*
X729541Y198851D01*
X729522Y198844D01*
X729502Y198841D01*
X729372Y198790D01*
X729241Y198743D01*
X729225Y198732D01*
X729206Y198724D01*
X729093Y198643D01*
X728978Y198564D01*
X728965Y198549D01*
X728949Y198538D01*
X728860Y198430D01*
X728768Y198326D01*
X728759Y198308D01*
X728746Y198293D01*
X728687Y198167D01*
X728623Y198043D01*
X728619Y198023D01*
X728610Y198005D01*
X728584Y197869D01*
X728554Y197732D01*
X728554Y197712D01*
X728551Y197693D01*
X728559Y197554D01*
X728563Y197414D01*
X728569Y197395D01*
X728570Y197375D01*
X728613Y197243D01*
X728652Y197109D01*
X728662Y197092D01*
X728668Y197073D01*
X728743Y196955D01*
X728773Y196903D01*
X730505Y192723D01*
X730505Y188277D01*
X728803Y184169D01*
X725659Y181025D01*
X721551Y179323D01*
X700849Y179323D01*
X696741Y181025D01*
X693597Y184169D01*
X692561Y186671D01*
X692526Y186731D01*
X692500Y186796D01*
X692448Y186869D01*
X692403Y186947D01*
X692355Y186997D01*
X692314Y187053D01*
X692244Y187111D01*
X692182Y187175D01*
X692122Y187212D01*
X692069Y187256D01*
X691987Y187295D01*
X691911Y187341D01*
X691844Y187362D01*
X691781Y187392D01*
X691693Y187409D01*
X691607Y187435D01*
X691537Y187438D01*
X691468Y187452D01*
X691379Y187446D01*
X691289Y187450D01*
X691221Y187436D01*
X691151Y187432D01*
X691066Y187404D01*
X690978Y187386D01*
X690915Y187355D01*
X690849Y187334D01*
X690773Y187286D01*
X690692Y187246D01*
X690639Y187201D01*
X690580Y187164D01*
X690518Y187098D01*
X690450Y187040D01*
X690410Y186983D01*
X690362Y186932D01*
X690319Y186853D01*
X690267Y186780D01*
X690242Y186715D01*
X690208Y186653D01*
X690186Y186567D01*
X690154Y186482D01*
X690146Y186413D01*
X690129Y186346D01*
X690119Y186185D01*
X690119Y169415D01*
X690127Y169346D01*
X690126Y169276D01*
X690147Y169189D01*
X690159Y169100D01*
X690184Y169035D01*
X690201Y168967D01*
X690243Y168887D01*
X690276Y168804D01*
X690317Y168748D01*
X690349Y168686D01*
X690410Y168619D01*
X690462Y168547D01*
X690516Y168502D01*
X690563Y168450D01*
X690638Y168401D01*
X690707Y168344D01*
X690771Y168314D01*
X690829Y168276D01*
X690914Y168247D01*
X690995Y168208D01*
X691064Y168195D01*
X691130Y168172D01*
X691219Y168165D01*
X691307Y168148D01*
X691377Y168153D01*
X691447Y168147D01*
X691535Y168163D01*
X691625Y168168D01*
X691691Y168190D01*
X691760Y168202D01*
X691842Y168239D01*
X691927Y168266D01*
X691986Y168304D01*
X692050Y168332D01*
X692120Y168388D01*
X692196Y168436D01*
X692244Y168487D01*
X692298Y168531D01*
X692353Y168603D01*
X692414Y168668D01*
X692448Y168729D01*
X692490Y168785D01*
X692561Y168929D01*
X693597Y171431D01*
X696741Y174575D01*
X700849Y176277D01*
X721551Y176277D01*
X725659Y174575D01*
X728803Y171431D01*
X730505Y167323D01*
X730505Y162877D01*
X728803Y158769D01*
X725659Y155625D01*
X721551Y153923D01*
X700849Y153923D01*
X696741Y155625D01*
X693597Y158769D01*
X692561Y161271D01*
X692526Y161331D01*
X692500Y161396D01*
X692448Y161469D01*
X692403Y161547D01*
X692355Y161597D01*
X692314Y161653D01*
X692244Y161711D01*
X692182Y161775D01*
X692122Y161812D01*
X692069Y161856D01*
X691987Y161895D01*
X691911Y161941D01*
X691844Y161962D01*
X691781Y161992D01*
X691693Y162009D01*
X691607Y162035D01*
X691537Y162038D01*
X691468Y162052D01*
X691379Y162046D01*
X691289Y162050D01*
X691221Y162036D01*
X691151Y162032D01*
X691066Y162004D01*
X690978Y161986D01*
X690915Y161955D01*
X690849Y161934D01*
X690773Y161886D01*
X690692Y161846D01*
X690639Y161801D01*
X690580Y161764D01*
X690518Y161698D01*
X690450Y161640D01*
X690410Y161583D01*
X690362Y161532D01*
X690319Y161453D01*
X690267Y161380D01*
X690242Y161315D01*
X690208Y161253D01*
X690186Y161167D01*
X690154Y161082D01*
X690146Y161013D01*
X690129Y160946D01*
X690119Y160785D01*
X690119Y144015D01*
X690127Y143946D01*
X690126Y143876D01*
X690147Y143789D01*
X690159Y143700D01*
X690184Y143635D01*
X690201Y143567D01*
X690243Y143487D01*
X690276Y143404D01*
X690317Y143348D01*
X690349Y143286D01*
X690410Y143219D01*
X690462Y143147D01*
X690516Y143102D01*
X690563Y143050D01*
X690638Y143001D01*
X690707Y142944D01*
X690771Y142914D01*
X690829Y142876D01*
X690914Y142847D01*
X690995Y142808D01*
X691064Y142795D01*
X691130Y142772D01*
X691219Y142765D01*
X691307Y142748D01*
X691377Y142753D01*
X691447Y142747D01*
X691535Y142763D01*
X691625Y142768D01*
X691691Y142790D01*
X691760Y142802D01*
X691842Y142839D01*
X691927Y142866D01*
X691986Y142904D01*
X692050Y142932D01*
X692120Y142988D01*
X692196Y143036D01*
X692244Y143087D01*
X692298Y143131D01*
X692353Y143203D01*
X692414Y143268D01*
X692448Y143329D01*
X692490Y143385D01*
X692561Y143529D01*
X693597Y146031D01*
X696741Y149175D01*
X700849Y150877D01*
X721551Y150877D01*
X725659Y149175D01*
X728803Y146031D01*
X730505Y141923D01*
X730505Y137477D01*
X728803Y133369D01*
X725659Y130225D01*
X721551Y128523D01*
X700849Y128523D01*
X696741Y130225D01*
X693597Y133369D01*
X692561Y135871D01*
X692526Y135931D01*
X692500Y135996D01*
X692448Y136069D01*
X692403Y136147D01*
X692355Y136197D01*
X692314Y136253D01*
X692244Y136311D01*
X692182Y136375D01*
X692122Y136412D01*
X692069Y136456D01*
X691987Y136495D01*
X691911Y136541D01*
X691844Y136562D01*
X691781Y136592D01*
X691693Y136609D01*
X691607Y136635D01*
X691537Y136638D01*
X691468Y136652D01*
X691379Y136646D01*
X691289Y136650D01*
X691221Y136636D01*
X691151Y136632D01*
X691066Y136604D01*
X690978Y136586D01*
X690915Y136555D01*
X690849Y136534D01*
X690773Y136486D01*
X690692Y136446D01*
X690639Y136401D01*
X690580Y136364D01*
X690518Y136298D01*
X690450Y136240D01*
X690410Y136183D01*
X690362Y136132D01*
X690319Y136053D01*
X690267Y135980D01*
X690242Y135915D01*
X690208Y135853D01*
X690186Y135767D01*
X690154Y135682D01*
X690146Y135613D01*
X690129Y135546D01*
X690119Y135385D01*
X690119Y118615D01*
X690127Y118546D01*
X690126Y118476D01*
X690147Y118389D01*
X690159Y118300D01*
X690184Y118235D01*
X690201Y118167D01*
X690243Y118087D01*
X690276Y118004D01*
X690317Y117948D01*
X690349Y117886D01*
X690410Y117819D01*
X690462Y117747D01*
X690516Y117702D01*
X690563Y117650D01*
X690638Y117601D01*
X690707Y117544D01*
X690771Y117514D01*
X690829Y117476D01*
X690914Y117447D01*
X690995Y117408D01*
X691064Y117395D01*
X691130Y117372D01*
X691219Y117365D01*
X691307Y117348D01*
X691377Y117353D01*
X691447Y117347D01*
X691535Y117363D01*
X691625Y117368D01*
X691691Y117390D01*
X691760Y117402D01*
X691842Y117439D01*
X691927Y117466D01*
X691986Y117504D01*
X692050Y117532D01*
X692120Y117588D01*
X692196Y117636D01*
X692244Y117687D01*
X692298Y117731D01*
X692353Y117803D01*
X692414Y117868D01*
X692448Y117929D01*
X692490Y117985D01*
X692561Y118129D01*
X693597Y120631D01*
X696741Y123775D01*
X700849Y125477D01*
X721551Y125477D01*
X725659Y123775D01*
X728803Y120631D01*
X730505Y116523D01*
X730505Y112077D01*
X728803Y107969D01*
X725659Y104825D01*
X721551Y103123D01*
X700849Y103123D01*
X696741Y104825D01*
X693597Y107969D01*
X692561Y110471D01*
X692526Y110531D01*
X692500Y110596D01*
X692448Y110669D01*
X692403Y110747D01*
X692355Y110797D01*
X692314Y110853D01*
X692244Y110911D01*
X692182Y110975D01*
X692122Y111012D01*
X692069Y111056D01*
X691987Y111095D01*
X691911Y111141D01*
X691844Y111162D01*
X691781Y111192D01*
X691693Y111209D01*
X691607Y111235D01*
X691537Y111238D01*
X691468Y111252D01*
X691379Y111246D01*
X691289Y111250D01*
X691221Y111236D01*
X691151Y111232D01*
X691066Y111204D01*
X690978Y111186D01*
X690915Y111155D01*
X690849Y111134D01*
X690773Y111086D01*
X690692Y111046D01*
X690639Y111001D01*
X690580Y110964D01*
X690518Y110898D01*
X690450Y110840D01*
X690410Y110783D01*
X690362Y110732D01*
X690319Y110653D01*
X690267Y110580D01*
X690242Y110515D01*
X690208Y110453D01*
X690186Y110367D01*
X690154Y110282D01*
X690146Y110213D01*
X690129Y110146D01*
X690119Y109985D01*
X690119Y93215D01*
X690127Y93146D01*
X690126Y93076D01*
X690147Y92989D01*
X690159Y92900D01*
X690184Y92835D01*
X690201Y92767D01*
X690243Y92687D01*
X690276Y92604D01*
X690317Y92548D01*
X690349Y92486D01*
X690410Y92419D01*
X690462Y92347D01*
X690516Y92302D01*
X690563Y92250D01*
X690638Y92201D01*
X690707Y92144D01*
X690771Y92114D01*
X690829Y92076D01*
X690914Y92047D01*
X690995Y92008D01*
X691064Y91995D01*
X691130Y91972D01*
X691219Y91965D01*
X691307Y91948D01*
X691377Y91953D01*
X691447Y91947D01*
X691535Y91963D01*
X691625Y91968D01*
X691691Y91990D01*
X691760Y92002D01*
X691842Y92039D01*
X691927Y92066D01*
X691986Y92104D01*
X692050Y92132D01*
X692120Y92188D01*
X692196Y92236D01*
X692244Y92287D01*
X692298Y92331D01*
X692353Y92403D01*
X692414Y92468D01*
X692448Y92529D01*
X692490Y92585D01*
X692561Y92729D01*
X693597Y95231D01*
X696741Y98375D01*
X700849Y100077D01*
X721551Y100077D01*
X725659Y98375D01*
X728803Y95231D01*
X730505Y91123D01*
X730505Y86677D01*
X728803Y82569D01*
X725659Y79425D01*
X721551Y77723D01*
X700849Y77723D01*
X696741Y79425D01*
X693597Y82569D01*
X692561Y85071D01*
X692526Y85131D01*
X692500Y85196D01*
X692448Y85269D01*
X692403Y85347D01*
X692355Y85397D01*
X692314Y85453D01*
X692244Y85511D01*
X692182Y85575D01*
X692122Y85612D01*
X692069Y85656D01*
X691987Y85695D01*
X691911Y85741D01*
X691844Y85762D01*
X691781Y85792D01*
X691693Y85809D01*
X691607Y85835D01*
X691537Y85838D01*
X691468Y85852D01*
X691379Y85846D01*
X691289Y85850D01*
X691221Y85836D01*
X691151Y85832D01*
X691066Y85804D01*
X690978Y85786D01*
X690915Y85755D01*
X690849Y85734D01*
X690773Y85686D01*
X690692Y85646D01*
X690639Y85601D01*
X690580Y85564D01*
X690518Y85498D01*
X690450Y85440D01*
X690410Y85383D01*
X690362Y85332D01*
X690319Y85253D01*
X690267Y85180D01*
X690242Y85115D01*
X690208Y85053D01*
X690186Y84967D01*
X690154Y84882D01*
X690146Y84813D01*
X690129Y84746D01*
X690119Y84585D01*
X690119Y67815D01*
X690127Y67746D01*
X690126Y67676D01*
X690147Y67589D01*
X690159Y67500D01*
X690184Y67435D01*
X690201Y67367D01*
X690243Y67287D01*
X690276Y67204D01*
X690317Y67148D01*
X690349Y67086D01*
X690410Y67019D01*
X690462Y66947D01*
X690516Y66902D01*
X690563Y66850D01*
X690638Y66801D01*
X690707Y66744D01*
X690771Y66714D01*
X690829Y66676D01*
X690914Y66647D01*
X690995Y66608D01*
X691064Y66595D01*
X691130Y66572D01*
X691219Y66565D01*
X691307Y66548D01*
X691377Y66553D01*
X691447Y66547D01*
X691535Y66563D01*
X691625Y66568D01*
X691691Y66590D01*
X691760Y66602D01*
X691842Y66639D01*
X691927Y66666D01*
X691986Y66704D01*
X692050Y66732D01*
X692120Y66788D01*
X692196Y66836D01*
X692244Y66887D01*
X692298Y66931D01*
X692353Y67003D01*
X692414Y67068D01*
X692448Y67129D01*
X692490Y67185D01*
X692561Y67329D01*
X693597Y69831D01*
X696741Y72975D01*
X700849Y74677D01*
X721551Y74677D01*
X725659Y72975D01*
X728803Y69831D01*
X730505Y65723D01*
X730505Y61277D01*
X728803Y57169D01*
X725659Y54025D01*
X721551Y52323D01*
X700849Y52323D01*
X696741Y54025D01*
X693597Y57169D01*
X692561Y59671D01*
X692526Y59731D01*
X692500Y59796D01*
X692448Y59869D01*
X692403Y59947D01*
X692355Y59997D01*
X692314Y60053D01*
X692244Y60111D01*
X692182Y60175D01*
X692122Y60212D01*
X692069Y60256D01*
X691987Y60295D01*
X691911Y60341D01*
X691844Y60362D01*
X691781Y60392D01*
X691693Y60409D01*
X691607Y60435D01*
X691537Y60438D01*
X691468Y60452D01*
X691379Y60446D01*
X691289Y60450D01*
X691221Y60436D01*
X691151Y60432D01*
X691066Y60404D01*
X690978Y60386D01*
X690915Y60355D01*
X690849Y60334D01*
X690773Y60286D01*
X690692Y60246D01*
X690639Y60201D01*
X690580Y60164D01*
X690518Y60098D01*
X690450Y60040D01*
X690410Y59983D01*
X690362Y59932D01*
X690319Y59853D01*
X690267Y59780D01*
X690242Y59715D01*
X690208Y59653D01*
X690186Y59567D01*
X690154Y59482D01*
X690146Y59413D01*
X690129Y59346D01*
X690119Y59185D01*
X690119Y53115D01*
X690131Y53016D01*
X690134Y52917D01*
X690151Y52859D01*
X690159Y52799D01*
X690195Y52707D01*
X690223Y52612D01*
X690253Y52560D01*
X690276Y52503D01*
X690334Y52423D01*
X690384Y52338D01*
X690451Y52262D01*
X690462Y52246D01*
X690472Y52238D01*
X690490Y52217D01*
X695039Y47668D01*
X695133Y47595D01*
X695223Y47517D01*
X695259Y47498D01*
X695290Y47473D01*
X695400Y47426D01*
X695506Y47372D01*
X695545Y47363D01*
X695582Y47347D01*
X695700Y47328D01*
X695816Y47302D01*
X695857Y47304D01*
X695896Y47297D01*
X696015Y47308D01*
X696134Y47312D01*
X696173Y47323D01*
X696213Y47327D01*
X696325Y47368D01*
X696440Y47401D01*
X696474Y47421D01*
X696512Y47435D01*
X696611Y47502D01*
X696714Y47562D01*
X696717Y47565D01*
X700849Y49277D01*
X721551Y49277D01*
X725659Y47575D01*
X728803Y44431D01*
X730505Y40323D01*
X730505Y35877D01*
X728803Y31769D01*
X725659Y28625D01*
X721551Y26923D01*
X700849Y26923D01*
G37*
%LPD*%
%LPC*%
G36*
X137679Y27939D02*
X137679Y27939D01*
X133944Y29486D01*
X131086Y32344D01*
X129539Y36079D01*
X129539Y40121D01*
X131086Y43856D01*
X133944Y46714D01*
X137679Y48261D01*
X141721Y48261D01*
X142374Y47990D01*
X142403Y47982D01*
X142429Y47969D01*
X142556Y47940D01*
X142681Y47906D01*
X142711Y47906D01*
X142739Y47899D01*
X142869Y47903D01*
X142999Y47901D01*
X143028Y47908D01*
X143057Y47909D01*
X143182Y47945D01*
X143308Y47975D01*
X143335Y47989D01*
X143363Y47997D01*
X143475Y48063D01*
X143590Y48124D01*
X143611Y48144D01*
X143637Y48159D01*
X143758Y48265D01*
X173110Y77617D01*
X173170Y77695D01*
X173238Y77768D01*
X173267Y77821D01*
X173304Y77868D01*
X173344Y77959D01*
X173392Y78046D01*
X173407Y78105D01*
X173431Y78160D01*
X173446Y78258D01*
X173471Y78354D01*
X173477Y78454D01*
X173481Y78474D01*
X173479Y78487D01*
X173481Y78515D01*
X173481Y105248D01*
X173464Y105386D01*
X173451Y105524D01*
X173444Y105543D01*
X173441Y105563D01*
X173390Y105693D01*
X173343Y105823D01*
X173332Y105840D01*
X173324Y105859D01*
X173243Y105971D01*
X173165Y106086D01*
X173149Y106100D01*
X173138Y106116D01*
X173030Y106205D01*
X172926Y106297D01*
X172908Y106306D01*
X172893Y106319D01*
X172767Y106378D01*
X172643Y106441D01*
X172623Y106446D01*
X172605Y106454D01*
X172468Y106481D01*
X172333Y106511D01*
X172312Y106510D01*
X172293Y106514D01*
X172154Y106506D01*
X172015Y106501D01*
X171995Y106496D01*
X171975Y106495D01*
X171843Y106452D01*
X171709Y106413D01*
X171692Y106403D01*
X171673Y106396D01*
X171555Y106322D01*
X171435Y106251D01*
X171414Y106233D01*
X171404Y106226D01*
X171390Y106211D01*
X171314Y106145D01*
X170856Y105686D01*
X167121Y104139D01*
X163079Y104139D01*
X159344Y105686D01*
X156486Y108544D01*
X154939Y112279D01*
X154939Y116321D01*
X156486Y120056D01*
X159344Y122914D01*
X163079Y124461D01*
X167121Y124461D01*
X170856Y122914D01*
X171314Y122455D01*
X171424Y122370D01*
X171531Y122281D01*
X171550Y122272D01*
X171566Y122260D01*
X171694Y122205D01*
X171819Y122146D01*
X171839Y122142D01*
X171858Y122134D01*
X171996Y122112D01*
X172132Y122086D01*
X172152Y122087D01*
X172172Y122084D01*
X172311Y122097D01*
X172449Y122105D01*
X172468Y122112D01*
X172488Y122114D01*
X172619Y122161D01*
X172751Y122204D01*
X172769Y122214D01*
X172788Y122221D01*
X172902Y122299D01*
X173020Y122374D01*
X173034Y122388D01*
X173051Y122400D01*
X173143Y122504D01*
X173238Y122605D01*
X173248Y122623D01*
X173261Y122638D01*
X173324Y122762D01*
X173392Y122884D01*
X173397Y122903D01*
X173406Y122921D01*
X173436Y123057D01*
X173471Y123192D01*
X173473Y123220D01*
X173476Y123232D01*
X173475Y123252D01*
X173481Y123352D01*
X173481Y161636D01*
X173464Y161773D01*
X173451Y161912D01*
X173444Y161931D01*
X173441Y161951D01*
X173390Y162081D01*
X173343Y162211D01*
X173332Y162228D01*
X173324Y162247D01*
X173243Y162359D01*
X173165Y162474D01*
X173149Y162488D01*
X173138Y162504D01*
X173030Y162593D01*
X172926Y162685D01*
X172908Y162694D01*
X172893Y162707D01*
X172767Y162766D01*
X172643Y162829D01*
X172623Y162834D01*
X172605Y162842D01*
X172468Y162869D01*
X172333Y162899D01*
X172312Y162898D01*
X172293Y162902D01*
X172154Y162894D01*
X172015Y162889D01*
X171995Y162884D01*
X171975Y162883D01*
X171843Y162840D01*
X171709Y162801D01*
X171692Y162791D01*
X171673Y162784D01*
X171555Y162710D01*
X171435Y162639D01*
X171414Y162621D01*
X171404Y162614D01*
X171390Y162599D01*
X171314Y162533D01*
X170856Y162074D01*
X167121Y160527D01*
X163079Y160527D01*
X159344Y162074D01*
X158886Y162533D01*
X158776Y162618D01*
X158669Y162707D01*
X158650Y162716D01*
X158634Y162728D01*
X158506Y162783D01*
X158381Y162842D01*
X158361Y162846D01*
X158342Y162854D01*
X158204Y162876D01*
X158068Y162902D01*
X158048Y162901D01*
X158028Y162904D01*
X157889Y162891D01*
X157751Y162883D01*
X157732Y162876D01*
X157712Y162874D01*
X157581Y162827D01*
X157449Y162784D01*
X157431Y162774D01*
X157412Y162767D01*
X157298Y162689D01*
X157180Y162614D01*
X157166Y162600D01*
X157149Y162588D01*
X157057Y162484D01*
X156962Y162383D01*
X156952Y162365D01*
X156939Y162350D01*
X156876Y162226D01*
X156808Y162104D01*
X156803Y162085D01*
X156794Y162067D01*
X156764Y161931D01*
X156729Y161796D01*
X156727Y161768D01*
X156724Y161756D01*
X156725Y161736D01*
X156719Y161636D01*
X156719Y125211D01*
X153817Y122310D01*
X149865Y118358D01*
X149847Y118334D01*
X149825Y118315D01*
X149750Y118209D01*
X149670Y118106D01*
X149659Y118079D01*
X149642Y118055D01*
X149596Y117934D01*
X149544Y117815D01*
X149539Y117785D01*
X149529Y117758D01*
X149514Y117629D01*
X149494Y117500D01*
X149497Y117471D01*
X149494Y117442D01*
X149512Y117313D01*
X149524Y117184D01*
X149534Y117156D01*
X149538Y117127D01*
X149590Y116974D01*
X149861Y116321D01*
X149861Y112279D01*
X148314Y108544D01*
X145456Y105686D01*
X141721Y104139D01*
X137679Y104139D01*
X133944Y105686D01*
X131086Y108544D01*
X129539Y112279D01*
X129539Y116321D01*
X131086Y120056D01*
X133944Y122914D01*
X137679Y124461D01*
X141721Y124461D01*
X142374Y124190D01*
X142403Y124182D01*
X142429Y124169D01*
X142556Y124140D01*
X142681Y124106D01*
X142711Y124106D01*
X142739Y124099D01*
X142869Y124103D01*
X142999Y124101D01*
X143028Y124108D01*
X143057Y124109D01*
X143182Y124145D01*
X143308Y124175D01*
X143335Y124189D01*
X143363Y124197D01*
X143474Y124263D01*
X143590Y124324D01*
X143611Y124344D01*
X143637Y124359D01*
X143758Y124465D01*
X147710Y128417D01*
X147770Y128495D01*
X147838Y128568D01*
X147867Y128621D01*
X147904Y128668D01*
X147944Y128759D01*
X147992Y128846D01*
X148007Y128905D01*
X148031Y128960D01*
X148046Y129058D01*
X148071Y129154D01*
X148077Y129254D01*
X148081Y129274D01*
X148079Y129287D01*
X148081Y129315D01*
X148081Y161636D01*
X148064Y161773D01*
X148051Y161912D01*
X148044Y161931D01*
X148041Y161951D01*
X147990Y162081D01*
X147943Y162211D01*
X147932Y162228D01*
X147924Y162247D01*
X147843Y162359D01*
X147765Y162474D01*
X147749Y162488D01*
X147738Y162504D01*
X147630Y162593D01*
X147526Y162685D01*
X147508Y162694D01*
X147493Y162707D01*
X147367Y162766D01*
X147243Y162829D01*
X147223Y162834D01*
X147205Y162842D01*
X147068Y162869D01*
X146933Y162899D01*
X146912Y162898D01*
X146893Y162902D01*
X146754Y162894D01*
X146615Y162889D01*
X146595Y162884D01*
X146575Y162883D01*
X146443Y162840D01*
X146309Y162801D01*
X146292Y162791D01*
X146273Y162784D01*
X146155Y162710D01*
X146035Y162639D01*
X146014Y162621D01*
X146004Y162614D01*
X145990Y162599D01*
X145914Y162533D01*
X145456Y162074D01*
X141721Y160527D01*
X137679Y160527D01*
X133944Y162074D01*
X131086Y164932D01*
X129539Y168667D01*
X129539Y186933D01*
X131086Y190668D01*
X133944Y193526D01*
X137679Y195073D01*
X141721Y195073D01*
X145456Y193526D01*
X145914Y193067D01*
X146024Y192982D01*
X146131Y192893D01*
X146150Y192884D01*
X146166Y192872D01*
X146294Y192817D01*
X146419Y192758D01*
X146439Y192754D01*
X146458Y192746D01*
X146596Y192724D01*
X146732Y192698D01*
X146752Y192699D01*
X146772Y192696D01*
X146911Y192709D01*
X147049Y192717D01*
X147068Y192724D01*
X147088Y192726D01*
X147219Y192773D01*
X147351Y192816D01*
X147369Y192826D01*
X147388Y192833D01*
X147502Y192911D01*
X147620Y192986D01*
X147634Y193000D01*
X147651Y193012D01*
X147743Y193116D01*
X147838Y193217D01*
X147848Y193235D01*
X147861Y193250D01*
X147924Y193374D01*
X147992Y193496D01*
X147997Y193515D01*
X148006Y193533D01*
X148036Y193669D01*
X148071Y193804D01*
X148073Y193832D01*
X148076Y193844D01*
X148075Y193864D01*
X148081Y193964D01*
X148081Y204989D01*
X176011Y232919D01*
X238985Y232919D01*
X239084Y232931D01*
X239183Y232934D01*
X239241Y232951D01*
X239301Y232959D01*
X239393Y232995D01*
X239488Y233023D01*
X239540Y233053D01*
X239597Y233076D01*
X239677Y233134D01*
X239762Y233184D01*
X239837Y233250D01*
X239854Y233262D01*
X239862Y233272D01*
X239883Y233290D01*
X241153Y234561D01*
X241238Y234670D01*
X241327Y234777D01*
X241335Y234796D01*
X241348Y234812D01*
X241403Y234939D01*
X241462Y235065D01*
X241466Y235085D01*
X241474Y235104D01*
X241496Y235242D01*
X241522Y235378D01*
X241521Y235398D01*
X241524Y235418D01*
X241511Y235557D01*
X241502Y235695D01*
X241496Y235714D01*
X241494Y235734D01*
X241447Y235866D01*
X241404Y235997D01*
X241394Y236015D01*
X241387Y236034D01*
X241309Y236149D01*
X241234Y236266D01*
X241219Y236280D01*
X241208Y236297D01*
X241104Y236389D01*
X241003Y236484D01*
X240985Y236494D01*
X240970Y236507D01*
X240846Y236571D01*
X240724Y236638D01*
X240704Y236643D01*
X240686Y236652D01*
X240551Y236682D01*
X240416Y236717D01*
X240388Y236719D01*
X240376Y236722D01*
X240356Y236721D01*
X240255Y236727D01*
X239279Y236727D01*
X235544Y238274D01*
X232686Y241132D01*
X231139Y244867D01*
X231139Y263133D01*
X232686Y266868D01*
X235544Y269726D01*
X239279Y271273D01*
X243321Y271273D01*
X247056Y269726D01*
X249914Y266868D01*
X251461Y263133D01*
X251461Y247933D01*
X251478Y247795D01*
X251491Y247656D01*
X251498Y247637D01*
X251501Y247617D01*
X251552Y247488D01*
X251599Y247357D01*
X251610Y247340D01*
X251618Y247321D01*
X251699Y247209D01*
X251777Y247094D01*
X251793Y247080D01*
X251804Y247064D01*
X251912Y246975D01*
X252016Y246883D01*
X252034Y246874D01*
X252049Y246861D01*
X252175Y246802D01*
X252299Y246739D01*
X252319Y246734D01*
X252337Y246726D01*
X252473Y246700D01*
X252609Y246669D01*
X252630Y246670D01*
X252649Y246666D01*
X252788Y246675D01*
X252927Y246679D01*
X252947Y246684D01*
X252967Y246686D01*
X253099Y246728D01*
X253233Y246767D01*
X253250Y246777D01*
X253269Y246784D01*
X253387Y246858D01*
X253507Y246929D01*
X253528Y246947D01*
X253538Y246954D01*
X253552Y246969D01*
X253627Y247035D01*
X256168Y249575D01*
X256228Y249653D01*
X256296Y249726D01*
X256325Y249779D01*
X256362Y249826D01*
X256402Y249917D01*
X256450Y250004D01*
X256465Y250063D01*
X256489Y250118D01*
X256504Y250216D01*
X256529Y250312D01*
X256535Y250412D01*
X256539Y250432D01*
X256537Y250445D01*
X256539Y250473D01*
X256539Y263133D01*
X258086Y266868D01*
X260944Y269726D01*
X264679Y271273D01*
X268721Y271273D01*
X272456Y269726D01*
X275314Y266868D01*
X276861Y263133D01*
X276861Y247933D01*
X276878Y247795D01*
X276891Y247656D01*
X276898Y247637D01*
X276901Y247617D01*
X276952Y247488D01*
X276999Y247357D01*
X277010Y247340D01*
X277018Y247321D01*
X277099Y247209D01*
X277177Y247094D01*
X277193Y247080D01*
X277204Y247064D01*
X277312Y246975D01*
X277416Y246883D01*
X277434Y246874D01*
X277449Y246861D01*
X277575Y246802D01*
X277699Y246739D01*
X277719Y246734D01*
X277737Y246726D01*
X277873Y246700D01*
X278009Y246669D01*
X278030Y246670D01*
X278049Y246666D01*
X278188Y246675D01*
X278327Y246679D01*
X278347Y246684D01*
X278367Y246686D01*
X278499Y246728D01*
X278633Y246767D01*
X278650Y246777D01*
X278669Y246784D01*
X278787Y246858D01*
X278907Y246929D01*
X278928Y246947D01*
X278938Y246954D01*
X278952Y246969D01*
X279027Y247035D01*
X281568Y249575D01*
X281628Y249653D01*
X281696Y249725D01*
X281725Y249778D01*
X281762Y249826D01*
X281802Y249917D01*
X281850Y250004D01*
X281865Y250063D01*
X281889Y250118D01*
X281904Y250216D01*
X281929Y250312D01*
X281935Y250412D01*
X281939Y250432D01*
X281937Y250445D01*
X281939Y250473D01*
X281939Y263133D01*
X283486Y266868D01*
X286344Y269726D01*
X290079Y271273D01*
X294121Y271273D01*
X297856Y269726D01*
X300714Y266868D01*
X302261Y263133D01*
X302261Y244867D01*
X300714Y241132D01*
X297856Y238274D01*
X294121Y236727D01*
X290079Y236727D01*
X286344Y238274D01*
X285311Y239308D01*
X285217Y239381D01*
X285127Y239460D01*
X285091Y239478D01*
X285059Y239503D01*
X284950Y239550D01*
X284844Y239604D01*
X284805Y239613D01*
X284767Y239629D01*
X284650Y239648D01*
X284534Y239674D01*
X284493Y239673D01*
X284453Y239679D01*
X284335Y239668D01*
X284216Y239664D01*
X284177Y239653D01*
X284137Y239649D01*
X284025Y239609D01*
X283910Y239576D01*
X283876Y239555D01*
X283837Y239542D01*
X283739Y239475D01*
X283636Y239414D01*
X283591Y239375D01*
X283574Y239363D01*
X283561Y239348D01*
X283516Y239308D01*
X258690Y214483D01*
X255789Y211581D01*
X192815Y211581D01*
X192716Y211569D01*
X192617Y211566D01*
X192559Y211549D01*
X192499Y211541D01*
X192407Y211505D01*
X192312Y211477D01*
X192260Y211447D01*
X192203Y211424D01*
X192123Y211366D01*
X192038Y211316D01*
X191963Y211250D01*
X191946Y211238D01*
X191938Y211228D01*
X191917Y211210D01*
X182490Y201783D01*
X182430Y201705D01*
X182362Y201632D01*
X182333Y201579D01*
X182296Y201532D01*
X182256Y201441D01*
X182208Y201354D01*
X182193Y201295D01*
X182169Y201240D01*
X182154Y201142D01*
X182129Y201046D01*
X182123Y200946D01*
X182119Y200926D01*
X182121Y200913D01*
X182119Y200885D01*
X182119Y193245D01*
X182124Y193206D01*
X182121Y193166D01*
X182144Y193048D01*
X182159Y192930D01*
X182173Y192893D01*
X182181Y192854D01*
X182232Y192745D01*
X182276Y192634D01*
X182299Y192602D01*
X182316Y192566D01*
X182392Y192473D01*
X182462Y192377D01*
X182493Y192351D01*
X182518Y192320D01*
X182615Y192250D01*
X182707Y192174D01*
X182743Y192157D01*
X182776Y192133D01*
X182887Y192089D01*
X182995Y192038D01*
X183034Y192031D01*
X183071Y192016D01*
X183190Y192001D01*
X183307Y191978D01*
X183347Y191981D01*
X183387Y191976D01*
X183506Y191991D01*
X183625Y191998D01*
X183663Y192010D01*
X183702Y192015D01*
X183814Y192059D01*
X183927Y192096D01*
X183961Y192117D01*
X183998Y192132D01*
X184134Y192218D01*
X185441Y193168D01*
X186795Y193858D01*
X188240Y194327D01*
X188469Y194363D01*
X188469Y178562D01*
X188484Y178444D01*
X188491Y178325D01*
X188503Y178287D01*
X188509Y178247D01*
X188552Y178136D01*
X188589Y178023D01*
X188611Y177989D01*
X188626Y177951D01*
X188695Y177855D01*
X188759Y177754D01*
X188789Y177726D01*
X188812Y177694D01*
X188904Y177618D01*
X188991Y177536D01*
X189026Y177517D01*
X189057Y177491D01*
X189165Y177440D01*
X189269Y177383D01*
X189309Y177373D01*
X189345Y177355D01*
X189462Y177333D01*
X189577Y177303D01*
X189637Y177299D01*
X189657Y177296D01*
X189678Y177297D01*
X189738Y177293D01*
X189993Y177293D01*
X189993Y177038D01*
X190008Y176920D01*
X190015Y176801D01*
X190028Y176763D01*
X190033Y176722D01*
X190077Y176612D01*
X190113Y176499D01*
X190135Y176464D01*
X190150Y176427D01*
X190220Y176330D01*
X190283Y176230D01*
X190313Y176202D01*
X190337Y176169D01*
X190428Y176093D01*
X190515Y176012D01*
X190550Y175992D01*
X190582Y175967D01*
X190689Y175916D01*
X190794Y175858D01*
X190833Y175848D01*
X190869Y175831D01*
X190986Y175809D01*
X191102Y175779D01*
X191162Y175775D01*
X191182Y175771D01*
X191202Y175773D01*
X191262Y175769D01*
X200153Y175769D01*
X200153Y169928D01*
X199915Y168428D01*
X199446Y166983D01*
X198756Y165629D01*
X197863Y164400D01*
X196788Y163325D01*
X195559Y162432D01*
X194205Y161742D01*
X193508Y161516D01*
X193481Y161503D01*
X193452Y161496D01*
X193338Y161436D01*
X193220Y161381D01*
X193197Y161361D01*
X193171Y161348D01*
X193075Y161260D01*
X192975Y161178D01*
X192958Y161154D01*
X192936Y161134D01*
X192864Y161026D01*
X192788Y160921D01*
X192777Y160893D01*
X192761Y160868D01*
X192719Y160746D01*
X192671Y160625D01*
X192667Y160595D01*
X192658Y160567D01*
X192647Y160438D01*
X192631Y160309D01*
X192635Y160280D01*
X192632Y160250D01*
X192655Y160122D01*
X192671Y159994D01*
X192682Y159966D01*
X192687Y159937D01*
X192740Y159819D01*
X192788Y159698D01*
X192805Y159674D01*
X192817Y159647D01*
X192898Y159546D01*
X192974Y159441D01*
X192997Y159422D01*
X193016Y159398D01*
X193120Y159320D01*
X193219Y159238D01*
X193246Y159225D01*
X193270Y159207D01*
X193415Y159136D01*
X194657Y158621D01*
X196188Y157090D01*
X196266Y157030D01*
X196338Y156962D01*
X196391Y156933D01*
X196439Y156896D01*
X196530Y156856D01*
X196617Y156808D01*
X196675Y156793D01*
X196731Y156769D01*
X196829Y156754D01*
X196925Y156729D01*
X197025Y156723D01*
X197045Y156719D01*
X197058Y156721D01*
X197086Y156719D01*
X204989Y156719D01*
X220219Y141489D01*
X220219Y91215D01*
X220231Y91116D01*
X220234Y91017D01*
X220251Y90959D01*
X220259Y90899D01*
X220295Y90807D01*
X220323Y90712D01*
X220353Y90660D01*
X220376Y90603D01*
X220434Y90523D01*
X220484Y90438D01*
X220550Y90363D01*
X220562Y90346D01*
X220572Y90338D01*
X220590Y90317D01*
X262642Y48265D01*
X262666Y48247D01*
X262685Y48225D01*
X262791Y48150D01*
X262894Y48070D01*
X262921Y48059D01*
X262945Y48042D01*
X263066Y47996D01*
X263185Y47944D01*
X263215Y47939D01*
X263242Y47929D01*
X263371Y47914D01*
X263500Y47894D01*
X263529Y47897D01*
X263558Y47894D01*
X263687Y47912D01*
X263816Y47924D01*
X263844Y47934D01*
X263873Y47938D01*
X264026Y47990D01*
X264679Y48261D01*
X268721Y48261D01*
X272456Y46714D01*
X275314Y43856D01*
X276861Y40121D01*
X276861Y36079D01*
X275314Y32344D01*
X272456Y29486D01*
X268721Y27939D01*
X264679Y27939D01*
X260944Y29486D01*
X258086Y32344D01*
X256539Y36079D01*
X256539Y40121D01*
X256810Y40774D01*
X256818Y40803D01*
X256831Y40829D01*
X256860Y40956D01*
X256894Y41081D01*
X256894Y41111D01*
X256901Y41139D01*
X256897Y41269D01*
X256899Y41399D01*
X256892Y41428D01*
X256891Y41457D01*
X256855Y41582D01*
X256825Y41708D01*
X256811Y41735D01*
X256803Y41763D01*
X256737Y41875D01*
X256676Y41990D01*
X256656Y42011D01*
X256641Y42037D01*
X256535Y42158D01*
X211581Y87111D01*
X211581Y109239D01*
X211564Y109376D01*
X211551Y109515D01*
X211544Y109534D01*
X211541Y109554D01*
X211490Y109683D01*
X211443Y109814D01*
X211432Y109831D01*
X211424Y109850D01*
X211343Y109962D01*
X211265Y110077D01*
X211249Y110091D01*
X211238Y110107D01*
X211130Y110196D01*
X211026Y110288D01*
X211008Y110297D01*
X210993Y110310D01*
X210867Y110369D01*
X210743Y110432D01*
X210723Y110437D01*
X210705Y110445D01*
X210569Y110472D01*
X210433Y110502D01*
X210412Y110501D01*
X210393Y110505D01*
X210254Y110497D01*
X210115Y110492D01*
X210095Y110487D01*
X210075Y110485D01*
X209943Y110443D01*
X209809Y110404D01*
X209792Y110394D01*
X209773Y110387D01*
X209655Y110313D01*
X209535Y110242D01*
X209514Y110224D01*
X209504Y110217D01*
X209490Y110202D01*
X209415Y110136D01*
X207357Y108079D01*
X204660Y106961D01*
X202495Y106961D01*
X202396Y106949D01*
X202297Y106946D01*
X202239Y106929D01*
X202179Y106921D01*
X202087Y106885D01*
X201992Y106857D01*
X201940Y106827D01*
X201883Y106804D01*
X201803Y106746D01*
X201718Y106696D01*
X201643Y106630D01*
X201626Y106618D01*
X201618Y106608D01*
X201597Y106590D01*
X195190Y100183D01*
X195130Y100105D01*
X195062Y100032D01*
X195033Y99979D01*
X194996Y99932D01*
X194956Y99841D01*
X194908Y99754D01*
X194893Y99695D01*
X194869Y99640D01*
X194854Y99542D01*
X194829Y99446D01*
X194823Y99346D01*
X194819Y99326D01*
X194821Y99313D01*
X194819Y99285D01*
X194819Y78515D01*
X194831Y78416D01*
X194834Y78317D01*
X194851Y78259D01*
X194859Y78199D01*
X194895Y78107D01*
X194923Y78012D01*
X194953Y77960D01*
X194976Y77903D01*
X195034Y77823D01*
X195084Y77738D01*
X195150Y77663D01*
X195162Y77646D01*
X195172Y77638D01*
X195190Y77617D01*
X214297Y58510D01*
X214375Y58450D01*
X214448Y58382D01*
X214501Y58353D01*
X214548Y58316D01*
X214639Y58276D01*
X214726Y58228D01*
X214785Y58213D01*
X214840Y58189D01*
X214938Y58174D01*
X215034Y58149D01*
X215134Y58143D01*
X215154Y58139D01*
X215167Y58141D01*
X215195Y58139D01*
X217360Y58139D01*
X220057Y57021D01*
X222121Y54957D01*
X223239Y52260D01*
X223239Y49340D01*
X222121Y46643D01*
X220057Y44579D01*
X217360Y43461D01*
X214440Y43461D01*
X211743Y44579D01*
X209679Y46643D01*
X208561Y49340D01*
X208561Y51505D01*
X208549Y51604D01*
X208546Y51703D01*
X208529Y51761D01*
X208521Y51821D01*
X208485Y51913D01*
X208457Y52008D01*
X208427Y52060D01*
X208404Y52117D01*
X208346Y52197D01*
X208296Y52282D01*
X208230Y52357D01*
X208218Y52374D01*
X208208Y52382D01*
X208190Y52403D01*
X186181Y74411D01*
X186181Y103389D01*
X195490Y112697D01*
X195550Y112775D01*
X195618Y112848D01*
X195647Y112901D01*
X195684Y112948D01*
X195724Y113039D01*
X195772Y113126D01*
X195787Y113185D01*
X195811Y113240D01*
X195826Y113338D01*
X195851Y113434D01*
X195857Y113534D01*
X195861Y113554D01*
X195859Y113567D01*
X195861Y113595D01*
X195861Y115760D01*
X196979Y118457D01*
X199043Y120521D01*
X201740Y121639D01*
X204660Y121639D01*
X207357Y120521D01*
X209415Y118464D01*
X209524Y118379D01*
X209631Y118290D01*
X209650Y118281D01*
X209666Y118269D01*
X209794Y118214D01*
X209919Y118155D01*
X209939Y118151D01*
X209958Y118143D01*
X210096Y118121D01*
X210232Y118095D01*
X210252Y118096D01*
X210272Y118093D01*
X210411Y118106D01*
X210549Y118115D01*
X210568Y118121D01*
X210588Y118123D01*
X210720Y118170D01*
X210851Y118213D01*
X210869Y118223D01*
X210888Y118230D01*
X211003Y118308D01*
X211120Y118383D01*
X211134Y118398D01*
X211151Y118409D01*
X211243Y118513D01*
X211338Y118614D01*
X211348Y118632D01*
X211361Y118647D01*
X211425Y118771D01*
X211492Y118893D01*
X211497Y118912D01*
X211506Y118931D01*
X211536Y119066D01*
X211571Y119201D01*
X211573Y119229D01*
X211576Y119241D01*
X211575Y119261D01*
X211581Y119361D01*
X211581Y137385D01*
X211569Y137484D01*
X211566Y137583D01*
X211549Y137641D01*
X211541Y137701D01*
X211505Y137793D01*
X211477Y137888D01*
X211447Y137940D01*
X211424Y137997D01*
X211366Y138077D01*
X211316Y138162D01*
X211250Y138237D01*
X211238Y138254D01*
X211228Y138262D01*
X211210Y138283D01*
X201783Y147710D01*
X201705Y147770D01*
X201632Y147838D01*
X201579Y147867D01*
X201532Y147904D01*
X201441Y147944D01*
X201354Y147992D01*
X201295Y148007D01*
X201240Y148031D01*
X201142Y148046D01*
X201046Y148071D01*
X200946Y148077D01*
X200926Y148081D01*
X200913Y148079D01*
X200885Y148081D01*
X197086Y148081D01*
X196987Y148069D01*
X196888Y148066D01*
X196830Y148049D01*
X196770Y148041D01*
X196678Y148005D01*
X196583Y147977D01*
X196531Y147947D01*
X196474Y147924D01*
X196394Y147866D01*
X196309Y147816D01*
X196233Y147750D01*
X196217Y147738D01*
X196209Y147728D01*
X196188Y147710D01*
X194657Y146179D01*
X191960Y145061D01*
X189040Y145061D01*
X186343Y146179D01*
X184285Y148236D01*
X184176Y148321D01*
X184069Y148410D01*
X184050Y148419D01*
X184034Y148431D01*
X183906Y148486D01*
X183781Y148545D01*
X183761Y148549D01*
X183742Y148557D01*
X183604Y148579D01*
X183468Y148605D01*
X183448Y148604D01*
X183428Y148607D01*
X183289Y148594D01*
X183151Y148585D01*
X183132Y148579D01*
X183112Y148577D01*
X182980Y148530D01*
X182849Y148487D01*
X182831Y148477D01*
X182812Y148470D01*
X182697Y148392D01*
X182580Y148317D01*
X182566Y148302D01*
X182549Y148291D01*
X182457Y148187D01*
X182362Y148086D01*
X182352Y148068D01*
X182339Y148053D01*
X182275Y147929D01*
X182208Y147807D01*
X182203Y147788D01*
X182194Y147769D01*
X182164Y147634D01*
X182129Y147499D01*
X182127Y147471D01*
X182124Y147459D01*
X182125Y147439D01*
X182119Y147339D01*
X182119Y74411D01*
X179217Y71510D01*
X149865Y42158D01*
X149847Y42134D01*
X149825Y42115D01*
X149750Y42009D01*
X149670Y41906D01*
X149659Y41879D01*
X149642Y41855D01*
X149596Y41734D01*
X149544Y41615D01*
X149539Y41585D01*
X149529Y41558D01*
X149514Y41429D01*
X149494Y41300D01*
X149497Y41271D01*
X149494Y41242D01*
X149512Y41113D01*
X149524Y40984D01*
X149534Y40956D01*
X149538Y40927D01*
X149590Y40774D01*
X149861Y40121D01*
X149861Y36079D01*
X148314Y32344D01*
X145456Y29486D01*
X141721Y27939D01*
X137679Y27939D01*
G37*
%LPD*%
%LPC*%
G36*
X112279Y27939D02*
X112279Y27939D01*
X108544Y29486D01*
X105686Y32344D01*
X104139Y36079D01*
X104139Y40121D01*
X104410Y40774D01*
X104418Y40803D01*
X104431Y40829D01*
X104460Y40956D01*
X104494Y41081D01*
X104494Y41111D01*
X104501Y41139D01*
X104497Y41269D01*
X104499Y41399D01*
X104492Y41428D01*
X104491Y41457D01*
X104455Y41582D01*
X104425Y41708D01*
X104411Y41735D01*
X104403Y41763D01*
X104337Y41875D01*
X104276Y41990D01*
X104256Y42011D01*
X104241Y42037D01*
X104135Y42158D01*
X97281Y49011D01*
X97281Y105248D01*
X97264Y105386D01*
X97251Y105524D01*
X97244Y105543D01*
X97241Y105563D01*
X97190Y105693D01*
X97143Y105823D01*
X97132Y105840D01*
X97124Y105859D01*
X97043Y105971D01*
X96965Y106086D01*
X96949Y106100D01*
X96938Y106116D01*
X96830Y106205D01*
X96726Y106297D01*
X96708Y106306D01*
X96693Y106319D01*
X96567Y106378D01*
X96443Y106441D01*
X96423Y106446D01*
X96405Y106454D01*
X96268Y106481D01*
X96133Y106511D01*
X96112Y106510D01*
X96093Y106514D01*
X95954Y106506D01*
X95815Y106501D01*
X95795Y106496D01*
X95775Y106495D01*
X95643Y106452D01*
X95509Y106413D01*
X95492Y106403D01*
X95473Y106396D01*
X95355Y106322D01*
X95235Y106251D01*
X95214Y106233D01*
X95204Y106226D01*
X95190Y106211D01*
X95114Y106145D01*
X94656Y105686D01*
X90921Y104139D01*
X86879Y104139D01*
X83144Y105686D01*
X80286Y108544D01*
X78739Y112279D01*
X78739Y116321D01*
X80286Y120056D01*
X83144Y122914D01*
X86879Y124461D01*
X90921Y124461D01*
X94656Y122914D01*
X95114Y122455D01*
X95224Y122370D01*
X95331Y122281D01*
X95350Y122272D01*
X95366Y122260D01*
X95494Y122205D01*
X95619Y122146D01*
X95639Y122142D01*
X95658Y122134D01*
X95796Y122112D01*
X95932Y122086D01*
X95952Y122087D01*
X95972Y122084D01*
X96111Y122097D01*
X96249Y122105D01*
X96268Y122112D01*
X96288Y122114D01*
X96419Y122161D01*
X96551Y122204D01*
X96569Y122214D01*
X96588Y122221D01*
X96702Y122299D01*
X96820Y122374D01*
X96834Y122388D01*
X96851Y122400D01*
X96943Y122504D01*
X97038Y122605D01*
X97048Y122623D01*
X97061Y122638D01*
X97124Y122762D01*
X97192Y122884D01*
X97197Y122903D01*
X97206Y122921D01*
X97236Y123057D01*
X97271Y123192D01*
X97273Y123220D01*
X97276Y123232D01*
X97275Y123252D01*
X97281Y123352D01*
X97281Y217689D01*
X114153Y234561D01*
X114238Y234670D01*
X114327Y234777D01*
X114335Y234796D01*
X114348Y234812D01*
X114403Y234940D01*
X114462Y235065D01*
X114466Y235085D01*
X114474Y235104D01*
X114496Y235242D01*
X114522Y235378D01*
X114521Y235398D01*
X114524Y235418D01*
X114511Y235557D01*
X114502Y235695D01*
X114496Y235714D01*
X114494Y235734D01*
X114447Y235866D01*
X114404Y235997D01*
X114394Y236015D01*
X114387Y236034D01*
X114309Y236149D01*
X114234Y236266D01*
X114219Y236280D01*
X114208Y236297D01*
X114104Y236389D01*
X114003Y236484D01*
X113985Y236494D01*
X113970Y236507D01*
X113846Y236570D01*
X113724Y236638D01*
X113704Y236643D01*
X113686Y236652D01*
X113551Y236682D01*
X113416Y236717D01*
X113388Y236719D01*
X113376Y236722D01*
X113356Y236721D01*
X113255Y236727D01*
X112279Y236727D01*
X108544Y238274D01*
X105686Y241132D01*
X104139Y244867D01*
X104139Y263133D01*
X105686Y266868D01*
X108544Y269726D01*
X112279Y271273D01*
X116321Y271273D01*
X120056Y269726D01*
X122914Y266868D01*
X124461Y263133D01*
X124461Y247933D01*
X124478Y247795D01*
X124491Y247656D01*
X124498Y247637D01*
X124501Y247617D01*
X124552Y247488D01*
X124599Y247357D01*
X124610Y247340D01*
X124618Y247321D01*
X124699Y247209D01*
X124777Y247094D01*
X124793Y247080D01*
X124804Y247064D01*
X124912Y246975D01*
X125016Y246883D01*
X125034Y246874D01*
X125049Y246861D01*
X125175Y246802D01*
X125299Y246739D01*
X125319Y246734D01*
X125337Y246726D01*
X125473Y246700D01*
X125609Y246669D01*
X125630Y246670D01*
X125649Y246666D01*
X125788Y246675D01*
X125927Y246679D01*
X125947Y246684D01*
X125967Y246686D01*
X126099Y246728D01*
X126233Y246767D01*
X126250Y246777D01*
X126269Y246784D01*
X126387Y246858D01*
X126507Y246929D01*
X126528Y246947D01*
X126538Y246954D01*
X126552Y246969D01*
X126627Y247035D01*
X129168Y249575D01*
X129228Y249653D01*
X129296Y249726D01*
X129325Y249779D01*
X129362Y249826D01*
X129402Y249917D01*
X129450Y250004D01*
X129465Y250063D01*
X129489Y250118D01*
X129504Y250216D01*
X129529Y250312D01*
X129535Y250412D01*
X129539Y250432D01*
X129537Y250445D01*
X129539Y250473D01*
X129539Y263133D01*
X131086Y266868D01*
X133944Y269726D01*
X137679Y271273D01*
X141721Y271273D01*
X145456Y269726D01*
X148314Y266868D01*
X149861Y263133D01*
X149861Y244867D01*
X148314Y241132D01*
X145456Y238274D01*
X141721Y236727D01*
X137679Y236727D01*
X133944Y238274D01*
X132911Y239308D01*
X132817Y239381D01*
X132727Y239460D01*
X132691Y239478D01*
X132659Y239503D01*
X132550Y239550D01*
X132444Y239604D01*
X132405Y239613D01*
X132367Y239629D01*
X132250Y239648D01*
X132134Y239674D01*
X132093Y239673D01*
X132053Y239679D01*
X131935Y239668D01*
X131816Y239664D01*
X131777Y239653D01*
X131737Y239649D01*
X131625Y239609D01*
X131510Y239576D01*
X131476Y239555D01*
X131437Y239542D01*
X131339Y239475D01*
X131236Y239414D01*
X131191Y239375D01*
X131174Y239363D01*
X131161Y239348D01*
X131116Y239308D01*
X106290Y214483D01*
X106230Y214405D01*
X106162Y214332D01*
X106133Y214279D01*
X106096Y214232D01*
X106056Y214141D01*
X106008Y214054D01*
X105993Y213995D01*
X105969Y213940D01*
X105954Y213842D01*
X105929Y213746D01*
X105923Y213646D01*
X105919Y213626D01*
X105921Y213613D01*
X105919Y213585D01*
X105919Y193964D01*
X105936Y193826D01*
X105949Y193688D01*
X105956Y193669D01*
X105959Y193649D01*
X106010Y193519D01*
X106057Y193389D01*
X106068Y193372D01*
X106076Y193353D01*
X106157Y193241D01*
X106235Y193126D01*
X106251Y193112D01*
X106262Y193096D01*
X106370Y193007D01*
X106474Y192915D01*
X106492Y192906D01*
X106507Y192893D01*
X106633Y192834D01*
X106757Y192771D01*
X106777Y192766D01*
X106795Y192758D01*
X106932Y192731D01*
X107067Y192701D01*
X107088Y192702D01*
X107107Y192698D01*
X107246Y192706D01*
X107385Y192711D01*
X107405Y192716D01*
X107425Y192717D01*
X107557Y192760D01*
X107691Y192799D01*
X107708Y192809D01*
X107727Y192816D01*
X107845Y192890D01*
X107965Y192961D01*
X107986Y192979D01*
X107996Y192986D01*
X108010Y193001D01*
X108086Y193067D01*
X108544Y193526D01*
X112279Y195073D01*
X116321Y195073D01*
X120056Y193526D01*
X122914Y190668D01*
X124461Y186933D01*
X124461Y168667D01*
X122914Y164932D01*
X120056Y162074D01*
X116321Y160527D01*
X112279Y160527D01*
X108544Y162074D01*
X108086Y162533D01*
X107976Y162618D01*
X107869Y162707D01*
X107850Y162716D01*
X107834Y162728D01*
X107706Y162783D01*
X107581Y162842D01*
X107561Y162846D01*
X107542Y162854D01*
X107404Y162876D01*
X107268Y162902D01*
X107248Y162901D01*
X107228Y162904D01*
X107089Y162891D01*
X106951Y162883D01*
X106932Y162876D01*
X106912Y162874D01*
X106781Y162827D01*
X106649Y162784D01*
X106631Y162774D01*
X106612Y162767D01*
X106498Y162689D01*
X106380Y162614D01*
X106366Y162600D01*
X106349Y162588D01*
X106257Y162484D01*
X106162Y162383D01*
X106152Y162365D01*
X106139Y162350D01*
X106076Y162226D01*
X106008Y162104D01*
X106003Y162085D01*
X105994Y162067D01*
X105964Y161931D01*
X105929Y161796D01*
X105927Y161768D01*
X105924Y161756D01*
X105925Y161736D01*
X105919Y161636D01*
X105919Y123352D01*
X105936Y123214D01*
X105949Y123076D01*
X105956Y123057D01*
X105959Y123037D01*
X106010Y122907D01*
X106057Y122777D01*
X106068Y122760D01*
X106076Y122741D01*
X106157Y122629D01*
X106235Y122514D01*
X106251Y122500D01*
X106262Y122484D01*
X106370Y122395D01*
X106474Y122303D01*
X106492Y122294D01*
X106507Y122281D01*
X106633Y122222D01*
X106757Y122159D01*
X106777Y122154D01*
X106795Y122146D01*
X106932Y122119D01*
X107067Y122089D01*
X107088Y122090D01*
X107107Y122086D01*
X107246Y122094D01*
X107385Y122099D01*
X107405Y122104D01*
X107425Y122105D01*
X107557Y122148D01*
X107691Y122187D01*
X107708Y122197D01*
X107727Y122204D01*
X107845Y122278D01*
X107965Y122349D01*
X107986Y122367D01*
X107996Y122374D01*
X108010Y122389D01*
X108086Y122455D01*
X108544Y122914D01*
X112279Y124461D01*
X116321Y124461D01*
X120056Y122914D01*
X122914Y120056D01*
X124461Y116321D01*
X124461Y112279D01*
X122914Y108544D01*
X120056Y105686D01*
X116321Y104139D01*
X112279Y104139D01*
X108544Y105686D01*
X108086Y106145D01*
X107976Y106230D01*
X107869Y106319D01*
X107850Y106328D01*
X107834Y106340D01*
X107706Y106395D01*
X107581Y106454D01*
X107561Y106458D01*
X107542Y106466D01*
X107404Y106488D01*
X107268Y106514D01*
X107248Y106513D01*
X107228Y106516D01*
X107089Y106503D01*
X106951Y106495D01*
X106932Y106488D01*
X106912Y106486D01*
X106781Y106439D01*
X106649Y106396D01*
X106631Y106386D01*
X106612Y106379D01*
X106498Y106301D01*
X106380Y106226D01*
X106366Y106212D01*
X106349Y106200D01*
X106257Y106096D01*
X106162Y105995D01*
X106152Y105977D01*
X106139Y105962D01*
X106076Y105838D01*
X106008Y105716D01*
X106003Y105697D01*
X105994Y105679D01*
X105964Y105543D01*
X105929Y105408D01*
X105927Y105380D01*
X105924Y105368D01*
X105925Y105348D01*
X105919Y105248D01*
X105919Y53115D01*
X105931Y53016D01*
X105934Y52917D01*
X105951Y52859D01*
X105959Y52799D01*
X105995Y52707D01*
X106023Y52612D01*
X106053Y52560D01*
X106076Y52503D01*
X106134Y52423D01*
X106184Y52338D01*
X106251Y52262D01*
X106262Y52246D01*
X106272Y52238D01*
X106290Y52217D01*
X110242Y48265D01*
X110266Y48247D01*
X110285Y48225D01*
X110391Y48150D01*
X110494Y48070D01*
X110521Y48059D01*
X110545Y48042D01*
X110666Y47996D01*
X110785Y47944D01*
X110815Y47939D01*
X110842Y47929D01*
X110971Y47914D01*
X111100Y47894D01*
X111129Y47897D01*
X111158Y47894D01*
X111287Y47912D01*
X111416Y47924D01*
X111444Y47934D01*
X111473Y47938D01*
X111626Y47990D01*
X112279Y48261D01*
X116321Y48261D01*
X120056Y46714D01*
X122914Y43856D01*
X124461Y40121D01*
X124461Y36079D01*
X122914Y32344D01*
X120056Y29486D01*
X116321Y27939D01*
X112279Y27939D01*
G37*
%LPD*%
%LPC*%
G36*
X396049Y26923D02*
X396049Y26923D01*
X391941Y28625D01*
X388797Y31769D01*
X387095Y35877D01*
X387095Y38071D01*
X387083Y38170D01*
X387080Y38269D01*
X387063Y38327D01*
X387055Y38387D01*
X387019Y38479D01*
X386991Y38574D01*
X386961Y38626D01*
X386938Y38683D01*
X386880Y38763D01*
X386830Y38848D01*
X386794Y38888D01*
X386792Y38892D01*
X386786Y38898D01*
X386764Y38923D01*
X386752Y38940D01*
X386742Y38948D01*
X386724Y38969D01*
X351281Y74411D01*
X351281Y137385D01*
X351269Y137484D01*
X351266Y137583D01*
X351249Y137641D01*
X351241Y137701D01*
X351205Y137793D01*
X351177Y137888D01*
X351147Y137940D01*
X351124Y137997D01*
X351066Y138077D01*
X351016Y138162D01*
X350950Y138237D01*
X350938Y138254D01*
X350928Y138262D01*
X350910Y138283D01*
X316083Y173110D01*
X316005Y173170D01*
X315932Y173238D01*
X315879Y173267D01*
X315832Y173304D01*
X315741Y173344D01*
X315654Y173392D01*
X315595Y173407D01*
X315540Y173431D01*
X315442Y173446D01*
X315346Y173471D01*
X315246Y173477D01*
X315226Y173481D01*
X315213Y173479D01*
X315185Y173481D01*
X303530Y173481D01*
X303412Y173466D01*
X303293Y173459D01*
X303255Y173446D01*
X303214Y173441D01*
X303104Y173398D01*
X302991Y173361D01*
X302956Y173339D01*
X302919Y173324D01*
X302823Y173255D01*
X302722Y173191D01*
X302694Y173161D01*
X302661Y173138D01*
X302585Y173046D01*
X302504Y172959D01*
X302484Y172924D01*
X302459Y172893D01*
X302408Y172785D01*
X302350Y172681D01*
X302340Y172641D01*
X302323Y172605D01*
X302301Y172488D01*
X302271Y172373D01*
X302267Y172313D01*
X302263Y172293D01*
X302265Y172272D01*
X302261Y172212D01*
X302261Y168667D01*
X300714Y164932D01*
X297856Y162074D01*
X294121Y160527D01*
X290079Y160527D01*
X286344Y162074D01*
X283486Y164932D01*
X281939Y168667D01*
X281939Y186933D01*
X283486Y190668D01*
X286344Y193526D01*
X290079Y195073D01*
X294121Y195073D01*
X297856Y193526D01*
X300714Y190668D01*
X302261Y186933D01*
X302261Y183388D01*
X302276Y183270D01*
X302283Y183151D01*
X302296Y183113D01*
X302301Y183072D01*
X302344Y182962D01*
X302381Y182849D01*
X302403Y182814D01*
X302418Y182777D01*
X302487Y182681D01*
X302551Y182580D01*
X302581Y182552D01*
X302604Y182519D01*
X302696Y182443D01*
X302783Y182362D01*
X302818Y182342D01*
X302849Y182317D01*
X302957Y182266D01*
X303061Y182208D01*
X303101Y182198D01*
X303137Y182181D01*
X303254Y182159D01*
X303369Y182129D01*
X303429Y182125D01*
X303449Y182121D01*
X303470Y182123D01*
X303530Y182119D01*
X319289Y182119D01*
X359919Y141489D01*
X359919Y78515D01*
X359931Y78416D01*
X359934Y78317D01*
X359951Y78259D01*
X359959Y78199D01*
X359995Y78107D01*
X360023Y78012D01*
X360053Y77960D01*
X360076Y77903D01*
X360134Y77823D01*
X360184Y77738D01*
X360250Y77663D01*
X360262Y77646D01*
X360272Y77638D01*
X360290Y77617D01*
X390239Y47668D01*
X390333Y47595D01*
X390423Y47517D01*
X390459Y47498D01*
X390490Y47473D01*
X390600Y47426D01*
X390706Y47372D01*
X390745Y47363D01*
X390782Y47347D01*
X390900Y47328D01*
X391016Y47302D01*
X391057Y47304D01*
X391096Y47297D01*
X391215Y47308D01*
X391334Y47312D01*
X391373Y47323D01*
X391413Y47327D01*
X391525Y47368D01*
X391640Y47401D01*
X391674Y47421D01*
X391712Y47435D01*
X391811Y47502D01*
X391914Y47562D01*
X391917Y47565D01*
X396049Y49277D01*
X416751Y49277D01*
X420859Y47575D01*
X424003Y44431D01*
X425705Y40323D01*
X425705Y35877D01*
X424003Y31769D01*
X420859Y28625D01*
X416751Y26923D01*
X396049Y26923D01*
G37*
%LPD*%
%LPC*%
G36*
X113095Y301751D02*
X113095Y301751D01*
X105859Y303690D01*
X99372Y307435D01*
X94075Y312732D01*
X90330Y319219D01*
X88391Y326455D01*
X88391Y333945D01*
X90330Y341181D01*
X94075Y347668D01*
X99372Y352965D01*
X105859Y356710D01*
X113095Y358649D01*
X120585Y358649D01*
X127821Y356710D01*
X134308Y352965D01*
X139605Y347668D01*
X143350Y341181D01*
X145289Y333945D01*
X145289Y326455D01*
X143350Y319219D01*
X139605Y312732D01*
X134308Y307435D01*
X127821Y303690D01*
X120585Y301751D01*
X113095Y301751D01*
G37*
%LPD*%
%LPC*%
G36*
X290079Y27939D02*
X290079Y27939D01*
X286344Y29486D01*
X283486Y32344D01*
X281939Y36079D01*
X281939Y40121D01*
X282210Y40774D01*
X282218Y40803D01*
X282231Y40829D01*
X282260Y40956D01*
X282294Y41081D01*
X282294Y41111D01*
X282301Y41139D01*
X282297Y41269D01*
X282299Y41399D01*
X282292Y41428D01*
X282291Y41457D01*
X282255Y41582D01*
X282225Y41708D01*
X282211Y41735D01*
X282203Y41763D01*
X282137Y41875D01*
X282076Y41990D01*
X282056Y42011D01*
X282041Y42037D01*
X281935Y42158D01*
X277983Y46110D01*
X249681Y74411D01*
X249681Y105248D01*
X249664Y105386D01*
X249651Y105524D01*
X249644Y105543D01*
X249641Y105563D01*
X249590Y105693D01*
X249543Y105823D01*
X249532Y105840D01*
X249524Y105859D01*
X249443Y105971D01*
X249365Y106086D01*
X249349Y106100D01*
X249338Y106116D01*
X249230Y106205D01*
X249126Y106297D01*
X249108Y106306D01*
X249093Y106319D01*
X248967Y106378D01*
X248843Y106441D01*
X248823Y106446D01*
X248805Y106454D01*
X248668Y106481D01*
X248533Y106511D01*
X248512Y106510D01*
X248493Y106514D01*
X248354Y106506D01*
X248215Y106501D01*
X248195Y106496D01*
X248175Y106495D01*
X248043Y106452D01*
X247909Y106413D01*
X247892Y106403D01*
X247873Y106396D01*
X247755Y106322D01*
X247635Y106251D01*
X247614Y106233D01*
X247604Y106226D01*
X247590Y106211D01*
X247514Y106145D01*
X247056Y105686D01*
X243321Y104139D01*
X239279Y104139D01*
X235544Y105686D01*
X232686Y108544D01*
X231139Y112279D01*
X231139Y116321D01*
X232686Y120056D01*
X235544Y122914D01*
X239279Y124461D01*
X243321Y124461D01*
X247056Y122914D01*
X247514Y122455D01*
X247624Y122370D01*
X247731Y122281D01*
X247750Y122272D01*
X247766Y122260D01*
X247894Y122205D01*
X248019Y122146D01*
X248039Y122142D01*
X248058Y122134D01*
X248196Y122112D01*
X248332Y122086D01*
X248352Y122087D01*
X248372Y122084D01*
X248511Y122097D01*
X248649Y122105D01*
X248668Y122112D01*
X248688Y122114D01*
X248819Y122161D01*
X248951Y122204D01*
X248969Y122214D01*
X248988Y122221D01*
X249102Y122299D01*
X249220Y122374D01*
X249234Y122388D01*
X249251Y122400D01*
X249343Y122504D01*
X249438Y122605D01*
X249448Y122623D01*
X249461Y122638D01*
X249524Y122762D01*
X249592Y122884D01*
X249597Y122903D01*
X249606Y122921D01*
X249636Y123057D01*
X249671Y123192D01*
X249673Y123220D01*
X249676Y123232D01*
X249675Y123252D01*
X249681Y123352D01*
X249681Y124685D01*
X249669Y124784D01*
X249666Y124883D01*
X249649Y124941D01*
X249641Y125001D01*
X249605Y125093D01*
X249577Y125188D01*
X249547Y125240D01*
X249524Y125297D01*
X249466Y125377D01*
X249416Y125462D01*
X249350Y125537D01*
X249338Y125554D01*
X249328Y125562D01*
X249310Y125583D01*
X242903Y131990D01*
X242825Y132050D01*
X242752Y132118D01*
X242699Y132147D01*
X242652Y132184D01*
X242561Y132224D01*
X242474Y132272D01*
X242415Y132287D01*
X242360Y132311D01*
X242262Y132326D01*
X242166Y132351D01*
X242066Y132357D01*
X242046Y132361D01*
X242033Y132359D01*
X242005Y132361D01*
X239840Y132361D01*
X237143Y133479D01*
X235079Y135543D01*
X233961Y138240D01*
X233961Y141160D01*
X235079Y143857D01*
X237143Y145921D01*
X239840Y147039D01*
X242760Y147039D01*
X245457Y145921D01*
X247521Y143857D01*
X248639Y141160D01*
X248639Y138995D01*
X248651Y138896D01*
X248654Y138797D01*
X248671Y138739D01*
X248679Y138679D01*
X248715Y138587D01*
X248743Y138492D01*
X248773Y138440D01*
X248796Y138383D01*
X248854Y138303D01*
X248904Y138218D01*
X248970Y138143D01*
X248982Y138126D01*
X248992Y138118D01*
X249010Y138097D01*
X258319Y128789D01*
X258319Y123352D01*
X258336Y123214D01*
X258349Y123076D01*
X258356Y123057D01*
X258359Y123037D01*
X258410Y122907D01*
X258457Y122777D01*
X258468Y122760D01*
X258476Y122741D01*
X258557Y122629D01*
X258635Y122514D01*
X258651Y122500D01*
X258662Y122484D01*
X258770Y122395D01*
X258874Y122303D01*
X258892Y122294D01*
X258907Y122281D01*
X259033Y122222D01*
X259157Y122159D01*
X259177Y122154D01*
X259195Y122146D01*
X259332Y122119D01*
X259467Y122089D01*
X259488Y122090D01*
X259507Y122086D01*
X259646Y122094D01*
X259785Y122099D01*
X259805Y122104D01*
X259825Y122105D01*
X259957Y122148D01*
X260091Y122187D01*
X260108Y122197D01*
X260127Y122204D01*
X260245Y122278D01*
X260365Y122349D01*
X260386Y122367D01*
X260396Y122374D01*
X260410Y122389D01*
X260486Y122455D01*
X260944Y122914D01*
X264679Y124461D01*
X268721Y124461D01*
X272456Y122914D01*
X275314Y120056D01*
X276861Y116321D01*
X276861Y112279D01*
X275314Y108544D01*
X272456Y105686D01*
X268721Y104139D01*
X264679Y104139D01*
X260944Y105686D01*
X260486Y106145D01*
X260376Y106230D01*
X260269Y106319D01*
X260250Y106328D01*
X260234Y106340D01*
X260106Y106395D01*
X259981Y106454D01*
X259961Y106458D01*
X259942Y106466D01*
X259804Y106488D01*
X259668Y106514D01*
X259648Y106513D01*
X259628Y106516D01*
X259489Y106503D01*
X259351Y106495D01*
X259332Y106488D01*
X259312Y106486D01*
X259181Y106439D01*
X259049Y106396D01*
X259031Y106386D01*
X259012Y106379D01*
X258898Y106301D01*
X258780Y106226D01*
X258766Y106212D01*
X258749Y106200D01*
X258657Y106096D01*
X258562Y105995D01*
X258552Y105977D01*
X258539Y105962D01*
X258476Y105838D01*
X258408Y105716D01*
X258403Y105697D01*
X258394Y105679D01*
X258364Y105543D01*
X258329Y105408D01*
X258327Y105380D01*
X258324Y105368D01*
X258325Y105348D01*
X258319Y105248D01*
X258319Y78515D01*
X258331Y78416D01*
X258334Y78317D01*
X258351Y78259D01*
X258359Y78199D01*
X258395Y78107D01*
X258423Y78012D01*
X258453Y77960D01*
X258476Y77903D01*
X258534Y77823D01*
X258584Y77738D01*
X258650Y77663D01*
X258662Y77646D01*
X258672Y77638D01*
X258690Y77617D01*
X284090Y52217D01*
X288042Y48265D01*
X288066Y48247D01*
X288085Y48225D01*
X288191Y48150D01*
X288294Y48070D01*
X288321Y48059D01*
X288345Y48042D01*
X288466Y47996D01*
X288585Y47944D01*
X288615Y47939D01*
X288642Y47929D01*
X288771Y47914D01*
X288900Y47894D01*
X288929Y47897D01*
X288958Y47894D01*
X289087Y47912D01*
X289216Y47924D01*
X289244Y47934D01*
X289273Y47938D01*
X289426Y47990D01*
X290079Y48261D01*
X294121Y48261D01*
X297856Y46714D01*
X300714Y43856D01*
X302261Y40121D01*
X302261Y36079D01*
X300714Y32344D01*
X297856Y29486D01*
X294121Y27939D01*
X290079Y27939D01*
G37*
%LPD*%
%LPC*%
G36*
X290079Y104139D02*
X290079Y104139D01*
X286344Y105686D01*
X283486Y108544D01*
X281939Y112279D01*
X281939Y116321D01*
X282210Y116974D01*
X282218Y117003D01*
X282231Y117029D01*
X282260Y117156D01*
X282294Y117281D01*
X282294Y117311D01*
X282301Y117339D01*
X282297Y117469D01*
X282299Y117599D01*
X282292Y117628D01*
X282291Y117657D01*
X282255Y117782D01*
X282225Y117908D01*
X282211Y117935D01*
X282203Y117963D01*
X282137Y118074D01*
X282076Y118190D01*
X282056Y118211D01*
X282041Y118237D01*
X281935Y118358D01*
X265283Y135010D01*
X262381Y137911D01*
X262381Y160631D01*
X262378Y160660D01*
X262380Y160690D01*
X262358Y160818D01*
X262341Y160946D01*
X262331Y160974D01*
X262326Y161003D01*
X262272Y161122D01*
X262224Y161242D01*
X262207Y161266D01*
X262195Y161293D01*
X262114Y161395D01*
X262038Y161499D01*
X262015Y161518D01*
X261996Y161541D01*
X261893Y161619D01*
X261793Y161702D01*
X261766Y161715D01*
X261742Y161733D01*
X261598Y161804D01*
X260944Y162074D01*
X258086Y164932D01*
X256539Y168667D01*
X256539Y186933D01*
X258086Y190668D01*
X260944Y193526D01*
X264679Y195073D01*
X268721Y195073D01*
X272456Y193526D01*
X275314Y190668D01*
X276861Y186933D01*
X276861Y168667D01*
X275314Y164932D01*
X272456Y162074D01*
X271802Y161804D01*
X271777Y161789D01*
X271749Y161780D01*
X271639Y161710D01*
X271526Y161646D01*
X271505Y161625D01*
X271480Y161610D01*
X271391Y161515D01*
X271298Y161425D01*
X271282Y161400D01*
X271262Y161378D01*
X271199Y161264D01*
X271131Y161154D01*
X271123Y161125D01*
X271108Y161100D01*
X271076Y160974D01*
X271038Y160850D01*
X271036Y160820D01*
X271029Y160792D01*
X271019Y160631D01*
X271019Y142015D01*
X271031Y141916D01*
X271034Y141817D01*
X271051Y141759D01*
X271059Y141699D01*
X271095Y141607D01*
X271123Y141512D01*
X271153Y141460D01*
X271176Y141403D01*
X271234Y141323D01*
X271284Y141238D01*
X271350Y141163D01*
X271362Y141146D01*
X271372Y141138D01*
X271390Y141117D01*
X288042Y124465D01*
X288066Y124447D01*
X288085Y124425D01*
X288191Y124350D01*
X288294Y124270D01*
X288321Y124259D01*
X288345Y124242D01*
X288466Y124196D01*
X288585Y124144D01*
X288615Y124139D01*
X288642Y124129D01*
X288771Y124114D01*
X288900Y124094D01*
X288929Y124097D01*
X288958Y124094D01*
X289087Y124112D01*
X289216Y124124D01*
X289244Y124134D01*
X289273Y124138D01*
X289426Y124190D01*
X290079Y124461D01*
X294121Y124461D01*
X297856Y122914D01*
X300714Y120056D01*
X302261Y116321D01*
X302261Y112279D01*
X300714Y108544D01*
X297856Y105686D01*
X294121Y104139D01*
X290079Y104139D01*
G37*
%LPD*%
%LPC*%
G36*
X566870Y52323D02*
X566870Y52323D01*
X560384Y58810D01*
X560306Y58870D01*
X560234Y58938D01*
X560181Y58967D01*
X560133Y59004D01*
X560042Y59044D01*
X559955Y59092D01*
X559897Y59107D01*
X559841Y59131D01*
X559743Y59146D01*
X559647Y59171D01*
X559547Y59177D01*
X559527Y59181D01*
X559515Y59179D01*
X559487Y59181D01*
X518576Y59181D01*
X518478Y59169D01*
X518379Y59166D01*
X518321Y59149D01*
X518261Y59141D01*
X518169Y59105D01*
X518074Y59077D01*
X518022Y59047D01*
X517965Y59024D01*
X517885Y58966D01*
X517800Y58916D01*
X517724Y58850D01*
X517708Y58838D01*
X517700Y58828D01*
X517679Y58810D01*
X512209Y53339D01*
X503791Y53339D01*
X497839Y59291D01*
X497839Y67709D01*
X503791Y73661D01*
X512209Y73661D01*
X517679Y68190D01*
X517757Y68130D01*
X517829Y68062D01*
X517882Y68033D01*
X517930Y67996D01*
X518021Y67956D01*
X518108Y67908D01*
X518166Y67893D01*
X518222Y67869D01*
X518320Y67854D01*
X518416Y67829D01*
X518516Y67823D01*
X518536Y67819D01*
X518548Y67821D01*
X518576Y67819D01*
X559487Y67819D01*
X559585Y67831D01*
X559684Y67834D01*
X559742Y67851D01*
X559802Y67859D01*
X559894Y67895D01*
X559989Y67923D01*
X560042Y67953D01*
X560098Y67976D01*
X560178Y68034D01*
X560263Y68084D01*
X560339Y68150D01*
X560355Y68162D01*
X560363Y68172D01*
X560384Y68190D01*
X566870Y74677D01*
X576130Y74677D01*
X582677Y68130D01*
X582677Y58870D01*
X576130Y52323D01*
X566870Y52323D01*
G37*
%LPD*%
%LPC*%
G36*
X255740Y343915D02*
X255740Y343915D01*
X251445Y345694D01*
X248158Y348981D01*
X246379Y353276D01*
X246379Y357924D01*
X248158Y362219D01*
X251445Y365506D01*
X255740Y367285D01*
X277660Y367285D01*
X281955Y365506D01*
X285242Y362219D01*
X287021Y357924D01*
X287021Y353276D01*
X285242Y348981D01*
X281955Y345694D01*
X277660Y343915D01*
X255740Y343915D01*
G37*
%LPD*%
%LPC*%
G36*
X255740Y293115D02*
X255740Y293115D01*
X251445Y294894D01*
X248158Y298181D01*
X246379Y302476D01*
X246379Y307124D01*
X248158Y311419D01*
X251445Y314706D01*
X255740Y316485D01*
X277660Y316485D01*
X281955Y314706D01*
X285242Y311419D01*
X287021Y307124D01*
X287021Y302476D01*
X285242Y298181D01*
X281955Y294894D01*
X277660Y293115D01*
X255740Y293115D01*
G37*
%LPD*%
%LPC*%
G36*
X446849Y382523D02*
X446849Y382523D01*
X442741Y384225D01*
X439597Y387369D01*
X437895Y391477D01*
X437895Y395923D01*
X439597Y400031D01*
X442741Y403175D01*
X446849Y404877D01*
X467551Y404877D01*
X471659Y403175D01*
X474803Y400031D01*
X476505Y395923D01*
X476505Y391477D01*
X474803Y387369D01*
X471659Y384225D01*
X467551Y382523D01*
X446849Y382523D01*
G37*
%LPD*%
%LPC*%
G36*
X700849Y382523D02*
X700849Y382523D01*
X696741Y384225D01*
X693597Y387369D01*
X691895Y391477D01*
X691895Y395923D01*
X693597Y400031D01*
X696741Y403175D01*
X700849Y404877D01*
X721551Y404877D01*
X725659Y403175D01*
X728803Y400031D01*
X730505Y395923D01*
X730505Y391477D01*
X728803Y387369D01*
X725659Y384225D01*
X721551Y382523D01*
X700849Y382523D01*
G37*
%LPD*%
%LPC*%
G36*
X700849Y357123D02*
X700849Y357123D01*
X696741Y358825D01*
X693597Y361969D01*
X691895Y366077D01*
X691895Y370523D01*
X693597Y374631D01*
X696741Y377775D01*
X700849Y379477D01*
X721551Y379477D01*
X725659Y377775D01*
X728803Y374631D01*
X730505Y370523D01*
X730505Y366077D01*
X728803Y361969D01*
X725659Y358825D01*
X721551Y357123D01*
X700849Y357123D01*
G37*
%LPD*%
%LPC*%
G36*
X446849Y357123D02*
X446849Y357123D01*
X442741Y358825D01*
X439597Y361969D01*
X437895Y366077D01*
X437895Y370523D01*
X439597Y374631D01*
X442741Y377775D01*
X446849Y379477D01*
X467551Y379477D01*
X471659Y377775D01*
X474803Y374631D01*
X476505Y370523D01*
X476505Y366077D01*
X474803Y361969D01*
X471659Y358825D01*
X467551Y357123D01*
X446849Y357123D01*
G37*
%LPD*%
%LPC*%
G36*
X446849Y280923D02*
X446849Y280923D01*
X442741Y282625D01*
X439597Y285769D01*
X437895Y289877D01*
X437895Y294323D01*
X439597Y298431D01*
X442741Y301575D01*
X446849Y303277D01*
X467551Y303277D01*
X471659Y301575D01*
X474803Y298431D01*
X476505Y294323D01*
X476505Y289877D01*
X474803Y285769D01*
X471659Y282625D01*
X467551Y280923D01*
X446849Y280923D01*
G37*
%LPD*%
%LPC*%
G36*
X446849Y306323D02*
X446849Y306323D01*
X442741Y308025D01*
X439597Y311169D01*
X437895Y315277D01*
X437895Y319723D01*
X439597Y323831D01*
X442741Y326975D01*
X446849Y328677D01*
X467551Y328677D01*
X471659Y326975D01*
X474803Y323831D01*
X476505Y319723D01*
X476505Y315277D01*
X474803Y311169D01*
X471659Y308025D01*
X467551Y306323D01*
X446849Y306323D01*
G37*
%LPD*%
%LPC*%
G36*
X327977Y323595D02*
X327977Y323595D01*
X323869Y325297D01*
X320725Y328441D01*
X319023Y332549D01*
X319023Y353251D01*
X320725Y357359D01*
X323869Y360503D01*
X327977Y362205D01*
X332423Y362205D01*
X336531Y360503D01*
X339675Y357359D01*
X341377Y353251D01*
X341377Y332549D01*
X339675Y328441D01*
X336531Y325297D01*
X332423Y323595D01*
X327977Y323595D01*
G37*
%LPD*%
%LPC*%
G36*
X700849Y255523D02*
X700849Y255523D01*
X696741Y257225D01*
X693597Y260369D01*
X691895Y264477D01*
X691895Y268923D01*
X693597Y273031D01*
X696741Y276175D01*
X700849Y277877D01*
X721551Y277877D01*
X725659Y276175D01*
X728803Y273031D01*
X730505Y268923D01*
X730505Y264477D01*
X728803Y260369D01*
X725659Y257225D01*
X721551Y255523D01*
X700849Y255523D01*
G37*
%LPD*%
%LPC*%
G36*
X40449Y217423D02*
X40449Y217423D01*
X36341Y219125D01*
X33197Y222269D01*
X31495Y226377D01*
X31495Y230823D01*
X33197Y234931D01*
X36341Y238075D01*
X40449Y239777D01*
X61151Y239777D01*
X65259Y238075D01*
X68403Y234931D01*
X70105Y230823D01*
X70105Y226377D01*
X68403Y222269D01*
X65259Y219125D01*
X61151Y217423D01*
X40449Y217423D01*
G37*
%LPD*%
%LPC*%
G36*
X446849Y331723D02*
X446849Y331723D01*
X442741Y333425D01*
X439597Y336569D01*
X437895Y340677D01*
X437895Y345123D01*
X439597Y349231D01*
X442741Y352375D01*
X446849Y354077D01*
X467551Y354077D01*
X471659Y352375D01*
X474803Y349231D01*
X476505Y345123D01*
X476505Y340677D01*
X474803Y336569D01*
X471659Y333425D01*
X467551Y331723D01*
X446849Y331723D01*
G37*
%LPD*%
%LPC*%
G36*
X446849Y103123D02*
X446849Y103123D01*
X442741Y104825D01*
X439597Y107969D01*
X437895Y112077D01*
X437895Y116523D01*
X439597Y120631D01*
X442741Y123775D01*
X446849Y125477D01*
X467551Y125477D01*
X471659Y123775D01*
X474803Y120631D01*
X476505Y116523D01*
X476505Y112077D01*
X474803Y107969D01*
X471659Y104825D01*
X467551Y103123D01*
X446849Y103123D01*
G37*
%LPD*%
%LPC*%
G36*
X396049Y103123D02*
X396049Y103123D01*
X391941Y104825D01*
X388797Y107969D01*
X387095Y112077D01*
X387095Y116523D01*
X388797Y120631D01*
X391941Y123775D01*
X396049Y125477D01*
X416751Y125477D01*
X420859Y123775D01*
X424003Y120631D01*
X425705Y116523D01*
X425705Y112077D01*
X424003Y107969D01*
X420859Y104825D01*
X416751Y103123D01*
X396049Y103123D01*
G37*
%LPD*%
%LPC*%
G36*
X446849Y128523D02*
X446849Y128523D01*
X442741Y130225D01*
X439597Y133369D01*
X437895Y137477D01*
X437895Y141923D01*
X439597Y146031D01*
X442741Y149175D01*
X446849Y150877D01*
X467551Y150877D01*
X471659Y149175D01*
X474803Y146031D01*
X476505Y141923D01*
X476505Y137477D01*
X474803Y133369D01*
X471659Y130225D01*
X467551Y128523D01*
X446849Y128523D01*
G37*
%LPD*%
%LPC*%
G36*
X40449Y192023D02*
X40449Y192023D01*
X36341Y193725D01*
X33197Y196869D01*
X31495Y200977D01*
X31495Y205423D01*
X33197Y209531D01*
X36341Y212675D01*
X40449Y214377D01*
X61151Y214377D01*
X65259Y212675D01*
X68403Y209531D01*
X70105Y205423D01*
X70105Y200977D01*
X68403Y196869D01*
X65259Y193725D01*
X61151Y192023D01*
X40449Y192023D01*
G37*
%LPD*%
%LPC*%
G36*
X446849Y26923D02*
X446849Y26923D01*
X442741Y28625D01*
X439597Y31769D01*
X437895Y35877D01*
X437895Y40323D01*
X439597Y44431D01*
X442741Y47575D01*
X446849Y49277D01*
X467551Y49277D01*
X471659Y47575D01*
X474803Y44431D01*
X476505Y40323D01*
X476505Y35877D01*
X474803Y31769D01*
X471659Y28625D01*
X467551Y26923D01*
X446849Y26923D01*
G37*
%LPD*%
%LPC*%
G36*
X396049Y77723D02*
X396049Y77723D01*
X391941Y79425D01*
X388797Y82569D01*
X387095Y86677D01*
X387095Y91123D01*
X388797Y95231D01*
X391941Y98375D01*
X396049Y100077D01*
X416751Y100077D01*
X420859Y98375D01*
X424003Y95231D01*
X425705Y91123D01*
X425705Y86677D01*
X424003Y82569D01*
X420859Y79425D01*
X416751Y77723D01*
X396049Y77723D01*
G37*
%LPD*%
%LPC*%
G36*
X446849Y77723D02*
X446849Y77723D01*
X442741Y79425D01*
X439597Y82569D01*
X437895Y86677D01*
X437895Y91123D01*
X439597Y95231D01*
X442741Y98375D01*
X446849Y100077D01*
X467551Y100077D01*
X471659Y98375D01*
X474803Y95231D01*
X476505Y91123D01*
X476505Y86677D01*
X474803Y82569D01*
X471659Y79425D01*
X467551Y77723D01*
X446849Y77723D01*
G37*
%LPD*%
%LPC*%
G36*
X700849Y306323D02*
X700849Y306323D01*
X696741Y308025D01*
X693597Y311169D01*
X691895Y315277D01*
X691895Y319723D01*
X693597Y323831D01*
X696741Y326975D01*
X700849Y328677D01*
X721551Y328677D01*
X725659Y326975D01*
X728803Y323831D01*
X730505Y319723D01*
X730505Y315277D01*
X728803Y311169D01*
X725659Y308025D01*
X721551Y306323D01*
X700849Y306323D01*
G37*
%LPD*%
%LPC*%
G36*
X700849Y331723D02*
X700849Y331723D01*
X696741Y333425D01*
X693597Y336569D01*
X691895Y340677D01*
X691895Y345123D01*
X693597Y349231D01*
X696741Y352375D01*
X700849Y354077D01*
X721551Y354077D01*
X725659Y352375D01*
X728803Y349231D01*
X730505Y345123D01*
X730505Y340677D01*
X728803Y336569D01*
X725659Y333425D01*
X721551Y331723D01*
X700849Y331723D01*
G37*
%LPD*%
%LPC*%
G36*
X700849Y280923D02*
X700849Y280923D01*
X696741Y282625D01*
X693597Y285769D01*
X691895Y289877D01*
X691895Y294323D01*
X693597Y298431D01*
X696741Y301575D01*
X700849Y303277D01*
X721551Y303277D01*
X725659Y301575D01*
X728803Y298431D01*
X730505Y294323D01*
X730505Y289877D01*
X728803Y285769D01*
X725659Y282625D01*
X721551Y280923D01*
X700849Y280923D01*
G37*
%LPD*%
%LPC*%
G36*
X239279Y160527D02*
X239279Y160527D01*
X235544Y162074D01*
X232686Y164932D01*
X231139Y168667D01*
X231139Y186933D01*
X232686Y190668D01*
X235544Y193526D01*
X239279Y195073D01*
X243321Y195073D01*
X247056Y193526D01*
X249914Y190668D01*
X251461Y186933D01*
X251461Y168667D01*
X249914Y164932D01*
X247056Y162074D01*
X243321Y160527D01*
X239279Y160527D01*
G37*
%LPD*%
%LPC*%
G36*
X163079Y236727D02*
X163079Y236727D01*
X159344Y238274D01*
X156486Y241132D01*
X154939Y244867D01*
X154939Y263133D01*
X156486Y266868D01*
X159344Y269726D01*
X163079Y271273D01*
X167121Y271273D01*
X170856Y269726D01*
X173714Y266868D01*
X175261Y263133D01*
X175261Y244867D01*
X173714Y241132D01*
X170856Y238274D01*
X167121Y236727D01*
X163079Y236727D01*
G37*
%LPD*%
%LPC*%
G36*
X592270Y77723D02*
X592270Y77723D01*
X585723Y84270D01*
X585723Y93530D01*
X592270Y100077D01*
X601530Y100077D01*
X608077Y93530D01*
X608077Y84270D01*
X601530Y77723D01*
X592270Y77723D01*
G37*
%LPD*%
%LPC*%
G36*
X592270Y26923D02*
X592270Y26923D01*
X585723Y33470D01*
X585723Y42730D01*
X592270Y49277D01*
X601530Y49277D01*
X608077Y42730D01*
X608077Y33470D01*
X601530Y26923D01*
X592270Y26923D01*
G37*
%LPD*%
%LPC*%
G36*
X592270Y204723D02*
X592270Y204723D01*
X585723Y211270D01*
X585723Y220530D01*
X592270Y227077D01*
X601530Y227077D01*
X608077Y220530D01*
X608077Y211270D01*
X601530Y204723D01*
X592270Y204723D01*
G37*
%LPD*%
%LPC*%
G36*
X592270Y52323D02*
X592270Y52323D01*
X585723Y58870D01*
X585723Y68130D01*
X592270Y74677D01*
X601530Y74677D01*
X608077Y68130D01*
X608077Y58870D01*
X601530Y52323D01*
X592270Y52323D01*
G37*
%LPD*%
%LPC*%
G36*
X592270Y153923D02*
X592270Y153923D01*
X585723Y160470D01*
X585723Y169730D01*
X592270Y176277D01*
X601530Y176277D01*
X608077Y169730D01*
X608077Y160470D01*
X601530Y153923D01*
X592270Y153923D01*
G37*
%LPD*%
%LPC*%
G36*
X566870Y77723D02*
X566870Y77723D01*
X560323Y84270D01*
X560323Y93530D01*
X566870Y100077D01*
X576130Y100077D01*
X582677Y93530D01*
X582677Y84270D01*
X576130Y77723D01*
X566870Y77723D01*
G37*
%LPD*%
%LPC*%
G36*
X592270Y230123D02*
X592270Y230123D01*
X585723Y236670D01*
X585723Y245930D01*
X592270Y252477D01*
X601530Y252477D01*
X608077Y245930D01*
X608077Y236670D01*
X601530Y230123D01*
X592270Y230123D01*
G37*
%LPD*%
%LPC*%
G36*
X592270Y179323D02*
X592270Y179323D01*
X585723Y185870D01*
X585723Y195130D01*
X592270Y201677D01*
X601530Y201677D01*
X608077Y195130D01*
X608077Y185870D01*
X601530Y179323D01*
X592270Y179323D01*
G37*
%LPD*%
%LPC*%
G36*
X592270Y103123D02*
X592270Y103123D01*
X585723Y109670D01*
X585723Y118930D01*
X592270Y125477D01*
X601530Y125477D01*
X608077Y118930D01*
X608077Y109670D01*
X601530Y103123D01*
X592270Y103123D01*
G37*
%LPD*%
%LPC*%
G36*
X566870Y128523D02*
X566870Y128523D01*
X560323Y135070D01*
X560323Y144330D01*
X566870Y150877D01*
X576130Y150877D01*
X582677Y144330D01*
X582677Y135070D01*
X576130Y128523D01*
X566870Y128523D01*
G37*
%LPD*%
%LPC*%
G36*
X592270Y128523D02*
X592270Y128523D01*
X585723Y135070D01*
X585723Y144330D01*
X592270Y150877D01*
X601530Y150877D01*
X608077Y144330D01*
X608077Y135070D01*
X601530Y128523D01*
X592270Y128523D01*
G37*
%LPD*%
%LPC*%
G36*
X566870Y103123D02*
X566870Y103123D01*
X560323Y109670D01*
X560323Y118930D01*
X566870Y125477D01*
X576130Y125477D01*
X582677Y118930D01*
X582677Y109670D01*
X576130Y103123D01*
X566870Y103123D01*
G37*
%LPD*%
%LPC*%
G36*
X566870Y26923D02*
X566870Y26923D01*
X560323Y33470D01*
X560323Y42730D01*
X566870Y49277D01*
X576130Y49277D01*
X582677Y42730D01*
X582677Y33470D01*
X576130Y26923D01*
X566870Y26923D01*
G37*
%LPD*%
%LPC*%
G36*
X389491Y269239D02*
X389491Y269239D01*
X383539Y275191D01*
X383539Y283609D01*
X389491Y289561D01*
X397909Y289561D01*
X403861Y283609D01*
X403861Y275191D01*
X397909Y269239D01*
X389491Y269239D01*
G37*
%LPD*%
%LPC*%
G36*
X389491Y345439D02*
X389491Y345439D01*
X383539Y351391D01*
X383539Y359809D01*
X389491Y365761D01*
X397909Y365761D01*
X403861Y359809D01*
X403861Y351391D01*
X397909Y345439D01*
X389491Y345439D01*
G37*
%LPD*%
%LPC*%
G36*
X389491Y180339D02*
X389491Y180339D01*
X383539Y186291D01*
X383539Y194709D01*
X389491Y200661D01*
X397909Y200661D01*
X403861Y194709D01*
X403861Y186291D01*
X397909Y180339D01*
X389491Y180339D01*
G37*
%LPD*%
%LPC*%
G36*
X414891Y180339D02*
X414891Y180339D01*
X408939Y186291D01*
X408939Y194709D01*
X414891Y200661D01*
X423309Y200661D01*
X429261Y194709D01*
X429261Y186291D01*
X423309Y180339D01*
X414891Y180339D01*
G37*
%LPD*%
%LPC*%
G36*
X325991Y269239D02*
X325991Y269239D01*
X320039Y275191D01*
X320039Y283609D01*
X325991Y289561D01*
X334409Y289561D01*
X340361Y283609D01*
X340361Y275191D01*
X334409Y269239D01*
X325991Y269239D01*
G37*
%LPD*%
%LPC*%
G36*
X315479Y104139D02*
X315479Y104139D01*
X311744Y105686D01*
X308886Y108544D01*
X307339Y112279D01*
X307339Y116321D01*
X308886Y120056D01*
X311744Y122914D01*
X315479Y124461D01*
X319521Y124461D01*
X323256Y122914D01*
X326114Y120056D01*
X327661Y116321D01*
X327661Y112279D01*
X326114Y108544D01*
X323256Y105686D01*
X319521Y104139D01*
X315479Y104139D01*
G37*
%LPD*%
%LPC*%
G36*
X86879Y27939D02*
X86879Y27939D01*
X83144Y29486D01*
X80286Y32344D01*
X78739Y36079D01*
X78739Y40121D01*
X80286Y43856D01*
X83144Y46714D01*
X86879Y48261D01*
X90921Y48261D01*
X94656Y46714D01*
X97514Y43856D01*
X99061Y40121D01*
X99061Y36079D01*
X97514Y32344D01*
X94656Y29486D01*
X90921Y27939D01*
X86879Y27939D01*
G37*
%LPD*%
%LPC*%
G36*
X239279Y27939D02*
X239279Y27939D01*
X235544Y29486D01*
X232686Y32344D01*
X231139Y36079D01*
X231139Y40121D01*
X232686Y43856D01*
X235544Y46714D01*
X239279Y48261D01*
X243321Y48261D01*
X247056Y46714D01*
X249914Y43856D01*
X251461Y40121D01*
X251461Y36079D01*
X249914Y32344D01*
X247056Y29486D01*
X243321Y27939D01*
X239279Y27939D01*
G37*
%LPD*%
%LPC*%
G36*
X269239Y332739D02*
X269239Y332739D01*
X269239Y341377D01*
X276216Y341377D01*
X277953Y341102D01*
X279626Y340558D01*
X281194Y339759D01*
X282617Y338725D01*
X283861Y337481D01*
X284895Y336058D01*
X285694Y334490D01*
X286238Y332817D01*
X286250Y332739D01*
X269239Y332739D01*
G37*
%LPD*%
%LPC*%
G36*
X247150Y332739D02*
X247150Y332739D01*
X247162Y332817D01*
X247706Y334490D01*
X248505Y336058D01*
X249539Y337481D01*
X250783Y338725D01*
X252206Y339759D01*
X253774Y340558D01*
X255447Y341102D01*
X257184Y341377D01*
X264161Y341377D01*
X264161Y332739D01*
X247150Y332739D01*
G37*
%LPD*%
%LPC*%
G36*
X269239Y319023D02*
X269239Y319023D01*
X269239Y327661D01*
X286250Y327661D01*
X286238Y327583D01*
X285694Y325910D01*
X284895Y324342D01*
X283861Y322919D01*
X282617Y321675D01*
X281194Y320641D01*
X279626Y319842D01*
X277953Y319298D01*
X276216Y319023D01*
X269239Y319023D01*
G37*
%LPD*%
%LPC*%
G36*
X257184Y319023D02*
X257184Y319023D01*
X255447Y319298D01*
X253774Y319842D01*
X252206Y320641D01*
X250783Y321675D01*
X249539Y322919D01*
X248505Y324342D01*
X247706Y325910D01*
X247162Y327583D01*
X247150Y327661D01*
X264161Y327661D01*
X264161Y319023D01*
X257184Y319023D01*
G37*
%LPD*%
%LPC*%
G36*
X459739Y66039D02*
X459739Y66039D01*
X459739Y74169D01*
X466168Y74169D01*
X467826Y73906D01*
X469423Y73387D01*
X470920Y72625D01*
X472278Y71638D01*
X473466Y70450D01*
X474453Y69092D01*
X475215Y67595D01*
X475721Y66039D01*
X459739Y66039D01*
G37*
%LPD*%
%LPC*%
G36*
X358139Y345439D02*
X358139Y345439D01*
X358139Y361421D01*
X359695Y360915D01*
X361192Y360153D01*
X362550Y359166D01*
X363738Y357978D01*
X364725Y356620D01*
X365487Y355123D01*
X366006Y353526D01*
X366269Y351868D01*
X366269Y345439D01*
X358139Y345439D01*
G37*
%LPD*%
%LPC*%
G36*
X408939Y66039D02*
X408939Y66039D01*
X408939Y74169D01*
X415368Y74169D01*
X417026Y73906D01*
X418623Y73387D01*
X420120Y72625D01*
X421478Y71638D01*
X422666Y70450D01*
X423653Y69092D01*
X424415Y67595D01*
X424921Y66039D01*
X408939Y66039D01*
G37*
%LPD*%
%LPC*%
G36*
X387879Y66039D02*
X387879Y66039D01*
X388385Y67595D01*
X389147Y69092D01*
X390134Y70450D01*
X391322Y71638D01*
X392680Y72625D01*
X394177Y73387D01*
X395774Y73906D01*
X397432Y74169D01*
X403861Y74169D01*
X403861Y66039D01*
X387879Y66039D01*
G37*
%LPD*%
%LPC*%
G36*
X438679Y66039D02*
X438679Y66039D01*
X439185Y67595D01*
X439947Y69092D01*
X440934Y70450D01*
X442122Y71638D01*
X443480Y72625D01*
X444977Y73387D01*
X446574Y73906D01*
X448232Y74169D01*
X454661Y74169D01*
X454661Y66039D01*
X438679Y66039D01*
G37*
%LPD*%
%LPC*%
G36*
X358139Y340361D02*
X358139Y340361D01*
X366269Y340361D01*
X366269Y333932D01*
X366006Y332274D01*
X365487Y330677D01*
X364725Y329180D01*
X363738Y327822D01*
X362550Y326634D01*
X361192Y325647D01*
X359695Y324885D01*
X358139Y324379D01*
X358139Y340361D01*
G37*
%LPD*%
%LPC*%
G36*
X459739Y52831D02*
X459739Y52831D01*
X459739Y60961D01*
X475721Y60961D01*
X475215Y59405D01*
X474453Y57908D01*
X473466Y56550D01*
X472278Y55362D01*
X470920Y54375D01*
X469423Y53613D01*
X467826Y53094D01*
X466168Y52831D01*
X459739Y52831D01*
G37*
%LPD*%
%LPC*%
G36*
X344931Y345439D02*
X344931Y345439D01*
X344931Y351868D01*
X345194Y353526D01*
X345713Y355123D01*
X346475Y356620D01*
X347462Y357978D01*
X348650Y359166D01*
X350008Y360153D01*
X351505Y360915D01*
X353061Y361421D01*
X353061Y345439D01*
X344931Y345439D01*
G37*
%LPD*%
%LPC*%
G36*
X408939Y52831D02*
X408939Y52831D01*
X408939Y60961D01*
X424921Y60961D01*
X424415Y59405D01*
X423653Y57908D01*
X422666Y56550D01*
X421478Y55362D01*
X420120Y54375D01*
X418623Y53613D01*
X417026Y53094D01*
X415368Y52831D01*
X408939Y52831D01*
G37*
%LPD*%
%LPC*%
G36*
X351505Y324885D02*
X351505Y324885D01*
X350008Y325647D01*
X349577Y325961D01*
X348650Y326634D01*
X347462Y327822D01*
X346475Y329180D01*
X345713Y330677D01*
X345194Y332274D01*
X344931Y333932D01*
X344931Y340361D01*
X353061Y340361D01*
X353061Y324379D01*
X351505Y324885D01*
G37*
%LPD*%
%LPC*%
G36*
X448232Y52831D02*
X448232Y52831D01*
X446574Y53094D01*
X444977Y53613D01*
X443480Y54375D01*
X442122Y55362D01*
X440934Y56550D01*
X439947Y57908D01*
X439185Y59405D01*
X438679Y60961D01*
X454661Y60961D01*
X454661Y52831D01*
X448232Y52831D01*
G37*
%LPD*%
%LPC*%
G36*
X397432Y52831D02*
X397432Y52831D01*
X395774Y53094D01*
X394177Y53613D01*
X392680Y54375D01*
X391322Y55362D01*
X390134Y56550D01*
X389147Y57908D01*
X388385Y59405D01*
X387879Y60961D01*
X403861Y60961D01*
X403861Y52831D01*
X397432Y52831D01*
G37*
%LPD*%
%LPC*%
G36*
X192531Y179831D02*
X192531Y179831D01*
X192531Y194363D01*
X192760Y194327D01*
X194205Y193858D01*
X195559Y193168D01*
X196788Y192275D01*
X197863Y191200D01*
X198756Y189971D01*
X199446Y188617D01*
X199915Y187172D01*
X200153Y185672D01*
X200153Y179831D01*
X192531Y179831D01*
G37*
%LPD*%
%LPC*%
G36*
X217931Y179831D02*
X217931Y179831D01*
X217931Y194363D01*
X218160Y194327D01*
X219605Y193858D01*
X220959Y193168D01*
X222188Y192275D01*
X223263Y191200D01*
X224156Y189971D01*
X224846Y188617D01*
X225315Y187172D01*
X225553Y185672D01*
X225553Y179831D01*
X217931Y179831D01*
G37*
%LPD*%
%LPC*%
G36*
X217931Y256031D02*
X217931Y256031D01*
X217931Y270563D01*
X218160Y270527D01*
X219605Y270058D01*
X220959Y269368D01*
X222188Y268475D01*
X223263Y267400D01*
X224156Y266171D01*
X224846Y264817D01*
X225315Y263372D01*
X225553Y261872D01*
X225553Y256031D01*
X217931Y256031D01*
G37*
%LPD*%
%LPC*%
G36*
X192531Y256031D02*
X192531Y256031D01*
X192531Y270563D01*
X192760Y270527D01*
X194205Y270058D01*
X195559Y269368D01*
X196788Y268475D01*
X197863Y267400D01*
X198756Y266171D01*
X199446Y264817D01*
X199915Y263372D01*
X200153Y261872D01*
X200153Y256031D01*
X192531Y256031D01*
G37*
%LPD*%
%LPC*%
G36*
X217931Y175769D02*
X217931Y175769D01*
X225553Y175769D01*
X225553Y169928D01*
X225315Y168428D01*
X224846Y166983D01*
X224156Y165629D01*
X223263Y164400D01*
X222188Y163325D01*
X220959Y162432D01*
X219605Y161742D01*
X218160Y161273D01*
X217931Y161237D01*
X217931Y175769D01*
G37*
%LPD*%
%LPC*%
G36*
X217931Y251969D02*
X217931Y251969D01*
X225553Y251969D01*
X225553Y246128D01*
X225315Y244628D01*
X224846Y243183D01*
X224156Y241829D01*
X223263Y240600D01*
X222188Y239525D01*
X220959Y238632D01*
X219605Y237942D01*
X218160Y237473D01*
X217931Y237437D01*
X217931Y251969D01*
G37*
%LPD*%
%LPC*%
G36*
X192531Y251969D02*
X192531Y251969D01*
X200153Y251969D01*
X200153Y246128D01*
X199915Y244628D01*
X199446Y243183D01*
X198756Y241829D01*
X197863Y240600D01*
X196788Y239525D01*
X195559Y238632D01*
X194205Y237942D01*
X192760Y237473D01*
X192531Y237437D01*
X192531Y251969D01*
G37*
%LPD*%
%LPC*%
G36*
X206247Y179831D02*
X206247Y179831D01*
X206247Y185672D01*
X206485Y187172D01*
X206954Y188617D01*
X207644Y189971D01*
X208537Y191200D01*
X209612Y192275D01*
X210841Y193168D01*
X212195Y193858D01*
X213640Y194327D01*
X213869Y194363D01*
X213869Y179831D01*
X206247Y179831D01*
G37*
%LPD*%
%LPC*%
G36*
X180847Y256031D02*
X180847Y256031D01*
X180847Y261872D01*
X181085Y263372D01*
X181554Y264817D01*
X182244Y266171D01*
X183137Y267400D01*
X184212Y268475D01*
X185441Y269368D01*
X186795Y270058D01*
X188240Y270527D01*
X188469Y270563D01*
X188469Y256031D01*
X180847Y256031D01*
G37*
%LPD*%
%LPC*%
G36*
X206247Y256031D02*
X206247Y256031D01*
X206247Y261872D01*
X206485Y263372D01*
X206954Y264817D01*
X207644Y266171D01*
X208537Y267400D01*
X209612Y268475D01*
X210841Y269368D01*
X212195Y270058D01*
X213640Y270527D01*
X213869Y270563D01*
X213869Y256031D01*
X206247Y256031D01*
G37*
%LPD*%
%LPC*%
G36*
X213640Y161273D02*
X213640Y161273D01*
X212195Y161742D01*
X210841Y162432D01*
X209612Y163325D01*
X208537Y164400D01*
X207644Y165629D01*
X206954Y166983D01*
X206485Y168428D01*
X206247Y169928D01*
X206247Y175769D01*
X213869Y175769D01*
X213869Y161237D01*
X213640Y161273D01*
G37*
%LPD*%
%LPC*%
G36*
X213640Y237473D02*
X213640Y237473D01*
X212195Y237942D01*
X210841Y238632D01*
X209612Y239525D01*
X208537Y240600D01*
X207644Y241829D01*
X206954Y243183D01*
X206485Y244628D01*
X206247Y246128D01*
X206247Y251969D01*
X213869Y251969D01*
X213869Y237437D01*
X213640Y237473D01*
G37*
%LPD*%
%LPC*%
G36*
X188240Y237473D02*
X188240Y237473D01*
X186795Y237942D01*
X185441Y238632D01*
X184212Y239525D01*
X183137Y240600D01*
X182244Y241829D01*
X181554Y243183D01*
X181085Y244628D01*
X180847Y246128D01*
X180847Y251969D01*
X188469Y251969D01*
X188469Y237437D01*
X188240Y237473D01*
G37*
%LPD*%
%LPC*%
G36*
X574039Y269239D02*
X574039Y269239D01*
X574039Y277369D01*
X575919Y277369D01*
X582169Y271119D01*
X582169Y269239D01*
X574039Y269239D01*
G37*
%LPD*%
%LPC*%
G36*
X560831Y269239D02*
X560831Y269239D01*
X560831Y271119D01*
X567081Y277369D01*
X568961Y277369D01*
X568961Y269239D01*
X560831Y269239D01*
G37*
%LPD*%
%LPC*%
G36*
X574039Y256031D02*
X574039Y256031D01*
X574039Y264161D01*
X582169Y264161D01*
X582169Y262281D01*
X575919Y256031D01*
X574039Y256031D01*
G37*
%LPD*%
%LPC*%
G36*
X567081Y256031D02*
X567081Y256031D01*
X560831Y262281D01*
X560831Y264161D01*
X568961Y264161D01*
X568961Y256031D01*
X567081Y256031D01*
G37*
%LPD*%
%LPC*%
G36*
X510031Y116331D02*
X510031Y116331D01*
X510031Y123953D01*
X511998Y123953D01*
X517653Y118298D01*
X517653Y116331D01*
X510031Y116331D01*
G37*
%LPD*%
%LPC*%
G36*
X421131Y357631D02*
X421131Y357631D01*
X421131Y365253D01*
X423098Y365253D01*
X428753Y359598D01*
X428753Y357631D01*
X421131Y357631D01*
G37*
%LPD*%
%LPC*%
G36*
X357631Y281431D02*
X357631Y281431D01*
X357631Y289053D01*
X359598Y289053D01*
X365253Y283398D01*
X365253Y281431D01*
X357631Y281431D01*
G37*
%LPD*%
%LPC*%
G36*
X421131Y281431D02*
X421131Y281431D01*
X421131Y289053D01*
X423098Y289053D01*
X428753Y283398D01*
X428753Y281431D01*
X421131Y281431D01*
G37*
%LPD*%
%LPC*%
G36*
X345947Y281431D02*
X345947Y281431D01*
X345947Y283398D01*
X351602Y289053D01*
X353569Y289053D01*
X353569Y281431D01*
X345947Y281431D01*
G37*
%LPD*%
%LPC*%
G36*
X409447Y281431D02*
X409447Y281431D01*
X409447Y283398D01*
X415102Y289053D01*
X417069Y289053D01*
X417069Y281431D01*
X409447Y281431D01*
G37*
%LPD*%
%LPC*%
G36*
X409447Y357631D02*
X409447Y357631D01*
X409447Y359598D01*
X415102Y365253D01*
X417069Y365253D01*
X417069Y357631D01*
X409447Y357631D01*
G37*
%LPD*%
%LPC*%
G36*
X510031Y112269D02*
X510031Y112269D01*
X517653Y112269D01*
X517653Y110302D01*
X511998Y104647D01*
X510031Y104647D01*
X510031Y112269D01*
G37*
%LPD*%
%LPC*%
G36*
X421131Y345947D02*
X421131Y345947D01*
X421131Y353569D01*
X428753Y353569D01*
X428753Y351602D01*
X423098Y345947D01*
X421131Y345947D01*
G37*
%LPD*%
%LPC*%
G36*
X357631Y269747D02*
X357631Y269747D01*
X357631Y277369D01*
X365253Y277369D01*
X365253Y275402D01*
X359598Y269747D01*
X357631Y269747D01*
G37*
%LPD*%
%LPC*%
G36*
X421131Y269747D02*
X421131Y269747D01*
X421131Y277369D01*
X428753Y277369D01*
X428753Y275402D01*
X423098Y269747D01*
X421131Y269747D01*
G37*
%LPD*%
%LPC*%
G36*
X498347Y116331D02*
X498347Y116331D01*
X498347Y118298D01*
X504002Y123953D01*
X505969Y123953D01*
X505969Y116331D01*
X498347Y116331D01*
G37*
%LPD*%
%LPC*%
G36*
X415102Y269747D02*
X415102Y269747D01*
X409447Y275402D01*
X409447Y277369D01*
X417069Y277369D01*
X417069Y269747D01*
X415102Y269747D01*
G37*
%LPD*%
%LPC*%
G36*
X415102Y345947D02*
X415102Y345947D01*
X409447Y351602D01*
X409447Y353569D01*
X417069Y353569D01*
X417069Y345947D01*
X415102Y345947D01*
G37*
%LPD*%
%LPC*%
G36*
X504002Y104647D02*
X504002Y104647D01*
X498347Y110302D01*
X498347Y112269D01*
X505969Y112269D01*
X505969Y104647D01*
X504002Y104647D01*
G37*
%LPD*%
%LPC*%
G36*
X351602Y269747D02*
X351602Y269747D01*
X345947Y275402D01*
X345947Y277369D01*
X353569Y277369D01*
X353569Y269747D01*
X351602Y269747D01*
G37*
%LPD*%
%LPC*%
G36*
X167131Y40131D02*
X167131Y40131D01*
X167131Y47551D01*
X167360Y47515D01*
X168805Y47046D01*
X170159Y46356D01*
X171388Y45463D01*
X172463Y44388D01*
X173356Y43159D01*
X174046Y41805D01*
X174515Y40360D01*
X174551Y40131D01*
X167131Y40131D01*
G37*
%LPD*%
%LPC*%
G36*
X319531Y40131D02*
X319531Y40131D01*
X319531Y47551D01*
X319760Y47515D01*
X321205Y47046D01*
X322559Y46356D01*
X323788Y45463D01*
X324863Y44388D01*
X325756Y43159D01*
X326446Y41805D01*
X326915Y40360D01*
X326951Y40131D01*
X319531Y40131D01*
G37*
%LPD*%
%LPC*%
G36*
X155649Y40131D02*
X155649Y40131D01*
X155685Y40360D01*
X156154Y41805D01*
X156844Y43159D01*
X157737Y44388D01*
X158812Y45463D01*
X160041Y46356D01*
X161395Y47046D01*
X162840Y47515D01*
X163069Y47551D01*
X163069Y40131D01*
X155649Y40131D01*
G37*
%LPD*%
%LPC*%
G36*
X308049Y40131D02*
X308049Y40131D01*
X308085Y40360D01*
X308554Y41805D01*
X309244Y43159D01*
X310137Y44388D01*
X311212Y45463D01*
X312441Y46356D01*
X313795Y47046D01*
X315240Y47515D01*
X315469Y47551D01*
X315469Y40131D01*
X308049Y40131D01*
G37*
%LPD*%
%LPC*%
G36*
X319531Y36069D02*
X319531Y36069D01*
X326951Y36069D01*
X326915Y35840D01*
X326446Y34395D01*
X325756Y33041D01*
X324863Y31812D01*
X323788Y30737D01*
X322559Y29844D01*
X321205Y29154D01*
X319760Y28685D01*
X319531Y28649D01*
X319531Y36069D01*
G37*
%LPD*%
%LPC*%
G36*
X167131Y36069D02*
X167131Y36069D01*
X174551Y36069D01*
X174515Y35840D01*
X174046Y34395D01*
X173356Y33041D01*
X172463Y31812D01*
X171388Y30737D01*
X170159Y29844D01*
X168805Y29154D01*
X167360Y28685D01*
X167131Y28649D01*
X167131Y36069D01*
G37*
%LPD*%
%LPC*%
G36*
X315240Y28685D02*
X315240Y28685D01*
X313795Y29154D01*
X312441Y29844D01*
X311212Y30737D01*
X310137Y31812D01*
X309244Y33041D01*
X308554Y34395D01*
X308085Y35840D01*
X308049Y36069D01*
X315469Y36069D01*
X315469Y28649D01*
X315240Y28685D01*
G37*
%LPD*%
%LPC*%
G36*
X162840Y28685D02*
X162840Y28685D01*
X161395Y29154D01*
X160041Y29844D01*
X158812Y30737D01*
X157737Y31812D01*
X156844Y33041D01*
X156154Y34395D01*
X155685Y35840D01*
X155649Y36069D01*
X163069Y36069D01*
X163069Y28649D01*
X162840Y28685D01*
G37*
%LPD*%
%LPC*%
G36*
X355599Y342899D02*
X355599Y342899D01*
X355599Y342901D01*
X355601Y342901D01*
X355601Y342899D01*
X355599Y342899D01*
G37*
%LPD*%
%LPC*%
G36*
X266699Y330199D02*
X266699Y330199D01*
X266699Y330201D01*
X266701Y330201D01*
X266701Y330199D01*
X266699Y330199D01*
G37*
%LPD*%
%LPC*%
G36*
X571499Y266699D02*
X571499Y266699D01*
X571499Y266701D01*
X571501Y266701D01*
X571501Y266699D01*
X571499Y266699D01*
G37*
%LPD*%
%LPC*%
G36*
X457199Y63499D02*
X457199Y63499D01*
X457199Y63501D01*
X457201Y63501D01*
X457201Y63499D01*
X457199Y63499D01*
G37*
%LPD*%
%LPC*%
G36*
X406399Y63499D02*
X406399Y63499D01*
X406399Y63501D01*
X406401Y63501D01*
X406401Y63499D01*
X406399Y63499D01*
G37*
%LPD*%
D10*
X330200Y334772D02*
X330200Y351028D01*
X355600Y351028D02*
X355600Y334772D01*
D11*
X330200Y279400D03*
X355600Y279400D03*
X393700Y279400D03*
X419100Y279400D03*
D12*
X419100Y355600D03*
X393700Y355600D03*
D13*
X571500Y38100D03*
X596900Y38100D03*
X571500Y63500D03*
X596900Y63500D03*
X571500Y88900D03*
X596900Y88900D03*
X571500Y114300D03*
X596900Y114300D03*
X571500Y139700D03*
X596900Y139700D03*
X571500Y165100D03*
X596900Y165100D03*
X571500Y190500D03*
X596900Y190500D03*
X571500Y215900D03*
X596900Y215900D03*
X571500Y241300D03*
X596900Y241300D03*
X571500Y266700D03*
X596900Y266700D03*
D10*
X465328Y393700D02*
X449072Y393700D01*
X449072Y368300D02*
X465328Y368300D01*
X465328Y342900D02*
X449072Y342900D01*
X449072Y317500D02*
X465328Y317500D01*
X465328Y292100D02*
X449072Y292100D01*
X449072Y266700D02*
X465328Y266700D01*
X465328Y241300D02*
X449072Y241300D01*
X449072Y215900D02*
X465328Y215900D01*
X465328Y190500D02*
X449072Y190500D01*
X449072Y165100D02*
X465328Y165100D01*
X465328Y139700D02*
X449072Y139700D01*
X449072Y114300D02*
X465328Y114300D01*
X465328Y88900D02*
X449072Y88900D01*
X449072Y63500D02*
X465328Y63500D01*
X465328Y38100D02*
X449072Y38100D01*
X703072Y38100D02*
X719328Y38100D01*
X719328Y63500D02*
X703072Y63500D01*
X703072Y88900D02*
X719328Y88900D01*
X719328Y114300D02*
X703072Y114300D01*
X703072Y139700D02*
X719328Y139700D01*
X719328Y165100D02*
X703072Y165100D01*
X703072Y190500D02*
X719328Y190500D01*
X719328Y215900D02*
X703072Y215900D01*
X703072Y241300D02*
X719328Y241300D01*
X719328Y266700D02*
X703072Y266700D01*
X703072Y292100D02*
X719328Y292100D01*
X719328Y317500D02*
X703072Y317500D01*
X703072Y342900D02*
X719328Y342900D01*
X719328Y368300D02*
X703072Y368300D01*
X703072Y393700D02*
X719328Y393700D01*
X414528Y38100D02*
X398272Y38100D01*
X398272Y63500D02*
X414528Y63500D01*
X414528Y88900D02*
X398272Y88900D01*
X398272Y114300D02*
X414528Y114300D01*
D14*
X292100Y246888D02*
X292100Y261112D01*
X266700Y261112D02*
X266700Y246888D01*
X139700Y246888D02*
X139700Y261112D01*
X114300Y261112D02*
X114300Y246888D01*
X241300Y246888D02*
X241300Y261112D01*
X215900Y261112D02*
X215900Y246888D01*
X165100Y246888D02*
X165100Y261112D01*
X190500Y261112D02*
X190500Y246888D01*
X114300Y184912D02*
X114300Y170688D01*
X139700Y170688D02*
X139700Y184912D01*
X165100Y184912D02*
X165100Y170688D01*
X190500Y170688D02*
X190500Y184912D01*
X215900Y184912D02*
X215900Y170688D01*
X241300Y170688D02*
X241300Y184912D01*
X266700Y184912D02*
X266700Y170688D01*
X292100Y170688D02*
X292100Y184912D01*
D15*
X275336Y304800D02*
X258064Y304800D01*
X258064Y330200D02*
X275336Y330200D01*
X275336Y355600D02*
X258064Y355600D01*
D16*
X88900Y38100D03*
X114300Y38100D03*
X114300Y114300D03*
X88900Y114300D03*
X139700Y38100D03*
X165100Y38100D03*
X139700Y114300D03*
X165100Y114300D03*
X241300Y38100D03*
X266700Y38100D03*
X266700Y114300D03*
X241300Y114300D03*
X292100Y38100D03*
X317500Y38100D03*
X292100Y114300D03*
X317500Y114300D03*
D10*
X58928Y228600D02*
X42672Y228600D01*
X42672Y203200D02*
X58928Y203200D01*
X753872Y228600D02*
X770128Y228600D01*
X770128Y203200D02*
X753872Y203200D01*
D17*
X508000Y63500D03*
X508000Y114300D03*
D18*
X393700Y241300D03*
X393700Y190500D03*
X419100Y241300D03*
X419100Y190500D03*
D19*
X203200Y114300D03*
D20*
X190500Y101600D01*
X190500Y76200D01*
X215900Y50800D01*
D19*
X215900Y50800D03*
D20*
X393700Y38100D02*
X406400Y38100D01*
X355600Y76200D02*
X355600Y139700D01*
X317500Y177800D01*
X292100Y177800D01*
X355600Y76200D02*
X393700Y38100D01*
D19*
X330200Y203200D03*
D20*
X368300Y203200D01*
X393700Y228600D01*
X495300Y228600D01*
X558800Y292100D01*
X609600Y292100D01*
X698500Y203200D01*
X762000Y203200D01*
D19*
X330200Y228600D03*
D20*
X355600Y228600D01*
X381000Y254000D01*
X495300Y254000D01*
X622300Y304800D02*
X698500Y228600D01*
X762000Y228600D01*
X546100Y304800D02*
X495300Y254000D01*
X546100Y304800D02*
X622300Y304800D01*
X292100Y114300D02*
X266700Y139700D01*
X266700Y177800D01*
X152400Y127000D02*
X139700Y114300D01*
X152400Y203200D02*
X177800Y228600D01*
X241300Y228600D01*
X266700Y254000D01*
X152400Y203200D02*
X152400Y127000D01*
D19*
X190500Y152400D03*
D20*
X203200Y152400D01*
X215900Y139700D01*
X215900Y88900D01*
X266700Y38100D01*
X114300Y38100D02*
X101600Y50800D01*
X101600Y215900D02*
X139700Y254000D01*
X101600Y215900D02*
X101600Y50800D01*
X279400Y50800D02*
X292100Y38100D01*
X279400Y50800D02*
X254000Y76200D01*
X254000Y127000D01*
X241300Y139700D01*
D19*
X241300Y139700D03*
D20*
X254000Y215900D02*
X292100Y254000D01*
X254000Y215900D02*
X190500Y215900D01*
X177800Y203200D01*
X177800Y76200D02*
X139700Y38100D01*
X177800Y76200D02*
X177800Y203200D01*
X596900Y266700D02*
X609600Y266700D01*
X685800Y190500D01*
X685800Y50800D01*
X698500Y38100D01*
X711200Y38100D01*
X546100Y215900D02*
X571500Y241300D01*
X546100Y215900D02*
X457200Y215900D01*
X546100Y190500D02*
X571500Y215900D01*
X546100Y190500D02*
X457200Y190500D01*
X546100Y165100D02*
X571500Y190500D01*
X546100Y165100D02*
X457200Y165100D01*
X508000Y63500D02*
X571500Y63500D01*
M02*
