G04 EAGLE Gerber X2 export*
%TF.Part,Single*%
%TF.FileFunction,Other,L?tstopmaske Best?ckungsseite*%
%TF.FilePolarity,Positive*%
%TF.GenerationSoftware,Autodesk,EAGLE,9.0.1*%
%TF.CreationDate,2019-02-04T08:38:18Z*%
G75*
%MOMM*%
%FSLAX34Y34*%
%LPD*%
%AMOC8*
5,1,8,0,0,1.08239X$1,22.5*%
G01*
%ADD10C,4.203200*%
%ADD11C,1.828800*%
%ADD12P,1.759533X8X22.500000*%
%ADD13P,1.759533X8X202.500000*%
%ADD14P,1.979475X8X112.500000*%
%ADD15C,1.625600*%
%ADD16C,1.930400*%
%ADD17C,3.505200*%
%ADD18C,1.625600*%
%ADD19P,1.759533X8X112.500000*%
%ADD20P,1.759533X8X292.500000*%
%ADD21C,1.061200*%


D10*
X38100Y393700D03*
X38100Y38100D03*
X774700Y38100D03*
X774700Y393700D03*
D11*
X330200Y351028D02*
X330200Y334772D01*
X355600Y334772D02*
X355600Y351028D01*
D12*
X330200Y279400D03*
X355600Y279400D03*
X393700Y279400D03*
X419100Y279400D03*
D13*
X419100Y355600D03*
X393700Y355600D03*
D14*
X571500Y38100D03*
X596900Y38100D03*
X571500Y63500D03*
X596900Y63500D03*
X571500Y88900D03*
X596900Y88900D03*
X571500Y114300D03*
X596900Y114300D03*
X571500Y139700D03*
X596900Y139700D03*
X571500Y165100D03*
X596900Y165100D03*
X571500Y190500D03*
X596900Y190500D03*
X571500Y215900D03*
X596900Y215900D03*
X571500Y241300D03*
X596900Y241300D03*
X571500Y266700D03*
X596900Y266700D03*
D11*
X465328Y393700D02*
X449072Y393700D01*
X449072Y368300D02*
X465328Y368300D01*
X465328Y342900D02*
X449072Y342900D01*
X449072Y317500D02*
X465328Y317500D01*
X465328Y292100D02*
X449072Y292100D01*
X449072Y266700D02*
X465328Y266700D01*
X465328Y241300D02*
X449072Y241300D01*
X449072Y215900D02*
X465328Y215900D01*
X465328Y190500D02*
X449072Y190500D01*
X449072Y165100D02*
X465328Y165100D01*
X465328Y139700D02*
X449072Y139700D01*
X449072Y114300D02*
X465328Y114300D01*
X465328Y88900D02*
X449072Y88900D01*
X449072Y63500D02*
X465328Y63500D01*
X465328Y38100D02*
X449072Y38100D01*
X703072Y38100D02*
X719328Y38100D01*
X719328Y63500D02*
X703072Y63500D01*
X703072Y88900D02*
X719328Y88900D01*
X719328Y114300D02*
X703072Y114300D01*
X703072Y139700D02*
X719328Y139700D01*
X719328Y165100D02*
X703072Y165100D01*
X703072Y190500D02*
X719328Y190500D01*
X719328Y215900D02*
X703072Y215900D01*
X703072Y241300D02*
X719328Y241300D01*
X719328Y266700D02*
X703072Y266700D01*
X703072Y292100D02*
X719328Y292100D01*
X719328Y317500D02*
X703072Y317500D01*
X703072Y342900D02*
X719328Y342900D01*
X719328Y368300D02*
X703072Y368300D01*
X703072Y393700D02*
X719328Y393700D01*
X414528Y38100D02*
X398272Y38100D01*
X398272Y63500D02*
X414528Y63500D01*
X414528Y88900D02*
X398272Y88900D01*
X398272Y114300D02*
X414528Y114300D01*
D15*
X292100Y246888D02*
X292100Y261112D01*
X266700Y261112D02*
X266700Y246888D01*
X139700Y246888D02*
X139700Y261112D01*
X114300Y261112D02*
X114300Y246888D01*
X241300Y246888D02*
X241300Y261112D01*
X215900Y261112D02*
X215900Y246888D01*
X165100Y246888D02*
X165100Y261112D01*
X190500Y261112D02*
X190500Y246888D01*
X114300Y184912D02*
X114300Y170688D01*
X139700Y170688D02*
X139700Y184912D01*
X165100Y184912D02*
X165100Y170688D01*
X190500Y170688D02*
X190500Y184912D01*
X215900Y184912D02*
X215900Y170688D01*
X241300Y170688D02*
X241300Y184912D01*
X266700Y184912D02*
X266700Y170688D01*
X292100Y170688D02*
X292100Y184912D01*
D16*
X275336Y304800D02*
X258064Y304800D01*
X258064Y330200D02*
X275336Y330200D01*
X275336Y355600D02*
X258064Y355600D01*
D17*
X116840Y330200D03*
D18*
X88900Y38100D03*
X114300Y38100D03*
X114300Y114300D03*
X88900Y114300D03*
X139700Y38100D03*
X165100Y38100D03*
X139700Y114300D03*
X165100Y114300D03*
X241300Y38100D03*
X266700Y38100D03*
X266700Y114300D03*
X241300Y114300D03*
X292100Y38100D03*
X317500Y38100D03*
X292100Y114300D03*
X317500Y114300D03*
D11*
X58928Y228600D02*
X42672Y228600D01*
X42672Y203200D02*
X58928Y203200D01*
X753872Y228600D02*
X770128Y228600D01*
X770128Y203200D02*
X753872Y203200D01*
D19*
X508000Y63500D03*
X508000Y114300D03*
D20*
X393700Y241300D03*
X393700Y190500D03*
X419100Y241300D03*
X419100Y190500D03*
D21*
X203200Y114300D03*
X215900Y50800D03*
X330200Y203200D03*
X330200Y228600D03*
X190500Y152400D03*
X241300Y139700D03*
M02*
